<svg id="ewo458r81nn1" xmlns="http://www.w3.org/2000/svg" xmlns:xlink="http://www.w3.org/1999/xlink" viewBox="0 0 325.467000 325.265000" shape-rendering="geometricPrecision" text-rendering="geometricPrecision"><style><![CDATA[#ewo458r81nn1{pointer-events: all}#ewo458r81nn1 * {animation-play-state: paused !important}#ewo458r81nn1:hover * {animation-play-state: running !important}#ewo458r81nn3_tr {animation: ewo458r81nn3_tr__tr 2300ms linear infinite normal forwards}@keyframes ewo458r81nn3_tr__tr { 0% {transform: translate(457.769541px,333.586794px) rotate(0deg)} 100% {transform: translate(457.769541px,333.586794px) rotate(360deg)} }]]></style><g id="ewo458r81nn2" transform="matrix(1 0 0 1 -294.85800000000000 -170.97700000000000)"><g id="ewo458r81nn3_tr" transform="translate(457.769541,333.586794) rotate(0)"><g id="ewo458r81nn3" transform="scale(1,1) translate(-457.738846,-333.099945)"><g id="ewo458r81nn4" transform="matrix(-0.25900000000000 0.96600000000000 -0.96600000000000 -0.25900000000000 898.21600000000001 -22.95300000000000)"><path id="ewo458r81nn5" d="M381.735000,501.821000L374.900000,477.413000L389.545000,469.603000L405.654000,485.224000L427.621000,480.342000L432.503000,459.351000L452.517000,459.351000L457.887000,480.342000L476.437000,485.224000L494.010000,469.600000L507.678000,477.410000L504.261000,501.818000L515.977000,513.534000L539.408000,510.117000L547.708000,524.762000L533.552000,543.312000L536.969000,558.445000L557.469000,567.232000L557.469000,584.805000L536.969000,592.615000L531.599000,609.215000L547.708000,629.229000L539.408000,642.897000L515.977000,637.039000L504.261000,649.731000L507.678000,671.210000L493.608000,680.460000L476.437000,665.840000L457.887000,671.210000L452.517000,692.689000L432.500000,692.689000L424.690000,671.210000L408.581000,665.840000L391.981000,682.440000L374.896000,674.630000L378.801000,649.730000L366.601000,637.038000L345.124000,642.900000L335.361000,627.279000L350.982000,609.217000L348.053000,592.617000L323.645000,584.807000L323.645000,567.233000L348.053000,560.887000L353.911000,540.387000L335.361000,524.766000L343.171000,510.121000L366.602000,515.979000Z" transform="matrix(0.53000000000000 -0.84800000000000 0.84800000000000 0.53000000000000 -264.03800000000001 401.50599999999997)" fill="none" stroke="rgb(42,154,167)" stroke-width="7"/><g id="ewo458r81nn6" transform="matrix(-0.08715600000000 -0.99619500000000 0.99619500000000 -0.08715600000000 396.76600000000002 406.25200000000001)"><circle id="ewo458r81nn7" r="67.500000" transform="matrix(1 0 0 1 67.50000000000000 67.50000000000000)" fill="none" stroke="none" stroke-width="7"/><circle id="ewo458r81nn8" r="64" transform="matrix(1 0 0 1 67.50000000000000 67.50000000000000)" fill="none" stroke="rgb(42,154,167)" stroke-width="7"/></g></g></g></g><g id="ewo458r81nn9" transform="matrix(1 0 0 1 441.30000000000001 286.27699999999999)"><ellipse id="ewo458r81nn10" rx="15.551000" ry="15.625000" transform="matrix(1 0 0 1 15.55100000000000 15.62500000000000)" fill="none" stroke="none" stroke-width="7"/><ellipse id="ewo458r81nn11" rx="12.051000" ry="12.125000" transform="matrix(1 0 0 1 15.55100000000000 15.62500000000000)" fill="none" stroke="rgb(133,17,17)" stroke-width="7"/></g><g id="ewo458r81nn12" transform="matrix(1 0 0 1 441 326.52800000000002)"><path id="ewo458r81nn13" d="M10,0L21.853000,0C27.375847,0,31.853000,4.477153,31.853000,10L31.853000,51.340000L0,51.340000L0,10C0,4.477153,4.477153,0,10,0Z" fill="none" stroke="none" stroke-width="7"/><path id="ewo458r81nn14" d="M10,3.500000L21.853000,3.500000C25.442851,3.500000,28.353000,6.410149,28.353000,10L28.353000,44.340000C28.353000,46.272997,26.785997,47.840000,24.853000,47.840000L7,47.840000C5.067003,47.840000,3.500000,46.272997,3.500000,44.340000L3.500000,10C3.500000,6.410149,6.410149,3.500000,10,3.500000Z" fill="none" stroke="rgb(133,17,17)" stroke-width="7"/></g></g></svg>