<svg id="esxtw4izigj1" xmlns="http://www.w3.org/2000/svg" xmlns:xlink="http://www.w3.org/1999/xlink" viewBox="0 0 185.660000 185.660000" shape-rendering="geometricPrecision" text-rendering="geometricPrecision"><style><![CDATA[#esxtw4izigj93_tr {animation: esxtw4izigj93_tr__tr 5000ms linear infinite normal forwards}@keyframes esxtw4izigj93_tr__tr { 0% {transform: translate(93.439999px,92.849995px) rotate(0deg)} 100% {transform: translate(93.439999px,92.849995px) rotate(360deg)} }#esxtw4izigj98_tr {animation: esxtw4izigj98_tr__tr 5000ms linear infinite normal forwards}@keyframes esxtw4izigj98_tr__tr { 0% {transform: translate(92.829123px,91.867875px) rotate(-42.189981deg)} 100% {transform: translate(92.829123px,91.867875px) rotate(-405.081865deg)} }#esxtw4izigj99_tr {animation: esxtw4izigj99_tr__tr 5000ms linear infinite normal forwards}@keyframes esxtw4izigj99_tr__tr { 0% {transform: translate(92.830000px,92.830000px) rotate(0deg)} 100% {transform: translate(92.830000px,92.830000px) rotate(-360deg)} }#esxtw4izigj100_tr {animation: esxtw4izigj100_tr__tr 5000ms linear infinite normal forwards}@keyframes esxtw4izigj100_tr__tr { 0% {transform: translate(92.835005px,91.829994px) rotate(0deg)} 100% {transform: translate(92.835005px,91.829994px) rotate(-360deg)} }#esxtw4izigj108_tr {animation: esxtw4izigj108_tr__tr 5000ms linear infinite normal forwards}@keyframes esxtw4izigj108_tr__tr { 0% {transform: translate(92.830002px,92.830002px) rotate(0deg)} 100% {transform: translate(92.830002px,92.830002px) rotate(360deg)} }#esxtw4izigj113_tr {animation: esxtw4izigj113_tr__tr 5000ms linear infinite normal forwards}@keyframes esxtw4izigj113_tr__tr { 0% {transform: translate(92.830000px,92.830000px) rotate(0deg)} 100% {transform: translate(92.830000px,92.830000px) rotate(360deg)} }]]></style><circle id="esxtw4izigj2" r="0.640000" transform="matrix(1 0 0 1 148.71000000000001 46.45000000000000)" fill="none" stroke="rgb(101,200,208)" stroke-width="1" stroke-miterlimit="10"/><circle id="esxtw4izigj3" r="0.640000" transform="matrix(1 0 0 1 145.34000000000000 42.70000000000000)" fill="none" stroke="rgb(101,200,208)" stroke-width="1" stroke-miterlimit="10"/><circle id="esxtw4izigj4" r="0.640000" transform="matrix(1 0 0 1 141.71000000000001 39.20000000000000)" fill="none" stroke="rgb(101,200,208)" stroke-width="1" stroke-miterlimit="10"/><circle id="esxtw4izigj5" r="0.640000" transform="matrix(1 0 0 1 137.84999999999999 35.97000000000000)" fill="none" stroke="rgb(101,200,208)" stroke-width="1" stroke-miterlimit="10"/><circle id="esxtw4izigj6" r="0.640000" transform="matrix(1 0 0 1 133.78000000000000 33.01000000000000)" fill="none" stroke="rgb(101,200,208)" stroke-width="1" stroke-miterlimit="10"/><circle id="esxtw4izigj7" r="0.640000" transform="matrix(1 0 0 1 129.50000000000000 30.34000000000000)" fill="none" stroke="rgb(101,200,208)" stroke-width="1" stroke-miterlimit="10"/><circle id="esxtw4izigj8" r="0.640000" transform="matrix(1 0 0 1 125.06000000000000 27.98000000000000)" fill="none" stroke="rgb(101,200,208)" stroke-width="1" stroke-miterlimit="10"/><circle id="esxtw4izigj9" r="0.640000" transform="matrix(1 0 0 1 120.45000000000000 25.93000000000000)" fill="none" stroke="rgb(101,200,208)" stroke-width="1" stroke-miterlimit="10"/><circle id="esxtw4izigj10" r="0.640000" transform="matrix(1 0 0 1 115.72000000000000 24.21000000000000)" fill="none" stroke="rgb(101,200,208)" stroke-width="1" stroke-miterlimit="10"/><circle id="esxtw4izigj11" r="0.640000" transform="matrix(1 0 0 1 110.88000000000000 22.82000000000000)" fill="none" stroke="rgb(101,200,208)" stroke-width="1" stroke-miterlimit="10"/><circle id="esxtw4izigj12" r="0.640000" transform="matrix(1 0 0 1 105.95000000000000 21.77000000000000)" fill="none" stroke="rgb(101,200,208)" stroke-width="1" stroke-miterlimit="10"/><circle id="esxtw4izigj13" r="0.640000" transform="matrix(1 0 0 1 100.95999999999999 21.07000000000000)" fill="none" stroke="rgb(101,200,208)" stroke-width="1" stroke-miterlimit="10"/><circle id="esxtw4izigj14" r="0.640000" transform="matrix(1 0 0 1 95.94000000000000 20.72000000000000)" fill="none" stroke="rgb(101,200,208)" stroke-width="1" stroke-miterlimit="10"/><circle id="esxtw4izigj15" r="0.640000" transform="matrix(1 0 0 1 90.90000000000001 20.73000000000000)" fill="none" stroke="rgb(101,200,208)" stroke-width="1" stroke-miterlimit="10"/><circle id="esxtw4izigj16" r="0.640000" transform="matrix(1 0 0 1 85.87000000000000 21.08000000000000)" fill="none" stroke="rgb(101,200,208)" stroke-width="1" stroke-miterlimit="10"/><circle id="esxtw4izigj17" r="0.640000" transform="matrix(1 0 0 1 80.88000000000000 21.78000000000000)" fill="none" stroke="rgb(101,200,208)" stroke-width="1" stroke-miterlimit="10"/><circle id="esxtw4izigj18" r="0.640000" transform="matrix(1 0 0 1 75.95999999999999 22.83000000000000)" fill="none" stroke="rgb(101,200,208)" stroke-width="1" stroke-miterlimit="10"/><circle id="esxtw4izigj19" r="0.640000" transform="matrix(1 0 0 1 71.12000000000000 24.22000000000000)" fill="none" stroke="rgb(101,200,208)" stroke-width="1" stroke-miterlimit="10"/><circle id="esxtw4izigj20" r="0.640000" transform="matrix(1 0 0 1 66.38000000000000 25.94000000000000)" fill="none" stroke="rgb(101,200,208)" stroke-width="1" stroke-miterlimit="10"/><circle id="esxtw4izigj21" r="0.640000" transform="matrix(1 0 0 1 61.78000000000000 28)" fill="none" stroke="rgb(101,200,208)" stroke-width="1" stroke-miterlimit="10"/><circle id="esxtw4izigj22" r="0.640000" transform="matrix(1 0 0 1 57.33000000000000 30.36000000000000)" fill="none" stroke="rgb(101,200,208)" stroke-width="1" stroke-miterlimit="10"/><circle id="esxtw4izigj23" r="0.640000" transform="matrix(1 0 0 1 53.06000000000000 33.03000000000000)" fill="none" stroke="rgb(101,200,208)" stroke-width="1" stroke-miterlimit="10"/><circle id="esxtw4izigj24" r="0.640000" transform="matrix(1 0 0 1 48.99000000000000 35.99000000000000)" fill="none" stroke="rgb(101,200,208)" stroke-width="1" stroke-miterlimit="10"/><circle id="esxtw4izigj25" r="0.640000" transform="matrix(1 0 0 1 45.13000000000000 39.23000000000000)" fill="none" stroke="rgb(101,200,208)" stroke-width="1" stroke-miterlimit="10"/><circle id="esxtw4izigj26" r="0.640000" transform="matrix(1 0 0 1 41.51000000000000 42.73000000000000)" fill="none" stroke="rgb(101,200,208)" stroke-width="1" stroke-miterlimit="10"/><circle id="esxtw4izigj27" r="0.640000" transform="matrix(1 0 0 1 38.14000000000000 46.48000000000000)" fill="none" stroke="rgb(101,200,208)" stroke-width="1" stroke-miterlimit="10"/><circle id="esxtw4izigj28" r="0.640000" transform="matrix(1 0 0 1 35.04000000000000 50.45000000000000)" fill="none" stroke="rgb(101,200,208)" stroke-width="1" stroke-miterlimit="10"/><circle id="esxtw4izigj29" r="0.640000" transform="matrix(1 0 0 1 32.22000000000000 54.63000000000000)" fill="none" stroke="rgb(101,200,208)" stroke-width="1" stroke-miterlimit="10"/><circle id="esxtw4izigj30" r="0.640000" transform="matrix(1 0 0 1 29.71000000000000 58.99000000000000)" fill="none" stroke="rgb(101,200,208)" stroke-width="1" stroke-miterlimit="10"/><circle id="esxtw4izigj31" r="0.640000" transform="matrix(1 0 0 1 27.50000000000000 63.52000000000000)" fill="none" stroke="rgb(101,200,208)" stroke-width="1" stroke-miterlimit="10"/><circle id="esxtw4izigj32" r="0.640000" transform="matrix(1 0 0 1 25.61000000000000 68.19000000000000)" fill="none" stroke="rgb(101,200,208)" stroke-width="1" stroke-miterlimit="10"/><circle id="esxtw4izigj33" r="0.640000" transform="matrix(1 0 0 1 24.06000000000000 72.98000000000000)" fill="none" stroke="rgb(101,200,208)" stroke-width="1" stroke-miterlimit="10"/><circle id="esxtw4izigj34" r="0.640000" transform="matrix(1 0 0 1 22.84000000000000 77.87000000000000)" fill="none" stroke="rgb(101,200,208)" stroke-width="1" stroke-miterlimit="10"/><circle id="esxtw4izigj35" r="0.640000" transform="matrix(1 0 0 1 21.97000000000000 82.83000000000000)" fill="none" stroke="rgb(101,200,208)" stroke-width="1" stroke-miterlimit="10"/><circle id="esxtw4izigj36" r="0.640000" transform="matrix(1 0 0 1 21.44000000000000 87.84000000000000)" fill="none" stroke="rgb(101,200,208)" stroke-width="1" stroke-miterlimit="10"/><circle id="esxtw4izigj37" r="0.640000" transform="matrix(1 0 0 1 21.27000000000000 92.87000000000000)" fill="none" stroke="rgb(101,200,208)" stroke-width="1" stroke-miterlimit="10"/><circle id="esxtw4izigj38" r="0.640000" transform="matrix(1 0 0 1 21.44000000000000 97.91000000000000)" fill="none" stroke="rgb(101,200,208)" stroke-width="1" stroke-miterlimit="10"/><circle id="esxtw4izigj39" r="0.640000" transform="matrix(1 0 0 1 21.97000000000000 102.92000000000000)" fill="none" stroke="rgb(101,200,208)" stroke-width="1" stroke-miterlimit="10"/><circle id="esxtw4izigj40" r="0.640000" transform="matrix(1 0 0 1 22.85000000000000 107.88000000000000)" fill="none" stroke="rgb(101,200,208)" stroke-width="1" stroke-miterlimit="10"/><circle id="esxtw4izigj41" r="0.640000" transform="matrix(1 0 0 1 24.07000000000000 112.77000000000000)" fill="none" stroke="rgb(101,200,208)" stroke-width="1" stroke-miterlimit="10"/><circle id="esxtw4izigj42" r="0.640000" transform="matrix(1 0 0 1 25.63000000000000 117.56000000000000)" fill="none" stroke="rgb(101,200,208)" stroke-width="1" stroke-miterlimit="10"/><circle id="esxtw4izigj43" r="0.640000" transform="matrix(1 0 0 1 27.52000000000000 122.23000000000000)" fill="none" stroke="rgb(101,200,208)" stroke-width="1" stroke-miterlimit="10"/><circle id="esxtw4izigj44" r="0.640000" transform="matrix(1 0 0 1 29.73000000000000 126.75000000000000)" fill="none" stroke="rgb(101,200,208)" stroke-width="1" stroke-miterlimit="10"/><circle id="esxtw4izigj45" r="0.640000" transform="matrix(1 0 0 1 32.25000000000000 131.11000000000001)" fill="none" stroke="rgb(101,200,208)" stroke-width="1" stroke-miterlimit="10"/><circle id="esxtw4izigj46" r="0.640000" transform="matrix(1 0 0 1 35.06000000000000 135.28999999999999)" fill="none" stroke="rgb(101,200,208)" stroke-width="1" stroke-miterlimit="10"/><circle id="esxtw4izigj47" r="0.640000" transform="matrix(1 0 0 1 38.17000000000000 139.25999999999999)" fill="none" stroke="rgb(101,200,208)" stroke-width="1" stroke-miterlimit="10"/><circle id="esxtw4izigj48" r="0.640000" transform="matrix(1 0 0 1 41.54000000000000 143)" fill="none" stroke="rgb(101,200,208)" stroke-width="1" stroke-miterlimit="10"/><circle id="esxtw4izigj49" r="0.640000" transform="matrix(1 0 0 1 45.16000000000000 146.50000000000000)" fill="none" stroke="rgb(101,200,208)" stroke-width="1" stroke-miterlimit="10"/><circle id="esxtw4izigj50" r="0.640000" transform="matrix(1 0 0 1 49.02000000000000 149.74000000000001)" fill="none" stroke="rgb(101,200,208)" stroke-width="1" stroke-miterlimit="10"/><circle id="esxtw4izigj51" r="0.640000" transform="matrix(1 0 0 1 53.10000000000000 152.69999999999999)" fill="none" stroke="rgb(101,200,208)" stroke-width="1" stroke-miterlimit="10"/><circle id="esxtw4izigj52" r="0.640000" transform="matrix(1 0 0 1 57.37000000000000 155.36000000000001)" fill="none" stroke="rgb(101,200,208)" stroke-width="1" stroke-miterlimit="10"/><circle id="esxtw4izigj53" r="0.640000" transform="matrix(1 0 0 1 61.82000000000000 157.72999999999999)" fill="none" stroke="rgb(101,200,208)" stroke-width="1" stroke-miterlimit="10"/><circle id="esxtw4izigj54" r="0.640000" transform="matrix(1 0 0 1 66.42000000000000 159.77000000000001)" fill="none" stroke="rgb(101,200,208)" stroke-width="1" stroke-miterlimit="10"/><circle id="esxtw4izigj55" r="0.640000" transform="matrix(1 0 0 1 71.16000000000000 161.50000000000000)" fill="none" stroke="rgb(101,200,208)" stroke-width="1" stroke-miterlimit="10"/><circle id="esxtw4izigj56" r="0.640000" transform="matrix(1 0 0 1 76 162.88000000000000)" fill="none" stroke="rgb(101,200,208)" stroke-width="1" stroke-miterlimit="10"/><circle id="esxtw4izigj57" r="0.640000" transform="matrix(1 0 0 1 80.93000000000001 163.93000000000001)" fill="none" stroke="rgb(101,200,208)" stroke-width="1" stroke-miterlimit="10"/><circle id="esxtw4izigj58" r="0.640000" transform="matrix(1 0 0 1 85.92000000000000 164.63000000000000)" fill="none" stroke="rgb(101,200,208)" stroke-width="1" stroke-miterlimit="10"/><circle id="esxtw4izigj59" r="0.640000" transform="matrix(1 0 0 1 90.94000000000000 164.97999999999999)" fill="none" stroke="rgb(101,200,208)" stroke-width="1" stroke-miterlimit="10"/><circle id="esxtw4izigj60" r="0.640000" transform="matrix(1 0 0 1 95.98000000000000 164.97999999999999)" fill="none" stroke="rgb(101,200,208)" stroke-width="1" stroke-miterlimit="10"/><circle id="esxtw4izigj61" r="0.640000" transform="matrix(1 0 0 1 101 164.62000000000000)" fill="none" stroke="rgb(101,200,208)" stroke-width="1" stroke-miterlimit="10"/><circle id="esxtw4izigj62" r="0.640000" transform="matrix(1 0 0 1 105.98999999999999 163.91999999999999)" fill="none" stroke="rgb(101,200,208)" stroke-width="1" stroke-miterlimit="10"/><circle id="esxtw4izigj63" r="0.640000" transform="matrix(1 0 0 1 110.92000000000000 162.87000000000000)" fill="none" stroke="rgb(101,200,208)" stroke-width="1" stroke-miterlimit="10"/><circle id="esxtw4izigj64" r="0.640000" transform="matrix(1 0 0 1 115.76000000000001 161.47999999999999)" fill="none" stroke="rgb(101,200,208)" stroke-width="1" stroke-miterlimit="10"/><circle id="esxtw4izigj65" r="0.640000" transform="matrix(1 0 0 1 120.48999999999999 159.75999999999999)" fill="none" stroke="rgb(101,200,208)" stroke-width="1" stroke-miterlimit="10"/><circle id="esxtw4izigj66" r="0.640000" transform="matrix(1 0 0 1 125.09000000000000 157.71000000000001)" fill="none" stroke="rgb(101,200,208)" stroke-width="1" stroke-miterlimit="10"/><circle id="esxtw4izigj67" r="0.640000" transform="matrix(1 0 0 1 129.53999999999999 155.34000000000000)" fill="none" stroke="rgb(101,200,208)" stroke-width="1" stroke-miterlimit="10"/><circle id="esxtw4izigj68" r="0.640000" transform="matrix(1 0 0 1 133.81000000000000 152.66999999999999)" fill="none" stroke="rgb(101,200,208)" stroke-width="1" stroke-miterlimit="10"/><circle id="esxtw4izigj69" r="0.640000" transform="matrix(1 0 0 1 137.88999999999999 149.71000000000001)" fill="none" stroke="rgb(101,200,208)" stroke-width="1" stroke-miterlimit="10"/><circle id="esxtw4izigj70" r="0.640000" transform="matrix(1 0 0 1 141.75000000000000 146.47000000000000)" fill="none" stroke="rgb(101,200,208)" stroke-width="1" stroke-miterlimit="10"/><circle id="esxtw4izigj71" r="0.640000" transform="matrix(1 0 0 1 145.37000000000000 142.97000000000000)" fill="none" stroke="rgb(101,200,208)" stroke-width="1" stroke-miterlimit="10"/><circle id="esxtw4izigj72" r="0.640000" transform="matrix(1 0 0 1 148.74000000000001 139.22999999999999)" fill="none" stroke="rgb(101,200,208)" stroke-width="1" stroke-miterlimit="10"/><circle id="esxtw4izigj73" r="0.640000" transform="matrix(1 0 0 1 151.84000000000000 135.25999999999999)" fill="none" stroke="rgb(101,200,208)" stroke-width="1" stroke-miterlimit="10"/><circle id="esxtw4izigj74" r="0.640000" transform="matrix(1 0 0 1 154.65000000000001 131.08000000000001)" fill="none" stroke="rgb(101,200,208)" stroke-width="1" stroke-miterlimit="10"/><circle id="esxtw4izigj75" r="0.640000" transform="matrix(1 0 0 1 157.16999999999999 126.70999999999999)" fill="none" stroke="rgb(101,200,208)" stroke-width="1" stroke-miterlimit="10"/><circle id="esxtw4izigj76" r="0.640000" transform="matrix(1 0 0 1 159.38000000000000 122.19000000000000)" fill="none" stroke="rgb(101,200,208)" stroke-width="1" stroke-miterlimit="10"/><circle id="esxtw4izigj77" r="0.640000" transform="matrix(1 0 0 1 161.25999999999999 117.52000000000000)" fill="none" stroke="rgb(101,200,208)" stroke-width="1" stroke-miterlimit="10"/><circle id="esxtw4izigj78" r="0.640000" transform="matrix(1 0 0 1 162.81999999999999 112.72000000000000)" fill="none" stroke="rgb(101,200,208)" stroke-width="1" stroke-miterlimit="10"/><circle id="esxtw4izigj79" r="0.640000" transform="matrix(1 0 0 1 164.03999999999999 107.84000000000000)" fill="none" stroke="rgb(101,200,208)" stroke-width="1" stroke-miterlimit="10"/><circle id="esxtw4izigj80" r="0.640000" transform="matrix(1 0 0 1 164.91000000000000 102.87000000000000)" fill="none" stroke="rgb(101,200,208)" stroke-width="1" stroke-miterlimit="10"/><circle id="esxtw4izigj81" r="0.640000" transform="matrix(1 0 0 1 165.43000000000001 97.87000000000000)" fill="none" stroke="rgb(101,200,208)" stroke-width="1" stroke-miterlimit="10"/><circle id="esxtw4izigj82" r="0.640000" transform="matrix(1 0 0 1 165.61000000000001 92.83000000000000)" fill="none" stroke="rgb(101,200,208)" stroke-width="1" stroke-miterlimit="10"/><circle id="esxtw4izigj83" r="0.640000" transform="matrix(1 0 0 1 165.43000000000001 87.80000000000000)" fill="none" stroke="rgb(101,200,208)" stroke-width="1" stroke-miterlimit="10"/><circle id="esxtw4izigj84" r="0.640000" transform="matrix(1 0 0 1 164.90000000000001 82.79000000000001)" fill="none" stroke="rgb(101,200,208)" stroke-width="1" stroke-miterlimit="10"/><circle id="esxtw4izigj85" r="0.640000" transform="matrix(1 0 0 1 164.03000000000000 77.83000000000000)" fill="none" stroke="rgb(101,200,208)" stroke-width="1" stroke-miterlimit="10"/><circle id="esxtw4izigj86" r="0.640000" transform="matrix(1 0 0 1 162.81000000000000 72.94000000000000)" fill="none" stroke="rgb(101,200,208)" stroke-width="1" stroke-miterlimit="10"/><circle id="esxtw4izigj87" r="0.640000" transform="matrix(1 0 0 1 161.25000000000000 68.15000000000001)" fill="none" stroke="rgb(101,200,208)" stroke-width="1" stroke-miterlimit="10"/><circle id="esxtw4izigj88" r="0.640000" transform="matrix(1 0 0 1 159.36000000000001 63.48000000000000)" fill="none" stroke="rgb(101,200,208)" stroke-width="1" stroke-miterlimit="10"/><circle id="esxtw4izigj89" r="0.640000" transform="matrix(1 0 0 1 157.15000000000001 58.95000000000000)" fill="none" stroke="rgb(101,200,208)" stroke-width="1" stroke-miterlimit="10"/><circle id="esxtw4izigj90" r="0.640000" transform="matrix(1 0 0 1 154.63000000000000 54.59000000000000)" fill="none" stroke="rgb(101,200,208)" stroke-width="1" stroke-miterlimit="10"/><circle id="esxtw4izigj91" r="0.640000" transform="matrix(1 0 0 1 151.81000000000000 50.41000000000000)" fill="none" stroke="rgb(101,200,208)" stroke-width="1" stroke-miterlimit="10"/><circle id="esxtw4izigj92" r="63.960000" transform="matrix(1 0 0 1 93.06000000000000 92.89000000000000)" fill="none" stroke="rgb(0,255,255)" stroke-width="2.070000" stroke-linecap="round" stroke-linejoin="round"/><g id="esxtw4izigj93_tr" transform="translate(93.439999,92.849995) rotate(0)"><g id="esxtw4izigj93" transform="translate(-93.439999,-92.849995)"><polyline id="esxtw4izigj94" points="61.610000,104.200000 52.190000,95.410000 60.970000,85.990000" fill="none" stroke="rgb(0,255,255)" stroke-width="1.710000" stroke-linecap="round" stroke-linejoin="round"/><polyline id="esxtw4izigj95" points="84.330000,60.940000 93.110000,51.520000 102.530000,60.310000" fill="none" stroke="rgb(0,255,255)" stroke-width="1.710000" stroke-linecap="round" stroke-linejoin="round"/><polyline id="esxtw4izigj96" points="125.270000,81.510000 134.690000,90.290000 125.900000,99.720000" fill="none" stroke="rgb(0,255,255)" stroke-width="1.710000" stroke-linecap="round" stroke-linejoin="round"/><polyline id="esxtw4izigj97" points="102.550000,124.760000 93.760000,134.180000 84.340000,125.400000" fill="none" stroke="rgb(0,255,255)" stroke-width="1.710000" stroke-linecap="round" stroke-linejoin="round"/></g></g><g id="esxtw4izigj98_tr" transform="translate(92.829123,91.867875) rotate(-42.189981)"><circle id="esxtw4izigj98" r="16.510000" transform="scale(1,1) translate(-0,-0)" fill="none" stroke="rgb(0,255,255)" stroke-width="1.850000" stroke-linecap="square" stroke-miterlimit="10" stroke-dasharray="25.920000,25.920000"/></g><g id="esxtw4izigj99_tr" transform="translate(92.830000,92.830000) rotate(0)"><circle id="esxtw4izigj99" r="57.180000" transform="translate(0,0)" fill="none" stroke="rgb(0,255,255)" stroke-width="0.500000" stroke-linecap="round" stroke-miterlimit="10" stroke-dasharray="52.930000,18.900000"/></g><g id="esxtw4izigj100_tr" transform="translate(92.835005,91.829994) rotate(0)"><g id="esxtw4izigj100" transform="scale(0.713512,0.671508) translate(-92.835005,-91.829994)"><line id="esxtw4izigj101" x1="2.650000" y1="82.230000" x2="74.690000" y2="91.590000" opacity="0.42" fill="none" stroke="rgb(0,255,255)" stroke-width="0.500000" stroke-miterlimit="10"/><line id="esxtw4izigj102" x1="56.050000" y1="8.930000" x2="83.970000" y2="76" opacity="0.42" fill="none" stroke="rgb(0,255,255)" stroke-width="0.500000" stroke-miterlimit="10"/><line id="esxtw4izigj103" x1="183.020000" y1="101.430000" x2="110.980000" y2="92.070000" opacity="0.42" fill="none" stroke="rgb(0,255,255)" stroke-width="0.500000" stroke-miterlimit="10"/><line id="esxtw4izigj104" x1="146.240000" y1="18.530000" x2="102.110000" y2="76.240000" opacity="0.42" fill="none" stroke="rgb(0,255,255)" stroke-width="0.500000" stroke-miterlimit="10"/><line id="esxtw4izigj105" x1="39.430000" y1="165.130000" x2="83.550000" y2="107.430000" opacity="0.42" fill="none" stroke="rgb(0,255,255)" stroke-width="0.500000" stroke-miterlimit="10"/><line id="esxtw4izigj106" x1="129.610000" y1="174.730000" x2="101.700000" y2="107.670000" opacity="0.42" fill="none" stroke="rgb(0,255,255)" stroke-width="0.500000" stroke-miterlimit="10"/></g></g><circle id="esxtw4izigj107" r="92.580000" transform="matrix(1 0 0 1 92.83000000000000 92.83000000000000)" fill="none" stroke="rgb(0,255,255)" stroke-width="0.500000" stroke-miterlimit="10"/><g id="esxtw4izigj108_tr" transform="translate(92.830002,92.830002) rotate(0)"><g id="esxtw4izigj108" transform="translate(-92.830002,-92.830002)"><rect id="esxtw4izigj109" width="8.850000" height="13.960000" rx="0" ry="0" transform="matrix(0.98768800000000 0.15643400000000 -0.15643400000000 0.98768800000000 98.68038546000000 29.79431778000000)" fill="rgb(0,255,255)" stroke="rgb(0,255,255)" stroke-width="0.500000" stroke-miterlimit="10"/><rect id="esxtw4izigj110" width="8.850000" height="13.960000" rx="0" ry="0" transform="matrix(0.45399000000000 -0.89100700000000 0.89100700000000 0.45399000000000 34.47535739000003 68.03361089000005)" fill="rgb(0,255,255)" stroke="rgb(0,255,255)" stroke-width="0.500000" stroke-miterlimit="10"/><rect id="esxtw4izigj111" width="8.850000" height="13.960000" rx="0" ry="0" transform="matrix(0.15643400000000 0.98768800000000 -0.98768800000000 0.15643400000000 154.90172845999996 79.04509871999994)" fill="rgb(0,255,255)" stroke="rgb(0,255,255)" stroke-width="0.500000" stroke-miterlimit="10"/><rect id="esxtw4izigj112" width="8.850000" height="13.960000" rx="0" ry="0" transform="matrix(-0.70710700000000 -0.70710700000000 0.70710700000000 -0.70710700000000 51.00590270999996 140.92792292999997)" fill="rgb(0,255,255)" stroke="rgb(0,255,255)" stroke-width="0.500000" stroke-miterlimit="10"/><g id="esxtw4izigj113_tr" transform="translate(92.830000,92.830000) rotate(0)"><circle id="esxtw4izigj113" r="83.050000" transform="translate(0,0)" fill="none" stroke="rgb(0,255,255)" stroke-width="1.990000" stroke-linecap="round" stroke-linejoin="round" stroke-dasharray="69.500000"/></g><rect id="esxtw4izigj114" width="8.850000" height="13.960000" rx="0" ry="0" transform="matrix(-0.89100700000000 0.45399000000000 -0.45399000000000 -0.89100700000000 125.43377754999989 147.72731999000007)" fill="rgb(0,255,255)" stroke="rgb(0,255,255)" stroke-width="0.500000" stroke-miterlimit="10"/></g></g></svg>
