<svg id="ecytpdc2n21t1" xmlns="http://www.w3.org/2000/svg" xmlns:xlink="http://www.w3.org/1999/xlink" viewBox="0 0 414 414" shape-rendering="geometricPrecision" text-rendering="geometricPrecision"><style><![CDATA[#ecytpdc2n21t72_tr {animation: ecytpdc2n21t72_tr__tr 12000ms linear infinite normal forwards}@keyframes ecytpdc2n21t72_tr__tr { 0% {transform: translate(750.431488px,749.665070px) rotate(0deg)} 5.833333% {transform: translate(750.431488px,749.665070px) rotate(-24.869834deg)} 9.166667% {transform: translate(750.431488px,749.665070px) rotate(-19.650680deg)} 16.666667% {transform: translate(750.431488px,749.665070px) rotate(-61.772913deg)} 22.500000% {transform: translate(750.431488px,749.665070px) rotate(-55.601889deg)} 25.833333% {transform: translate(750.431488px,749.665070px) rotate(-60.803841deg)} 28.333333% {transform: translate(750.431488px,749.665070px) rotate(-43.838505deg)} 33.333333% {transform: translate(750.431488px,749.665070px) rotate(-105.319180deg)} 38.333333% {transform: translate(750.431488px,749.665070px) rotate(-82.181077deg)} 50% {transform: translate(750.431488px,749.665070px) rotate(-371.460859deg);animation-timing-function: cubic-bezier(0.600000,0.040000,0.980000,0.335000)} 61.666667% {transform: translate(750.431488px,749.665070px) rotate(-82.181077deg);animation-timing-function: cubic-bezier(0.600000,0.040000,0.980000,0.335000)} 66.666667% {transform: translate(750.431488px,749.665070px) rotate(-105.319180deg);animation-timing-function: cubic-bezier(0.600000,0.040000,0.980000,0.335000)} 71.666667% {transform: translate(750.431488px,749.665070px) rotate(-43.838505deg);animation-timing-function: cubic-bezier(0.600000,0.040000,0.980000,0.335000)} 74.166667% {transform: translate(750.431488px,749.665070px) rotate(-60.803841deg);animation-timing-function: cubic-bezier(0.600000,0.040000,0.980000,0.335000)} 77.500000% {transform: translate(750.431488px,749.665070px) rotate(-55.601889deg);animation-timing-function: cubic-bezier(0.600000,0.040000,0.980000,0.335000)} 83.333333% {transform: translate(750.431488px,749.665070px) rotate(-61.772913deg);animation-timing-function: cubic-bezier(0.600000,0.040000,0.980000,0.335000)} 90.833333% {transform: translate(750.431488px,749.665070px) rotate(-19.650680deg);animation-timing-function: cubic-bezier(0.600000,0.040000,0.980000,0.335000)} 94.166667% {transform: translate(750.431488px,749.665070px) rotate(-24.869834deg);animation-timing-function: cubic-bezier(0.600000,0.040000,0.980000,0.335000)} 100% {transform: translate(750.431488px,749.665070px) rotate(0deg)} }]]></style><defs><radialGradient id="ecytpdc2n21t6-fill" cx="0.500000" cy="0.500000" r="0.500000" spreadMethod="pad" gradientUnits="objectBoundingBox"><stop id="ecytpdc2n21t6-fill-0" offset="0%" stop-color="rgb(152,216,220)"/><stop id="ecytpdc2n21t6-fill-1" offset="100%" stop-color="rgb(36,38,42)"/></radialGradient></defs><g id="ecytpdc2n21t2" transform="matrix(1 0 0 1 -543 -543)"><g id="ecytpdc2n21t3" transform="matrix(1 0 0 1 543 543)"><circle id="ecytpdc2n21t4" r="207" transform="matrix(1 0 0 1 207 207)" fill="none" stroke="none" stroke-width="3" stroke-miterlimit="10"/><circle id="ecytpdc2n21t5" r="205.500000" transform="matrix(1 0 0 1 207 207)" fill="none" stroke="rgb(44,186,255)" stroke-width="3" stroke-miterlimit="10"/></g><circle id="ecytpdc2n21t6" r="188" transform="matrix(1 0 0 1 750 750)" fill="url(#ecytpdc2n21t6-fill)" stroke="none" stroke-width="1"/><g id="ecytpdc2n21t7" transform="matrix(0 1 -1 0 1498.98000000000002 2.01500000000000)"><line id="ecytpdc2n21t8" x1="0" y1="0" x2="0" y2="31" transform="matrix(1 0 0 1 748.48500000000001 545.50000000000000)" fill="none" stroke="rgb(16,150,255)" stroke-width="4" stroke-miterlimit="10"/><line id="ecytpdc2n21t9" x1="0" y1="0" x2="0" y2="31" transform="matrix(1 0 0 1 748.48500000000001 924.50000000000000)" fill="none" stroke="rgb(16,150,255)" stroke-width="4" stroke-miterlimit="10"/></g><circle id="ecytpdc2n21t10" r="130" transform="matrix(1 0 0 1 749 750)" fill="rgb(1,6,15)" stroke="none" stroke-width="1"/><line id="ecytpdc2n21t11" x1="0" y1="0" x2="0" y2="31" transform="matrix(1 0 0 1 748.48500000000001 545.50000000000000)" fill="none" stroke="rgb(16,150,255)" stroke-width="4" stroke-miterlimit="10"/><line id="ecytpdc2n21t12" x1="0" y1="0" x2="0" y2="31" transform="matrix(1 0 0 1 748.48500000000001 924.50000000000000)" fill="none" stroke="rgb(16,150,255)" stroke-width="4" stroke-miterlimit="10"/><g id="ecytpdc2n21t13"><line id="ecytpdc2n21t14" x1="0" y1="0" x2="0" y2="15" transform="matrix(0.70710700000000 -0.70710700000000 0.70710700000000 0.70710700000000 620.85299999999995 620.36699999999996)" fill="none" stroke="rgb(16,150,255)" stroke-width="1" stroke-miterlimit="10"/><line id="ecytpdc2n21t15" x1="0" y1="0" x2="0" y2="15" transform="matrix(0.70710700000000 -0.70710700000000 0.70710700000000 0.70710700000000 865.51099999999997 869.39300000000003)" fill="none" stroke="rgb(16,150,255)" stroke-width="1" stroke-miterlimit="10"/></g><g id="ecytpdc2n21t16"><line id="ecytpdc2n21t17" x1="0" y1="0" x2="0" y2="15" transform="matrix(0.70710700000000 0.70710700000000 -0.70710700000000 0.70710700000000 876.11800000000005 620.36699999999996)" fill="none" stroke="rgb(16,150,255)" stroke-width="1" stroke-miterlimit="10"/><line id="ecytpdc2n21t18" x1="0" y1="0" x2="0" y2="15" transform="matrix(0.70710700000000 0.70710700000000 -0.70710700000000 0.70710700000000 630.40899999999999 866.07700000000000)" fill="none" stroke="rgb(16,150,255)" stroke-width="1" stroke-miterlimit="10"/></g><g id="ecytpdc2n21t19" transform="matrix(0.86602500000000 -0.50000000000000 0.50000000000000 0.86602500000000 -274.85899999999998 474.48399999999998)"><line id="ecytpdc2n21t20" x1="0" y1="0" x2="0" y2="15" transform="matrix(0.70710700000000 -0.70710700000000 0.70710700000000 0.70710700000000 620.85299999999995 620.36699999999996)" fill="none" stroke="rgb(16,150,255)" stroke-width="1" stroke-miterlimit="10"/><line id="ecytpdc2n21t21" x1="0" y1="0" x2="0" y2="15" transform="matrix(0.70710700000000 -0.70710700000000 0.70710700000000 0.70710700000000 865.51099999999997 869.39300000000003)" fill="none" stroke="rgb(16,150,255)" stroke-width="1" stroke-miterlimit="10"/></g><g id="ecytpdc2n21t22" transform="matrix(0.86602500000000 -0.50000000000000 0.50000000000000 0.86602500000000 -274.85899999999998 474.48399999999998)"><line id="ecytpdc2n21t23" x1="0" y1="0" x2="0" y2="15" transform="matrix(0.70710700000000 0.70710700000000 -0.70710700000000 0.70710700000000 876.11800000000005 620.36699999999996)" fill="none" stroke="rgb(16,150,255)" stroke-width="1" stroke-miterlimit="10"/><line id="ecytpdc2n21t24" x1="0" y1="0" x2="0" y2="15" transform="matrix(0.70710700000000 0.70710700000000 -0.70710700000000 0.70710700000000 630.40899999999999 866.07700000000000)" fill="none" stroke="rgb(16,150,255)" stroke-width="1" stroke-miterlimit="10"/></g><g id="ecytpdc2n21t25" transform="matrix(0.50000000000000 -0.86602500000000 0.86602500000000 0.50000000000000 -275.54199999999997 1022.80999999999995)"><line id="ecytpdc2n21t26" x1="0" y1="0" x2="0" y2="15" transform="matrix(0.70710700000000 -0.70710700000000 0.70710700000000 0.70710700000000 620.85299999999995 620.36699999999996)" fill="none" stroke="rgb(16,150,255)" stroke-width="1" stroke-miterlimit="10"/><line id="ecytpdc2n21t27" x1="0" y1="0" x2="0" y2="15" transform="matrix(0.70710700000000 -0.70710700000000 0.70710700000000 0.70710700000000 865.51099999999997 869.39300000000003)" fill="none" stroke="rgb(16,150,255)" stroke-width="1" stroke-miterlimit="10"/></g><g id="ecytpdc2n21t28" transform="matrix(0.50000000000000 -0.86602500000000 0.86602500000000 0.50000000000000 -275.54199999999997 1022.80999999999995)"><line id="ecytpdc2n21t29" x1="0" y1="0" x2="0" y2="15" transform="matrix(0.70710700000000 0.70710700000000 -0.70710700000000 0.70710700000000 876.11800000000005 620.36699999999996)" fill="none" stroke="rgb(16,150,255)" stroke-width="1" stroke-miterlimit="10"/><line id="ecytpdc2n21t30" x1="0" y1="0" x2="0" y2="15" transform="matrix(0.70710700000000 0.70710700000000 -0.70710700000000 0.70710700000000 630.40899999999999 866.07700000000000)" fill="none" stroke="rgb(16,150,255)" stroke-width="1" stroke-miterlimit="10"/></g><g id="ecytpdc2n21t31" transform="matrix(0.25900000000000 -0.96600000000000 0.96600000000000 0.25900000000000 -169.97399999999999 1278.44000000000005)"><line id="ecytpdc2n21t32" x1="0" y1="0" x2="0" y2="15" transform="matrix(0.70710700000000 -0.70710700000000 0.70710700000000 0.70710700000000 620.85299999999995 620.36699999999996)" fill="none" stroke="rgb(16,150,255)" stroke-width="1" stroke-miterlimit="10"/><line id="ecytpdc2n21t33" x1="0" y1="0" x2="0" y2="15" transform="matrix(0.70710700000000 -0.70710700000000 0.70710700000000 0.70710700000000 865.51099999999997 869.39300000000003)" fill="none" stroke="rgb(16,150,255)" stroke-width="1" stroke-miterlimit="10"/></g><g id="ecytpdc2n21t34" transform="matrix(0.25900000000000 -0.96600000000000 0.96600000000000 0.25900000000000 -169.97399999999999 1278.44000000000005)"><line id="ecytpdc2n21t35" x1="0" y1="0" x2="0" y2="15" transform="matrix(0.70710700000000 0.70710700000000 -0.70710700000000 0.70710700000000 876.11800000000005 620.36699999999996)" fill="none" stroke="rgb(16,150,255)" stroke-width="1" stroke-miterlimit="10"/><line id="ecytpdc2n21t36" x1="0" y1="0" x2="0" y2="15" transform="matrix(0.70710700000000 0.70710700000000 -0.70710700000000 0.70710700000000 630.40899999999999 866.07700000000000)" fill="none" stroke="rgb(16,150,255)" stroke-width="1" stroke-miterlimit="10"/></g><g id="ecytpdc2n21t37" transform="matrix(-0.25900000000000 -0.96600000000000 0.96600000000000 -0.25900000000000 217.41300000000001 1666.71000000000004)"><line id="ecytpdc2n21t38" x1="0" y1="0" x2="0" y2="15" transform="matrix(0.70710700000000 -0.70710700000000 0.70710700000000 0.70710700000000 620.85299999999995 620.36699999999996)" fill="none" stroke="rgb(16,150,255)" stroke-width="1" stroke-miterlimit="10"/><line id="ecytpdc2n21t39" x1="0" y1="0" x2="0" y2="15" transform="matrix(0.70710700000000 -0.70710700000000 0.70710700000000 0.70710700000000 865.51099999999997 869.39300000000003)" fill="none" stroke="rgb(16,150,255)" stroke-width="1" stroke-miterlimit="10"/></g><g id="ecytpdc2n21t40" transform="matrix(-0.25900000000000 -0.96600000000000 0.96600000000000 -0.25900000000000 217.41300000000001 1666.71000000000004)"><line id="ecytpdc2n21t41" x1="0" y1="0" x2="0" y2="15" transform="matrix(0.70710700000000 0.70710700000000 -0.70710700000000 0.70710700000000 876.11800000000005 620.36699999999996)" fill="none" stroke="rgb(16,150,255)" stroke-width="1" stroke-miterlimit="10"/><line id="ecytpdc2n21t42" x1="0" y1="0" x2="0" y2="15" transform="matrix(0.70710700000000 0.70710700000000 -0.70710700000000 0.70710700000000 630.40899999999999 866.07700000000000)" fill="none" stroke="rgb(16,150,255)" stroke-width="1" stroke-miterlimit="10"/></g><text id="ecytpdc2n21t43" dx="0" dy="0" font-family="SegoeUI, &quot;Segoe UI&quot;" font-size="10" transform="matrix(0.96600000000000 0.25900000000000 -0.25900000000000 0.96600000000000 777.52878125000007 614.76443750000010)" fill="rgb(255,255,255)" stroke="none" stroke-width="1"><![CDATA[15]]></text><text id="ecytpdc2n21t44" dx="0" dy="0" font-family="SegoeUI, &quot;Segoe UI&quot;" font-size="10" transform="matrix(0.86602500000000 0.50000000000000 -0.50000000000000 0.86602500000000 812.53387499999997 627.79787265625009)" fill="rgb(255,255,255)" stroke="none" stroke-width="1"><![CDATA[30]]></text><text id="ecytpdc2n21t45" dx="0" dy="0" font-family="SegoeUI, &quot;Segoe UI&quot;" font-size="10" transform="matrix(0.70710700000000 0.70710700000000 -0.70710700000000 0.70710700000000 840.50599934375009 646.06595178124996)" fill="rgb(255,255,255)" stroke="none" stroke-width="1"><![CDATA[45]]></text><text id="ecytpdc2n21t46" dx="0" dy="0" font-family="SegoeUI, &quot;Segoe UI&quot;" font-size="10" transform="matrix(0.50000000000000 0.86602500000000 -0.86602500000000 0.50000000000000 864.20212734374991 677.44012499999997)" fill="rgb(255,255,255)" stroke="none" stroke-width="1"><![CDATA[60]]></text><text id="ecytpdc2n21t47" dx="0" dy="0" font-family="SegoeUI, &quot;Segoe UI&quot;" font-size="10" transform="matrix(0.25900000000000 0.96600000000000 -0.96600000000000 0.25900000000000 879.88856249999992 714.34621874999993)" fill="rgb(255,255,255)" stroke="none" stroke-width="1"><![CDATA[75]]></text><text id="ecytpdc2n21t48" dx="0" dy="0" font-family="SegoeUI, &quot;Segoe UI&quot;" font-size="10" transform="matrix(-0.25900000000000 0.96600000000000 -0.96600000000000 -0.25900000000000 882.73556249999990 783.02878125000007)" fill="rgb(255,255,255)" stroke="none" stroke-width="1"><![CDATA[105]]></text><text id="ecytpdc2n21t49" dx="0" dy="0" font-family="SegoeUI, &quot;Segoe UI&quot;" font-size="10" transform="matrix(-0.50000000000000 0.86602500000000 -0.86602500000000 -0.50000000000000 872.70212734374991 813.03387499999997)" fill="rgb(255,255,255)" stroke="none" stroke-width="1"><![CDATA[120]]></text><text id="ecytpdc2n21t50" dx="0" dy="0" font-family="SegoeUI, &quot;Segoe UI&quot;" font-size="10" transform="matrix(-0.70710700000000 0.70710700000000 -0.70710700000000 -0.70710700000000 851.37652378124994 843.97852378124992)" fill="rgb(255,255,255)" stroke="none" stroke-width="1"><![CDATA[135]]></text><text id="ecytpdc2n21t51" dx="0" dy="0" font-family="SegoeUI, &quot;Segoe UI&quot;" font-size="10" transform="matrix(-0.86602500000000 0.50000000000000 -0.50000000000000 -0.86602500000000 821.97487500000000 867.61712734374998)" fill="rgb(255,255,255)" stroke="none" stroke-width="1"><![CDATA[150]]></text><text id="ecytpdc2n21t52" dx="0" dy="0" font-family="SegoeUI, &quot;Segoe UI&quot;" font-size="10" transform="matrix(-0.96600000000000 0.25900000000000 -0.25900000000000 -0.96600000000000 789.31878125000003 881.90656249999995)" fill="rgb(255,255,255)" stroke="none" stroke-width="1"><![CDATA[165]]></text><text id="ecytpdc2n21t53" dx="0" dy="0" font-family="SegoeUI, &quot;Segoe UI&quot;" font-size="10" transform="matrix(-0.96600000000000 -0.25900000000000 0.25900000000000 -0.96600000000000 717.63521874999992 884.04756249999991)" fill="rgb(255,255,255)" stroke="none" stroke-width="1"><![CDATA[195]]></text><text id="ecytpdc2n21t54" dx="0" dy="0" font-family="SegoeUI, &quot;Segoe UI&quot;" font-size="10" transform="matrix(-0.86602500000000 -0.50000000000000 0.50000000000000 -0.86602500000000 683.38112500000000 872.61712734374998)" fill="rgb(255,255,255)" stroke="none" stroke-width="1"><![CDATA[210]]></text><text id="ecytpdc2n21t55" dx="0" dy="0" font-family="SegoeUI, &quot;Segoe UI&quot;" font-size="10" transform="matrix(-0.70710700000000 -0.70710700000000 0.70710700000000 -0.70710700000000 656.43647621875004 852.29152378125002)" fill="rgb(255,255,255)" stroke="none" stroke-width="1"><![CDATA[225]]></text><text id="ecytpdc2n21t56" dx="0" dy="0" font-family="SegoeUI, &quot;Segoe UI&quot;" font-size="10" transform="matrix(-0.50000000000000 -0.86602500000000 0.86602500000000 -0.50000000000000 629.79787265625009 822.88987499999996)" fill="rgb(255,255,255)" stroke="none" stroke-width="1"><![CDATA[240]]></text><text id="ecytpdc2n21t57" dx="0" dy="0" font-family="SegoeUI, &quot;Segoe UI&quot;" font-size="10" transform="matrix(-0.25900000000000 -0.96600000000000 0.96600000000000 -0.25900000000000 615.50843750000001 789.23378124999999)" fill="rgb(255,255,255)" stroke="none" stroke-width="1"><![CDATA[255]]></text><text id="ecytpdc2n21t58" dx="0" dy="0" font-family="SegoeUI, &quot;Segoe UI&quot;" font-size="10" transform="matrix(0.25900000000000 -0.96600000000000 0.96600000000000 0.25900000000000 608.36743750000005 720.55121874999998)" fill="rgb(255,255,255)" stroke="none" stroke-width="1"><![CDATA[285]]></text><text id="ecytpdc2n21t59" dx="0" dy="0" font-family="SegoeUI, &quot;Segoe UI&quot;" font-size="10" transform="matrix(0.50000000000000 -0.86602500000000 0.86602500000000 0.50000000000000 616.79787265625009 685.29612499999996)" fill="rgb(255,255,255)" stroke="none" stroke-width="1"><![CDATA[300]]></text><text id="ecytpdc2n21t60" dx="0" dy="0" font-family="SegoeUI, &quot;Segoe UI&quot;" font-size="10" transform="matrix(0.70710700000000 -0.70710700000000 0.70710700000000 0.70710700000000 638.12247621875008 650.35147621875001)" fill="rgb(255,255,255)" stroke="none" stroke-width="1"><![CDATA[315]]></text><text id="ecytpdc2n21t61" dx="0" dy="0" font-family="SegoeUI, &quot;Segoe UI&quot;" font-size="10" transform="matrix(0.86602500000000 -0.50000000000000 0.50000000000000 0.86602500000000 666.52512500000000 626.71287265625006)" fill="rgb(255,255,255)" stroke="none" stroke-width="1"><![CDATA[330]]></text><text id="ecytpdc2n21t62" dx="0" dy="0" font-family="SegoeUI, &quot;Segoe UI&quot;" font-size="10" transform="matrix(0.96600000000000 -0.25900000000000 0.25900000000000 0.96600000000000 702.18121874999997 609.42343750000009)" fill="rgb(255,255,255)" stroke="none" stroke-width="1"><![CDATA[345]]></text><text id="ecytpdc2n21t63" dx="0" dy="0" font-family="SegoeUI, &quot;Segoe UI&quot;" font-size="37" transform="matrix(1 0 0 1 734 636.60937500000000)" fill="rgb(44,186,255)" stroke="none" stroke-width="1"><![CDATA[N]]></text><text id="ecytpdc2n21t64" dx="0" dy="0" font-family="SegoeUI, &quot;Segoe UI&quot;" font-size="37" transform="matrix(-1 0 -0 -1 758 862.39062500000000)" fill="rgb(44,186,255)" stroke="none" stroke-width="1"><![CDATA[S]]></text><text id="ecytpdc2n21t65" dx="0" dy="0" font-family="SegoeUI, &quot;Segoe UI&quot;" font-size="37" transform="matrix(0 -1 1 0 638.10937500000000 767.50000000000000)" fill="rgb(44,186,255)" stroke="none" stroke-width="1"><![CDATA[W]]></text><text id="ecytpdc2n21t66" dx="0" dy="0" font-family="SegoeUI, &quot;Segoe UI&quot;" font-size="37" transform="matrix(0 1 -1 0 861.89062500000000 740.50000000000000)" fill="rgb(44,186,255)" stroke="none" stroke-width="1"><![CDATA[E]]></text><line id="ecytpdc2n21t67" x1="0" y1="0" x2="155" y2="0" transform="matrix(1 0 0 1 672.50000000000000 750.50000000000000)" fill="none" stroke="rgb(236,233,233)" stroke-width="1"/><ellipse id="ecytpdc2n21t68" rx="6.533000" ry="7" transform="matrix(1 0 0 1 749.53300000000002 750)" fill="rgb(255,255,255)" stroke="none" stroke-width="1"/><g id="ecytpdc2n21t69" transform="matrix(1 0 0 1 735 735)"><circle id="ecytpdc2n21t70" r="15" transform="matrix(1 0 0 1 15 15)" fill="none" stroke="none" stroke-width="4"/><circle id="ecytpdc2n21t71" r="13" transform="matrix(1 0 0 1 15 15)" fill="none" stroke="rgb(112,112,112)" stroke-width="4"/></g><g id="ecytpdc2n21t72_tr" transform="translate(750.431488,749.665070) rotate(0)"><g id="ecytpdc2n21t72" transform="translate(-750.431488,-749.665070)"><path id="ecytpdc2n21t73" d="M727.211000,1781.165000L713.183000,1878.181000C713.183000,1878.181000,719.332000,1872.657000,727.211000,1872.657000C735.090000,1872.657000,740.711000,1878.181000,740.711000,1878.181000Z" transform="matrix(1 0 0 1 23.48300000000000 -1141.50999999999999)" fill="rgb(44,186,255)" stroke="none" stroke-width="1"/><path id="ecytpdc2n21t74" d="M727.211000,1781.165000L713.183000,1878.181000C713.183000,1878.181000,719.332000,1872.657000,727.211000,1872.657000C735.090000,1872.657000,740.711000,1878.181000,740.711000,1878.181000Z" transform="matrix(-1 0 -0 -1 1477.38000000000011 2640.84000000000015)" fill="rgb(236,233,233)" stroke="none" stroke-width="1"/></g></g></g></svg>