<svg xmlns="http://www.w3.org/2000/svg" width="450.639" height="30.084" viewBox="0 0 450.639 30.084">
  <path id="Path_20" data-name="Path 20" d="M3.45-20.079a17.015,17.015,0,0,1,.862-5.278,16.121,16.121,0,0,1,2.519-4.83,13.752,13.752,0,0,1,4-3.553,10.281,10.281,0,0,1,5.313-1.38H56.373a3.194,3.194,0,0,1,2.346.966,3.194,3.194,0,0,1,.966,2.346,3.194,3.194,0,0,1-.966,2.346,3.194,3.194,0,0,1-2.346.966H17.6a7.71,7.71,0,0,0-3.9.862,7.2,7.2,0,0,0-2.346,2.1A7.382,7.382,0,0,0,10.178-22.8a13.383,13.383,0,0,0-.311,2.726,13.383,13.383,0,0,0,.311,2.726,7.382,7.382,0,0,0,1.173,2.725,7.2,7.2,0,0,0,2.346,2.1,7.71,7.71,0,0,0,3.9.862H56.373a3.194,3.194,0,0,1,2.346.966,3.194,3.194,0,0,1,.966,2.346A3.194,3.194,0,0,1,58.719-6a3.194,3.194,0,0,1-2.346.966H15.456a9.3,9.3,0,0,1-5.037-1.38A13.161,13.161,0,0,1,6.659-9.97a16.805,16.805,0,0,1-2.38-4.865A17.785,17.785,0,0,1,3.45-20.079Zm105.156,8.418a7.75,7.75,0,0,0,3.864-.862,7.106,7.106,0,0,0,2.381-2.1,7.382,7.382,0,0,0,1.173-2.725,13.383,13.383,0,0,0,.311-2.726,13.383,13.383,0,0,0-.311-2.726,7.382,7.382,0,0,0-1.173-2.726,7.106,7.106,0,0,0-2.381-2.1,7.75,7.75,0,0,0-3.864-.862H80.73a7.71,7.71,0,0,0-3.9.862,7.2,7.2,0,0,0-2.346,2.1A7.382,7.382,0,0,0,73.313-22.8,13.383,13.383,0,0,0,73-20.079a13.383,13.383,0,0,0,.311,2.726,7.382,7.382,0,0,0,1.173,2.725,7.2,7.2,0,0,0,2.346,2.1,7.71,7.71,0,0,0,3.9.862Zm14.145-8.418a17.016,17.016,0,0,1-.862,5.278,16.121,16.121,0,0,1-2.519,4.83,13.752,13.752,0,0,1-4,3.553,10.281,10.281,0,0,1-5.313,1.38H78.591A10.074,10.074,0,0,1,73.554-6.59a13.824,13.824,0,0,1-3.761-3.553,16.5,16.5,0,0,1-2.38-4.761,17.119,17.119,0,0,1-.828-5.175,17.015,17.015,0,0,1,.862-5.278,16.121,16.121,0,0,1,2.519-4.83,13.752,13.752,0,0,1,4-3.553,10.281,10.281,0,0,1,5.313-1.38h31.464a10.074,10.074,0,0,1,5.037,1.552,13.824,13.824,0,0,1,3.761,3.553,16.5,16.5,0,0,1,2.381,4.761A17.119,17.119,0,0,1,122.751-20.079Zm16.077,3.312a8.853,8.853,0,0,1-3.588-.725,9.365,9.365,0,0,1-2.9-1.966,9.364,9.364,0,0,1-1.966-2.9,8.853,8.853,0,0,1-.725-3.588,8.853,8.853,0,0,1,.725-3.588,9.364,9.364,0,0,1,1.966-2.9,9.365,9.365,0,0,1,2.9-1.966,8.853,8.853,0,0,1,3.588-.724h41.883a3.194,3.194,0,0,1,2.346.966,3.194,3.194,0,0,1,.966,2.346,3.194,3.194,0,0,1-.966,2.346,3.194,3.194,0,0,1-2.346.966H138.69a2.632,2.632,0,0,0-1.829.724,2.37,2.37,0,0,0-.794,1.829,2.4,2.4,0,0,0,.794,1.794,2.568,2.568,0,0,0,1.829.759h38.157a9.1,9.1,0,0,1,3.622.725A9.256,9.256,0,0,1,183.4-20.7a9.255,9.255,0,0,1,1.966,2.932,9.1,9.1,0,0,1,.725,3.623,8.853,8.853,0,0,1-.725,3.588,9.365,9.365,0,0,1-1.966,2.9,8.8,8.8,0,0,1-2.933,1.932,9.493,9.493,0,0,1-3.622.69H135.033A3.194,3.194,0,0,1,132.687-6a3.194,3.194,0,0,1-.966-2.346,3.194,3.194,0,0,1,.966-2.346,3.194,3.194,0,0,1,2.346-.966h42.09a2.511,2.511,0,0,0,1.794-.724,2.342,2.342,0,0,0,.759-1.759,2.533,2.533,0,0,0-.759-1.863,2.453,2.453,0,0,0-1.794-.759Zm112.4,8.418A3.194,3.194,0,0,1,250.263-6a3.194,3.194,0,0,1-2.346.966A3.194,3.194,0,0,1,245.571-6a3.194,3.194,0,0,1-.966-2.346V-23.391q0-2.829-.345-2.829-.276,0-1.932,1.863l-15.18,17.25a5.59,5.59,0,0,1-2.208,1.552,7.636,7.636,0,0,1-2.829.517,7.636,7.636,0,0,1-2.829-.517,5.589,5.589,0,0,1-2.208-1.552l-15.18-17.25q-1.587-1.863-1.932-1.863t-.345,2.829V-8.349A3.194,3.194,0,0,1,198.651-6a3.194,3.194,0,0,1-2.346.966A3.194,3.194,0,0,1,193.959-6a3.194,3.194,0,0,1-.966-2.346V-28.5a7.152,7.152,0,0,1,1.587-4.692,5.323,5.323,0,0,1,4.347-1.932,5.439,5.439,0,0,1,2.967.828,12.414,12.414,0,0,1,2.415,2l15.87,18.078a7.48,7.48,0,0,0,.863.724,1.787,1.787,0,0,0,1.069.38,1.787,1.787,0,0,0,1.07-.38,7.479,7.479,0,0,0,.863-.724l15.8-18.078h.069a7.2,7.2,0,0,1,2.346-2.07,6.2,6.2,0,0,1,3.036-.759,5.323,5.323,0,0,1,4.347,1.932,7.152,7.152,0,0,1,1.587,4.692Zm48.921-3.312a7.75,7.75,0,0,0,3.864-.862,7.106,7.106,0,0,0,2.38-2.1,7.382,7.382,0,0,0,1.173-2.725,13.383,13.383,0,0,0,.31-2.726,13.383,13.383,0,0,0-.31-2.726,7.382,7.382,0,0,0-1.173-2.726,7.106,7.106,0,0,0-2.38-2.1,7.75,7.75,0,0,0-3.864-.862H272.274a7.71,7.71,0,0,0-3.9.862,7.2,7.2,0,0,0-2.346,2.1,7.382,7.382,0,0,0-1.173,2.726,13.383,13.383,0,0,0-.311,2.726,13.383,13.383,0,0,0,.311,2.726,7.381,7.381,0,0,0,1.173,2.725,7.2,7.2,0,0,0,2.346,2.1,7.71,7.71,0,0,0,3.9.862ZM314.3-20.079a17.017,17.017,0,0,1-.863,5.278,16.121,16.121,0,0,1-2.518,4.83,13.752,13.752,0,0,1-4,3.553,10.281,10.281,0,0,1-5.313,1.38H270.135A10.074,10.074,0,0,1,265.1-6.59a13.825,13.825,0,0,1-3.76-3.553,16.5,16.5,0,0,1-2.38-4.761,17.119,17.119,0,0,1-.828-5.175,17.015,17.015,0,0,1,.863-5.278,16.121,16.121,0,0,1,2.518-4.83,13.752,13.752,0,0,1,4-3.553,10.281,10.281,0,0,1,5.313-1.38h31.464a10.074,10.074,0,0,1,5.037,1.552,13.824,13.824,0,0,1,3.761,3.553,16.5,16.5,0,0,1,2.38,4.761A17.12,17.12,0,0,1,314.3-20.079Zm25.116,0a3.194,3.194,0,0,1,.966-2.346,3.194,3.194,0,0,1,2.346-.966H369.15a8.092,8.092,0,0,1,3.243.655,8.462,8.462,0,0,1,2.656,1.794,7.917,7.917,0,0,1,1.759,2.691,8.743,8.743,0,0,1,.621,3.278v1.518a8.743,8.743,0,0,1-.621,3.278,7.917,7.917,0,0,1-1.759,2.691,8.462,8.462,0,0,1-2.656,1.794,8.092,8.092,0,0,1-3.243.655H333.2a9.3,9.3,0,0,1-5.037-1.38A13.161,13.161,0,0,1,324.4-9.97a16.8,16.8,0,0,1-2.38-4.865,17.785,17.785,0,0,1-.828-5.244,17.016,17.016,0,0,1,.862-5.278,16.121,16.121,0,0,1,2.518-4.83,13.752,13.752,0,0,1,4-3.553,10.281,10.281,0,0,1,5.313-1.38h40.227a3.194,3.194,0,0,1,2.346.966,3.194,3.194,0,0,1,.966,2.346,3.194,3.194,0,0,1-.966,2.346,3.194,3.194,0,0,1-2.346.966H335.409a7.71,7.71,0,0,0-3.9.862,7.2,7.2,0,0,0-2.346,2.1,7.382,7.382,0,0,0-1.173,2.726,13.383,13.383,0,0,0-.31,2.726,13.383,13.383,0,0,0,.31,2.726,7.382,7.382,0,0,0,1.173,2.725,7.2,7.2,0,0,0,2.346,2.1,7.71,7.71,0,0,0,3.9.862h33.465a1.929,1.929,0,0,0,1.483-.759,2.656,2.656,0,0,0,.656-1.794,2.848,2.848,0,0,0-.586-1.794,1.866,1.866,0,0,0-1.553-.759H342.723a3.194,3.194,0,0,1-2.346-.966A3.194,3.194,0,0,1,339.411-20.079Zm51.543,11.73A3.194,3.194,0,0,1,389.988-6a3.194,3.194,0,0,1-2.346.966A3.194,3.194,0,0,1,385.3-6a3.194,3.194,0,0,1-.966-2.346v-23.46a3.194,3.194,0,0,1,.966-2.346,3.194,3.194,0,0,1,2.346-.966,3.194,3.194,0,0,1,2.346.966,3.194,3.194,0,0,1,.966,2.346Zm6.9-11.73a17.016,17.016,0,0,1,.862-5.278,16.121,16.121,0,0,1,2.518-4.83,13.752,13.752,0,0,1,4-3.553,10.281,10.281,0,0,1,5.313-1.38h40.227a3.194,3.194,0,0,1,2.346.966,3.194,3.194,0,0,1,.966,2.346,3.194,3.194,0,0,1-.966,2.346,3.194,3.194,0,0,1-2.346.966H412a7.71,7.71,0,0,0-3.9.862,7.2,7.2,0,0,0-2.346,2.1,7.382,7.382,0,0,0-1.173,2.726,13.383,13.383,0,0,0-.31,2.726,13.383,13.383,0,0,0,.31,2.726,7.382,7.382,0,0,0,1.173,2.725,7.2,7.2,0,0,0,2.346,2.1,7.71,7.71,0,0,0,3.9.862h38.778a3.194,3.194,0,0,1,2.346.966,3.194,3.194,0,0,1,.966,2.346A3.194,3.194,0,0,1,453.123-6a3.194,3.194,0,0,1-2.346.966H409.86a9.3,9.3,0,0,1-5.037-1.38,13.161,13.161,0,0,1-3.76-3.553,16.8,16.8,0,0,1-2.38-4.865A17.785,17.785,0,0,1,397.854-20.079Z" transform="translate(-3.45 35.121)" fill="#fff"/>
</svg>
