<svg id="ee7hwzm1ykve1" xmlns="http://www.w3.org/2000/svg" xmlns:xlink="http://www.w3.org/1999/xlink" viewBox="0 0 335.124000 335.004000" shape-rendering="geometricPrecision" text-rendering="geometricPrecision"><style><![CDATA[#ee7hwzm1ykve1{pointer-events: all}#ee7hwzm1ykve1 * {animation-play-state: paused !important}#ee7hwzm1ykve1:hover * {animation-play-state: running !important}#ee7hwzm1ykve12_tr {animation: ee7hwzm1ykve12_tr__tr 2300ms linear infinite normal forwards}@keyframes ee7hwzm1ykve12_tr__tr { 0% {transform: translate(457.738842px,333.099939px) rotate(0.561250deg)} 100% {transform: translate(457.738842px,333.099939px) rotate(360.561250deg)} }]]></style><g id="ee7hwzm1ykve2" transform="matrix(1 0 0 1 -290.56799999999998 -165.57300000000001)"><g id="ee7hwzm1ykve3" transform="matrix(1 0 0 1 426 302)"><path id="ee7hwzm1ykve4" d="M61,13L58,13L58,10C58,9.447715,57.552285,9,57,9L36,9C34.420686,9.006111,32.937337,9.758911,32,11.030000C31.062663,9.758911,29.579314,9.006111,28,9L7,9C6.447715,9,6,9.447715,6,10L6,13L3,13C2.447715,13,2,13.447715,2,14L2,54C2,54.552285,2.447715,55,3,55L61,55C61.552285,55,62,54.552285,62,54L62,14C62,13.447715,61.552285,13,61,13ZM4,53L4,15L6,15L6,50C6,50.552285,6.447715,51,7,51L28,51C29.267304,51.006528,30.394770,51.806148,30.820000,53ZM31,50.030000C30.140984,49.365163,29.086236,49.003033,28,49L8,49L8,11L28,11C29.654803,11.004942,30.995058,12.345197,31,14ZM32,51.030000L31.970000,51L32.030000,51ZM33,14C33.004942,12.345197,34.345197,11.004942,36,11L56,11L56,49L36,49C34.913764,49.003033,33.859016,49.365163,33,50.030000ZM60,53L33.180000,53C33.605230,51.806148,34.732696,51.006528,36,51L57,51C57.552285,51,58,50.552285,58,50L58,15L60,15Z" fill="rgb(0,0,0)" stroke="none" stroke-width="1"/><path id="ee7hwzm1ykve5" d="M47,13C44.790861,13,43,14.790861,43,17L43,41C43.000053,41.179483,43.048411,41.355644,43.140000,41.510000L46.140000,46.510000C46.320138,46.813587,46.646992,46.999706,47,46.999706C47.353008,46.999706,47.679862,46.813587,47.860000,46.510000L50.860000,41.510000C50.951589,41.355644,50.999947,41.179483,51,41L51,17C51,14.790861,49.209139,13,47,13ZM47,44.060000L45.350000,41.300000L47,40.200000L48.650000,41.300000ZM49,39.130000L48,38.460000L48,25L46,25L46,38.460000L45,39.130000L45,23L49,23ZM49,21L45,21L45,19L49,19ZM45,17C45,15.895431,45.895431,15,47,15C48.104569,15,49,15.895431,49,17Z" fill="rgb(0,0,0)" stroke="none" stroke-width="1"/><path id="ee7hwzm1ykve6" d="M10,14L29,14L29,16L10,16Z" fill="rgb(0,0,0)" stroke="none" stroke-width="1"/><path id="ee7hwzm1ykve7" d="M10,18L21,18L21,20L10,20Z" fill="rgb(0,0,0)" stroke="none" stroke-width="1"/><path id="ee7hwzm1ykve8" d="M23,18L29,18L29,20L23,20Z" fill="rgb(0,0,0)" stroke="none" stroke-width="1"/><path id="ee7hwzm1ykve9" d="M10,22L14,22L14,24L10,24Z" fill="rgb(0,0,0)" stroke="none" stroke-width="1"/><path id="ee7hwzm1ykve10" d="M16,22L29,22L29,24L16,24Z" fill="rgb(0,0,0)" stroke="none" stroke-width="1"/></g><g id="ee7hwzm1ykve11" transform="matrix(0.97800000000000 -0.20800000000000 0.20800000000000 0.97800000000000 -59.04000000000000 102.42400000000001)"><g id="ee7hwzm1ykve12_tr" transform="translate(457.738842,333.099939) rotate(0.561250)"><g id="ee7hwzm1ykve12" transform="scale(1.000118,1.000118) translate(-457.922195,-333.204254)"><path id="ee7hwzm1ykve13" d="M381.735000,501.821000L374.900000,477.413000L389.545000,469.603000L405.654000,485.224000L427.621000,480.342000L432.503000,459.351000L452.517000,459.351000L457.887000,480.342000L476.437000,485.224000L494.010000,469.600000L507.678000,477.410000L504.261000,501.818000L515.977000,513.534000L539.408000,510.117000L547.708000,524.762000L533.552000,543.312000L536.969000,558.445000L557.469000,567.232000L557.469000,584.805000L536.969000,592.615000L531.599000,609.215000L547.708000,629.229000L539.408000,642.897000L515.977000,637.039000L504.261000,649.731000L507.678000,671.210000L493.608000,680.460000L476.437000,665.840000L457.887000,671.210000L452.517000,692.689000L432.500000,692.689000L424.690000,671.210000L408.581000,665.840000L391.981000,682.440000L374.896000,674.630000L378.801000,649.730000L366.601000,637.038000L345.124000,642.900000L335.361000,627.279000L350.982000,609.217000L348.053000,592.617000L323.645000,584.807000L323.645000,567.233000L348.053000,560.887000L353.911000,540.387000L335.361000,524.766000L343.171000,510.121000L366.602000,515.979000Z" transform="matrix(0.53000000000000 -0.84800000000000 0.84800000000000 0.53000000000000 -264.03800000000001 401.50599999999997)" fill="none" stroke="rgb(42,154,167)" stroke-width="7"/><g id="ee7hwzm1ykve14" transform="matrix(-0.08715600000000 -0.99619500000000 0.99619500000000 -0.08715600000000 396.76600000000002 406.25200000000001)"><circle id="ee7hwzm1ykve15" r="67.500000" transform="matrix(1 0 0 1 67.50000000000000 67.50000000000000)" fill="none" stroke="none" stroke-width="7"/><circle id="ee7hwzm1ykve16" r="64" transform="matrix(1 0 0 1 67.50000000000000 67.50000000000000)" fill="none" stroke="rgb(42,154,167)" stroke-width="7"/></g></g></g></g></g></svg>