<svg xmlns="http://www.w3.org/2000/svg" width="5791.336" height="4015.314" viewBox="0 0 5791.336 4015.314">
  <g id="Group_23" data-name="Group 23" transform="translate(-771.941 -377.933)">
    <g id="Path_140" data-name="Path 140" transform="translate(814 414)" fill="none" stroke-linejoin="round">
      <path d="M43.59,556.9,706.817,0H2468.88l180.9,180.286H5542.106L5747,346V1438.263l-99.357,150.568v813.492L5747,2545.457v941.522l-204.894,203.373H3659.164l-140.928-119.178H1808.851l-162.293,119.178H292.156L43.59,3441.992V2198.95l120.517-158.179V1114.295L43.59,1008.842Z" stroke="none"/>
      <path d="M 707.9091796875 3 L 46.58984375 558.30029296875 L 46.58984375 1007.480712890625 L 166.08203125 1112.037109375 C 166.73291015625 1112.607177734375 167.1064453125 1113.43017578125 167.1064453125 1114.295166015625 L 167.1064453125 2040.771484375 C 167.1064453125 2041.428588867188 166.890625 2042.067260742188 166.49267578125 2042.58935546875 L 46.58984375 2199.96337890625 L 46.58984375 3440.74853515625 L 293.3984375 3687.3515625 L 1645.57470703125 3687.3515625 L 1807.074951171875 3568.755126953125 C 1807.58984375 3568.37646484375 1808.212158203125 3568.1728515625 1808.8505859375 3568.1728515625 L 3518.236328125 3568.1728515625 C 3518.945556640625 3568.1728515625 3519.632080078125 3568.42431640625 3520.173583984375 3568.88232421875 L 3660.2626953125 3687.3515625 L 5540.8701171875 3687.3515625 L 5744 3485.729248046875 L 5744 2546.39599609375 L 5645.1787109375 2404.03369140625 C 5644.830078125 2403.531494140625 5644.642578125 2402.934326171875 5644.642578125 2402.32275390625 L 5644.642578125 1588.83154296875 C 5644.642578125 1588.244384765625 5644.81494140625 1587.66943359375 5645.138671875 1587.179443359375 L 5744 1437.362060546875 L 5744 347.429443359375 L 5541.044921875 183.285888671875 L 2649.775634765625 183.285888671875 C 2648.982177734375 183.285888671875 2648.219970703125 182.970703125 2647.65771484375 182.410888671875 L 2467.640625 3 L 707.9091796875 3 M 706.81689453125 0 L 2468.880615234375 0 L 2649.775634765625 180.285888671875 L 5542.1064453125 180.285888671875 L 5747 345.997314453125 L 5747 1438.262939453125 L 5647.642578125 1588.83154296875 L 5647.642578125 2402.32275390625 L 5747 2545.45703125 L 5747 3486.978515625 L 5542.1064453125 3690.3515625 L 3659.164306640625 3690.3515625 L 3518.236328125 3571.1728515625 L 1808.8505859375 3571.1728515625 L 1646.5576171875 3690.3515625 L 292.15625 3690.3515625 L 43.58984375 3441.9921875 L 43.58984375 2198.95068359375 L 164.1064453125 2040.771484375 L 164.1064453125 1114.295166015625 L 43.58984375 1008.84228515625 L 43.58984375 556.902099609375 L 706.81689453125 0 Z" stroke="none" fill="#19e7f6"/>
    </g>
    <path id="Path_157" data-name="Path 157" d="M18,0V2425.408" transform="translate(776.5 1950.5)" fill="none" stroke="#19e7f6" stroke-linecap="round" stroke-width="10"/>
    <path id="Path_141" data-name="Path 141" d="M11015.5-1724.9v474.537l132.349,90.388v730.636" transform="translate(-10230 2741)" fill="none" stroke="#19e7f6" stroke-width="7"/>
    <path id="Path_142" data-name="Path 142" d="M11087.59-1650.133l-2-106,669.852-563.3,1797.354-1,164.639,172.639h2854.993l219.281,175.381-2,299.828-63.867-54.482v-184.993l-153.414-139.188-228.25-3-93.545-93.545-1478.011,3.451-59.869,90.094H13661.308l-168.315-173.123-1681.94-3-608.546,537.886-.456,113.515-114.46,63.54Z" transform="translate(-10230 2741)" fill="#8ce7ee" stroke="#707070" stroke-width="1"/>
    <g id="Group_15" data-name="Group 15" transform="translate(-435 -9)">
      <g id="Path_143" data-name="Path 143" transform="translate(5212 421)" fill="#19e7f6">
        <path d="M 109.03515625 148.5 L 2.308779001235962 148.5 L 67.68548583984375 1.5 L 176.0244598388672 1.5 L 109.03515625 148.5 Z" stroke="none"/>
        <path d="M 68.6600341796875 3 L 4.617523193359375 147 L 108.0702972412109 147 L 173.6924896240234 3 L 68.6600341796875 3 M 66.71094512939453 0 L 178.3564453125 0 L 110 150 L 0 150 L 66.71094512939453 0 Z" stroke="none" fill="#11b5f2"/>
      </g>
      <g id="Path_144" data-name="Path 144" transform="translate(5366 421)" fill="#057d85">
        <path d="M 109.03515625 148.5 L 2.308779001235962 148.5 L 67.68548583984375 1.5 L 176.0244598388672 1.5 L 109.03515625 148.5 Z" stroke="none"/>
        <path d="M 68.6600341796875 3 L 4.617523193359375 147 L 108.0702972412109 147 L 173.6924896240234 3 L 68.6600341796875 3 M 66.71094512939453 0 L 178.3564453125 0 L 110 150 L 0 150 L 66.71094512939453 0 Z" stroke="none" fill="#11b5f2"/>
      </g>
      <g id="Path_145" data-name="Path 145" transform="translate(5520 421)" fill="#057d85">
        <path d="M 109.03515625 148.5 L 2.308779001235962 148.5 L 67.68548583984375 1.5 L 176.0244598388672 1.5 L 109.03515625 148.5 Z" stroke="none"/>
        <path d="M 68.6600341796875 3 L 4.617523193359375 147 L 108.0702972412109 147 L 173.6924896240234 3 L 68.6600341796875 3 M 66.71094512939453 0 L 178.3564453125 0 L 110 150 L 0 150 L 66.71094512939453 0 Z" stroke="none" fill="#11b5f2"/>
      </g>
      <g id="Path_146" data-name="Path 146" transform="translate(5053 421)" fill="#19e7f6">
        <path d="M 109.03515625 148.5 L 2.308779001235962 148.5 L 67.68548583984375 1.5 L 176.0244598388672 1.5 L 109.03515625 148.5 Z" stroke="none"/>
        <path d="M 68.6600341796875 3 L 4.617523193359375 147 L 108.0702972412109 147 L 173.6924896240234 3 L 68.6600341796875 3 M 66.71094512939453 0 L 178.3564453125 0 L 110 150 L 0 150 L 66.71094512939453 0 Z" stroke="none" fill="#11b5f2"/>
      </g>
    </g>
    <path id="Path_147" data-name="Path 147" d="M15520.142-2233.992,16568.68-2245l221.543,170.969" transform="translate(-10230 2741)" fill="none" stroke="#19e7f6" stroke-width="10"/>
    <path id="Path_148" data-name="Path 148" d="M13825.3-2286.148h631.637l51.851,47.137H14650.2l70.706-122.556h966.31l89.561,75.419h683.487" transform="translate(-10230 2741)" fill="none" stroke="#19e7f6" stroke-width="3"/>
    <path id="Path_149" data-name="Path 149" d="M14651.513-2239.011h173" transform="translate(-10230 2741)" fill="none" stroke="#19e7f6" stroke-width="3"/>
    <g id="Group_16" data-name="Group 16">
      <g id="Ellipse_64" data-name="Ellipse 64" transform="translate(4590 487)" fill="none" stroke="#19e7f6" stroke-width="5">
        <circle cx="15" cy="15" r="15" stroke="none"/>
        <circle cx="15" cy="15" r="12.5" fill="none"/>
      </g>
      <g id="Ellipse_65" data-name="Ellipse 65" transform="translate(4600 497)" fill="#19e7f6" stroke="#19e7f6" stroke-width="1">
        <circle cx="5" cy="5" r="5" stroke="none"/>
        <circle cx="5" cy="5" r="4.5" fill="none"/>
      </g>
    </g>
    <g id="Group_17" data-name="Group 17" transform="translate(673 5)">
      <g id="Ellipse_64-2" data-name="Ellipse 64" transform="translate(4590 487)" fill="none" stroke="#19e7f6" stroke-width="5">
        <circle cx="15" cy="15" r="15" stroke="none"/>
        <circle cx="15" cy="15" r="12.5" fill="none"/>
      </g>
      <g id="Ellipse_65-2" data-name="Ellipse 65" transform="translate(4600 497)" fill="#19e7f6" stroke="#19e7f6" stroke-width="1">
        <circle cx="5" cy="5" r="5" stroke="none"/>
        <circle cx="5" cy="5" r="4.5" fill="none"/>
      </g>
    </g>
    <path id="Path_150" data-name="Path 150" d="M11087.59,823.535V1113.75l162.07,161.138V1161.143l-86.187-93.6V902.058Z" transform="translate(-10230 2741)" fill="#8ce7ee"/>
    <path id="Path_151" data-name="Path 151" d="M12689.164,1363.352l168.44-116.894h1706.861l139.981,116.894h173.9l-245.2-202.343-1850.53,3L12509.5,1363.352Z" transform="translate(-10230 2741)" fill="#8ce7ee" stroke="#707070" stroke-width="1"/>
    <path id="Path_152" data-name="Path 152" d="M16787.709,448.5l3,709.05L16588,1360.25l-1133.012,1,150.835-104.034H16526.5l156.25-151.443-5.971-523.938Z" transform="translate(-10230 2741)" fill="#8ce7ee" stroke="#707070" stroke-width="1"/>
    <path id="Path_153" data-name="Path 153" d="M16732.682-1057.381v155.35l-90.2,125.282V-621.4" transform="translate(-10230 2741)" fill="none" stroke="#19e7f6" stroke-width="5"/>
    <path id="Path_154" data-name="Path 154" d="M16642.479-40.09v135.3l100.227,135.3V390.88" transform="translate(-10230 2741)" fill="none" stroke="#19e7f6" stroke-width="5"/>
    <path id="Path_155" data-name="Path 155" d="M14738.013,1363.5h-605.141l-99.911,144.249H13324.5" transform="translate(-10230 2741)" fill="none" stroke="#19e7f6" stroke-width="5"/>
    <path id="Path_156" data-name="Path 156" d="M14532.517,1363.5l-63.58,98.834h-145.325l-63.579,99.911H11362.449l-272.322-245.236" transform="translate(-10230 2741)" fill="none" stroke="#19e7f6" stroke-width="5"/>
    <path id="Path_158" data-name="Path 158" d="M65.868-92.163l157.2,307.282L-13.014,124.494Z" transform="translate(817.119 4187.752) rotate(-21)" fill="#19e7f6"/>
    <path id="Path_159" data-name="Path 159" d="M-33.024-4.343,428.51-11.787,362.754,53.97l-331.262,6.2Z" transform="translate(877.536 3944.752) rotate(45)" fill="#8ce7ee"/>
    <g id="Group_18" data-name="Group 18" transform="translate(-2484 3692.008)">
      <g id="Path_143-2" data-name="Path 143" transform="translate(5211.878 421)" fill="#19e7f6">
        <path d="M 109.1952362060547 101.4917068481445 L 2.758790254592896 101.4917068481445 L 67.52652740478516 1.499996304512024 L 175.560546875 1.499996304512024 L 109.1952362060547 101.4917068481445 Z" stroke="none"/>
        <path d="M 68.34211730957031 3 L 5.517562866210938 99.99170684814453 L 108.390495300293 99.99170684814453 L 172.7646942138672 3 L 68.34211730957031 3 M 66.71094512939453 0 L 178.3564453125 0 L 110 102.9917068481445 L 0 102.9917068481445 L 66.71094512939453 0 Z" stroke="none" fill="#11b5f2"/>
      </g>
      <g id="Path_144-2" data-name="Path 144" transform="translate(5365.761 421)" fill="#057d85">
        <path d="M 109.1952362060547 101.4917068481445 L 2.758790254592896 101.4917068481445 L 67.52652740478516 1.499996304512024 L 175.560546875 1.499996304512024 L 109.1952362060547 101.4917068481445 Z" stroke="none"/>
        <path d="M 68.34211730957031 3 L 5.517562866210938 99.99170684814453 L 108.390495300293 99.99170684814453 L 172.7646942138672 3 L 68.34211730957031 3 M 66.71094512939453 0 L 178.3564453125 0 L 110 102.9917068481445 L 0 102.9917068481445 L 66.71094512939453 0 Z" stroke="none" fill="#11b5f2"/>
      </g>
      <g id="Path_145-2" data-name="Path 145" transform="translate(5519.644 421)" fill="#057d85">
        <path d="M 109.1952362060547 101.4917068481445 L 2.758790254592896 101.4917068481445 L 67.52652740478516 1.499996304512024 L 175.560546875 1.499996304512024 L 109.1952362060547 101.4917068481445 Z" stroke="none"/>
        <path d="M 68.34211730957031 3 L 5.517562866210938 99.99170684814453 L 108.390495300293 99.99170684814453 L 172.7646942138672 3 L 68.34211730957031 3 M 66.71094512939453 0 L 178.3564453125 0 L 110 102.9917068481445 L 0 102.9917068481445 L 66.71094512939453 0 Z" stroke="none" fill="#11b5f2"/>
      </g>
      <g id="Path_146-2" data-name="Path 146" transform="translate(5053 421)" fill="#19e7f6">
        <path d="M 109.1952362060547 101.4917068481445 L 2.758790254592896 101.4917068481445 L 67.52652740478516 1.499996304512024 L 175.560546875 1.499996304512024 L 109.1952362060547 101.4917068481445 Z" stroke="none"/>
        <path d="M 68.34211730957031 3 L 5.517562866210938 99.99170684814453 L 108.390495300293 99.99170684814453 L 172.7646942138672 3 L 68.34211730957031 3 M 66.71094512939453 0 L 178.3564453125 0 L 110 102.9917068481445 L 0 102.9917068481445 L 66.71094512939453 0 Z" stroke="none" fill="#11b5f2"/>
      </g>
    </g>
    <g id="Group_19" data-name="Group 19" transform="translate(-1867 3691.685)">
      <g id="Path_143-3" data-name="Path 143" transform="translate(5219.358 421)" fill="#19e7f6">
        <path d="M 109.1811370849609 104.8153228759766 L 2.712069988250732 104.8153228759766 L 67.54055023193359 1.500010967254639 L 175.6086883544922 1.500010967254639 L 109.1811370849609 104.8153228759766 Z" stroke="none"/>
        <path d="M 68.37018585205078 3 L 5.42413330078125 103.3153076171875 L 108.3622817993164 103.3153076171875 L 172.8609771728516 3 L 68.37018585205078 3 M 66.71094512939453 0 L 178.3564453125 0 L 110 106.3153076171875 L 0 106.3153076171875 L 66.71094512939453 0 Z" stroke="none" fill="#11b5f2"/>
      </g>
      <g id="Path_144-3" data-name="Path 144" transform="translate(5380.484 421)" fill="#057d85">
        <path d="M 109.1811370849609 104.8153228759766 L 2.712069988250732 104.8153228759766 L 67.54055023193359 1.500010967254639 L 175.6086883544922 1.500010967254639 L 109.1811370849609 104.8153228759766 Z" stroke="none"/>
        <path d="M 68.37018585205078 3 L 5.42413330078125 103.3153076171875 L 108.3622817993164 103.3153076171875 L 172.8609771728516 3 L 68.37018585205078 3 M 66.71094512939453 0 L 178.3564453125 0 L 110 106.3153076171875 L 0 106.3153076171875 L 66.71094512939453 0 Z" stroke="none" fill="#11b5f2"/>
      </g>
      <g id="Path_145-3" data-name="Path 145" transform="translate(5541.61 421)" fill="#057d85">
        <path d="M 109.1811370849609 104.8153228759766 L 2.712069988250732 104.8153228759766 L 67.54055023193359 1.500010967254639 L 175.6086883544922 1.500010967254639 L 109.1811370849609 104.8153228759766 Z" stroke="none"/>
        <path d="M 68.37018585205078 3 L 5.42413330078125 103.3153076171875 L 108.3622817993164 103.3153076171875 L 172.8609771728516 3 L 68.37018585205078 3 M 66.71094512939453 0 L 178.3564453125 0 L 110 106.3153076171875 L 0 106.3153076171875 L 66.71094512939453 0 Z" stroke="none" fill="#11b5f2"/>
      </g>
      <g id="Path_146-3" data-name="Path 146" transform="translate(5053 421)" fill="#19e7f6">
        <path d="M 109.1811370849609 104.8153228759766 L 2.712069988250732 104.8153228759766 L 67.54055023193359 1.500010967254639 L 175.6086883544922 1.500010967254639 L 109.1811370849609 104.8153228759766 Z" stroke="none"/>
        <path d="M 68.37018585205078 3 L 5.42413330078125 103.3153076171875 L 108.3622817993164 103.3153076171875 L 172.8609771728516 3 L 68.37018585205078 3 M 66.71094512939453 0 L 178.3564453125 0 L 110 106.3153076171875 L 0 106.3153076171875 L 66.71094512939453 0 Z" stroke="none" fill="#11b5f2"/>
      </g>
    </g>
    <path id="Path_160" data-name="Path 160" d="M11692.8,1393.091l73.32,51.324-73.32,53.157" transform="translate(-10345 2741)" fill="none" stroke="#19e7f6" stroke-linecap="round" stroke-width="15" stroke-dasharray="5"/>
    <path id="Path_161" data-name="Path 161" d="M11692.8,1393.091l73.32,51.324-73.32,53.157" transform="translate(-10287 2741)" fill="none" stroke="#19e7f6" stroke-linecap="round" stroke-width="15" stroke-dasharray="5"/>
    <path id="Path_162" data-name="Path 162" d="M11692.8,1393.091l73.32,51.324-73.32,53.157" transform="translate(-10231 2741)" fill="none" stroke="#19e7f6" stroke-linecap="round" stroke-width="15" stroke-dasharray="5"/>
    <path id="Path_163" data-name="Path 163" d="M11692.8,1393.091l73.32,51.324-73.32,53.157" transform="translate(-10173 2741)" fill="none" stroke="#19e7f6" stroke-linecap="round" stroke-width="15" stroke-dasharray="5"/>
    <path id="Path_164" data-name="Path 164" d="M11692.8,1393.091l73.32,51.324-73.32,53.157" transform="translate(-10113 2741)" fill="none" stroke="#19e7f6" stroke-linecap="round" stroke-width="15" stroke-dasharray="5"/>
    <path id="Path_165" data-name="Path 165" d="M11692.8,1393.091l73.32,51.324-73.32,53.157" transform="translate(-10055 2741)" fill="none" stroke="#19e7f6" stroke-linecap="round" stroke-width="15" stroke-dasharray="5"/>
    <path id="Path_166" data-name="Path 166" d="M11692.8,1393.091l73.32,51.324-73.32,53.157" transform="translate(-9999 2741)" fill="none" stroke="#19e7f6" stroke-linecap="round" stroke-width="15" stroke-dasharray="5"/>
    <path id="Path_167" data-name="Path 167" d="M11692.8,1393.091l73.32,51.324-73.32,53.157" transform="translate(-9941 2741)" fill="none" stroke="#19e7f6" stroke-linecap="round" stroke-width="15" stroke-dasharray="5"/>
    <path id="Path_168" data-name="Path 168" d="M11692.8,1393.091l73.32,51.324-73.32,53.157" transform="translate(-9705 2741)" fill="none" stroke="#19e7f6" stroke-linecap="round" stroke-width="15" stroke-dasharray="5"/>
    <path id="Path_169" data-name="Path 169" d="M11692.8,1393.091l73.32,51.324-73.32,53.157" transform="translate(-9647 2741)" fill="none" stroke="#19e7f6" stroke-linecap="round" stroke-width="15" stroke-dasharray="5"/>
    <path id="Path_170" data-name="Path 170" d="M11692.8,1393.091l73.32,51.324-73.32,53.157" transform="translate(-9591 2741)" fill="none" stroke="#19e7f6" stroke-linecap="round" stroke-width="15" stroke-dasharray="5"/>
    <path id="Path_171" data-name="Path 171" d="M11692.8,1393.091l73.32,51.324-73.32,53.157" transform="translate(-9533 2741)" fill="none" stroke="#19e7f6" stroke-linecap="round" stroke-width="15" stroke-dasharray="5"/>
    <path id="Path_172" data-name="Path 172" d="M11692.8,1393.091l73.32,51.324-73.32,53.157" transform="translate(-9473 2741)" fill="none" stroke="#19e7f6" stroke-linecap="round" stroke-width="15" stroke-dasharray="5"/>
    <path id="Path_173" data-name="Path 173" d="M11692.8,1393.091l73.32,51.324-73.32,53.157" transform="translate(-9415 2741)" fill="none" stroke="#19e7f6" stroke-linecap="round" stroke-width="15" stroke-dasharray="5"/>
    <path id="Path_174" data-name="Path 174" d="M11692.8,1393.091l73.32,51.324-73.32,53.157" transform="translate(-9359 2741)" fill="none" stroke="#19e7f6" stroke-linecap="round" stroke-width="15" stroke-dasharray="5"/>
    <path id="Path_175" data-name="Path 175" d="M11692.8,1393.091l73.32,51.324-73.32,53.157" transform="translate(-9301 2741)" fill="none" stroke="#19e7f6" stroke-linecap="round" stroke-width="15" stroke-dasharray="5"/>
    <g id="Group_13" data-name="Group 13" transform="translate(-176 1891)">
      <g id="innergeargroup" transform="matrix(-0.875, 0.485, -0.485, -0.875, 6293.36, 1891.033)">
        <path id="Path_5" data-name="Path 5" d="M150.988,304.452c83.7-.049,151.6-68.35,151.647-152.554S234.872-.527,151.168-.478-.429,67.872-.479,152.076,67.285,304.5,150.988,304.452Zm.006-10.164c78.123-.046,141.491-63.793,141.537-142.384S229.285,9.64,151.162,9.686,9.671,73.48,9.625,152.07,72.872,294.334,150.994,294.288Z" transform="translate(13.706 13.385)" fill="#0e9bb8" fill-rule="evenodd"/>
        <path id="Path_136" data-name="Path 136" d="M0,0,9.717,0l-.011,23.59-9.717,0Z" transform="translate(182.024 0.514) rotate(8.488)" fill="#0e9bb8"/>
        <path id="Path_47" data-name="Path 47" d="M0,0,9.7.009l.022,23.579-9.7-.009Z" transform="translate(202.363 3.903) rotate(14.697)" fill="#0e9bb8"/>
        <path id="Path_48" data-name="Path 48" d="M0,0,9.7.015,9.74,23.588l-9.7-.015Z" transform="translate(221.58 9.47) rotate(21.215)" fill="#0e9bb8"/>
        <path id="Path_49" data-name="Path 49" d="M0,0,9.707.021l.05,23.563L.05,23.563Z" transform="translate(240.347 18.042) rotate(27.518)" fill="#0e9bb8"/>
        <path id="Path_50" data-name="Path 50" d="M0,0,9.714.026l.062,23.547L.062,23.547Z" transform="translate(257.421 28.163) rotate(35.311)" fill="#0e9bb8"/>
        <path id="Path_51" data-name="Path 51" d="M0,0,9.722.029l.07,23.526L.07,23.526Z" transform="translate(273.441 39.676) rotate(44.52)" fill="#0e9bb8"/>
        <path id="Path_52" data-name="Path 52" d="M0,0,9.729.03,9.8,23.541l-9.729-.03Z" transform="matrix(0.636, 0.772, -0.772, 0.636, 286.817, 53.494)" fill="#0e9bb8"/>
        <path id="Path_53" data-name="Path 53" d="M0,0,9.74.031,9.81,23.524.074,23.5Z" transform="matrix(0.534, 0.845, -0.845, 0.534, 300.237, 70.15)" fill="#0e9bb8"/>
        <path id="Path_54" data-name="Path 54" d="M.015.007,9.756.034l.065,23.482L.081,23.488Z" transform="matrix(0.459, 0.888, -0.888, 0.459, 309.726, 86.397)" fill="#0e9bb8"/>
        <path id="Path_55" data-name="Path 55" d="M.028.012,9.775.036,9.832,23.5.086,23.481Z" transform="translate(318.374 105.231) rotate(68.77)" fill="#0e9bb8"/>
        <path id="Path_56" data-name="Path 56" d="M.044.018,9.8.036,9.839,23.49.087,23.472Z" transform="translate(324.428 124.354) rotate(76.985)" fill="#0e9bb8"/>
        <path id="Path_6" data-name="Path 6" d="M23.272-.074l1.13,9.69L1.117,12.384-.008,2.693Z" transform="translate(304.641 143.395)" fill="#0e9bb8"/>
        <path id="Path_127" data-name="Path 127" d="M.061.025,9.82.031l.014,23.441L.075,23.467Z" transform="matrix(0.008, 1, -1, 0.008, 330.555, 162.398)" fill="#0e9bb8"/>
        <path id="Path_128" data-name="Path 128" d="M0,0,9.7-.006,9.686,23.576l-9.7.006Z" transform="translate(169.839 23.069) rotate(180)" fill="#0e9bb8"/>
        <path id="Path_129" data-name="Path 129" d="M0,0,9.685-.007,9.669,23.56l-9.685.007Z" transform="matrix(-0.989, 0.148, -0.148, -0.989, 151.304, 23.857)" fill="#0e9bb8"/>
        <path id="Path_58" data-name="Path 58" d="M0,0,9.706-.019,9.66,23.546l-9.706.019Z" transform="translate(133.449 26.752) rotate(165.303)" fill="#0e9bb8"/>
        <path id="Path_59" data-name="Path 59" d="M0,0,9.711-.024,9.653,23.53l-9.711.024Z" transform="matrix(-0.932, 0.362, -0.362, -0.932, 116.76, 31.513)" fill="#0e9bb8"/>
        <path id="Path_60" data-name="Path 60" d="M0,0,9.717-.027l-.066,23.54-9.717.027Z" transform="translate(100.331 39.037) rotate(152.482)" fill="#0e9bb8"/>
        <path id="Path_61" data-name="Path 61" d="M0,0,9.727-.028,9.656,23.493l-9.724.029Z" transform="translate(85.972 47.509) rotate(144.689)" fill="#0e9bb8"/>
        <path id="Path_62" data-name="Path 62" d="M.023.009,9.757-.02l-.07,23.5-9.734.029Z" transform="translate(72.844 56.6) rotate(135.48)" fill="#0e9bb8"/>
        <path id="Path_63" data-name="Path 63" d="M.035.014l9.74-.027L9.709,23.471l-9.74.027Z" transform="matrix(-0.636, 0.772, -0.772, -0.636, 61.127, 68.597)" fill="#0e9bb8"/>
        <path id="Path_64" data-name="Path 64" d="M.047.02,9.794,0,9.736,23.464l-9.746.024Z" transform="translate(49.408 82.876) rotate(122.309)" fill="#0e9bb8"/>
        <path id="Path_65" data-name="Path 65" d="M.054.022,9.8,0,9.755,23.461l-9.75.02Z" transform="matrix(-0.459, 0.888, -0.888, -0.459, 40.914, 97.361)" fill="#0e9bb8"/>
        <path id="Path_66" data-name="Path 66" d="M.061.025,9.815.01,9.777,23.46l-9.754.015Z" transform="translate(33.275 113.923) rotate(111.23)" fill="#0e9bb8"/>
        <path id="Path_67" data-name="Path 67" d="M.065.027,9.822.019,9.8,23.461l-9.757.008Z" transform="translate(27.384 129.832) rotate(103.015)" fill="#0e9bb8"/>
        <path id="Path_137" data-name="Path 137" d="M.05.021l9.744,0,.011,23.434-9.744,0Z" transform="translate(24.297 146.206) rotate(96.705)" fill="#0e9bb8"/>
        <path id="Path_131" data-name="Path 131" d="M.06.025,9.817.031l.014,23.44L.074,23.465Z" transform="matrix(-0.008, 1, -1, -0.008, 23.03, 162.767)" fill="#0e9bb8"/>
        <path id="Path_132" data-name="Path 132" d="M0,0,9.694-.006,9.68,23.571l-9.694.006Z" transform="translate(174.339 330.815) rotate(177.126)" fill="#0e9bb8"/>
        <path id="Path_138" data-name="Path 138" d="M0,0,9.711,0,9.7,23.583l-9.711,0Z" transform="matrix(-0.995, -0.098, 0.098, -0.995, 154.675, 331.238)" fill="#0e9bb8"/>
        <path id="Path_70" data-name="Path 70" d="M0,0,9.7.006l.015,23.581-9.7-.006Z" transform="translate(134.185 328.472) rotate(-168.177)" fill="#0e9bb8"/>
        <path id="Path_71" data-name="Path 71" d="M0,0,9.7.013l.031,23.576-9.7-.013Z" transform="translate(114.717 323.885) rotate(-161.659)" fill="#0e9bb8"/>
        <path id="Path_72" data-name="Path 72" d="M0,0,9.705.018,9.75,23.586.044,23.567Z" transform="matrix(-0.909, -0.417, 0.417, -0.909, 95.139, 315.457)" fill="#0e9bb8"/>
        <path id="Path_73" data-name="Path 73" d="M0,0,9.711.024l.058,23.553L.058,23.553Z" transform="matrix(-0.844, -0.536, 0.536, -0.844, 77.993, 306.203)" fill="#0e9bb8"/>
        <path id="Path_74" data-name="Path 74" d="M0,0,9.72.028l.068,23.533-9.72-.028Z" transform="translate(61.335 295.113) rotate(-138.353)" fill="#0e9bb8"/>
        <path id="Path_75" data-name="Path 75" d="M0,0,9.726.029,9.8,23.548.071,23.518Z" transform="translate(47.371 281.987) rotate(-132.341)" fill="#0e9bb8"/>
        <path id="Path_76" data-name="Path 76" d="M0,0,9.733.029,9.8,23.53.071,23.5Z" transform="translate(34.744 267.646) rotate(-125.182)" fill="#0e9bb8"/>
        <path id="Path_77" data-name="Path 77" d="M.009,0,9.747.032,9.815,23.52.077,23.492Z" transform="translate(24.052 251.9) rotate(-120.211)" fill="#0e9bb8"/>
        <path id="Path_78" data-name="Path 78" d="M.022.009,9.766.035,9.828,23.51.084,23.484Z" transform="translate(14.483 232.713) rotate(-114.104)" fill="#0e9bb8"/>
        <path id="Path_79" data-name="Path 79" d="M.039.016l9.75.02L9.838,23.5l-9.75-.02Z" transform="translate(7.481 214.732) rotate(-105.888)" fill="#0e9bb8"/>
        <path id="Path_134" data-name="Path 134" d="M.069.029,9.844.036,9.86,23.493.085,23.487Z" transform="translate(2.632 196.047) rotate(-99.579)" fill="#0e9bb8"/>
        <path id="Path_135" data-name="Path 135" d="M0,0,9.689-.006,9.673,23.565l-9.689.006Z" transform="translate(179.249 307.052) rotate(-5.96)" fill="#0e9bb8"/>
        <path id="Path_82" data-name="Path 82" d="M0,0,9.706-.019,9.66,23.547l-9.706.019Z" transform="translate(193.622 304.946) rotate(-14.449)" fill="#0e9bb8"/>
        <path id="Path_83" data-name="Path 83" d="M0,0,9.711-.023,9.654,23.531l-9.711.023Z" transform="matrix(0.936, -0.353, 0.353, 0.936, 211.024, 299.802)" fill="#0e9bb8"/>
        <path id="Path_84" data-name="Path 84" d="M0,0,9.716-.027,9.651,23.514l-9.716.027Z" transform="matrix(0.89, -0.457, 0.457, 0.89, 227.009, 293.334)" fill="#0e9bb8"/>
        <path id="Path_85" data-name="Path 85" d="M0,0,9.723-.029,9.653,23.5l-9.723.029Z" transform="translate(242.912 284.075) rotate(-33.478)" fill="#0e9bb8"/>
        <path id="Path_86" data-name="Path 86" d="M.016.007l9.731-.03L9.675,23.484l-9.731.03Z" transform="translate(255.974 273.807) rotate(-41.272)" fill="#0e9bb8"/>
        <path id="Path_87" data-name="Path 87" d="M.035.014l9.74-.027L9.708,23.471l-9.74.027Z" transform="matrix(0.636, -0.771, 0.771, 0.636, 266.493, 265.018)" fill="#0e9bb8"/>
        <path id="Path_88" data-name="Path 88" d="M.045.019,9.791-.006,9.732,23.465l-9.745.024Z" transform="translate(277.236 251.467) rotate(-56.493)" fill="#0e9bb8"/>
        <path id="Path_89" data-name="Path 89" d="M.056.023,9.806,0,9.759,23.461l-9.751.02Z" transform="matrix(0.444, -0.896, 0.896, 0.444, 286.478, 237.899)" fill="#0e9bb8"/>
        <path id="Path_90" data-name="Path 90" d="M.061.025,9.814.01,9.777,23.46l-9.754.015Z" transform="translate(294.641 221.73) rotate(-68.623)" fill="#0e9bb8"/>
        <path id="Path_91" data-name="Path 91" d="M.064.027,9.821.017,9.8,23.46.04,23.47Z" transform="translate(300.407 205.283) rotate(-74.73)" fill="#0e9bb8"/>
        <path id="Path_139" data-name="Path 139" d="M.049.021l9.743,0L9.8,23.459l-9.743,0Z" transform="matrix(0.123, -0.992, 0.992, 0.123, 304.761, 189.717)" fill="#0e9bb8"/>
      </g>
      <g id="innermostgear" transform="matrix(0.225, -0.974, 0.974, 0.225, 5921.044, 1917.223)">
        <path id="Path_34" data-name="Path 34" d="M7.06,142.647,5.8,142.32H10.62a111.154,111.154,0,0,0,4.057,16.7,2.008,2.008,0,0,1,.752.973l2.312,6.295a2.016,2.016,0,0,1,.073,1.151q1.1,2.626,2.333,5.184a1.971,1.971,0,0,1,.259.372l3.214,5.888a2.014,2.014,0,0,1,.242.809q1.553,2.712,3.251,5.328l3.231,4.537a2,2,0,0,1,.279.555q1.65,2.259,3.409,4.432a2.027,2.027,0,0,1,.477.415l4.327,5.133a.294.294,0,0,0,.032.039q2.075,2.244,4.271,4.374a2.024,2.024,0,0,1,.7.423l4.95,4.54a2,2,0,0,1,.4.5q2.2,1.848,4.506,3.585a2.061,2.061,0,0,1,.546.274l5.5,3.86a2.031,2.031,0,0,1,.441.42q2.384,1.547,4.846,2.977a2.031,2.031,0,0,1,.384.142l6.051,2.944a2.022,2.022,0,0,1,.857.791q2.13,1.034,4.312,1.981a2.022,2.022,0,0,1,.716.12l6.335,2.267a1.992,1.992,0,0,1,.967.732c1.561.539,3.143,1.045,4.733,1.517a2.008,2.008,0,0,1,1.226-.082l6.537,1.6a1.985,1.985,0,0,1,1.112.72q2.415.5,4.858.9a2.011,2.011,0,0,1,.922-.1l6.683.808a2,2,0,0,1,.922.352q2.027.174,4.07.275v3.559q-1.99-.1-3.965-.258l-3.882,7.231a2.021,2.021,0,0,1-3.742-.452l-2.032-7.98q-2.282-.381-4.531-.85l-4.586,6.531a2.02,2.02,0,0,1-3.661-.895l-1.041-7.979c-1.533-.456-3.058-.943-4.563-1.459l-5.293,6.077a2.019,2.019,0,0,1-3.548-1.27l-.212-8.343q-1.82-.8-3.608-1.663l-5.94,5.48a2.023,2.023,0,0,1-3.394-1.65l.719-8.442q-1.772-1.047-3.5-2.154l-6.984,4.638A2.024,2.024,0,0,1,48.866,224l2.021-8.116q-1.723-1.323-3.4-2.709l-7.518,3.689a2.024,2.024,0,0,1-2.783-2.552l3.024-7.695q-1.535-1.5-3.009-3.061l-8.06,2.746a2.028,2.028,0,0,1-2.439-2.89l4.02-7.306q-1.256-1.572-2.455-3.188l-8.1,2.038a2.028,2.028,0,0,1-2.192-3.081l4.735-7.148q-.843-1.357-1.642-2.739l-8.188,1.057a2.029,2.029,0,0,1-1.811-3.321l5.447-6.424q-1-2.134-1.924-4.315l-8.083-.152a2.032,2.032,0,0,1-1.306-3.555l6.038-5.291q-.679-2.086-1.281-4.207l-8.4-.912a2.033,2.033,0,0,1-.982-3.659l7.077-5.162C7.444,144.922,7.242,143.788,7.06,142.647Zm229.96-9.995q.134-1.836.207-3.686l3.188-1.253,4.519-1.723a2.074,2.074,0,0,0,0-3.854l-4.518-1.72-3.2-1.255q-.084-1.937-.229-3.856l7.425-3.91a2.033,2.033,0,0,0-.436-3.764l-8.151-2.113c-.194-1.174-.4-2.341-.626-3.5l6.887-5.025a2.033,2.033,0,0,0-.982-3.659l-8.2-.891q-.63-2.194-1.338-4.352l5.892-5.167a2.032,2.032,0,0,0-1.306-3.555l-7.921-.149q-.952-2.24-1.993-4.43l5.358-6.312a2.031,2.031,0,0,0-1.815-3.322L221.711,66.2q-.825-1.419-1.694-2.812l4.675-7.06a2.027,2.027,0,0,0-2.192-3.081l-8.027,2.02q-1.219-1.634-2.5-3.222l3.991-7.255a2.026,2.026,0,0,0-2.434-2.89L205.5,44.634q-1.486-1.56-3.029-3.064l3.02-7.683a2.026,2.026,0,0,0-2.787-2.552l-7.534,3.7q-1.674-1.373-3.393-2.685l2.029-8.15a2.024,2.024,0,0,0-3.09-2.167l-7.037,4.674q-1.711-1.084-3.454-2.11l.723-8.522a2.021,2.021,0,0,0-3.39-1.65l-6.025,5.555q-1.748-.834-3.523-1.612L167.8,9.9a2.023,2.023,0,0,0-3.552-1.27l-5.39,6.192q-2.2-.746-4.441-1.407l-1.062-8.147a2.02,2.02,0,0,0-3.661-.895l-4.7,6.692q-2.166-.444-4.365-.808l-2.085-8.184a2.021,2.021,0,0,0-3.742-.452l-3.991,7.439q-2.257-.178-4.539-.27l-2.959-7.606a2.04,2.04,0,0,0-.562-.809,2.026,2.026,0,0,0-3.3.72l-3,7.709q-1.4.061-2.787.154v3.563c1.125-.078,2.258-.139,3.39-.183a2.007,2.007,0,0,0,1.011.269l6.732,0a1.992,1.992,0,0,0,1.02-.275q2.882.108,5.728.358a2.094,2.094,0,0,0,.409.092l6.683.808a2.053,2.053,0,0,0,.388.01q2.822.44,5.6,1.019a1.985,1.985,0,0,0,.906.494l6.541,1.6a2,2,0,0,0,.959,0q2.609.758,5.162,1.639a2.015,2.015,0,0,0,.8.526l6.335,2.267a2.04,2.04,0,0,0,.364.094q2.415,1.031,4.773,2.171a1.994,1.994,0,0,0,.752.628l5.942,2.892q2.785,1.588,5.473,3.329a1.95,1.95,0,0,0,.3.262l5.5,3.86a2.1,2.1,0,0,0,.441.236q2.366,1.772,4.635,3.663a1.972,1.972,0,0,0,.376.462l4.95,4.539a2.056,2.056,0,0,0,.728.43q2.111,2.038,4.117,4.184a2.066,2.066,0,0,0,.166.222l4.327,5.133a2.035,2.035,0,0,0,.6.487q1.668,2.048,3.235,4.175a2.026,2.026,0,0,0,.332.739l3.89,5.468a2.129,2.129,0,0,0,.19.231q1.237,1.944,2.394,3.942a2,2,0,0,0,.247,1.032l3.214,5.888a2,2,0,0,0,.53.626q1.116,2.324,2.127,4.706a2.008,2.008,0,0,0,.012,1.374l2.308,6.295a2.008,2.008,0,0,0,.979,1.108q.764,2.34,1.435,4.725a1.981,1.981,0,0,0,.048.825l1.693,6.317q.612,2.927,1.07,5.91a1.937,1.937,0,0,0,.008.4l.771,6.659a2.047,2.047,0,0,0,.117.48q.218,2.625.322,5.285a2.041,2.041,0,0,0-.17.822l.019,3.322-.021,3.322a2.116,2.116,0,0,0,.174.84q-.08,2.224-.244,4.424Z" transform="translate(0 0)" fill="#19e7f6" fill-rule="evenodd"/>
      </g>
      <path id="linedgear" d="M201.273,406.356h-.008a199.691,199.691,0,0,1-68.917-12.26,203.69,203.69,0,0,1-22.257-9.729A200.386,200.386,0,0,1,34,316.62,203.45,203.45,0,0,1,5.714,156.086h0l-.05-.019.006-.024c.276-1.1,1.739-6.838,3.393-12.1-.691,2.236-1.357,4.528-1.978,6.813-.475,1.75-.936,3.543-1.37,5.327h0l19.066,7.236C6.226,244.936,45.1,328.382,119.311,366.248a180.092,180.092,0,0,0,82.057,19.791c69.036,0,131.459-38.4,162.909-100.206A183.333,183.333,0,0,0,355.55,103.87l21.594-3.531A203.71,203.71,0,0,1,201.273,406.356Zm-176.4-243h0l-.088-.034c.477-2.1,1-4.209,1.544-6.276l.036-.135.024-.092-1.515,6.537Zm1.524-6.572h0l.756-3.263,1.332-3.97C27.74,151.933,27.038,154.366,26.394,156.784Zm2.1-7.282h0c.75-2.408,1.562-4.84,2.415-7.228L13,132.593c-.017.045-1.985,5.187-3.831,11l-.023.071-.011.035h0c1.7-5.466,3.646-10.925,5.794-16.227,2.206-5.443,4.682-10.872,7.36-16.136A203.169,203.169,0,0,1,148.947,7.465,202.123,202.123,0,0,1,203.3,0a199.611,199.611,0,0,1,68.915,12.258,203.739,203.739,0,0,1,22.258,9.731c3.455,1.763,6.9,3.646,10.238,5.6L296.6,46.412c-3.68-2.219-7.5-4.34-11.348-6.3A180.089,180.089,0,0,0,203.2,20.318c-69.036,0-131.459,38.4-162.909,100.206a186.632,186.632,0,0,0-9.379,21.75l.009,0ZM351.356,97.6h0c-1.658-2.377-3.418-4.77-5.231-7.113l20.106-7c1.629,2.261,3.241,4.6,4.792,6.954ZM341.963,85.3h0c-1.959-2.348-4.015-4.688-6.111-6.952l18.421-9.9c1.862,2.122,3.724,4.341,5.537,6.594ZM331.4,73.712h0c-2.087-2.1-4.259-4.177-6.455-6.177l16.209-12.68c2.07,1.953,4.131,3.983,6.126,6.033ZM320.386,63.517h0c-2.209-1.879-4.492-3.727-6.785-5.493l13.835-14.989c2.155,1.693,4.3,3.449,6.372,5.219L320.386,63.517Zm-11.5-9h0c-2.325-1.672-4.734-3.319-7.158-4.894l11.348-16.867c2.246,1.464,4.473,2.979,6.619,4.5Z" transform="matrix(0.839, -0.545, 0.545, 0.839, 5788.654, 1766.131)" fill="#fff"/>
      <path id="dottedaxle" d="M1643,1458a75,75,0,1,0-75-75A75,75,0,0,0,1643,1458Zm0-15a60,60,0,1,0-60-60A60,60,0,0,0,1643,1443Zm5.1-127.35a5.25,5.25,0,1,1-5.25-5.25A5.25,5.25,0,0,1,1648.1,1315.65Zm9.75,7.05a5.25,5.25,0,1,0-5.25-5.25A5.25,5.25,0,0,0,1657.85,1322.7Zm18.45-1.65a5.25,5.25,0,1,1-5.25-5.25A5.25,5.25,0,0,1,1676.3,1321.05Zm6.75,12.15a5.25,5.25,0,1,0-5.25-5.25A5.25,5.25,0,0,0,1683.05,1333.2Zm15.75,5.25a5.25,5.25,0,1,1-5.25-5.25A5.25,5.25,0,0,1,1698.8,1338.45Zm3.15,16.65a5.25,5.25,0,1,0-5.25-5.25A5.25,5.25,0,0,0,1701.95,1355.1Zm13.65,22.65a5.25,5.25,0,1,1-5.25-5.25A5.25,5.25,0,0,1,1715.6,1377.75Zm-7.35-8.85a5.25,5.25,0,1,0-5.25-5.25A5.25,5.25,0,0,0,1708.25,1368.9Zm-58.35,80.55a5.25,5.25,0,1,0-5.25,5.25A5.25,5.25,0,0,0,1649.9,1449.45Zm-14.1-.9a5.25,5.25,0,1,0-5.25,5.25A5.25,5.25,0,0,0,1635.8,1448.55Zm-19.35-8.25a5.25,5.25,0,1,1-5.25,5.25A5.25,5.25,0,0,1,1616.45,1440.3Zm-6.75-1.35a5.25,5.25,0,1,0-5.25,5.25A5.25,5.25,0,0,0,1609.7,1438.95Zm-15.75-14.25a5.25,5.25,0,1,1-5.25,5.25A5.25,5.25,0,0,1,1593.95,1424.7Zm-2.85-5.25a5.25,5.25,0,1,0-5.25,5.25A5.25,5.25,0,0,0,1591.1,1419.45Zm-11.55-16.95a5.25,5.25,0,1,1-5.25,5.25A5.25,5.25,0,0,1,1579.55,1402.5Zm1.05-8.25a5.25,5.25,0,1,0-5.25,5.25A5.25,5.25,0,0,0,1580.6,1394.25Zm81.15,48.15a5.25,5.25,0,1,1-5.25,5.25A5.25,5.25,0,0,1,1661.75,1442.4Zm19.35-1.05a5.25,5.25,0,1,0-5.25,5.25A5.25,5.25,0,0,0,1681.1,1441.35Zm8.25-14.85a5.25,5.25,0,1,1-5.25,5.25A5.25,5.25,0,0,1,1689.35,1426.5Zm15.75-6.15a5.25,5.25,0,1,0-5.25,5.25A5.25,5.25,0,0,0,1705.1,1420.35Zm1.05-19.05a5.25,5.25,0,1,1-5.25,5.25A5.25,5.25,0,0,1,1706.15,1401.3Zm4.2-14.7a5.25,5.25,0,1,1-5.25,5.25A5.25,5.25,0,0,1,1710.35,1386.6Zm-82.5-63.9a5.25,5.25,0,1,1,5.25-5.25A5.25,5.25,0,0,1,1627.85,1322.7Zm-18.45-1.65a5.25,5.25,0,1,0,5.25-5.25A5.25,5.25,0,0,0,1609.4,1321.05Zm-6.75,12.15a5.25,5.25,0,1,1,5.25-5.25A5.25,5.25,0,0,1,1602.65,1333.2Zm-15.75,5.25a5.25,5.25,0,1,0,5.25-5.25A5.25,5.25,0,0,0,1586.9,1338.45Zm-3.15,16.65a5.25,5.25,0,1,1,5.25-5.25A5.25,5.25,0,0,1,1583.75,1355.1Zm-13.65,22.65a5.25,5.25,0,1,0,5.25-5.25A5.25,5.25,0,0,0,1570.1,1377.75Zm7.35-8.85a5.25,5.25,0,1,1,5.25-5.25A5.25,5.25,0,0,1,1577.45,1368.9Z" transform="matrix(-0.809, -0.588, 0.588, -0.809, 6585.184, 3909.337)" fill="#fff" stroke="#fff" stroke-linecap="round" stroke-width="1" fill-rule="evenodd"/>
    </g>
    <g id="Group_21" data-name="Group 21" transform="translate(235 1758)">
      <g id="innergeargroup-2" data-name="innergeargroup" transform="matrix(-0.875, 0.485, -0.485, -0.875, 6170.147, 1795.185)">
        <path id="Path_5-2" data-name="Path 5" d="M117.41,224.613c62.534,1.13,112.306-47.761,111.169-109.2S175.83,3.244,113.3,2.113.99,49.875,2.126,111.316,54.876,223.482,117.41,224.613Zm-.137-7.417c58.365,1.055,104.819-44.577,103.758-101.923S171.8,10.585,113.432,9.53,8.614,54.107,9.674,111.453,58.909,216.141,117.273,217.2Z" transform="translate(10.456 9.984)" fill="#0e9bb8" fill-rule="evenodd"/>
        <path id="Path_136-2" data-name="Path 136" d="M.008,0,7.3.1,7.55,17.231l-7.3-.1Z" transform="translate(136.383 3.288) rotate(8.488)" fill="#0e9bb8"/>
        <path id="Path_47-2" data-name="Path 47" d="M0,0,7.3.083l.2,17.071L.2,17.071Z" transform="translate(151.634 6.049) rotate(14.697)" fill="#0e9bb8"/>
        <path id="Path_48-2" data-name="Path 48" d="M0,0,7.319.054l.132,17.033L.132,17.033Z" transform="translate(166.068 10.379) rotate(21.215)" fill="#0e9bb8"/>
        <path id="Path_49-2" data-name="Path 49" d="M0,0,7.327.023l.057,17.012L.057,17.012Z" transform="translate(180.209 16.895) rotate(27.518)" fill="#0e9bb8"/>
        <path id="Path_50-2" data-name="Path 50" d="M0,0,7.328-.016,7.29,16.993l-7.328.016Z" transform="translate(193.105 24.518) rotate(35.311)" fill="#0e9bb8"/>
        <path id="Path_51-2" data-name="Path 51" d="M0,0,7.316-.061l-.147,17.04-7.316.061Z" transform="translate(205.234 33.142) rotate(44.52)" fill="#0e9bb8"/>
        <path id="Path_52-2" data-name="Path 52" d="M0,0,7.3-.088,7.09,16.99l-7.3.088Z" transform="matrix(0.636, 0.772, -0.772, 0.636, 215.42, 43.412)" fill="#0e9bb8"/>
        <path id="Path_53-2" data-name="Path 53" d="M0,0,7.275-.114,7,17.024l-7.275.114Z" transform="matrix(0.534, 0.845, -0.845, 0.534, 225.679, 55.755)" fill="#0e9bb8"/>
        <path id="Path_54-2" data-name="Path 54" d="M0,0,7.254-.128,6.946,17.061l-7.254.128Z" transform="matrix(0.459, 0.888, -0.888, 0.459, 232.995, 67.752)" fill="#0e9bb8"/>
        <path id="Path_55-2" data-name="Path 55" d="M0,0,7.225-.14,6.889,17.118l-7.225.14Z" transform="translate(239.717 81.626) rotate(68.77)" fill="#0e9bb8"/>
        <path id="Path_56-2" data-name="Path 56" d="M0,0,7.184-.146,6.833,17.212l-7.184.146Z" transform="translate(244.501 95.675) rotate(76.985)" fill="#0e9bb8"/>
        <path id="Path_6-2" data-name="Path 6" d="M17.393.324l.979,7.087L1.015,9.106.039,2.019Z" transform="translate(229.982 109.205)" fill="#0e9bb8"/>
        <path id="Path_127-2" data-name="Path 127" d="M0,0,7.123-.133,6.8,17.375l-7.123.133Z" transform="matrix(0.008, 1, -1, 0.008, 249.597, 123.531)" fill="#0e9bb8"/>
        <path id="Path_128-2" data-name="Path 128" d="M.01,0,7.257.135l.318,17.207L.329,17.211Z" transform="translate(127.613 19.585) rotate(180)" fill="#0e9bb8"/>
        <path id="Path_129-2" data-name="Path 129" d="M.012.005,7.2.154l.362,17.3L.374,17.306Z" transform="matrix(-0.989, 0.148, -0.148, -0.989, 113.778, 19.901)" fill="#0e9bb8"/>
        <path id="Path_58-2" data-name="Path 58" d="M.035.015,7.209.16l.352,17.382L.387,17.4Z" transform="translate(100.504 21.767) rotate(165.303)" fill="#0e9bb8"/>
        <path id="Path_59-2" data-name="Path 59" d="M.043.019,7.184.158l.338,17.461L.381,17.479Z" transform="matrix(-0.932, 0.362, -0.362, -0.932, 88.111, 25.005)" fill="#0e9bb8"/>
        <path id="Path_60-2" data-name="Path 60" d="M.048.021,7.16.148,7.468,17.68.356,17.553Z" transform="translate(75.948 30.261) rotate(152.482)" fill="#0e9bb8"/>
        <path id="Path_61-2" data-name="Path 61" d="M.052.023l7.08.1.25,17.608-7.08-.1Z" transform="translate(65.339 36.235) rotate(144.689)" fill="#0e9bb8"/>
        <path id="Path_62-2" data-name="Path 62" d="M.051.023,7.1.088l.159,17.674L.21,17.7Z" transform="translate(55.64 42.683) rotate(135.48)" fill="#0e9bb8"/>
        <path id="Path_63-2" data-name="Path 63" d="M.048.021,7.09.058l.09,17.7L.138,17.721Z" transform="matrix(-0.636, 0.772, -0.772, -0.636, 47.04, 51.276)" fill="#0e9bb8"/>
        <path id="Path_64-2" data-name="Path 64" d="M.042.018H7.079l0,17.712H.044Z" transform="translate(38.469 61.539) rotate(122.309)" fill="#0e9bb8"/>
        <path id="Path_65-2" data-name="Path 65" d="M.036.015l7.04-.025L7.017,17.7l-7.04.025Z" transform="matrix(-0.459, 0.888, -0.888, -0.459, 32.315, 71.997)" fill="#0e9bb8"/>
        <path id="Path_66-2" data-name="Path 66" d="M.027.011,7.075-.043l-.13,17.687L-.1,17.7Z" transform="translate(26.829 83.986) rotate(111.23)" fill="#0e9bb8"/>
        <path id="Path_67-2" data-name="Path 67" d="M.013.006,7.082-.085,6.865,17.551-.2,17.642Z" transform="translate(22.641 95.528) rotate(103.015)" fill="#0e9bb8"/>
        <path id="Path_137-2" data-name="Path 137" d="M0,0,7.081-.109,6.819,17.468l-7.081.109Z" transform="translate(20.565 107.438) rotate(96.705)" fill="#0e9bb8"/>
        <path id="Path_131-2" data-name="Path 131" d="M0,0,7.117-.13,6.8,17.387l-7.117.13Z" transform="matrix(-0.008, 1, -1, -0.008, 19.85, 119.514)" fill="#0e9bb8"/>
        <path id="Path_132-2" data-name="Path 132" d="M.011,0,7.24.143,7.576,17.38.348,17.242Z" transform="translate(135.264 244.204) rotate(177.126)" fill="#0e9bb8"/>
        <path id="Path_138-2" data-name="Path 138" d="M.009,0l7.28.113.273,17.151-7.28-.113Z" transform="matrix(-0.995, -0.098, 0.098, -0.995, 120.576, 244.24)" fill="#0e9bb8"/>
        <path id="Path_70-2" data-name="Path 70" d="M0,0,7.294.095l.23,17.092L.23,17.092Z" transform="translate(105.221 241.932) rotate(-168.177)" fill="#0e9bb8"/>
        <path id="Path_71-2" data-name="Path 71" d="M0,0,7.312.067l.164,17.047L.164,17.047Z" transform="translate(90.613 238.313) rotate(-161.659)" fill="#0e9bb8"/>
        <path id="Path_72-2" data-name="Path 72" d="M0,0,7.324.037l.092,17.019L.092,17.019Z" transform="matrix(-0.909, -0.417, 0.417, -0.909, 75.868, 231.89)" fill="#0e9bb8"/>
        <path id="Path_73-2" data-name="Path 73" d="M0,0,7.329,0l0,17.007L0,17.007Z" transform="matrix(-0.844, -0.536, 0.536, -0.844, 62.93, 224.899)" fill="#0e9bb8"/>
        <path id="Path_74-2" data-name="Path 74" d="M0,0,7.321-.048,7.207,16.979l-7.321.048Z" transform="translate(50.33 216.575) rotate(-138.353)" fill="#0e9bb8"/>
        <path id="Path_75-2" data-name="Path 75" d="M0,0,7.308-.076,7.127,16.982l-7.308.076Z" transform="translate(39.715 206.802) rotate(-132.341)" fill="#0e9bb8"/>
        <path id="Path_76-2" data-name="Path 76" d="M0,0,7.286-.1l-.25,17.112-7.286.1Z" transform="translate(30.081 196.162) rotate(-125.182)" fill="#0e9bb8"/>
        <path id="Path_77-2" data-name="Path 77" d="M0,0,7.266-.12,6.977,17.039l-7.266.12Z" transform="translate(21.873 184.516) rotate(-120.211)" fill="#0e9bb8"/>
        <path id="Path_78-2" data-name="Path 78" d="M0,0,7.239-.135,6.914,17.09l-7.239.135Z" transform="translate(14.457 170.372) rotate(-114.104)" fill="#0e9bb8"/>
        <path id="Path_79-2" data-name="Path 79" d="M0,0,7.2-.145l-.35,17.322-7.2.145Z" transform="translate(8.979 157.141) rotate(-105.888)" fill="#0e9bb8"/>
        <path id="Path_134-2" data-name="Path 134" d="M0,0,7.182-.152,6.817,17.255l-7.182.152Z" transform="translate(5.104 143.417) rotate(-99.579)" fill="#0e9bb8"/>
        <path id="Path_135-2" data-name="Path 135" d="M.012,0,7.22.15l.352,17.272L.364,17.277Z" transform="translate(138.578 226.926) rotate(-5.96)" fill="#0e9bb8"/>
        <path id="Path_82-2" data-name="Path 82" d="M.034.015,7.21.16l.353,17.379L.387,17.394Z" transform="translate(149.262 225.587) rotate(-14.449)" fill="#0e9bb8"/>
        <path id="Path_83-2" data-name="Path 83" d="M.042.018l7.144.14.34,17.454-7.144-.14Z" transform="matrix(0.936, -0.353, 0.353, 0.936, 162.182, 222.08)" fill="#0e9bb8"/>
        <path id="Path_84-2" data-name="Path 84" d="M.048.021,7.162.149l.31,17.528L.358,17.549Z" transform="matrix(0.89, -0.457, 0.457, 0.89, 174.028, 217.589)" fill="#0e9bb8"/>
        <path id="Path_85-2" data-name="Path 85" d="M.051.023,7.139.132,7.4,17.724.317,17.614Z" transform="translate(185.777 211.061) rotate(-33.478)" fill="#0e9bb8"/>
        <path id="Path_86-2" data-name="Path 86" d="M.052.023,7.113.1l.194,17.655L.246,17.677Z" transform="translate(195.405 203.754) rotate(-41.272)" fill="#0e9bb8"/>
        <path id="Path_87-2" data-name="Path 87" d="M.048.021,7.09.058l.091,17.7L.139,17.721Z" transform="matrix(0.636, -0.771, 0.771, 0.636, 203.162, 197.485)" fill="#0e9bb8"/>
        <path id="Path_88-2" data-name="Path 88" d="M.043.019,7.081.025,7.1,17.737.06,17.73Z" transform="translate(211.012 187.742) rotate(-56.493)" fill="#0e9bb8"/>
        <path id="Path_89-2" data-name="Path 89" d="M.034.015l7.04-.03L7,17.69l-7.04.03Z" transform="matrix(0.444, -0.896, 0.896, 0.444, 217.741, 177.96)" fill="#0e9bb8"/>
        <path id="Path_90-2" data-name="Path 90" d="M.027.012,7.075-.042,6.946,17.645-.1,17.7Z" transform="translate(223.622 166.267) rotate(-68.623)" fill="#0e9bb8"/>
        <path id="Path_91-2" data-name="Path 91" d="M.017.007,7.079-.074,6.884,17.578l-7.062.081Z" transform="translate(227.708 154.334) rotate(-74.73)" fill="#0e9bb8"/>
        <path id="Path_139-2" data-name="Path 139" d="M0,0,7.079-.107,6.82,17.473l-7.079.107Z" transform="matrix(0.123, -0.992, 0.992, 0.123, 230.744, 143.028)" fill="#0e9bb8"/>
      </g>
      <g id="innermostgear-2" data-name="innermostgear" transform="matrix(0.225, -0.974, 0.974, 0.225, 5888.397, 1814.094)">
        <path id="Path_34-2" data-name="Path 34" d="M6.319,107.638l-.916-.255,3.489.034a87.708,87.708,0,0,0,3.056,12.608,1.547,1.547,0,0,1,.551.738l1.718,4.758a1.583,1.583,0,0,1,.061.867q.818,1.986,1.725,3.921a1.528,1.528,0,0,1,.19.282l2.368,4.458a1.587,1.587,0,0,1,.181.611q1.143,2.054,2.391,4.036l2.371,3.44a1.57,1.57,0,0,1,.206.42q1.21,1.713,2.5,3.362a1.529,1.529,0,0,1,.348.316l3.168,3.9a.227.227,0,0,0,.024.029q1.517,1.705,3.122,3.325a1.493,1.493,0,0,1,.512.324L37,158.263a1.537,1.537,0,0,1,.293.381q1.607,1.408,3.286,2.733a1.5,1.5,0,0,1,.4.21l4.011,2.947a1.541,1.541,0,0,1,.322.32q1.736,1.183,3.528,2.277a1.461,1.461,0,0,1,.279.11l4.4,2.261a1.531,1.531,0,0,1,.626.6q1.549.794,3.134,1.523a1.425,1.425,0,0,1,.519.1l4.6,1.753a1.49,1.49,0,0,1,.7.558c1.134.417,2.282.81,3.436,1.176a1.394,1.394,0,0,1,.886-.053l4.742,1.251a1.471,1.471,0,0,1,.81.55q1.751.4,3.522.715a1.393,1.393,0,0,1,.667-.07l4.842.657a1.444,1.444,0,0,1,.67.272q1.468.145,2.947.237l.025,2.68q-1.441-.086-2.871-.223l-2.757,5.418a1.449,1.449,0,0,1-2.711-.367l-1.528-6.025q-1.654-.3-3.285-.673l-3.271,4.886a1.459,1.459,0,0,1-2.656-.7l-.811-6.017c-1.113-.355-2.22-.732-3.312-1.132l-3.787,4.539a1.468,1.468,0,0,1-2.576-.982l-.213-6.285q-1.323-.616-2.623-1.278l-4.259,4.085a1.483,1.483,0,0,1-2.468-1.267l.459-6.353q-1.29-.8-2.55-1.648l-5.02,3.443a1.5,1.5,0,0,1-2.252-1.655l1.4-6.1q-1.256-1.009-2.481-2.065l-5.413,2.724a1.516,1.516,0,0,1-2.032-1.942l2.133-5.773q-1.121-1.143-2.2-2.327l-5.812,2.01a1.532,1.532,0,0,1-1.785-2.194l2.856-5.474q-.92-1.193-1.8-2.419l-5.844,1.476a1.539,1.539,0,0,1-1.608-2.336l3.375-5.349q-.62-1.028-1.208-2.075l-5.918.737a1.549,1.549,0,0,1-1.335-2.515l3.9-4.8q-.739-1.614-1.424-3.264l-5.85-.173a1.558,1.558,0,0,1-.97-2.687l4.331-3.941q-.506-1.576-.957-3.178L2.429,116.8a1.561,1.561,0,0,1-.737-2.763l5.084-3.837C6.613,109.353,6.459,108.5,6.319,107.638Zm166.332-5.871q.084-1.382.123-2.775l2.3-.921,3.258-1.265a1.475,1.475,0,0,0,.932-1.442,1.544,1.544,0,0,0-.959-1.46l-3.282-1.328-2.321-.968q-.075-1.459-.194-2.906l5.344-2.891a1.56,1.56,0,0,0-.342-2.838l-5.914-1.65c-.149-.885-.306-1.766-.478-2.643l4.947-3.735a1.561,1.561,0,0,0-.737-2.763l-5.94-.73q-.472-1.657-1-3.287l4.226-3.849a1.558,1.558,0,0,0-.97-2.687l-5.733-.169q-.705-1.694-1.474-3.351l3.832-4.716a1.551,1.551,0,0,0-1.338-2.515l-5.836.727q-.607-1.074-1.246-2.13l3.332-5.284a1.539,1.539,0,0,0-1.608-2.336l-5.794,1.464q-.894-1.239-1.829-2.445l2.836-5.435A1.531,1.531,0,0,0,155,33.244l-5.795,2q-1.087-1.185-2.214-2.329l2.13-5.765a1.518,1.518,0,0,0-2.035-1.942l-5.425,2.731q-1.222-1.046-2.475-2.047l1.41-6.124a1.5,1.5,0,0,0-2.252-1.655l-5.058,3.47q-1.246-.829-2.515-1.614l.462-6.414a1.481,1.481,0,0,0-2.465-1.267l-4.32,4.14q-1.271-.641-2.561-1.239l-.214-6.38a1.47,1.47,0,0,0-2.579-.982l-3.856,4.625q-1.6-.578-3.224-1.092l-.827-6.143a1.459,1.459,0,0,0-2.656-.7l-3.355,5.006q-1.571-.35-3.164-.64l-1.568-6.179a1.449,1.449,0,0,0-2.711-.367L94.9,7.915q-1.635-.15-3.286-.236l-2.2-5.75a1.579,1.579,0,0,0-.413-.613,1.428,1.428,0,0,0-2.384.519L84.5,7.62q-1.01.036-2.016.1l.025,2.683c.813-.051,1.633-.089,2.452-.114a1.43,1.43,0,0,0,.734.21l4.871.047a1.378,1.378,0,0,0,.736-.2q2.087.1,4.148.311a1.484,1.484,0,0,0,.3.072l4.842.657a1.431,1.431,0,0,0,.281.01q2.045.352,4.059.807a1.457,1.457,0,0,0,.659.378l4.745,1.251a1.391,1.391,0,0,0,.694.008q1.894.59,3.747,1.271a1.494,1.494,0,0,0,.583.4l4.6,1.753a1.451,1.451,0,0,0,.264.073q1.755.794,3.47,1.669a1.5,1.5,0,0,0,.549.478l4.321,2.221q2.027,1.216,3.984,2.547a1.473,1.473,0,0,0,.221.2L136.78,27.4a1.536,1.536,0,0,0,.321.181q1.725,1.351,3.38,2.792a1.518,1.518,0,0,0,.275.351l3.615,3.455a1.515,1.515,0,0,0,.53.329q1.542,1.55,3.009,3.181a1.6,1.6,0,0,0,.122.168l3.168,3.9a1.529,1.529,0,0,0,.437.371q1.222,1.554,2.371,3.168a1.59,1.59,0,0,0,.245.559L157.107,50a1.636,1.636,0,0,0,.139.176q.909,1.473,1.76,2.986a1.573,1.573,0,0,0,.186.779l2.368,4.458a1.533,1.533,0,0,0,.388.475q.824,1.758,1.573,3.56a1.571,1.571,0,0,0,.018,1.035l1.715,4.758a1.536,1.536,0,0,0,.716.842q.57,1.768,1.072,3.569a1.556,1.556,0,0,0,.041.621l1.271,4.77q.464,2.209.817,4.459a1.52,1.52,0,0,0,.009.305l.606,5.02a1.615,1.615,0,0,0,.088.362q.176,1.979.271,3.982a1.573,1.573,0,0,0-.117.618l.038,2.5.009,2.5a1.668,1.668,0,0,0,.132.634q-.042,1.674-.145,3.331Z" transform="translate(0 0)" fill="#19e7f6" fill-rule="evenodd"/>
      </g>
      <path id="linedgear-2" data-name="linedgear" d="M156.063,300.355h-.006a153.887,153.887,0,0,1-34.468-4.645,157,157,0,0,1-17.064-5.361A160.19,160.19,0,0,1,87.8,282.9a157.271,157.271,0,0,1-57.709-50.713,155.911,155.911,0,0,1-12.432-21.591A153.948,153.948,0,0,1,8.916,187.5a150.758,150.758,0,0,1-4.872-24.084,146.861,146.861,0,0,1-.83-24.571A143.53,143.53,0,0,1,6.6,114.3h0l-.037-.015,0-.018c.189-.8,1.193-4.977,2.346-8.8-.481,1.626-.943,3.293-1.371,4.956C7.213,111.692,6.9,113,6.6,114.3h0l14.314,5.581c-12.6,59.439,17.616,121.081,73.478,149.9a142.376,142.376,0,0,0,30.414,11.533,138.464,138.464,0,0,0,31.021,4.18c51.437,1.036,97.37-26.122,119.875-70.876a129.392,129.392,0,0,0,13.312-68.279,137.681,137.681,0,0,0-22.545-65l16.036-2.259a154.457,154.457,0,0,1,15.18,33.753,150.047,150.047,0,0,1,6.574,36.133,144.607,144.607,0,0,1-2.616,36.821,141.554,141.554,0,0,1-68.015,94.786,146.7,146.7,0,0,1-37.18,15.136A150.873,150.873,0,0,1,156.063,300.355ZM20.982,119.9h0l-.066-.026c.324-1.528.679-3.065,1.056-4.569l.025-.1.017-.067-1.031,4.76Zm1.037-4.786h0l.515-2.377.933-2.885C22.949,111.587,22.463,113.357,22.019,115.116Zm1.458-5.3h0c.522-1.751,1.091-3.518,1.691-5.253L11.679,97.214c-.012.032-1.4,3.766-2.689,7.994l-.016.052-.008.025h0c1.182-3.974,2.553-7.939,4.074-11.787,1.562-3.949,3.325-7.885,5.242-11.7A141.053,141.053,0,0,1,73.906,22.835,146.717,146.717,0,0,1,111.088,7.7a150.872,150.872,0,0,1,40.387-4.646A153.846,153.846,0,0,1,185.944,7.7a156.908,156.908,0,0,1,17.062,5.361,160.229,160.229,0,0,1,16.73,7.454c2.6,1.342,5.2,2.772,7.712,4.25l-5.76,13.653c-2.775-1.679-5.652-3.288-8.549-4.783A142.368,142.368,0,0,0,182.725,22.1a138.465,138.465,0,0,0-31.021-4.18c-51.437-1.036-97.37,26.122-119.875,70.876a129.394,129.394,0,0,0-6.662,15.774l.007,0ZM263.251,76.686h0c-1.271-1.764-2.618-3.542-4-5.284l14.876-4.819c1.247,1.679,2.484,3.415,3.675,5.16Zm-7.183-9.136h0c-1.495-1.748-3.062-3.49-4.657-5.179L264.988,55.4c1.419,1.581,2.84,3.232,4.224,4.908Zm-8.041-8.639h0c-1.586-1.567-3.236-3.12-4.9-4.617l11.887-9.035c1.572,1.46,3.138,2.977,4.655,4.506Zm-8.363-7.625h0c-1.674-1.408-3.4-2.794-5.138-4.121L244.609,36.4c1.631,1.271,3.255,2.588,4.826,3.914l-9.77,10.967Zm-8.7-6.76h0c-1.758-1.259-3.577-2.5-5.407-3.688l8.2-12.171c1.7,1.1,3.377,2.247,5,3.395Z" transform="matrix(0.839, -0.545, 0.545, 0.839, 5788.654, 1704.868)" fill="#fff"/>
      <path id="dottedaxle-2" data-name="dottedaxle" d="M53.416,108.825c30.8-.647,56.285-25.8,56.932-56.171S86.555-1.819,55.76-1.172-.525,24.624-1.172,55,22.621,109.472,53.416,108.825Zm.234-11C78.287,97.307,98.678,77.189,99.2,52.889S80.163,9.31,55.526,9.828,10.5,30.464,9.98,54.764,29.013,98.343,53.65,97.825ZM59.432,4.358A4.081,4.081,0,0,1,55.447,8.29a3.684,3.684,0,0,1-3.821-3.768A4.081,4.081,0,0,1,55.611.59,3.685,3.685,0,0,1,59.432,4.358Zm7.139,5.018a4.081,4.081,0,0,0,3.985-3.932,3.685,3.685,0,0,0-3.821-3.768A4.081,4.081,0,0,0,62.75,5.608,3.684,3.684,0,0,0,66.571,9.375Zm13.743-1.5a4.081,4.081,0,0,1-3.985,3.932,3.684,3.684,0,0,1-3.821-3.768,4.081,4.081,0,0,1,3.985-3.932A3.684,3.684,0,0,1,80.314,7.877Zm4.829,8.8a4.081,4.081,0,0,0,3.985-3.932,3.684,3.684,0,0,0-3.821-3.768,4.081,4.081,0,0,0-3.985,3.932A3.684,3.684,0,0,0,85.142,16.681Zm11.627,3.6a4.081,4.081,0,0,1-3.985,3.932,3.684,3.684,0,0,1-3.821-3.768,4.081,4.081,0,0,1,3.985-3.932A3.685,3.685,0,0,1,96.77,20.285Zm2.082,12.161a4.081,4.081,0,0,0,3.985-3.932,3.685,3.685,0,0,0-3.821-3.768,4.081,4.081,0,0,0-3.985,3.932A3.685,3.685,0,0,0,98.852,32.446Zm9.794,16.4a4.081,4.081,0,0,1-3.985,3.932,3.685,3.685,0,0,1-3.821-3.768,4.081,4.081,0,0,1,3.985-3.932A3.685,3.685,0,0,1,108.646,48.842Zm-5.326-6.375a4.081,4.081,0,0,0,3.985-3.932,3.684,3.684,0,0,0-3.821-3.768A4.081,4.081,0,0,0,99.5,38.7,3.685,3.685,0,0,0,103.32,42.467Zm-44.64,59.98a3.685,3.685,0,0,0-3.821-3.768,4.081,4.081,0,0,0-3.985,3.932,3.684,3.684,0,0,0,3.821,3.768A4.081,4.081,0,0,0,58.68,102.447Zm-10.469-.44A3.685,3.685,0,0,0,44.39,98.24a4.081,4.081,0,0,0-3.985,3.932,3.685,3.685,0,0,0,3.821,3.768A4.081,4.081,0,0,0,48.211,102.007ZM33.953,96.26a3.684,3.684,0,0,1,3.821,3.768,4.081,4.081,0,0,1-3.985,3.932,3.684,3.684,0,0,1-3.821-3.768A4.081,4.081,0,0,1,33.953,96.26Zm-5-.885a3.685,3.685,0,0,0-3.821-3.768A4.081,4.081,0,0,0,21.15,95.54a3.685,3.685,0,0,0,3.821,3.768A4.081,4.081,0,0,0,28.956,95.376Zm-11.487-10.2A3.684,3.684,0,0,1,21.29,88.94a4.081,4.081,0,0,1-3.985,3.932A3.685,3.685,0,0,1,13.484,89.1,4.081,4.081,0,0,1,17.469,85.172Zm-2.037-3.805A3.684,3.684,0,0,0,11.611,77.6a4.081,4.081,0,0,0-3.985,3.932A3.685,3.685,0,0,0,11.447,85.3,4.081,4.081,0,0,0,15.432,81.367ZM7.11,69.117a3.685,3.685,0,0,1,3.821,3.768,4.081,4.081,0,0,1-3.985,3.932,3.685,3.685,0,0,1-3.821-3.768A4.081,4.081,0,0,1,7.11,69.117Zm.91-6.066A3.684,3.684,0,0,0,4.2,59.284,4.081,4.081,0,0,0,.214,63.215a3.685,3.685,0,0,0,3.821,3.768A4.081,4.081,0,0,0,8.02,63.051ZM67.6,97.092a3.684,3.684,0,0,1,3.821,3.768,4.081,4.081,0,0,1-3.985,3.932,3.685,3.685,0,0,1-3.821-3.768A4.081,4.081,0,0,1,67.6,97.092ZM82,96.02a3.685,3.685,0,0,0-3.821-3.768A4.081,4.081,0,0,0,74.2,96.184a3.684,3.684,0,0,0,3.821,3.768A4.081,4.081,0,0,0,82,96.02ZM88.368,85a3.685,3.685,0,0,1,3.821,3.768A4.081,4.081,0,0,1,88.2,92.7a3.684,3.684,0,0,1-3.821-3.768A4.081,4.081,0,0,1,88.368,85Zm11.806-4.756a3.685,3.685,0,0,0-3.821-3.768,4.081,4.081,0,0,0-3.985,3.932,3.684,3.684,0,0,0,3.821,3.768A4.081,4.081,0,0,0,100.174,80.245Zm1.078-13.986a3.684,3.684,0,0,1,3.821,3.768,4.081,4.081,0,0,1-3.985,3.932,3.685,3.685,0,0,1-3.821-3.768A4.081,4.081,0,0,1,101.252,66.259ZM104.6,55.414a3.685,3.685,0,0,1,3.821,3.768,4.081,4.081,0,0,1-3.985,3.932,3.685,3.685,0,0,1-3.821-3.768A4.081,4.081,0,0,1,104.6,55.414ZM44.267,9.844a3.684,3.684,0,0,1-3.821-3.768,4.081,4.081,0,0,1,3.985-3.932,3.685,3.685,0,0,1,3.821,3.768A4.081,4.081,0,0,1,44.267,9.844ZM30.576,8.923A3.685,3.685,0,0,0,34.4,12.691a4.081,4.081,0,0,0,3.985-3.932,3.684,3.684,0,0,0-3.821-3.768A4.081,4.081,0,0,0,30.576,8.923Zm-5.208,9.015a3.684,3.684,0,0,1-3.821-3.768,4.081,4.081,0,0,1,3.985-3.932,3.685,3.685,0,0,1,3.821,3.768A4.081,4.081,0,0,1,25.367,17.938Zm-11.792,4.1A3.684,3.684,0,0,0,17.4,25.8a4.081,4.081,0,0,0,3.985-3.932A3.685,3.685,0,0,0,17.561,18.1,4.081,4.081,0,0,0,13.576,22.034Zm-2.6,12.259a3.685,3.685,0,0,1-3.821-3.768,4.081,4.081,0,0,1,3.985-3.932,3.685,3.685,0,0,1,3.821,3.768A4.081,4.081,0,0,1,10.974,34.293ZM.471,51.116a3.685,3.685,0,0,0,3.821,3.768,4.081,4.081,0,0,0,3.985-3.932,3.684,3.684,0,0,0-3.821-3.768A4.081,4.081,0,0,0,.471,51.116Zm5.6-6.6a3.685,3.685,0,0,1-3.821-3.768,4.081,4.081,0,0,1,3.985-3.932,3.685,3.685,0,0,1,3.821,3.768A4.081,4.081,0,0,1,6.074,44.511Z" transform="matrix(-0.809, -0.588, 0.588, -0.809, 6012.696, 1822.811)" fill="#fff" stroke="#fff" stroke-linecap="round" stroke-width="1" fill-rule="evenodd"/>
    </g>
    <g id="Group_22" data-name="Group 22" transform="translate(316 2134)">
      <g id="innergeargroup-3" data-name="innergeargroup" transform="matrix(-0.875, 0.485, -0.485, -0.875, 6035.112, 1703.723)">
        <path id="Path_5-3" data-name="Path 5" d="M75.039,143.348c40.4.882,72.433-30.429,71.547-69.934S112.231,1.169,71.83.288-.6,30.716.283,70.221,34.638,142.466,75.039,143.348Zm-.107-4.769c37.707.823,67.6-28.4,66.777-65.271S109.644,5.879,71.937,5.056,4.332,33.456,5.16,70.328,37.225,137.756,74.932,138.579Z" transform="translate(6.669 6.348)" fill="#0e9bb8" fill-rule="evenodd"/>
        <path id="Path_136-3" data-name="Path 136" d="M0,0,4.718.079l.192,11L.192,11Z" transform="translate(86.643 1.007) rotate(8.488)" fill="#0e9bb8"/>
        <path id="Path_47-3" data-name="Path 47" d="M0,0,4.725.064,4.88,11.021.155,10.958Z" transform="translate(96.497 2.817) rotate(14.697)" fill="#0e9bb8"/>
        <path id="Path_48-3" data-name="Path 48" d="M0,0,4.737.04l.1,10.929L.1,10.929Z" transform="translate(105.832 5.637) rotate(21.215)" fill="#0e9bb8"/>
        <path id="Path_49-3" data-name="Path 49" d="M0,0,4.743.016l.04,10.914L.04,10.914Z" transform="translate(114.983 9.861) rotate(27.518)" fill="#0e9bb8"/>
        <path id="Path_50-3" data-name="Path 50" d="M.025.011,4.768,0,4.733,10.909l-4.744.015Z" transform="translate(123.32 14.771) rotate(35.311)" fill="#0e9bb8"/>
        <path id="Path_51-3" data-name="Path 51" d="M.095.039l4.733-.05L4.707,10.928l-4.733.05Z" transform="translate(131.15 20.274) rotate(44.52)" fill="#0e9bb8"/>
        <path id="Path_52-3" data-name="Path 52" d="M.136.056l4.72-.071-.17,10.97-4.72.071Z" transform="matrix(0.636, 0.772, -0.772, 0.636, 137.753, 26.856)" fill="#0e9bb8"/>
        <path id="Path_53-3" data-name="Path 53" d="M.176.072l4.7-.091L4.658,11l-4.7.091Z" transform="matrix(0.534, 0.845, -0.845, 0.534, 144.421, 34.77)" fill="#0e9bb8"/>
        <path id="Path_54-3" data-name="Path 54" d="M.2.081l4.683-.1L4.637,11.039l-4.683.1Z" transform="matrix(0.459, 0.888, -0.888, 0.459, 149.192, 42.475)" fill="#0e9bb8"/>
        <path id="Path_55-3" data-name="Path 55" d="M.217.089,4.877-.022,4.611,11.092-.05,11.2Z" transform="translate(153.592 51.391) rotate(68.77)" fill="#0e9bb8"/>
        <path id="Path_56-3" data-name="Path 56" d="M.226.093,4.854-.022,4.577,11.171l-4.628.115Z" transform="translate(156.753 60.428) rotate(76.985)" fill="#0e9bb8"/>
        <path id="Path_6-3" data-name="Path 6" d="M11.211.043l.65,4.559L.652,5.648,0,1.09Z" transform="translate(147.392 69.541)" fill="#0e9bb8"/>
        <path id="Path_127-3" data-name="Path 127" d="M.205.085l4.58-.1-.249,11.31-4.58.1Z" transform="matrix(0.008, 1, -1, 0.008, 160.157, 78.385)" fill="#0e9bb8"/>
        <path id="Path_128-3" data-name="Path 128" d="M0,0,4.682.1,4.93,11.165l-4.682-.1Z" transform="translate(81.005 11.457) rotate(180)" fill="#0e9bb8"/>
        <path id="Path_129-3" data-name="Path 129" d="M0,0,4.641.116l.283,11.138L.283,11.138Z" transform="matrix(-0.989, 0.148, -0.148, -0.989, 72.068, 11.626)" fill="#0e9bb8"/>
        <path id="Path_58-3" data-name="Path 58" d="M0,0,4.625.114l.278,11.2L.278,11.2Z" transform="translate(63.481 12.792) rotate(165.303)" fill="#0e9bb8"/>
        <path id="Path_59-3" data-name="Path 59" d="M0,0,4.6.11l.268,11.263-4.6-.11Z" transform="matrix(-0.932, 0.362, -0.362, -0.932, 55.477, 14.845)" fill="#0e9bb8"/>
        <path id="Path_60-3" data-name="Path 60" d="M0,0,4.576.1l.245,11.32-4.576-.1Z" transform="translate(47.628 18.198) rotate(152.482)" fill="#0e9bb8"/>
        <path id="Path_61-3" data-name="Path 61" d="M0,0,4.55.083l.2,11.381L.2,11.381Z" transform="translate(40.788 22.017) rotate(144.689)" fill="#0e9bb8"/>
        <path id="Path_62-3" data-name="Path 62" d="M0,0,4.528.053l.13,11.434L.13,11.434Z" transform="translate(34.54 26.144) rotate(135.48)" fill="#0e9bb8"/>
        <path id="Path_63-3" data-name="Path 63" d="M0,0,4.519.031,4.6,11.487.076,11.456Z" transform="matrix(-0.636, 0.772, -0.772, -0.636, 29.009, 31.65)" fill="#0e9bb8"/>
        <path id="Path_64-3" data-name="Path 64" d="M0,0,4.515,0l.008,11.466-4.515,0Z" transform="translate(23.503 38.228) rotate(122.309)" fill="#0e9bb8"/>
        <path id="Path_65-3" data-name="Path 65" d="M.037.016,4.553,0l-.04,11.463L0,11.479Z" transform="matrix(-0.459, 0.888, -0.888, -0.459, 19.59, 44.911)" fill="#0e9bb8"/>
        <path id="Path_66-3" data-name="Path 66" d="M.083.035,4.606-.006l-.1,11.448-4.522.041Z" transform="translate(16.113 52.563) rotate(111.23)" fill="#0e9bb8"/>
        <path id="Path_67-3" data-name="Path 67" d="M.139.058l4.538-.07L4.511,11.4l-4.538.07Z" transform="translate(13.469 59.91) rotate(103.015)" fill="#0e9bb8"/>
        <path id="Path_137-3" data-name="Path 137" d="M.168.07,4.717-.015l-.2,11.365-4.549.085Z" transform="translate(12.164 67.519) rotate(96.705)" fill="#0e9bb8"/>
        <path id="Path_131-3" data-name="Path 131" d="M.2.083l4.576-.1L4.533,11.3l-4.576.1Z" transform="matrix(-0.008, 1, -1, -0.008, 11.728, 75.239)" fill="#0e9bb8"/>
        <path id="Path_132-3" data-name="Path 132" d="M0,0,4.668.108,4.931,11.2.262,11.088Z" transform="translate(86.504 155.889) rotate(177.126)" fill="#0e9bb8"/>
        <path id="Path_138-3" data-name="Path 138" d="M0,0,4.706.088l.213,11.02L.213,11.02Z" transform="matrix(-0.995, -0.098, 0.098, -0.995, 77.017, 155.875)" fill="#0e9bb8"/>
        <path id="Path_70-3" data-name="Path 70" d="M0,0,4.718.073,4.9,11.047.177,10.975Z" transform="translate(67.097 154.356) rotate(-168.177)" fill="#0e9bb8"/>
        <path id="Path_71-3" data-name="Path 71" d="M0,0,4.733.051l.124,10.94L.124,10.94Z" transform="translate(57.651 151.993) rotate(-161.659)" fill="#0e9bb8"/>
        <path id="Path_72-3" data-name="Path 72" d="M0,0,4.741.027l.067,10.919L.067,10.919Z" transform="matrix(-0.909, -0.417, 0.417, -0.909, 48.11, 147.828)" fill="#0e9bb8"/>
        <path id="Path_73-3" data-name="Path 73" d="M0,0,4.746,0,4.739,10.909l-4.745,0Z" transform="matrix(-0.844, -0.536, 0.536, -0.844, 39.735, 143.303)" fill="#0e9bb8"/>
        <path id="Path_74-3" data-name="Path 74" d="M.074.031l4.738-.04L4.716,10.919l-4.738.04Z" transform="translate(31.609 137.989) rotate(-138.353)" fill="#0e9bb8"/>
        <path id="Path_75-3" data-name="Path 75" d="M.117.048,4.844-.013,4.7,10.941-.03,11Z" transform="translate(24.735 131.727) rotate(-132.341)" fill="#0e9bb8"/>
        <path id="Path_76-3" data-name="Path 76" d="M.161.066,4.87-.017l-.2,11-4.709.084Z" transform="translate(18.481 124.914) rotate(-125.182)" fill="#0e9bb8"/>
        <path id="Path_77-3" data-name="Path 77" d="M.186.077l4.693-.1L4.649,11.016l-4.693.1Z" transform="translate(13.138 117.435) rotate(-120.211)" fill="#0e9bb8"/>
        <path id="Path_78-3" data-name="Path 78" d="M.209.086,4.881-.021,4.623,11.067l-4.672.107Z" transform="translate(8.292 108.35) rotate(-114.104)" fill="#0e9bb8"/>
        <path id="Path_79-3" data-name="Path 79" d="M.225.093l4.64-.115L4.589,11.143l-4.64.115Z" transform="translate(4.686 99.846) rotate(-105.888)" fill="#0e9bb8"/>
        <path id="Path_134-3" data-name="Path 134" d="M.234.1,4.858-.021l-.284,11.23-4.624.118Z" transform="translate(2.12 91.018) rotate(-99.579)" fill="#0e9bb8"/>
        <path id="Path_135-3" data-name="Path 135" d="M0,0,4.653.113l.275,11.115L.275,11.115Z" transform="translate(88.617 144.793) rotate(-5.96)" fill="#0e9bb8"/>
        <path id="Path_82-3" data-name="Path 82" d="M0,0,4.626.114l.278,11.2L.278,11.2Z" transform="translate(95.532 143.961) rotate(-14.449)" fill="#0e9bb8"/>
        <path id="Path_83-3" data-name="Path 83" d="M0,0,4.6.111l.269,11.258-4.6-.111Z" transform="matrix(0.936, -0.353, 0.353, 0.936, 103.876, 141.736)" fill="#0e9bb8"/>
        <path id="Path_84-3" data-name="Path 84" d="M0,0,4.577.1l.247,11.317-4.577-.1Z" transform="matrix(0.89, -0.457, 0.457, 0.89, 111.521, 138.874)" fill="#0e9bb8"/>
        <path id="Path_85-3" data-name="Path 85" d="M0,0,4.556.088l.213,11.367L.213,11.367Z" transform="translate(119.097 134.702) rotate(-33.478)" fill="#0e9bb8"/>
        <path id="Path_86-3" data-name="Path 86" d="M0,0,4.535.064l.157,11.418L.157,11.418Z" transform="translate(125.299 130.023) rotate(-41.272)" fill="#0e9bb8"/>
        <path id="Path_87-3" data-name="Path 87" d="M0,0,4.519.031,4.6,11.487.077,11.456Z" transform="matrix(0.636, -0.771, 0.771, 0.636, 130.289, 126.008)" fill="#0e9bb8"/>
        <path id="Path_88-3" data-name="Path 88" d="M0,0,4.515.007l.019,11.466L.019,11.466Z" transform="translate(135.331 119.762) rotate(-56.493)" fill="#0e9bb8"/>
        <path id="Path_89-3" data-name="Path 89" d="M.045.019,4.562,0,4.512,11.46,0,11.481Z" transform="matrix(0.444, -0.896, 0.896, 0.444, 139.61, 113.522)" fill="#0e9bb8"/>
        <path id="Path_90-3" data-name="Path 90" d="M.082.035,4.6-.006l-.1,11.449-4.522.04Z" transform="translate(143.35 106.053) rotate(-68.623)" fill="#0e9bb8"/>
        <path id="Path_91-3" data-name="Path 91" d="M.125.052,4.658-.01,4.509,11.413l-4.533.062Z" transform="translate(145.933 98.438) rotate(-74.73)" fill="#0e9bb8"/>
        <path id="Path_139-3" data-name="Path 139" d="M.166.069,4.713-.015l-.2,11.368-4.547.084Z" transform="matrix(0.123, -0.992, 0.992, 0.123, 147.854, 91.236)" fill="#0e9bb8"/>
      </g>
      <g id="innermostgear-3" data-name="innermostgear" transform="matrix(0.225, -0.974, 0.974, 0.225, 5855.416, 1715.842)">
        <path id="Path_34-3" data-name="Path 34" d="M3.485,69.092,2.9,68.925l2.24.026a57.3,57.3,0,0,0,1.977,8.162,1.006,1.006,0,0,1,.355.478l1.109,3.081a1.033,1.033,0,0,1,.04.561q.527,1.286,1.112,2.539a1,1,0,0,1,.122.183l1.526,2.888a1.037,1.037,0,0,1,.117.4q.736,1.33,1.54,2.615l1.526,2.229a1.024,1.024,0,0,1,.133.272q.779,1.11,1.608,2.179a.99.99,0,0,1,.224.2l2.038,2.526a.147.147,0,0,0,.015.019q.976,1.105,2.008,2.156a.962.962,0,0,1,.329.21l2.325,2.24a1,1,0,0,1,.189.247q1.033.913,2.113,1.772a.968.968,0,0,1,.255.137l2.578,1.912a1,1,0,0,1,.207.207q1.116.767,2.267,1.478a.938.938,0,0,1,.179.072l2.827,1.469a.992.992,0,0,1,.4.39q.995.516,2.014.99a.91.91,0,0,1,.333.062l2.955,1.14a.963.963,0,0,1,.453.362c.728.272,1.466.527,2.207.766a.887.887,0,0,1,.569-.033l3.045.816a.949.949,0,0,1,.521.357q1.125.259,2.262.467a.886.886,0,0,1,.428-.044l3.109.431a.927.927,0,0,1,.43.177q.942.1,1.892.157l.019,1.735q-.925-.058-1.843-.148l-1.763,3.5a.929.929,0,0,1-1.741-.241l-.989-3.9q-1.062-.2-2.109-.44l-2.093,3.158a.936.936,0,0,1-1.705-.457l-.528-3.895c-.715-.231-1.426-.476-2.127-.737l-2.425,2.932a.943.943,0,0,1-1.655-.639l-.145-4.068q-.85-.4-1.685-.831l-2.729,2.638a.954.954,0,0,1-1.585-.823l.287-4.11q-.829-.52-1.639-1.069L24.8,110.05a.969.969,0,0,1-1.447-1.074l.893-3.944q-.808-.655-1.6-1.339l-3.471,1.756a.98.98,0,0,1-1.307-1.259l1.362-3.733q-.721-.741-1.415-1.509L14.1,100.241a.992.992,0,0,1-1.149-1.422l1.826-3.538q-.592-.773-1.158-1.568l-3.749.948a1,1,0,0,1-1.035-1.514l2.159-3.457q-.4-.666-.778-1.344l-3.8.47a1,1,0,0,1-.86-1.629l2.494-3.1q-.477-1.046-.918-2.114l-3.755-.119a1.012,1.012,0,0,1-.626-1.74l2.775-2.545Q5.2,76.547,4.908,75.51L1,75.019A1.014,1.014,0,0,1,.523,73.23l3.258-2.476C3.676,70.2,3.576,69.649,3.485,69.092Zm106.751-3.586q.052-.894.076-1.8l1.474-.593,2.089-.814a.951.951,0,0,0,.6-.932,1,1,0,0,0-.617-.946l-2.108-.864-1.491-.63q-.05-.944-.128-1.881l3.427-1.864a1.013,1.013,0,0,0-.223-1.837l-3.8-1.076c-.1-.573-.2-1.143-.31-1.711l3.171-2.41a1.014,1.014,0,0,0-.477-1.789l-3.814-.48q-.305-1.073-.646-2.129l2.708-2.485a1.012,1.012,0,0,0-.626-1.74l-3.68-.117q-.455-1.1-.95-2.17l2.453-3.047a1.007,1.007,0,0,0-.862-1.629l-3.745.463q-.391-.7-.8-1.38l2.132-3.415a1,1,0,0,0-1.035-1.514l-3.717.94q-.575-.8-1.177-1.584l1.813-3.514a.991.991,0,0,0-1.147-1.422L95.1,22.432q-.7-.769-1.424-1.51l1.36-3.728a.981.981,0,0,0-1.309-1.26l-3.479,1.76q-.785-.679-1.591-1.328l.9-3.961a.968.968,0,0,0-1.447-1.074L84.87,13.571q-.8-.538-1.616-1.048l.288-4.15a.953.953,0,0,0-1.584-.823l-2.768,2.673q-.816-.416-1.645-.805L77.4,5.29a.945.945,0,0,0-1.657-.639L73.274,7.639q-1.027-.376-2.071-.71l-.539-3.976A.936.936,0,0,0,68.959,2.5L66.812,5.731Q65.8,5.5,64.78,5.313l-1.014-4a.929.929,0,0,0-1.741-.241l-1.812,3.6q-1.049-.1-2.11-.157L56.687.8a1.028,1.028,0,0,0-.266-.4.912.912,0,0,0-1.529.333L53.54,4.471q-.648.022-1.294.059l.019,1.736c.522-.032,1.048-.055,1.574-.07a.915.915,0,0,0,.471.137l3.127.037a.876.876,0,0,0,.472-.128q1.339.069,2.663.207a.949.949,0,0,0,.19.047l3.109.431a.911.911,0,0,0,.18.007q1.313.23,2.606.528a.938.938,0,0,0,.424.246l3.047.816a.886.886,0,0,0,.445.006q1.216.384,2.406.827a.964.964,0,0,0,.375.261l2.955,1.14a.928.928,0,0,0,.17.048q1.127.516,2.229,1.085a.971.971,0,0,0,.353.31l2.776,1.443q1.3.79,2.56,1.653a.954.954,0,0,0,.142.13l2.578,1.912a.989.989,0,0,0,.206.118q1.109.877,2.173,1.811a.987.987,0,0,0,.177.227L92,21.733a.976.976,0,0,0,.341.214q.992,1.005,1.936,2.062a1.04,1.04,0,0,0,.078.109l2.038,2.526a.989.989,0,0,0,.281.241q.786,1.007,1.526,2.053a1.038,1.038,0,0,0,.158.362l1.837,2.687a1.062,1.062,0,0,0,.09.114q.586.955,1.134,1.935a1.027,1.027,0,0,0,.12.5l1.526,2.888a1,1,0,0,0,.25.308q.531,1.139,1.014,2.305a1.025,1.025,0,0,0,.013.67l1.107,3.081a1,1,0,0,0,.461.546q.368,1.145.693,2.311a1.016,1.016,0,0,0,.027.4l.822,3.088q.3,1.43.53,2.886a.992.992,0,0,0,.006.2l.4,3.25a1.055,1.055,0,0,0,.057.235q.116,1.281.179,2.577a1.023,1.023,0,0,0-.074.4l.027,1.619.009,1.619a1.089,1.089,0,0,0,.085.411q-.025,1.083-.089,2.155Z" transform="translate(0 0)" fill="#19e7f6" fill-rule="evenodd"/>
      </g>
      <path id="linedgear-3" data-name="linedgear" d="M99.6,191.678h0A100.033,100.033,0,0,1,77.33,188.6,102.363,102.363,0,0,1,66.3,185.1a104.582,104.582,0,0,1-10.821-4.839A103.266,103.266,0,0,1,28.433,160.13,101.473,101.473,0,0,1,10,133.566a99.624,99.624,0,0,1-5.7-14.877,97.138,97.138,0,0,1-3.21-15.506,94.211,94.211,0,0,1-.6-15.808A91.705,91.705,0,0,1,2.6,71.59h0l-.024-.01,0-.011c.12-.513.757-3.2,1.491-5.655-.306,1.045-.6,2.116-.872,3.184-.208.818-.409,1.657-.6,2.492h0l9.257,3.628c-7.976,38.2,11.7,77.936,47.842,96.625a92.894,92.894,0,0,0,19.668,7.5,90.007,90.007,0,0,0,20.04,2.772c33.213.8,62.8-16.544,77.209-45.273a82.6,82.6,0,0,0,8.412-43.887A89.026,89.026,0,0,0,170.3,51.084l10.348-1.411a100.106,100.106,0,0,1,9.891,21.753,96.628,96.628,0,0,1,4.341,23.261,92.53,92.53,0,0,1-1.591,23.679,90.926,90.926,0,0,1-7.905,23.008A89.79,89.79,0,0,1,149.63,179.16a94.1,94.1,0,0,1-23.965,9.638A97.485,97.485,0,0,1,99.6,191.678ZM11.9,75.235h0l-.043-.017c.2-.982.43-1.97.67-2.936l.016-.063.011-.043L11.9,75.235Zm.657-3.076h0l.326-1.527.594-1.853C13.151,69.891,12.841,71.029,12.56,72.159Zm.927-3.4h0c.333-1.125.7-2.26,1.078-3.374L5.836,60.616c-.008.021-.895,2.419-1.715,5.135l-.01.033,0,.016h0c.753-2.553,1.627-5.1,2.6-7.571,1-2.536,2.126-5.063,3.353-7.51A89.789,89.789,0,0,1,45.815,12.935,94.116,94.116,0,0,1,69.782,3.3,97.485,97.485,0,0,1,95.845.416a100.007,100.007,0,0,1,22.267,3.079,102.306,102.306,0,0,1,11.031,3.494,104.606,104.606,0,0,1,10.822,4.84c1.683.87,3.362,1.8,4.991,2.754l-3.682,8.767c-1.8-1.087-3.658-2.13-5.533-3.1a92.889,92.889,0,0,0-19.668-7.5,90.008,90.008,0,0,0-20.04-2.772c-33.213-.8-62.8,16.544-77.209,45.273a82.334,82.334,0,0,0-4.259,10.129l0,0ZM168.211,48.081h0c-.826-1.138-1.7-2.285-2.6-3.409l9.592-3.06c.81,1.083,1.613,2.2,2.386,3.329Zm-4.662-5.9h0c-.97-1.128-1.986-2.253-3.021-3.344l8.747-4.444c.92,1.021,1.842,2.087,2.74,3.169Zm-5.215-5.579h0c-1.029-1.012-2.1-2.016-3.178-2.983l7.651-5.78c1.019.944,2.034,1.923,3.018,2.911Zm-5.42-4.927h0c-1.085-.91-2.2-1.807-3.328-2.665l6.481-6.895c1.057.822,2.108,1.673,3.126,2.531l-6.279,7.029Zm-5.636-4.372h0c-1.138-.814-2.316-1.618-3.5-2.387l5.263-7.808c1.1.715,2.187,1.455,3.237,2.2Z" transform="matrix(0.839, -0.545, 0.545, 0.839, 5792.84, 1646.898)" fill="#fff"/>
      <path id="dottedaxle-3" data-name="dottedaxle" d="M34.932,70.647c19.876-.5,36.4-16.758,36.9-36.308S56.627-.652,36.751-.15.354,16.608-.148,36.158,15.056,71.149,34.932,70.647Zm.182-7.08c15.9-.4,29.117-13.406,29.519-29.046S52.47,6.528,36.569,6.93,7.452,20.335,7.05,35.976,19.212,63.969,35.114,63.567ZM39.105,3.4A2.658,2.658,0,0,1,36.522,5.94a2.35,2.35,0,0,1-2.456-2.414A2.658,2.658,0,0,1,36.65.985,2.351,2.351,0,0,1,39.105,3.4ZM43.7,6.608a2.658,2.658,0,0,0,2.583-2.542,2.351,2.351,0,0,0-2.456-2.414,2.658,2.658,0,0,0-2.583,2.542A2.35,2.35,0,0,0,43.7,6.608Zm8.873-1a2.658,2.658,0,0,1-2.583,2.542,2.351,2.351,0,0,1-2.456-2.414,2.658,2.658,0,0,1,2.583-2.542A2.35,2.35,0,0,1,52.572,5.606Zm3.092,5.653a2.658,2.658,0,0,0,2.583-2.542A2.351,2.351,0,0,0,55.791,6.3a2.658,2.658,0,0,0-2.583,2.542A2.35,2.35,0,0,0,55.663,11.258Zm7.494,2.287a2.658,2.658,0,0,1-2.583,2.542,2.35,2.35,0,0,1-2.456-2.414A2.658,2.658,0,0,1,60.7,11.131,2.351,2.351,0,0,1,63.157,13.545Zm1.31,7.82a2.658,2.658,0,0,0,2.583-2.542,2.351,2.351,0,0,0-2.456-2.414,2.658,2.658,0,0,0-2.583,2.542A2.351,2.351,0,0,0,64.467,21.366ZM70.743,31.89a2.658,2.658,0,0,1-2.583,2.542A2.351,2.351,0,0,1,65.7,32.018a2.658,2.658,0,0,1,2.583-2.542A2.351,2.351,0,0,1,70.743,31.89ZM67.323,27.8a2.658,2.658,0,0,0,2.583-2.542,2.351,2.351,0,0,0-2.456-2.414,2.658,2.658,0,0,0-2.583,2.542A2.351,2.351,0,0,0,67.323,27.8ZM38.347,66.528a2.351,2.351,0,0,0-2.456-2.414,2.658,2.658,0,0,0-2.583,2.542,2.35,2.35,0,0,0,2.456,2.414A2.658,2.658,0,0,0,38.347,66.528Zm-6.755-.254a2.351,2.351,0,0,0-2.456-2.414A2.658,2.658,0,0,0,26.553,66.4a2.351,2.351,0,0,0,2.456,2.414A2.658,2.658,0,0,0,31.592,66.274Zm-9.185-3.659a2.35,2.35,0,0,1,2.456,2.414,2.658,2.658,0,0,1-2.583,2.542,2.351,2.351,0,0,1-2.456-2.414A2.658,2.658,0,0,1,22.406,62.615Zm-3.223-.555a2.351,2.351,0,0,0-2.456-2.414,2.658,2.658,0,0,0-2.583,2.542A2.351,2.351,0,0,0,16.6,64.6,2.658,2.658,0,0,0,19.184,62.059ZM11.8,55.525a2.351,2.351,0,0,1,2.456,2.414,2.658,2.658,0,0,1-2.583,2.542,2.351,2.351,0,0,1-2.456-2.414A2.658,2.658,0,0,1,11.8,55.525Zm-1.3-2.443a2.351,2.351,0,0,0-2.456-2.414,2.658,2.658,0,0,0-2.583,2.542,2.351,2.351,0,0,0,2.456,2.414A2.658,2.658,0,0,0,10.495,53.081Zm-5.337-7.86a2.351,2.351,0,0,1,2.456,2.414,2.658,2.658,0,0,1-2.583,2.542,2.351,2.351,0,0,1-2.456-2.414A2.658,2.658,0,0,1,5.158,45.221Zm.6-3.907A2.35,2.35,0,0,0,3.306,38.9,2.658,2.658,0,0,0,.723,41.442a2.351,2.351,0,0,0,2.456,2.414A2.658,2.658,0,0,0,5.762,41.315ZM44.119,63.057a2.35,2.35,0,0,1,2.456,2.414,2.658,2.658,0,0,1-2.583,2.542A2.351,2.351,0,0,1,41.536,65.6,2.658,2.658,0,0,1,44.119,63.057Zm9.3-.73a2.351,2.351,0,0,0-2.456-2.414,2.658,2.658,0,0,0-2.583,2.542,2.351,2.351,0,0,0,2.456,2.414A2.658,2.658,0,0,0,53.417,62.327Zm4.139-7.109a2.351,2.351,0,0,1,2.456,2.414,2.658,2.658,0,0,1-2.583,2.542,2.35,2.35,0,0,1-2.456-2.414A2.658,2.658,0,0,1,57.555,55.218Zm7.632-3.094a2.351,2.351,0,0,0-2.456-2.414,2.658,2.658,0,0,0-2.583,2.542A2.351,2.351,0,0,0,62.6,54.666,2.658,2.658,0,0,0,65.188,52.124Zm.735-9a2.35,2.35,0,0,1,2.456,2.414A2.658,2.658,0,0,1,65.8,48.076a2.351,2.351,0,0,1-2.456-2.414A2.658,2.658,0,0,1,65.922,43.12Zm2.194-6.989a2.351,2.351,0,0,1,2.456,2.414,2.658,2.658,0,0,1-2.583,2.542,2.351,2.351,0,0,1-2.456-2.414A2.658,2.658,0,0,1,68.116,36.131ZM29.3,6.972a2.35,2.35,0,0,1-2.456-2.414A2.658,2.658,0,0,1,29.43,2.016,2.351,2.351,0,0,1,31.885,4.43,2.658,2.658,0,0,1,29.3,6.972Zm-8.833-.555a2.351,2.351,0,0,0,2.456,2.414,2.658,2.658,0,0,0,2.583-2.542,2.35,2.35,0,0,0-2.456-2.414A2.658,2.658,0,0,0,20.469,6.417Zm-3.386,5.816a2.351,2.351,0,0,1-2.456-2.414A2.658,2.658,0,0,1,17.21,7.277a2.351,2.351,0,0,1,2.456,2.414A2.658,2.658,0,0,1,17.083,12.233ZM9.461,14.9a2.35,2.35,0,0,0,2.456,2.414A2.658,2.658,0,0,0,14.5,14.775a2.351,2.351,0,0,0-2.456-2.414A2.658,2.658,0,0,0,9.461,14.9ZM7.748,22.8a2.351,2.351,0,0,1-2.456-2.414,2.658,2.658,0,0,1,2.583-2.542,2.351,2.351,0,0,1,2.456,2.414A2.658,2.658,0,0,1,7.748,22.8ZM.923,33.654a2.351,2.351,0,0,0,2.456,2.414,2.658,2.658,0,0,0,2.583-2.542,2.35,2.35,0,0,0-2.456-2.414A2.658,2.658,0,0,0,.923,33.654Zm3.634-4.266A2.351,2.351,0,0,1,2.1,26.974a2.658,2.658,0,0,1,2.583-2.542A2.351,2.351,0,0,1,7.14,26.847,2.658,2.658,0,0,1,4.558,29.388Z" transform="matrix(-0.809, -0.588, 0.588, -0.809, 5935.343, 1723.059)" fill="#fff" stroke="#fff" stroke-linecap="round" stroke-width="1" fill-rule="evenodd"/>
    </g>
    <path id="snakeborder" d="M1613.561,1886.778q-10.551-.778-21.3-.778a291.226,291.226,0,0,0-37.835,2.458l1.607,6.19-19.054,16.64,24.748,5.261,1.686,6.486-39.406-8.374,29.922-26.138a287.234,287.234,0,0,0-152,69.241l4.209,4.454-8.677,23.767,24.222-7.322,4.6,4.872-38.562,11.653,13.4-36.711a290.614,290.614,0,0,0-36.682,39.146l5.312,3.56-3.221,25.1,22.009-12.482,5.563,3.733-35.039,19.876,5.045-39.363a286.863,286.863,0,0,0-58.467,145.249l5.758.108,10.608,22.3,3.877-6.327,8.144-15.523,6.7.13-1.218,2.313,1.34.115-9.758,15.927-9.08,17.318-.67-1.4-1.528,2.508L1306.1,2146.2l-.62-1.3a292.577,292.577,0,0,0,.223,60.867l5.809-1.4,16.294,19.357,5.715-24.646,6.515-1.564-9.095,39.24-25.108-29.828a286.938,286.938,0,0,0,65.782,152.845l4.713-4.295,23.6,9.116-6.868-24.351,4.951-4.511,10.94,38.771L1372,2360.231a287.808,287.808,0,0,0,183.5,99.978l.014-.4-.714.289.49-6.688,5.6-2.22,17.75-8.057-8.136-4.612-13.894-7.617.252-6.695.562.3.029-.36,19.84,11.257,14.9,8.165-.274.13,1.715.973-31.089,12.345-7.034,3.193a291.886,291.886,0,0,0,36.761,2.32c148.9,0,271.437-112.9,286.672-257.766l-4.533-.1-11.271-22.881-12.338,22.362-6.99-.151,19.645-35.608,15.891,32.264q1.178-13.037,1.189-26.384,0-12.55-1.052-24.834l-6.14,1.578-16.4-20.084-5.578,25.756-6.508,1.679,8.879-41.013,25.684,31.464a287.781,287.781,0,0,0-105.512-198.4l-3.265,4.944-25.057-3.668,12.2,23.112-3.805,5.758-19.429-36.8,37.994,5.564a288.06,288.06,0,0,0-43.557-28.891l-3.7,5.592-25.058-3.668,12.2,23.119-3.409,5.16a253.2,253.2,0,0,1,76.4,61.436l-10.464-37.892,37.662,14.882-4.929,4.742-23.659-9.347,7.012,25.36-4.166,4A252.512,252.512,0,0,1,1814,2053.936l-4.072-40.588,34.57,21.541-5.65,3.769-21.714-13.534,2.638,26.254-5.261,3.5a250.763,250.763,0,0,1,18.817,44.919l6.608-38.786,27.5,30.686-6.429,1.989-17.267-19.271-4.432,25.994-5.3,1.643a253.812,253.812,0,0,1-1.218,148.384l27.94-25.7,5.088,39.99-6.587-2.249-3.2-25.122-19.04,17.519-5.081-1.729a249.9,249.9,0,0,1-15.79,37.445l32.891-17.735-5.477,39.939-5.794-3.754,3.437-25.086-23,12.41-3.8-2.464a253.155,253.155,0,0,1-21.887,33.792l31.853-17.187-5.47,39.939-5.794-3.755,3.437-25.086-23,12.41-3.964-2.565a254.4,254.4,0,0,1-29.223,30.909l33.986-9.729-14.536,37.8-4.785-4.886,9.131-23.739-25.3,7.236-2.839-2.89a253.261,253.261,0,0,1-33.078,23.926l32.538-3.567-21.223,34.765-3.819-5.614,13.332-21.836L1717.5,2396.7l-1.686-2.479a251.067,251.067,0,0,1-40.292,18.211l32.538,5.239-30.434,27.782-2.047-6.407,19.112-17.447-26.037-4.194-.778-2.436a250.541,250.541,0,0,1-51.513,10.392l35.493,7.351-31.738,26.4-1.737-6.493,19.934-16.575-25.807-5.347-1.312-4.893q-9.372.691-18.932.7a252.009,252.009,0,0,1-81.629-13.5l25.237,27.1-40.054,4.274,2.342-6.277,25.158-2.688-17.238-18.514,1.809-4.857a250.893,250.893,0,0,1-38.036-17.187l18.081,33.287-39.86-5.859,3.834-5.491,25.036,3.675-12.078-22.232,3.1-4.439a252.78,252.78,0,0,1-36.509-25.2l19.184,35.334-39.853-5.859,3.834-5.5,25.036,3.683-12.078-22.232,3.819-5.47a253.437,253.437,0,0,1-59.729-71.886l3.971,40.069-34.455-20.87,5.664-3.575,21.642,13.109-2.494-25.18,5.664-3.567a250.686,250.686,0,0,1-19.393-44.544l-7.106,38.743-27.342-29.59,6.435-1.867,17.173,18.586,4.569-24.885,6.025-1.751a253.66,253.66,0,0,1,.252-154.928l-27.832,26.881-5-39.975,6.32,2.227,3.142,25.108,18.2-17.577,5.614,1.982a250.308,250.308,0,0,1,16.763-39.175l-33.95,19.256,5.124-39.961,5.563,3.733-3.221,25.1,22.009-12.482,5.009,3.358a252.99,252.99,0,0,1,138.656-118.672l-38.491-6.342L1499.271,1902l1.989,6.407-18.269,17.5,24.964,4.108,1.8,5.816a251.927,251.927,0,0,1,82.509-13.8q10.918,0,21.6.915l-34.757-19.595,1.16-.555-.476-.281,8.086-3.38Zm2.083.742.022-.584c.382.029.764.065,1.153.094Zm-22.434,15.934.814-.4,22.477-9.4.447-6.616a286.309,286.309,0,0,1,111.587,33.136l-39.327-5.758,18.838,35.694a250.508,250.508,0,0,0-44.537-17.88l1.845-5.239-17.339-19.206,25.144-2.969,2.306-6.565-40.033,4.728,25.828,28.6a251.02,251.02,0,0,0-46.713-8.583l.021-.735.4-6.032Zm-148.1,22.9-20.236,34.83,40-4.706-3.675-5.6-25.13,2.955,12.712-21.879Z" transform="matrix(-0.891, 0.454, -0.454, -0.891, 7308.116, 5005.129)" fill="#13aab5" stroke="#fff" stroke-linecap="round" stroke-width="1" fill-rule="evenodd"/>
    <g id="minus" transform="translate(3402.909 385.602)">
      <path id="Path_42" data-name="Path 42" d="M2091.458,4863.178c73.708,0,133.457-58.912,133.457-131.589S2165.165,4600,2091.458,4600,1958,4658.913,1958,4731.588,2017.749,4863.178,2091.458,4863.178Zm0-16.449c64.49,0,116.775-51.552,116.775-115.14s-52.284-115.141-116.775-115.141S1974.682,4668,1974.682,4731.588,2026.966,4846.729,2091.458,4846.729Z" transform="translate(-592.012 -1327.005)" fill="#13aab5" stroke="#fff" stroke-linecap="round" stroke-width="1" fill-rule="evenodd"/>
      <path id="Path_43" data-name="Path 43" d="M0,176.9C-.232,88.819,61.759,15.781,143.582,1.2l.06,22.754c-69.7,14.309-122.016,77.306-121.816,153S74.678,315.934,144.452,330.614l.06,22.753C62.611,338.351.233,264.978,0,176.9ZM196.9,354.854C283,344.089,349.444,269.024,349.2,177.84S282.119,11.229,195.959,0l.06,22.553c74.064,11.044,131.152,76.4,131.36,155.229S270.843,321.656,196.836,332.3Z" transform="translate(1299.614 3552.76) rotate(-82)" fill="#13aab5" stroke="#fff" stroke-linecap="round" stroke-width="1" fill-rule="evenodd"/>
    </g>
    <g id="Path_176" data-name="Path 176" transform="translate(1283 667)" fill="rgba(255,255,255,0.23)">
      <path d="M 5174.59228515625 235.5003204345703 L -91.73079681396484 235.5003204345703 L 138.6847686767578 40.31364822387695 L 4969.94970703125 40.31364822387695 L 5174.59228515625 235.5003204345703 Z" stroke="none"/>
      <path d="M 139.60205078125 42.81364440917969 L -84.9111328125 233.0003204345703 L 5168.349609375 233.0003204345703 L 4968.94921875 42.81364440917969 L 139.60205078125 42.81364440917969 M 137.7685546875 37.81364440917969 L 4970.951171875 37.81364440917969 L 5180.8359375 238.0003204345703 L -98.5498046875 238.0003204345703 L 137.7685546875 37.81364440917969 Z" stroke="none" fill="#19e7f6"/>
    </g>
    <path id="Path_177" data-name="Path 177" d="M11090.127,581.217,16674.4,580.1l8.572,524.379-155.742,151.456h-921.592l-146.816,103.234h-582.289l-252.561-200.956H12794.562l-283.325,201.523-1171.894.031-88.269-87.483V1158.216L11164.3,1065.4l1.32-162.486-75.489-80.052Z" transform="translate(-10230 2741)" fill="rgba(25,231,246,0.11)" stroke="#19e7f6" stroke-width="1"/>
    <path id="Path_178" data-name="Path 178" d="M11249.66,1172.066V1274.93l92.688,86.756h1173.086l247.812-190Z" transform="translate(-10230 2741)" fill="none" stroke="#19e7f6" stroke-width="1"/>
  </g>
</svg>
