<svg xmlns="http://www.w3.org/2000/svg" xmlns:xlink="http://www.w3.org/1999/xlink" width="4526" height="2877" viewBox="0 0 4526 2877">
  <defs>
    <linearGradient id="linear-gradient" x1="0.979" y1="-0.572" x2="0.12" y2="1.519" gradientUnits="objectBoundingBox">
      <stop offset="0" stop-color="#1d9bd4"/>
      <stop offset="0.514" stop-color="#06192e" stop-opacity="0.929"/>
      <stop offset="1" stop-color="#0b044b" stop-opacity="0"/>
    </linearGradient>
  </defs>
  <g id="Group_12" data-name="Group 12" transform="translate(-1956 -1424)">
    <g id="Exclusion_1" data-name="Exclusion 1" transform="translate(7009 -1214)" fill="url(#linear-gradient)">
      <path d="M -719.9989624023438 5374.00048828125 L -4879 5374.00048828125 L -4879 2742 L -719.9989624023438 2742 L -719.9989624023438 5374.00048828125 Z M -4426.51220703125 4455.92822265625 L -4426.51220703125 5083.00048828125 L -4426.51220703125 5084.00048828125 L -4425.51220703125 5084.00048828125 L -1259.680541992188 5084.00048828125 L -1259.239990234375 5084.00048828125 L -1258.942626953125 5083.67578125 L -984.3989868164063 4783.70068359375 L -984.1369018554688 4783.41357421875 L -984.1369018554688 4783.025390625 L -984.1369018554688 3350.251953125 L -984.1369018554688 3349.751953125 L -984.536865234375 3349.4521484375 L -1259.08056640625 3143.544677734375 L -1259.347412109375 3143.3447265625 L -1259.680541992188 3143.3447265625 L -2426.146484375 3143.3447265625 L -2580.14013671875 3023.212646484375 L -2580.41162109375 3023.0009765625 L -2580.75537109375 3023.0009765625 L -4228.18310546875 3023.0009765625 L -4227.4755859375 3024.70849609375 L -4228.87939453125 3023.283203125 L -4511.69580078125 3298.057373046875 L -4511.9990234375 3298.35205078125 L -4511.9990234375 3298.774658203125 L -4511.9990234375 4362.845703125 L -4511.9990234375 4363.236328125 L -4511.734375 4363.5234375 L -4426.51220703125 4455.92822265625 Z" stroke="none"/>
      <path d="M -720.9989624023438 5373.00048828125 L -720.9989624023438 2743 L -4878 2743 L -4878 5373.00048828125 L -720.9989624023438 5373.00048828125 M -4427.51220703125 4456.318359375 L -4512.46875 4364.20166015625 L -4512.9990234375 4363.62744140625 L -4512.9990234375 4362.845703125 L -4512.9990234375 3298.774658203125 L -4512.9990234375 3297.929443359375 L -4512.392578125 3297.340576171875 L -4229.576171875 3022.566162109375 L -4228.18310546875 3023.97998046875 L -4228.18310546875 3022.0009765625 L -2580.75537109375 3022.0009765625 L -2580.0673828125 3022.0009765625 L -2579.525390625 3022.424072265625 L -2425.802978515625 3142.3447265625 L -1259.680541992188 3142.3447265625 L -1259.013671875 3142.3447265625 L -1258.480590820313 3142.74462890625 L -983.9368896484375 3348.652099609375 L -983.1369018554688 3349.251953125 L -983.1369018554688 3350.251953125 L -983.1369018554688 4783.025390625 L -983.1369018554688 4783.80224609375 L -983.66162109375 4784.3759765625 L -1258.205322265625 5084.35107421875 L -1258.800048828125 5085.00048828125 L -1259.680541992188 5085.00048828125 L -4425.51220703125 5085.00048828125 L -4427.51220703125 5085.00048828125 L -4427.51220703125 5083.00048828125 L -4427.51220703125 4456.318359375 M -718.9989624023438 5375.00146484375 L -718.9989624023438 5375.00048828125 L -4880 5375.00048828125 L -4880 2741 L -718.9989624023438 2741 L -718.9989624023438 5375.00048828125 L -718.9989624023438 5375.00146484375 Z M -4228.1826171875 3024.00048828125 L -4510.9990234375 3298.774658203125 L -4510.9990234375 4362.845703125 L -4425.51220703125 4455.537109375 L -4425.51220703125 5083.00048828125 L -1259.680541992188 5083.00048828125 L -985.1369018554688 4783.025390625 L -985.1369018554688 3350.251953125 L -1259.680541992188 3144.3447265625 L -2426.490478515625 3144.3447265625 L -2580.75537109375 3024.0009765625 L -4228.18310546875 3024.0009765625 L -4228.1826171875 3024.00048828125 Z" stroke="none" fill="#00fee4"/>
    </g>
    <path id="Path_102" data-name="Path 102" d="M8201.991-1214v193.041l-110.724,95.967h-424.84L7386.939-652.041v343.18l-102.954,68.636V-42.9L7181.032,42.9H6914.4" transform="translate(-4880 2741)" fill="none" stroke="#1efff7" stroke-width="10"/>
    <g id="Group_1" data-name="Group 1" transform="translate(-318.202 2025.733)">
      <path id="Path_104" data-name="Path 104" d="M3.774-1.037l83.92,89.9v97.207L3.774,104.155Z" transform="translate(2808 1131)" fill="#19e7f6"/>
      <path id="Path_105" data-name="Path 105" d="M3.774,6.963l83.92,81.9v97.207L3.774,104.155Z" transform="translate(2808 1235.555)" fill="#19e7f6"/>
      <path id="Path_106" data-name="Path 106" d="M3.774,6.963l83.92,81.9v97.207L3.774,104.155Z" transform="translate(2808 1340.11)" fill="#19e7f6"/>
      <path id="Path_107" data-name="Path 107" d="M3.774,6.963l83.92,81.9v97.207L3.774,104.155Z" transform="translate(2808 1444.664)" fill="#13aab5"/>
      <path id="Path_108" data-name="Path 108" d="M3.774,6.963l83.92,81.9v97.207L3.774,104.155Z" transform="translate(2808 1549.219)" fill="#078992"/>
      <path id="Path_109" data-name="Path 109" d="M3.774,6.963l83.92,81.9v97.207L3.774,104.155Z" transform="translate(2808 1653.774)" fill="#078992"/>
    </g>
    <path id="Path_110" data-name="Path 110" d="M6983.7,232.042V53.7L7094.969-67.651l436.576,2,270.2-295.252v-368.36l54.509-52.843V-916.068l77.144-62.268h259.451" transform="translate(-1786.712 3926.898)" fill="none" stroke="#19e7f6" stroke-width="10"/>
    <g id="Ellipse_41" data-name="Ellipse 41" transform="translate(1956 2744)" fill="none" stroke="#19e7f6" stroke-width="20">
      <circle cx="40" cy="40" r="40" stroke="none"/>
      <circle cx="40" cy="40" r="30" fill="none"/>
    </g>
    <g id="Ellipse_42" data-name="Ellipse 42" transform="translate(6402 2909)" fill="none" stroke="#19e7f6" stroke-width="20">
      <circle cx="40" cy="40" r="40" stroke="none"/>
      <circle cx="40" cy="40" r="30" fill="none"/>
    </g>
    <g id="Path_111" data-name="Path 111" transform="translate(4587 1864)" fill="#19e7f6">
      <path d="M 1154.96826171875 60.50003814697266 L 0.51128751039505 60.50003814697266 L -116.9842910766602 -30.13096046447754 L 1024.502685546875 -30.13096046447754 L 1154.96826171875 60.50003814697266 Z" stroke="none"/>
      <path d="M -112.5836181640625 -28.63095855712891 L 1.022705078125 59.00003814697266 L 1150.180053710938 59.00003814697266 L 1024.033081054688 -28.63095855712891 L -112.5836181640625 -28.63095855712891 M -121.384765625 -31.63095855712891 L 1024.97265625 -31.63095855712891 L 1159.7568359375 62.00003814697266 L 0 62.00003814697266 L -121.384765625 -31.63095855712891 Z" stroke="none" fill="#19e7f6"/>
    </g>
    <path id="Path_112" data-name="Path 112" d="M7373.572,576.284,7256.348,455.6V144.825L7099.454,60.344v-805.59l129.739-141.808V-1128.43l-129.739-33.189v-105.6" transform="translate(-4880 2741)" fill="none" stroke="#19e7f6" stroke-width="3"/>
    <path id="Path_113" data-name="Path 113" d="M7236.513-1031.88h674.566l93.533-84.481h193.1" transform="translate(-4880 2741)" fill="none" stroke="#19e7f6" stroke-width="3"/>
    <path id="Path_114" data-name="Path 114" d="M7171.866-1143.516l39.224-36.206h313.788l66.378-27.155" transform="translate(-4880 2741)" fill="none" stroke="#19e7f6" stroke-width="3"/>
    <path id="Path_115" data-name="Path 115" d="M8201.991-1155.585h553.9l63.36-54.309" transform="translate(-4880 2741)" fill="none" stroke="#19e7f6" stroke-width="3"/>
    <path id="Path_116" data-name="Path 116" d="M7123.591-1155.585l-57.327,60.344v162.928l-30.172,45.258H6933.508" transform="translate(-4880 2741)" fill="none" stroke="#19e7f6" stroke-width="3"/>
    <path id="Path_117" data-name="Path 117" d="M10902.144-415.122l129.726,114.159V83.024l72.646,36.323V529.281l67.457,51.89" transform="translate(-4880 2741)" fill="none" stroke="#19e7f6" stroke-width="3"/>
    <path id="Path_118" data-name="Path 118" d="M8940.691,1417.94l57.08-58.415h1084.506" transform="translate(-4880 2741)" fill="none" stroke="#19e7f6" stroke-width="3"/>
    <path id="Path_119" data-name="Path 119" d="M10082.277,1276.5h150.482l72.646-77.835h618.912" transform="translate(-4880 2741)" fill="none" stroke="#19e7f6" stroke-width="3"/>
    <path id="Path_120" data-name="Path 120" d="M11104.516,456.634l-77.835,88.213v378.8l-98.592,93.4v228.317l98.592,46.7v217.939" transform="translate(-4880 2741)" fill="none" stroke="#19e7f6" stroke-width="3"/>
    <path id="Path_121" data-name="Path 121" d="M10979.979,1276.5l-62.269,77.835h-409.934l-51.89,67.457" transform="translate(-4880 2741)" fill="none" stroke="#19e7f6" stroke-width="3"/>
    <path id="Path_122" data-name="Path 122" d="M10928.089,1115.641h150.481l36.323-67.457h115.951" transform="translate(-4880 2741)" fill="none" stroke="#19e7f6" stroke-width="3"/>
    <g id="Ellipse_43" data-name="Ellipse 43" transform="translate(2012 1830)" fill="#19e7f6" stroke="#19e7f6" stroke-width="20">
      <circle cx="25" cy="25" r="25" stroke="none"/>
      <circle cx="25" cy="25" r="15" fill="none"/>
    </g>
    <g id="Ellipse_44" data-name="Ellipse 44" transform="translate(2194 1424)" fill="#19e7f6" stroke="#19e7f6" stroke-width="20">
      <circle cx="25" cy="25" r="25" stroke="none"/>
      <circle cx="25" cy="25" r="15" fill="none"/>
    </g>
    <g id="Ellipse_45" data-name="Ellipse 45" transform="translate(6120 4251)" fill="#19e7f6" stroke="#19e7f6" stroke-width="20">
      <circle cx="25" cy="25" r="25" stroke="none"/>
      <circle cx="25" cy="25" r="15" fill="none"/>
    </g>
    <g id="Ellipse_46" data-name="Ellipse 46" transform="translate(6349 3764)" fill="#19e7f6" stroke="#19e7f6" stroke-width="20">
      <circle cx="25" cy="25" r="25" stroke="none"/>
      <circle cx="25" cy="25" r="15" fill="none"/>
    </g>
    <path id="Polygon_8" data-name="Polygon 8" d="M186,0,372,189H0Z" transform="matrix(0.719, -0.695, 0.695, 0.719, 2362.104, 1930.939)" fill="#19e7f6"/>
    <path id="Path_123" data-name="Path 123" d="M182.507-30.054,371.92,152.86-19.643,179.279Z" transform="matrix(-0.719, 0.695, -0.695, -0.719, 6134.698, 3720.526)" fill="#19e7f6"/>
    <g id="Ellipse_47" data-name="Ellipse 47" transform="translate(3863 1571)" fill="#19e7f6" stroke="#19e7f6" stroke-width="20">
      <circle cx="12.5" cy="12.5" r="12.5" stroke="none"/>
      <circle cx="12.5" cy="12.5" r="2.5" fill="none"/>
    </g>
    <g id="Ellipse_48" data-name="Ellipse 48" transform="translate(3017 1693)" fill="#19e7f6" stroke="#19e7f6" stroke-width="20">
      <circle cx="12.5" cy="12.5" r="12.5" stroke="none"/>
      <circle cx="12.5" cy="12.5" r="2.5" fill="none"/>
    </g>
    <g id="Ellipse_49" data-name="Ellipse 49" transform="translate(2699 1522)" fill="#19e7f6" stroke="#19e7f6" stroke-width="20">
      <circle cx="12.5" cy="12.5" r="12.5" stroke="none"/>
      <circle cx="12.5" cy="12.5" r="2.5" fill="none"/>
    </g>
    <g id="Ellipse_50" data-name="Ellipse 50" transform="translate(2279 1585)" fill="#19e7f6" stroke="#19e7f6" stroke-width="20">
      <circle cx="12.5" cy="12.5" r="12.5" stroke="none"/>
      <circle cx="12.5" cy="12.5" r="2.5" fill="none"/>
    </g>
    <g id="Ellipse_51" data-name="Ellipse 51" transform="translate(2232 1573)" fill="#19e7f6" stroke="#19e7f6" stroke-width="20">
      <circle cx="12.5" cy="12.5" r="12.5" stroke="none"/>
      <circle cx="12.5" cy="12.5" r="2.5" fill="none"/>
    </g>
    <g id="Ellipse_52" data-name="Ellipse 52" transform="translate(2207 1985)" fill="#19e7f6" stroke="#19e7f6" stroke-width="20">
      <circle cx="12.5" cy="12.5" r="12.5" stroke="none"/>
      <circle cx="12.5" cy="12.5" r="2.5" fill="none"/>
    </g>
    <g id="Ellipse_53" data-name="Ellipse 53" transform="translate(2362 2876)" fill="#19e7f6" stroke="#19e7f6" stroke-width="20">
      <circle cx="12.5" cy="12.5" r="12.5" stroke="none"/>
      <circle cx="12.5" cy="12.5" r="2.5" fill="none"/>
    </g>
    <g id="Ellipse_54" data-name="Ellipse 54" transform="translate(6209 2849)" fill="#19e7f6" stroke="#19e7f6" stroke-width="20">
      <circle cx="12.5" cy="12.5" r="12.5" stroke="none"/>
      <circle cx="12.5" cy="12.5" r="2.5" fill="none"/>
    </g>
    <g id="Ellipse_55" data-name="Ellipse 55" transform="translate(6429 2936)" fill="#19e7f6" stroke="#19e7f6" stroke-width="20">
      <circle cx="12.5" cy="12.5" r="12.5" stroke="none"/>
      <circle cx="12.5" cy="12.5" r="2.5" fill="none"/>
    </g>
    <g id="Ellipse_56" data-name="Ellipse 56" transform="translate(6212 3185)" fill="#19e7f6" stroke="#19e7f6" stroke-width="20">
      <circle cx="12.5" cy="12.5" r="12.5" stroke="none"/>
      <circle cx="12.5" cy="12.5" r="2.5" fill="none"/>
    </g>
    <g id="Ellipse_57" data-name="Ellipse 57" transform="translate(6036 3844)" fill="#19e7f6" stroke="#19e7f6" stroke-width="20">
      <circle cx="12.5" cy="12.5" r="12.5" stroke="none"/>
      <circle cx="12.5" cy="12.5" r="2.5" fill="none"/>
    </g>
    <g id="Ellipse_58" data-name="Ellipse 58" transform="translate(6087 4001)" fill="#19e7f6" stroke="#19e7f6" stroke-width="20">
      <circle cx="12.5" cy="12.5" r="12.5" stroke="none"/>
      <circle cx="12.5" cy="12.5" r="2.5" fill="none"/>
    </g>
    <g id="Ellipse_59" data-name="Ellipse 59" transform="translate(6032 3927)" fill="#19e7f6" stroke="#19e7f6" stroke-width="20">
      <circle cx="12.5" cy="12.5" r="12.5" stroke="none"/>
      <circle cx="12.5" cy="12.5" r="2.5" fill="none"/>
    </g>
    <g id="Ellipse_60" data-name="Ellipse 60" transform="translate(5334 4005)" fill="#19e7f6" stroke="#19e7f6" stroke-width="20">
      <circle cx="12.5" cy="12.5" r="12.5" stroke="none"/>
      <circle cx="12.5" cy="12.5" r="2.5" fill="none"/>
    </g>
    <g id="Ellipse_61" data-name="Ellipse 61" transform="translate(4109 4088)" fill="#19e7f6" stroke="#19e7f6" stroke-width="20">
      <circle cx="12.5" cy="12.5" r="12.5" stroke="none"/>
      <circle cx="12.5" cy="12.5" r="2.5" fill="none"/>
    </g>
    <g id="Ellipse_62" data-name="Ellipse 62" transform="translate(1984 2771)" fill="#19e7f6" stroke="#19e7f6" stroke-width="20">
      <circle cx="12.5" cy="12.5" r="12.5" stroke="none"/>
      <circle cx="12.5" cy="12.5" r="2.5" fill="none"/>
    </g>
    <g id="Group_5" data-name="Group 5">
      <g id="Group_2" data-name="Group 2" transform="translate(2135.572 3177.696)">
        <path id="Path_104-2" data-name="Path 104" d="M3.774-1.037,51.041,30.85V65.329L3.774,36.274Z" transform="translate(-3.774 1.037)" fill="#23e1ef"/>
        <path id="Path_105-2" data-name="Path 105" d="M3.774,6.963l47.268,29.05V70.491L3.774,41.436Z" transform="translate(-3.774 41.535)" fill="#23e1ef"/>
        <path id="Path_106-2" data-name="Path 106" d="M3.774,6.963l47.268,29.05V70.491L3.774,41.436Z" transform="translate(-3.774 85.97)" fill="#23e1ef"/>
        <path id="Path_107-2" data-name="Path 107" d="M3.774,6.963l47.268,29.05V70.491L3.774,41.436Z" transform="translate(-3.774 131.631)" fill="#23e1ef"/>
        <path id="Path_108-2" data-name="Path 108" d="M3.774,6.963l47.268,29.05V70.491L3.774,41.436Z" transform="translate(-3.774 177.291)" fill="#23e1ef"/>
        <path id="Path_109-2" data-name="Path 109" d="M3.774,6.963l47.268,29.05V70.491L3.774,41.436Z" transform="translate(-3.774 221.726)" fill="#23e1ef"/>
      </g>
      <g id="Group_3" data-name="Group 3" transform="translate(2135.572 3449.662)">
        <path id="Path_104-3" data-name="Path 104" d="M3.774-1.037,51.041,30.85V65.329L3.774,36.274Z" transform="translate(-3.774 1.037)" fill="#23e1ef"/>
        <path id="Path_105-3" data-name="Path 105" d="M3.774,6.963l47.268,29.05V70.491L3.774,41.436Z" transform="translate(-3.774 41.535)" fill="#23e1ef"/>
        <path id="Path_106-3" data-name="Path 106" d="M3.774,6.963l47.268,29.05V70.491L3.774,41.436Z" transform="translate(-3.774 85.97)" fill="#23e1ef"/>
        <path id="Path_107-3" data-name="Path 107" d="M3.774,6.963l47.268,29.05V70.491L3.774,41.436Z" transform="translate(-3.774 131.631)" fill="#23e1ef"/>
        <path id="Path_108-3" data-name="Path 108" d="M3.774,6.963l47.268,29.05V70.491L3.774,41.436Z" transform="translate(-3.774 177.291)" fill="#23e1ef"/>
        <path id="Path_109-3" data-name="Path 109" d="M3.774,6.963l47.268,29.05V70.491L3.774,41.436Z" transform="translate(-3.774 221.726)" fill="#23e1ef"/>
      </g>
      <g id="Group_4" data-name="Group 4" transform="translate(2135.572 3721.628)">
        <path id="Path_104-4" data-name="Path 104" d="M3.774-1.037,51.041,30.85V65.329L3.774,36.274Z" transform="translate(-3.774 1.037)" fill="#23e1ef"/>
        <path id="Path_105-4" data-name="Path 105" d="M3.774,6.963l47.268,29.05V70.491L3.774,41.436Z" transform="translate(-3.774 41.535)" fill="#23e1ef"/>
        <path id="Path_106-4" data-name="Path 106" d="M3.774,6.963l47.268,29.05V70.491L3.774,41.436Z" transform="translate(-3.774 85.97)" fill="#23e1ef"/>
        <path id="Path_107-4" data-name="Path 107" d="M3.774,6.963l47.268,29.05V70.491L3.774,41.436Z" transform="translate(-3.774 131.631)" fill="#23e1ef"/>
        <path id="Path_108-4" data-name="Path 108" d="M3.774,6.963l47.268,29.05V70.491L3.774,41.436Z" transform="translate(-3.774 177.291)" fill="#23e1ef"/>
        <path id="Path_109-4" data-name="Path 109" d="M3.774,6.963l47.268,29.05V70.491L3.774,41.436Z" transform="translate(-3.774 221.726)" fill="#23e1ef"/>
      </g>
    </g>
    <g id="Group_6" data-name="Group 6" transform="translate(4100.268 -1553)">
      <g id="Group_2-2" data-name="Group 2" transform="translate(2135.572 3177.696)">
        <path id="Path_104-5" data-name="Path 104" d="M51.044-1.037,3.774,30.85V65.329l47.27-29.055Z" transform="translate(-3.774 1.037)" fill="#23e1ef"/>
        <path id="Path_105-5" data-name="Path 105" d="M51.044,6.963,3.774,36.013V70.491l47.27-29.055Z" transform="translate(-3.774 41.535)" fill="#23e1ef"/>
        <path id="Path_106-5" data-name="Path 106" d="M51.044,6.963,3.774,36.013V70.491l47.27-29.055Z" transform="translate(-3.774 85.97)" fill="#23e1ef"/>
        <path id="Path_107-5" data-name="Path 107" d="M51.044,6.963,3.774,36.013V70.491l47.27-29.055Z" transform="translate(-3.774 131.631)" fill="#23e1ef"/>
        <path id="Path_108-5" data-name="Path 108" d="M51.044,6.963,3.774,36.013V70.491l47.27-29.055Z" transform="translate(-3.774 177.291)" fill="#23e1ef"/>
        <path id="Path_109-5" data-name="Path 109" d="M51.044,6.963,3.774,36.013V70.491l47.27-29.055Z" transform="translate(-3.774 221.726)" fill="#23e1ef"/>
      </g>
      <g id="Group_3-2" data-name="Group 3" transform="translate(2135.572 3449.662)">
        <path id="Path_104-6" data-name="Path 104" d="M51.044-1.037,3.774,30.85V65.329l47.27-29.055Z" transform="translate(-3.774 1.037)" fill="#23e1ef"/>
        <path id="Path_105-6" data-name="Path 105" d="M51.044,6.963,3.774,36.013V70.491l47.27-29.055Z" transform="translate(-3.774 41.535)" fill="#23e1ef"/>
        <path id="Path_106-6" data-name="Path 106" d="M51.044,6.963,3.774,36.013V70.491l47.27-29.055Z" transform="translate(-3.774 85.97)" fill="#23e1ef"/>
        <path id="Path_107-6" data-name="Path 107" d="M51.044,6.963,3.774,36.013V70.491l47.27-29.055Z" transform="translate(-3.774 131.631)" fill="#23e1ef"/>
        <path id="Path_108-6" data-name="Path 108" d="M51.044,6.963,3.774,36.013V70.491l47.27-29.055Z" transform="translate(-3.774 177.291)" fill="#23e1ef"/>
        <path id="Path_109-6" data-name="Path 109" d="M51.044,6.963,3.774,36.013V70.491l47.27-29.055Z" transform="translate(-3.774 221.726)" fill="#23e1ef"/>
      </g>
      <g id="Group_4-2" data-name="Group 4" transform="translate(2135.572 3721.628)">
        <path id="Path_104-7" data-name="Path 104" d="M51.044-1.037,3.774,30.85V65.329l47.27-29.055Z" transform="translate(-3.774 1.037)" fill="#23e1ef"/>
        <path id="Path_105-7" data-name="Path 105" d="M51.044,6.963,3.774,36.013V70.491l47.27-29.055Z" transform="translate(-3.774 41.535)" fill="#23e1ef"/>
        <path id="Path_106-7" data-name="Path 106" d="M51.044,6.963,3.774,36.013V70.491l47.27-29.055Z" transform="translate(-3.774 85.97)" fill="#23e1ef"/>
        <path id="Path_107-7" data-name="Path 107" d="M51.044,6.963,3.774,36.013V70.491l47.27-29.055Z" transform="translate(-3.774 131.631)" fill="#23e1ef"/>
        <path id="Path_108-7" data-name="Path 108" d="M51.044,6.963,3.774,36.013V70.491l47.27-29.055Z" transform="translate(-3.774 177.291)" fill="#23e1ef"/>
        <path id="Path_109-7" data-name="Path 109" d="M51.044,6.963,3.774,36.013V70.491l47.27-29.055Z" transform="translate(-3.774 221.726)" fill="#23e1ef"/>
      </g>
    </g>
    <g id="Group_10" data-name="Group 10">
      <g id="Group_7" data-name="Group 7" transform="translate(1137 325)" opacity="0.34">
        <g id="Ellipse_63" data-name="Ellipse 63" transform="translate(3927 1275)" fill="#19e7f6" stroke="#19e7f6" stroke-width="20">
          <circle cx="12.5" cy="12.5" r="12.5" stroke="none"/>
          <circle cx="12.5" cy="12.5" r="2.5" fill="none"/>
        </g>
        <line id="Line_13" data-name="Line 13" y1="1" x2="590" transform="translate(3273.5 1286.5)" fill="none" stroke="#19e7f6" stroke-width="3"/>
        <line id="Line_14" data-name="Line 14" y1="1" x2="590" transform="translate(4015.5 1286.5)" fill="none" stroke="#19e7f6" stroke-width="3"/>
      </g>
      <g id="Group_8" data-name="Group 8" transform="translate(1278 396)" opacity="0.34">
        <g id="Ellipse_63-2" data-name="Ellipse 63" transform="translate(3927 1275)" fill="#19e7f6" stroke="#19e7f6" stroke-width="20">
          <circle cx="12.5" cy="12.5" r="12.5" stroke="none"/>
          <circle cx="12.5" cy="12.5" r="2.5" fill="none"/>
        </g>
        <line id="Line_13-2" data-name="Line 13" y1="1" x2="590" transform="translate(3273.5 1286.5)" fill="none" stroke="#19e7f6" stroke-width="3"/>
        <line id="Line_14-2" data-name="Line 14" y1="1" x2="590" transform="translate(4015.5 1286.5)" fill="none" stroke="#19e7f6" stroke-width="3"/>
      </g>
      <g id="Group_9" data-name="Group 9" transform="translate(1415 466)" opacity="0.34">
        <g id="Ellipse_63-3" data-name="Ellipse 63" transform="translate(3927 1275)" fill="#19e7f6" stroke="#19e7f6" stroke-width="20">
          <circle cx="12.5" cy="12.5" r="12.5" stroke="none"/>
          <circle cx="12.5" cy="12.5" r="2.5" fill="none"/>
        </g>
        <line id="Line_13-3" data-name="Line 13" y1="1" x2="590" transform="translate(3273.5 1286.5)" fill="none" stroke="#19e7f6" stroke-width="3"/>
        <line id="Line_14-3" data-name="Line 14" y1="1" x2="590" transform="translate(4015.5 1286.5)" fill="none" stroke="#19e7f6" stroke-width="3"/>
      </g>
    </g>
    <g id="Group_11" data-name="Group 11" transform="translate(-2081 2340)">
      <g id="Group_7-2" data-name="Group 7" transform="translate(1405 325)" opacity="0.34">
        <g id="Ellipse_63-4" data-name="Ellipse 63" transform="translate(3927 1275)" fill="#19e7f6" stroke="#19e7f6" stroke-width="20">
          <circle cx="12.5" cy="12.5" r="12.5" stroke="none"/>
          <circle cx="12.5" cy="12.5" r="2.5" fill="none"/>
        </g>
        <line id="Line_13-4" data-name="Line 13" y1="1" x2="590" transform="translate(3273.5 1286.5)" fill="none" stroke="#19e7f6" stroke-width="3"/>
        <line id="Line_14-4" data-name="Line 14" y1="1" x2="590" transform="translate(4015.5 1286.5)" fill="none" stroke="#19e7f6" stroke-width="3"/>
      </g>
      <g id="Group_8-2" data-name="Group 8" transform="translate(1278 396)" opacity="0.34">
        <g id="Ellipse_63-5" data-name="Ellipse 63" transform="translate(3927 1275)" fill="#19e7f6" stroke="#19e7f6" stroke-width="20">
          <circle cx="12.5" cy="12.5" r="12.5" stroke="none"/>
          <circle cx="12.5" cy="12.5" r="2.5" fill="none"/>
        </g>
        <line id="Line_13-5" data-name="Line 13" y1="1" x2="590" transform="translate(3273.5 1286.5)" fill="none" stroke="#19e7f6" stroke-width="3"/>
        <line id="Line_14-5" data-name="Line 14" y1="1" x2="590" transform="translate(4015.5 1286.5)" fill="none" stroke="#19e7f6" stroke-width="3"/>
      </g>
      <g id="Group_9-2" data-name="Group 9" transform="translate(1173 466)" opacity="0.34">
        <g id="Ellipse_63-6" data-name="Ellipse 63" transform="translate(3927 1275)" fill="#19e7f6" stroke="#19e7f6" stroke-width="20">
          <circle cx="12.5" cy="12.5" r="12.5" stroke="none"/>
          <circle cx="12.5" cy="12.5" r="2.5" fill="none"/>
        </g>
        <line id="Line_13-6" data-name="Line 13" y1="1" x2="590" transform="translate(3273.5 1286.5)" fill="none" stroke="#19e7f6" stroke-width="3"/>
        <line id="Line_14-6" data-name="Line 14" y1="1" x2="590" transform="translate(4015.5 1286.5)" fill="none" stroke="#19e7f6" stroke-width="3"/>
      </g>
    </g>
  </g>
</svg>
