<svg xmlns="http://www.w3.org/2000/svg" xmlns:xlink="http://www.w3.org/1999/xlink" width="3462.556" height="2075.469" viewBox="0 0 3462.556 2075.469">
  <defs>
    <linearGradient id="linear-gradient" x1="0.5" x2="0.5" y2="1" gradientUnits="objectBoundingBox">
      <stop offset="0" stop-color="#14bbe6"/>
      <stop offset="1" stop-color="#0a5e73" stop-opacity="0.988"/>
    </linearGradient>
    <filter id="Ellipse_77" x="392.046" y="1770.013" width="118" height="118" filterUnits="userSpaceOnUse">
      <feOffset input="SourceAlpha"/>
      <feGaussianBlur stdDeviation="3" result="blur"/>
      <feFlood flood-color="#19e7f6"/>
      <feComposite operator="in" in2="blur"/>
      <feComposite in="SourceGraphic"/>
    </filter>
    <filter id="Ellipse_78" x="539.046" y="1770.013" width="118" height="118" filterUnits="userSpaceOnUse">
      <feOffset input="SourceAlpha"/>
      <feGaussianBlur stdDeviation="3" result="blur-2"/>
      <feFlood flood-color="#19e7f6"/>
      <feComposite operator="in" in2="blur-2"/>
      <feComposite in="SourceGraphic"/>
    </filter>
    <filter id="Ellipse_79" x="697.046" y="1770.013" width="118" height="118" filterUnits="userSpaceOnUse">
      <feOffset input="SourceAlpha"/>
      <feGaussianBlur stdDeviation="3" result="blur-3"/>
      <feFlood flood-color="#19e7f6"/>
      <feComposite operator="in" in2="blur-3"/>
      <feComposite in="SourceGraphic"/>
    </filter>
    <filter id="Ellipse_81" x="394.546" y="1761.513" width="60" height="60" filterUnits="userSpaceOnUse">
      <feOffset input="SourceAlpha"/>
      <feGaussianBlur stdDeviation="7.5" result="blur-4"/>
      <feFlood flood-color="#19e7f6"/>
      <feComposite operator="in" in2="blur-4"/>
      <feComposite in="SourceGraphic"/>
    </filter>
    <filter id="Ellipse_82" x="546.546" y="1754.513" width="60" height="60" filterUnits="userSpaceOnUse">
      <feOffset input="SourceAlpha"/>
      <feGaussianBlur stdDeviation="7.5" result="blur-5"/>
      <feFlood flood-color="#19e7f6"/>
      <feComposite operator="in" in2="blur-5"/>
      <feComposite in="SourceGraphic"/>
    </filter>
    <filter id="Ellipse_83" x="707.546" y="1755.513" width="60" height="60" filterUnits="userSpaceOnUse">
      <feOffset input="SourceAlpha"/>
      <feGaussianBlur stdDeviation="7.5" result="blur-6"/>
      <feFlood flood-color="#19e7f6"/>
      <feComposite operator="in" in2="blur-6"/>
      <feComposite in="SourceGraphic"/>
    </filter>
    <linearGradient id="linear-gradient-2" x1="0.5" x2="0.5" y2="1" gradientUnits="objectBoundingBox">
      <stop offset="0" stop-color="#11f272"/>
      <stop offset="1" stop-color="#19e7f6"/>
    </linearGradient>
  </defs>
  <g id="Group_25" data-name="Group 25" transform="translate(-282.954 -162.987)">
    <g id="Exclusion_4" data-name="Exclusion 4" transform="translate(-4212.046 4772.987)" fill="url(#linear-gradient)">
      <path d="M 5864.84423828125 -2565.97412109375 L 5864.7587890625 -2565.97412109375 C 5864.10693359375 -2565.97412109375 5863.4169921875 -2565.978271484375 5862.6513671875 -2565.98583984375 L 5862.625 -2565.986328125 L 5862.5986328125 -2565.986328125 L 4624.046875 -2565.986328125 C 4615.63330078125 -2565.986328125 4607.2236328125 -2566.834228515625 4599.0517578125 -2568.50634765625 C 4591.087890625 -2570.136474609375 4583.25830078125 -2572.56689453125 4575.7802734375 -2575.72900390625 C 4568.42724609375 -2578.8408203125 4561.34130859375 -2582.687744140625 4554.720703125 -2587.161865234375 C 4548.1650390625 -2591.589599609375 4541.98876953125 -2596.6845703125 4536.3623046875 -2602.305908203125 C 4530.7529296875 -2607.917236328125 4525.65771484375 -2614.09375 4521.21875 -2620.661865234375 C 4516.7451171875 -2627.28369140625 4512.8994140625 -2634.36962890625 4509.78759765625 -2641.721923828125 C 4506.62060546875 -2649.2109375 4504.19091796875 -2657.03955078125 4502.56640625 -2664.989501953125 C 4500.8935546875 -2673.160888671875 4500.04541015625 -2681.570068359375 4500.04541015625 -2689.985595703125 L 4500.04541015625 -3235.405029296875 L 4500.04541015625 -3235.483154296875 L 4500.04296875 -3235.561279296875 C 4499.8779296875 -3240.82421875 4500.193359375 -3245.94921875 4500.98046875 -3250.793212890625 C 4501.7216796875 -3255.36279296875 4502.91064453125 -3259.84130859375 4504.51513671875 -3264.10400390625 C 4506.02587890625 -3268.11767578125 4507.95751953125 -3272.077880859375 4510.25537109375 -3275.873291015625 C 4512.4033203125 -3279.421875 4514.96240234375 -3282.970458984375 4517.86181640625 -3286.42138671875 C 4529.24853515625 -3299.957763671875 4544.6083984375 -3310.597412109375 4559.46240234375 -3320.886474609375 L 4559.46875 -3320.890380859375 L 4559.51318359375 -3320.92138671875 L 4559.515625 -3320.92333984375 C 4571.90869140625 -3329.508056640625 4583.61328125 -3337.61669921875 4592.65234375 -3347.057373046875 C 4597.67138671875 -3352.298095703125 4601.40869140625 -3357.47265625 4604.0771484375 -3362.87646484375 C 4605.5478515625 -3365.85400390625 4606.69921875 -3368.93603515625 4607.49951171875 -3372.035888671875 L 4607.49853515625 -3372.031005859375 C 4608.33935546875 -3375.272705078125 4608.8251953125 -3378.655029296875 4608.94287109375 -3382.083740234375 L 4608.9462890625 -3382.169677734375 L 4608.9462890625 -3382.25537109375 L 4608.9462890625 -3754.63525390625 C 4609.05224609375 -3759.278076171875 4608.7705078125 -3763.802001953125 4608.10888671875 -3768.082275390625 C 4607.4677734375 -3772.227294921875 4606.44921875 -3776.275390625 4605.08349609375 -3780.115478515625 C 4602.5595703125 -3787.220458984375 4598.83349609375 -3793.8017578125 4593.693359375 -3800.233154296875 C 4584.37548828125 -3811.890869140625 4572.078125 -3821.00244140625 4559.0537109375 -3830.64013671875 L 4559.0478515625 -3830.64501953125 L 4558.94970703125 -3830.7177734375 C 4544.93310546875 -3841.089111328125 4530.439453125 -3851.813232421875 4519.38330078125 -3866.219482421875 C 4516.56591796875 -3869.891357421875 4514.03857421875 -3873.727783203125 4511.87158203125 -3877.621826171875 C 4509.55322265625 -3881.791015625 4507.55322265625 -3886.19775390625 4505.92724609375 -3890.719482421875 C 4504.20166015625 -3895.516845703125 4502.83447265625 -3900.63037109375 4501.86376953125 -3905.919189453125 C 4500.84375 -3911.473388671875 4500.23193359375 -3917.40869140625 4500.04541015625 -3923.5615234375 L 4500.04541015625 -4480.986328125 C 4500.04541015625 -4489.4033203125 4500.8935546875 -4497.81298828125 4502.56591796875 -4505.9833984375 C 4504.19140625 -4513.9345703125 4506.62109375 -4521.7626953125 4509.7880859375 -4529.2509765625 C 4512.8984375 -4536.60205078125 4516.7451171875 -4543.68798828125 4521.21923828125 -4550.31298828125 C 4525.65966796875 -4556.8828125 4530.755859375 -4563.05908203125 4536.3642578125 -4568.669921875 C 4541.98779296875 -4574.28857421875 4548.1640625 -4579.3837890625 4554.7197265625 -4583.8115234375 C 4561.34619140625 -4588.2880859375 4568.43212890625 -4592.13525390625 4575.78173828125 -4595.24560546875 C 4583.2705078125 -4598.41015625 4591.1005859375 -4600.84033203125 4599.0517578125 -4602.46728515625 C 4607.21728515625 -4604.138671875 4615.626953125 -4604.98583984375 4624.046875 -4604.98583984375 L 4697.302734375 -4604.98583984375 C 4698.513671875 -4602.54150390625 4700.5302734375 -4598.806640625 4703.53662109375 -4594.20947265625 C 4706.62158203125 -4589.49072265625 4710.1328125 -4584.82080078125 4713.970703125 -4580.33056640625 C 4718.75732421875 -4574.7314453125 4724.0673828125 -4569.39697265625 4729.75244140625 -4564.4755859375 C 4744.20458984375 -4551.97021484375 4761.1494140625 -4542.01513671875 4780.1171875 -4534.88525390625 C 4791.33447265625 -4530.66748046875 4803.396484375 -4527.40478515625 4815.9677734375 -4525.1875 C 4829.73583984375 -4522.7568359375 4844.4609375 -4521.5244140625 4859.73291015625 -4521.5244140625 C 4862.73828125 -4521.5244140625 4865.806640625 -4521.57177734375 4868.85400390625 -4521.66552734375 L 5276.26416015625 -4521.66552734375 C 5283.68115234375 -4521.66552734375 5290.876953125 -4522.02783203125 5297.65283203125 -4522.74267578125 C 5304.12890625 -4523.42529296875 5310.408203125 -4524.45068359375 5316.314453125 -4525.7890625 C 5327.26220703125 -4528.26611328125 5337.23388671875 -4531.81982421875 5346.79736328125 -4536.65283203125 C 5364.41015625 -4545.55029296875 5377.28857421875 -4557.13623046875 5389.74267578125 -4568.3408203125 L 5390.08251953125 -4568.64697265625 L 5390.08740234375 -4568.65283203125 C 5400.7333984375 -4578.228515625 5410.8251953125 -4587.25927734375 5423.21044921875 -4593.94970703125 C 5429.8359375 -4597.529296875 5436.5810546875 -4600.15087890625 5443.83203125 -4601.9658203125 C 5451.98876953125 -4604.0078125 5460.6298828125 -4605 5470.248046875 -4605 C 5470.876953125 -4605 5471.509765625 -4604.99560546875 5472.18359375 -4604.986328125 L 5472.2177734375 -4604.98583984375 L 5472.251953125 -4604.98583984375 L 7790.0478515625 -4604.98583984375 C 7798.46826171875 -4604.98583984375 7806.87744140625 -4604.138671875 7815.0419921875 -4602.46728515625 C 7822.99365234375 -4600.8408203125 7830.8232421875 -4598.4111328125 7838.31298828125 -4595.24462890625 C 7845.66259765625 -4592.134765625 7852.748046875 -4588.2880859375 7859.37109375 -4583.8125 C 7865.93212890625 -4579.38134765625 7872.1083984375 -4574.28662109375 7877.72998046875 -4568.66845703125 C 7883.34375 -4563.05322265625 7888.43896484375 -4556.876953125 7892.873046875 -4550.31298828125 C 7897.3505859375 -4543.68505859375 7901.19677734375 -4536.5986328125 7904.30419921875 -4529.2509765625 C 7907.46728515625 -4521.7763671875 7909.896484375 -4513.94873046875 7911.52685546875 -4505.98388671875 C 7913.19921875 -4497.80908203125 7914.046875 -4489.3984375 7914.046875 -4480.986328125 L 7913.9501953125 -2841.542724609375 C 7913.9501953125 -2833.206298828125 7913.26025390625 -2825.00048828125 7911.900390625 -2817.15234375 C 7910.62158203125 -2809.77001953125 7908.71875 -2802.531494140625 7906.24462890625 -2795.636962890625 C 7901.74072265625 -2783.083740234375 7895.2451171875 -2771.3310546875 7886.93603515625 -2760.703125 C 7879.71728515625 -2751.46923828125 7871.197265625 -2743.146728515625 7861.6123046875 -2735.9677734375 C 7853.5068359375 -2729.8935546875 7844.666015625 -2724.701416015625 7836.04541015625 -2720.951904296875 C 7828.5595703125 -2717.6982421875 7819.080078125 -2715.1728515625 7807.87060546875 -2713.4462890625 C 7797.1103515625 -2711.78857421875 7785.30810546875 -2710.94677734375 7772.7919921875 -2710.944580078125 C 7760.2607421875 -2710.944580078125 7747.37646484375 -2711.831787109375 7735.533203125 -2713.510986328125 C 7729.5263671875 -2714.36376953125 7723.76025390625 -2715.419189453125 7718.3955078125 -2716.647705078125 C 7712.9453125 -2717.89501953125 7707.8681640625 -2719.334228515625 7703.3037109375 -2720.926513671875 C 7695.1259765625 -2723.780029296875 7686.8720703125 -2728.20556640625 7678.771484375 -2734.080078125 C 7672.22021484375 -2738.8291015625 7665.755859375 -2744.529052734375 7659.556640625 -2751.021728515625 C 7649.08203125 -2761.997314453125 7643.08203125 -2771.325439453125 7642.83203125 -2771.71728515625 L 7641.357421875 -2774.025390625 L 7638.61865234375 -2774.025390625 L 7016.57763671875 -2774.025390625 C 7014.62646484375 -2774.025390625 7012.72021484375 -2773.74951171875 7010.9130859375 -2773.20556640625 C 7009.12060546875 -2772.66552734375 7007.36865234375 -2771.844482421875 7005.70556640625 -2770.76513671875 C 7002.9267578125 -2768.963134765625 7000.38427734375 -2766.451904296875 6997.9345703125 -2763.087646484375 L 6997.93310546875 -2763.08544921875 L 6997.931640625 -2763.083740234375 C 6993.765625 -2757.351318359375 6990.56689453125 -2750.0595703125 6987.47265625 -2743.0078125 L 6987.466796875 -2742.99462890625 L 6987.4658203125 -2742.991943359375 L 6987.46435546875 -2742.989501953125 L 6987.4580078125 -2742.97509765625 L 6987.43408203125 -2742.919921875 L 6987.4296875 -2742.909912109375 C 6984.73583984375 -2736.766845703125 6982.18994140625 -2730.96728515625 6979.287109375 -2726.794677734375 C 6977.9169921875 -2724.825927734375 6976.6181640625 -2723.4287109375 6975.31591796875 -2722.523193359375 C 6974.13720703125 -2721.70361328125 6973.05419921875 -2721.338134765625 6971.80419921875 -2721.33740234375 C 6971.64794921875 -2721.33740234375 6971.49951171875 -2721.3427734375 6971.33984375 -2721.35400390625 L 6971.162109375 -2721.366943359375 L 6970.9833984375 -2721.366943359375 L 6090.9541015625 -2721.563720703125 L 6090.87939453125 -2721.563720703125 L 6090.8046875 -2721.561279296875 C 6085.31982421875 -2721.399169921875 6079.9443359375 -2720.735107421875 6074.82861328125 -2719.588623046875 C 6069.9306640625 -2718.491455078125 6065.1025390625 -2716.909912109375 6060.4794921875 -2714.8876953125 C 6051.97998046875 -2711.17041015625 6043.9921875 -2705.945068359375 6036.060546875 -2698.912353515625 C 6021.5673828125 -2686.070068359375 6009.673828125 -2669.360595703125 5997.08251953125 -2651.669921875 L 5997.07373046875 -2651.657470703125 L 5997.07421875 -2651.658203125 L 5997.06689453125 -2651.648193359375 L 5997.06103515625 -2651.64013671875 C 5982.2548828125 -2630.837890625 5966.9423828125 -2609.328369140625 5946.38916015625 -2593.069580078125 C 5941.12060546875 -2588.904052734375 5935.63330078125 -2585.195556640625 5930.080078125 -2582.048095703125 C 5924.11328125 -2578.669189453125 5917.83203125 -2575.7958984375 5911.4130859375 -2573.509033203125 C 5904.58447265625 -2571.07421875 5897.33056640625 -2569.207763671875 5889.8505859375 -2567.9609375 C 5881.9462890625 -2566.642822265625 5873.533203125 -2565.97412109375 5864.84423828125 -2565.97412109375 Z M 7770.0458984375 -2856.98828125 C 7765.0546875 -2856.98828125 7760.208984375 -2856.0087890625 7755.64306640625 -2854.077392578125 C 7751.2353515625 -2852.213134765625 7747.2783203125 -2849.5458984375 7743.88330078125 -2846.15087890625 C 7740.48583984375 -2842.752685546875 7737.81884765625 -2838.79638671875 7735.9560546875 -2834.391357421875 C 7734.025390625 -2829.824462890625 7733.04638671875 -2824.97900390625 7733.04638671875 -2819.989013671875 C 7733.04638671875 -2814.997802734375 7734.025390625 -2810.1513671875 7735.95556640625 -2805.5849609375 C 7737.81982421875 -2801.1767578125 7740.48779296875 -2797.220458984375 7743.8837890625 -2793.82421875 C 7747.2802734375 -2790.42822265625 7751.23681640625 -2787.761474609375 7755.642578125 -2785.896728515625 C 7760.20263671875 -2783.96630859375 7765.048828125 -2782.98779296875 7770.0458984375 -2782.98779296875 C 7775.04150390625 -2782.98779296875 7779.888671875 -2783.96630859375 7784.451171875 -2785.896484375 C 7788.85693359375 -2787.760009765625 7792.8134765625 -2790.427734375 7796.21044921875 -2793.824462890625 C 7799.60498046875 -2797.21728515625 7802.27197265625 -2801.174560546875 7804.13671875 -2805.58447265625 C 7806.06787109375 -2810.149169921875 7807.0478515625 -2814.995849609375 7807.0478515625 -2819.989013671875 C 7807.0478515625 -2824.98095703125 7806.06787109375 -2829.826904296875 7804.1357421875 -2834.392822265625 C 7802.27197265625 -2838.798583984375 7799.60595703125 -2842.754638671875 7796.2109375 -2846.150390625 C 7792.81494140625 -2849.544921875 7788.85888671875 -2852.21142578125 7784.45263671875 -2854.076904296875 C 7779.8828125 -2856.009033203125 7775.0361328125 -2856.98828125 7770.0458984375 -2856.98828125 Z M 4927.046875 -4307.9873046875 C 4921.35107421875 -4307.9873046875 4915.6572265625 -4307.4130859375 4910.123046875 -4306.28076171875 C 4904.7255859375 -4305.17578125 4899.4189453125 -4303.5283203125 4894.3486328125 -4301.3837890625 C 4889.36669921875 -4299.2763671875 4884.5654296875 -4296.669921875 4880.078125 -4293.6376953125 C 4875.63037109375 -4290.6328125 4871.44921875 -4287.1826171875 4867.650390625 -4283.38427734375 C 4863.85302734375 -4279.587890625 4860.40283203125 -4275.40625 4857.39599609375 -4270.9560546875 C 4854.361328125 -4266.4638671875 4851.75537109375 -4261.662109375 4849.650390625 -4256.68505859375 C 4847.5048828125 -4251.6123046875 4845.857421875 -4246.3056640625 4844.7529296875 -4240.91162109375 C 4843.62060546875 -4235.375 4843.046875 -4229.68115234375 4843.046875 -4223.9873046875 L 4843.046875 -2986.98779296875 C 4843.046875 -2981.294189453125 4843.62060546875 -2975.6005859375 4844.7529296875 -2970.064208984375 C 4845.85693359375 -2964.669921875 4847.5048828125 -2959.36279296875 4849.650390625 -2954.28955078125 C 4851.7548828125 -2949.312744140625 4854.36083984375 -2944.511474609375 4857.39599609375 -2940.0185546875 C 4860.40283203125 -2935.568603515625 4863.8525390625 -2931.38720703125 4867.6513671875 -2927.590087890625 C 4871.4501953125 -2923.79052734375 4875.6318359375 -2920.340576171875 4880.0791015625 -2917.33642578125 C 4884.56689453125 -2914.3037109375 4889.3681640625 -2911.697265625 4894.34912109375 -2909.590576171875 C 4899.41943359375 -2907.446044921875 4904.7265625 -2905.798583984375 4910.123046875 -2904.694091796875 C 4915.6572265625 -2903.561767578125 4921.35107421875 -2902.98779296875 4927.046875 -2902.98779296875 L 7522.0458984375 -2902.98779296875 C 7527.7421875 -2902.98779296875 7533.43603515625 -2903.561767578125 7538.9697265625 -2904.694091796875 C 7544.3671875 -2905.798583984375 7549.6748046875 -2907.446044921875 7554.7451171875 -2909.590576171875 C 7559.7255859375 -2911.697265625 7564.52685546875 -2914.3037109375 7569.015625 -2917.3369140625 C 7573.46044921875 -2920.339111328125 7577.64208984375 -2923.7890625 7581.44287109375 -2927.590576171875 C 7585.24169921875 -2931.388671875 7588.69189453125 -2935.569580078125 7591.697265625 -2940.018310546875 C 7594.7314453125 -2944.5087890625 7597.33740234375 -2949.31005859375 7599.443359375 -2954.2890625 C 7601.5888671875 -2959.3623046875 7603.236328125 -2964.669921875 7604.33935546875 -2970.064208984375 C 7605.4716796875 -2975.59765625 7606.0458984375 -2981.291748046875 7606.0458984375 -2986.98779296875 L 7606.0458984375 -4223.9873046875 C 7606.0458984375 -4229.68310546875 7605.4716796875 -4235.37744140625 7604.33935546875 -4240.9111328125 C 7603.236328125 -4246.30419921875 7601.5888671875 -4251.611328125 7599.443359375 -4256.6845703125 C 7597.33740234375 -4261.6640625 7594.7314453125 -4266.46533203125 7591.69775390625 -4270.9560546875 C 7588.69140625 -4275.40576171875 7585.24072265625 -4279.58740234375 7581.4423828125 -4283.384765625 C 7577.6435546875 -4287.18359375 7573.46240234375 -4290.6337890625 7569.01513671875 -4293.63818359375 C 7564.52783203125 -4296.67041015625 7559.7265625 -4299.2763671875 7554.74462890625 -4301.3837890625 C 7549.673828125 -4303.52880859375 7544.36669921875 -4305.17626953125 7538.97021484375 -4306.28076171875 C 7533.43603515625 -4307.4130859375 7527.7421875 -4307.9873046875 7522.0458984375 -4307.9873046875 L 4927.046875 -4307.9873046875 Z" stroke="none"/>
      <path d="M 5864.84423828125 -2570.97412109375 C 5873.25830078125 -2570.97412109375 5881.39501953125 -2571.61962890625 5889.02880859375 -2572.893310546875 C 5896.21728515625 -2574.09130859375 5903.18310546875 -2575.8828125 5909.7353515625 -2578.21923828125 C 5915.88330078125 -2580.4091796875 5921.89990234375 -2583.161376953125 5927.6142578125 -2586.398193359375 C 5932.9462890625 -2589.419921875 5938.21923828125 -2592.984130859375 5943.28662109375 -2596.990966796875 C 5963.28857421875 -2612.813232421875 5978.396484375 -2634.0400390625 5993.0087890625 -2654.569580078125 C 6005.77099609375 -2672.498779296875 6017.82470703125 -2689.43359375 6032.74365234375 -2702.6533203125 C 6041.07275390625 -2710.03857421875 6049.48974609375 -2715.5390625 6058.4755859375 -2719.46875 C 6063.3916015625 -2721.619140625 6068.5263671875 -2723.301025390625 6073.7353515625 -2724.46728515625 C 6079.16064453125 -2725.68359375 6084.85400390625 -2726.38720703125 6090.95556640625 -2726.563720703125 L 6970.98486328125 -2726.366943359375 L 6972.10595703125 -2726.654052734375 L 6972.4619140625 -2726.628662109375 C 6973.00830078125 -2727.0087890625 6973.923828125 -2727.84130859375 6975.1826171875 -2729.650146484375 C 6977.814453125 -2733.43310546875 6980.271484375 -2739.035400390625 6982.89404296875 -2745.016845703125 C 6986.09423828125 -2752.311279296875 6989.40380859375 -2759.8544921875 6993.892578125 -2766.031005859375 C 6996.70947265625 -2769.898681640625 6999.68408203125 -2772.819580078125 7002.9833984375 -2774.95947265625 C 7007.14111328125 -2777.6572265625 7011.71484375 -2779.025390625 7016.57763671875 -2779.025390625 L 7638.61865234375 -2779.025390625 L 7644.09619140625 -2779.024169921875 L 7647.04541015625 -2774.40966796875 C 7647.1044921875 -2774.3173828125 7653.037109375 -2765.094970703125 7663.1728515625 -2754.474609375 C 7669.1640625 -2748.199951171875 7675.3994140625 -2742.700439453125 7681.70703125 -2738.127685546875 C 7689.41259765625 -2732.53955078125 7697.2333984375 -2728.340576171875 7704.9501953125 -2725.647705078125 C 7709.341796875 -2724.115966796875 7714.23974609375 -2722.727783203125 7719.51171875 -2721.521728515625 C 7724.740234375 -2720.32421875 7730.3671875 -2719.294189453125 7736.23486328125 -2718.46142578125 C 7747.85009765625 -2716.81494140625 7760.4912109375 -2715.944580078125 7772.791015625 -2715.944580078125 C 7785.0537109375 -2715.94677734375 7796.599609375 -2716.7685546875 7807.109375 -2718.38818359375 C 7817.89453125 -2720.049072265625 7826.9599609375 -2722.45458984375 7834.05126953125 -2725.536865234375 C 7842.3212890625 -2729.134033203125 7850.814453125 -2734.1240234375 7858.61474609375 -2739.969970703125 C 7867.8466796875 -2746.884033203125 7876.0498046875 -2754.89599609375 7882.99658203125 -2763.78271484375 C 7890.9765625 -2773.989501953125 7897.21484375 -2785.275146484375 7901.5380859375 -2797.325927734375 C 7903.91552734375 -2803.949462890625 7905.744140625 -2810.90673828125 7906.9736328125 -2818.005859375 C 7908.28515625 -2825.5732421875 7908.9501953125 -2833.491943359375 7908.9501953125 -2841.542724609375 L 7909.046875 -4480.986328125 C 7909.046875 -4489.06298828125 7908.23291015625 -4497.1357421875 7906.62841796875 -4504.98095703125 C 7905.064453125 -4512.62255859375 7902.7333984375 -4520.13232421875 7899.69921875 -4527.30322265625 C 7896.71728515625 -4534.353515625 7893.02685546875 -4541.15380859375 7888.72998046875 -4547.51416015625 C 7884.47412109375 -4553.814453125 7879.58251953125 -4559.7431640625 7874.1953125 -4565.1318359375 C 7868.798828125 -4570.525390625 7862.8701171875 -4575.416015625 7856.57177734375 -4579.66943359375 C 7850.2158203125 -4583.96435546875 7843.41650390625 -4587.65576171875 7836.3662109375 -4590.63916015625 C 7829.1796875 -4593.6767578125 7821.66845703125 -4596.0087890625 7814.0400390625 -4597.5693359375 C 7806.20458984375 -4599.1728515625 7798.13232421875 -4599.98583984375 7790.0478515625 -4599.98583984375 L 5472.11572265625 -4599.98681640625 L 5470.248046875 -4600 C 5432.412109375 -4600 5414.18896484375 -4583.60693359375 5393.0869140625 -4564.62353515625 C 5380.38916015625 -4553.20068359375 5367.25927734375 -4541.38818359375 5349.052734375 -4532.1904296875 C 5339.11865234375 -4527.169921875 5328.7705078125 -4523.48095703125 5317.419921875 -4520.91259765625 C 5311.322265625 -4519.53076171875 5304.84814453125 -4518.4736328125 5298.17724609375 -4517.77001953125 C 5291.228515625 -4517.037109375 5283.85595703125 -4516.66552734375 5276.26416015625 -4516.66552734375 L 4869.08349609375 -4516.67041015625 C 4865.955078125 -4516.5732421875 4862.8095703125 -4516.5244140625 4859.73291015625 -4516.5244140625 C 4844.17041015625 -4516.5244140625 4829.15283203125 -4517.78271484375 4815.099609375 -4520.26318359375 C 4802.22509765625 -4522.5341796875 4789.86279296875 -4525.87890625 4778.357421875 -4530.205078125 C 4758.8349609375 -4537.54345703125 4741.38134765625 -4547.80126953125 4726.48046875 -4560.69482421875 C 4720.6064453125 -4565.77978515625 4715.11865234375 -4571.29296875 4710.17041015625 -4577.08154296875 C 4706.193359375 -4581.73388671875 4702.5537109375 -4586.576171875 4699.35205078125 -4591.47265625 C 4697.20556640625 -4594.75439453125 4695.5283203125 -4597.646484375 4694.26806640625 -4599.98583984375 L 4624.046875 -4599.98583984375 C 4615.96240234375 -4599.98583984375 4607.89013671875 -4599.1728515625 4600.05419921875 -4597.5693359375 C 4592.42529296875 -4596.0078125 4584.9130859375 -4593.67626953125 4577.73046875 -4590.64111328125 C 4570.67822265625 -4587.65576171875 4563.8779296875 -4583.96435546875 4557.5185546875 -4579.66845703125 C 4551.2255859375 -4575.41796875 4545.296875 -4570.52685546875 4539.900390625 -4565.13525390625 C 4534.51611328125 -4559.7490234375 4529.62451171875 -4553.8193359375 4525.36328125 -4547.5146484375 C 4521.068359375 -4541.15673828125 4517.37744140625 -4534.3564453125 4514.39306640625 -4527.3037109375 C 4511.35498046875 -4520.11962890625 4509.02392578125 -4512.609375 4507.46435546875 -4504.98046875 C 4505.859375 -4497.1396484375 4505.04541015625 -4489.06689453125 4505.04541015625 -4480.986328125 L 4505.041015625 -3923.784912109375 C 4505.21728515625 -3917.858154296875 4505.802734375 -3912.15087890625 4506.78125 -3906.82177734375 C 4507.703125 -3901.801513671875 4508.99853515625 -3896.953125 4510.63232421875 -3892.411376953125 C 4512.16650390625 -3888.1435546875 4514.05419921875 -3883.985107421875 4516.2412109375 -3880.052734375 C 4518.2890625 -3876.371826171875 4520.68115234375 -3872.741943359375 4523.3505859375 -3869.263671875 C 4533.9775390625 -3855.41552734375 4548.18603515625 -3844.90234375 4561.92919921875 -3834.732666015625 C 4575.25927734375 -3824.86865234375 4587.8505859375 -3815.551513671875 4597.59912109375 -3803.35498046875 C 4603.0927734375 -3796.48193359375 4607.08203125 -3789.4267578125 4609.7939453125 -3781.79150390625 C 4611.26513671875 -3777.656494140625 4612.36083984375 -3773.301513671875 4613.05029296875 -3768.846435546875 C 4613.759765625 -3764.2568359375 4614.060546875 -3759.416015625 4613.9462890625 -3754.694091796875 L 4613.9404296875 -3381.911865234375 C 4613.81005859375 -3378.11767578125 4613.27099609375 -3374.371337890625 4612.3408203125 -3370.785400390625 C 4611.45458984375 -3367.353271484375 4610.18212890625 -3363.94775390625 4608.56005859375 -3360.662353515625 C 4605.662109375 -3354.794921875 4601.64013671875 -3349.213623046875 4596.263671875 -3343.59912109375 C 4586.87451171875 -3333.792724609375 4574.96533203125 -3325.543212890625 4562.3095703125 -3316.77587890625 C 4547.7255859375 -3306.674072265625 4532.64501953125 -3296.227783203125 4521.68994140625 -3283.20556640625 C 4518.95556640625 -3279.950927734375 4516.5478515625 -3276.61279296875 4514.53271484375 -3273.28369140625 C 4512.3935546875 -3269.75048828125 4510.59716796875 -3266.068603515625 4509.1943359375 -3262.34375 C 4507.70703125 -3258.390380859375 4506.6044921875 -3254.235107421875 4505.916015625 -3249.991943359375 C 4505.18017578125 -3245.463134765625 4504.8857421875 -3240.660888671875 4505.04541015625 -3235.405029296875 L 4505.04541015625 -2689.985595703125 C 4505.04541015625 -2681.906494140625 4505.859375 -2673.83447265625 4507.46533203125 -2665.990478515625 C 4509.0234375 -2658.364013671875 4511.3544921875 -2650.85400390625 4514.39208984375 -2643.6708984375 C 4517.3779296875 -2636.615478515625 4521.06884765625 -2629.8154296875 4525.36181640625 -2623.46142578125 C 4529.62255859375 -2617.156494140625 4534.51416015625 -2611.227294921875 4539.896484375 -2605.84326171875 C 4545.2978515625 -2600.4462890625 4551.22607421875 -2595.555419921875 4557.52099609375 -2591.3046875 C 4563.87353515625 -2587.010986328125 4570.6728515625 -2583.320068359375 4577.7275390625 -2580.33447265625 C 4584.90234375 -2577.300048828125 4592.4140625 -2574.96875 4600.05419921875 -2573.404541015625 C 4607.896484375 -2571.800048828125 4615.96923828125 -2570.986328125 4624.046875 -2570.986328125 L 5862.7041015625 -2570.98583984375 L 5864.7587890625 -2570.97412109375 L 5864.84423828125 -2570.97412109375 M 7770.0458984375 -2861.98828125 C 7775.70849609375 -2861.98828125 7781.21044921875 -2860.8759765625 7786.40185546875 -2858.681396484375 C 7791.40283203125 -2856.564208984375 7795.892578125 -2853.538330078125 7799.7470703125 -2849.685546875 C 7803.59912109375 -2845.832275390625 7806.625 -2841.34228515625 7808.740234375 -2836.341796875 C 7810.935546875 -2831.156005859375 7812.0478515625 -2825.654052734375 7812.0478515625 -2819.989013671875 C 7812.0478515625 -2814.32275390625 7810.935546875 -2808.820068359375 7808.74169921875 -2803.6376953125 C 7806.625 -2798.630859375 7803.59765625 -2794.13916015625 7799.74560546875 -2790.2890625 C 7795.8916015625 -2786.4345703125 7791.4013671875 -2783.4072265625 7786.3994140625 -2781.29150390625 C 7781.216796875 -2779.09912109375 7775.71435546875 -2777.98779296875 7770.0458984375 -2777.98779296875 C 7764.37548828125 -2777.98779296875 7758.87353515625 -2779.099609375 7753.69384765625 -2781.291748046875 C 7748.6923828125 -2783.40869140625 7744.20263671875 -2786.435546875 7740.34912109375 -2790.288330078125 C 7736.49462890625 -2794.142333984375 7733.46728515625 -2798.63330078125 7731.3505859375 -2803.6376953125 C 7729.158203125 -2808.82421875 7728.04638671875 -2814.325439453125 7728.04638671875 -2819.989013671875 C 7728.04638671875 -2825.6513671875 7729.158203125 -2831.15185546875 7731.3505859375 -2836.339111328125 C 7733.4658203125 -2841.339599609375 7736.49267578125 -2845.83056640625 7740.34765625 -2849.68603515625 C 7744.2001953125 -2853.5390625 7748.69140625 -2856.56591796875 7753.6953125 -2858.682373046875 C 7758.880859375 -2860.8759765625 7764.38232421875 -2861.98828125 7770.0458984375 -2861.98828125 M 4927.046875 -4312.9873046875 L 7522.0458984375 -4312.9873046875 C 7528.078125 -4312.9873046875 7534.109375 -4312.37890625 7539.97265625 -4311.17919921875 C 7545.6923828125 -4310.0087890625 7551.31787109375 -4308.26220703125 7556.6923828125 -4305.98876953125 C 7561.9716796875 -4303.75537109375 7567.06005859375 -4300.994140625 7571.814453125 -4297.78125 C 7576.52490234375 -4294.5986328125 7580.9541015625 -4290.9443359375 7584.9775390625 -4286.92041015625 C 7589.00146484375 -4282.8984375 7592.65576171875 -4278.46875 7595.84033203125 -4273.7548828125 C 7599.05517578125 -4268.9970703125 7601.81689453125 -4263.9091796875 7604.048828125 -4258.6318359375 C 7606.32275390625 -4253.25439453125 7608.068359375 -4247.62939453125 7609.23779296875 -4241.9130859375 C 7610.4375 -4236.05029296875 7611.0458984375 -4230.01904296875 7611.0458984375 -4223.9873046875 L 7611.0458984375 -2986.98779296875 C 7611.0458984375 -2980.9560546875 7610.4375 -2974.924560546875 7609.23828125 -2969.062255859375 C 7608.068359375 -2963.344482421875 7606.32275390625 -2957.71923828125 7604.04833984375 -2952.34130859375 C 7601.81689453125 -2947.06494140625 7599.05517578125 -2941.976806640625 7595.84033203125 -2937.21875 C 7592.65673828125 -2932.5068359375 7589.001953125 -2928.077880859375 7584.978515625 -2924.054931640625 C 7580.95263671875 -2920.028564453125 7576.52294921875 -2916.3740234375 7571.8154296875 -2913.194091796875 C 7567.05859375 -2909.9794921875 7561.970703125 -2907.21826171875 7556.6923828125 -2904.985595703125 C 7551.318359375 -2902.71240234375 7545.69287109375 -2900.9658203125 7539.97216796875 -2899.7958984375 C 7534.109375 -2898.595947265625 7528.078125 -2897.98779296875 7522.0458984375 -2897.98779296875 L 4927.046875 -2897.98779296875 C 4921.01513671875 -2897.98779296875 4914.98388671875 -2898.595947265625 4909.1201171875 -2899.7958984375 C 4903.40087890625 -2900.96630859375 4897.77587890625 -2902.71240234375 4892.40087890625 -2904.985595703125 C 4887.12255859375 -2907.21826171875 4882.03466796875 -2909.97998046875 4877.27978515625 -2913.193115234375 C 4872.56884765625 -2916.375 4868.14013671875 -2920.030029296875 4864.1162109375 -2924.05419921875 C 4860.0927734375 -2928.076416015625 4856.43798828125 -2932.50537109375 4853.251953125 -2937.219970703125 C 4850.03662109375 -2941.98046875 4847.27587890625 -2947.06787109375 4845.044921875 -2952.341796875 C 4842.771484375 -2957.71923828125 4841.02490234375 -2963.34423828125 4839.8544921875 -2969.062255859375 C 4838.65478515625 -2974.92724609375 4838.046875 -2980.958251953125 4838.046875 -2986.98779296875 L 4838.046875 -4223.9873046875 C 4838.046875 -4230.01708984375 4838.65478515625 -4236.0478515625 4839.85498046875 -4241.9140625 C 4841.025390625 -4247.63134765625 4842.771484375 -4253.25634765625 4845.04541015625 -4258.6328125 C 4847.2763671875 -4263.9072265625 4850.03759765625 -4268.99462890625 4853.25244140625 -4273.7548828125 C 4856.43798828125 -4278.46923828125 4860.09326171875 -4282.89892578125 4864.11474609375 -4286.9189453125 C 4868.13818359375 -4290.943359375 4872.5673828125 -4294.59765625 4877.2783203125 -4297.7802734375 C 4882.03369140625 -4300.99365234375 4887.12109375 -4303.75537109375 4892.40087890625 -4305.98876953125 C 4897.77490234375 -4308.26171875 4903.39990234375 -4310.00830078125 4909.12060546875 -4311.17919921875 C 4914.98388671875 -4312.37890625 4921.01513671875 -4312.9873046875 4927.046875 -4312.9873046875 M 5864.84423828125 -2560.97412109375 L 5864.7587890625 -2560.97412109375 C 5864.125 -2560.97412109375 5863.41796875 -2560.977783203125 5862.5986328125 -2560.986328125 L 4624.046875 -2560.986328125 C 4615.29833984375 -2560.986328125 4606.55126953125 -2561.8681640625 4598.04931640625 -2563.607666015625 C 4589.7626953125 -2565.30419921875 4581.615234375 -2567.832763671875 4573.83251953125 -2571.1240234375 C 4566.1806640625 -2574.3623046875 4558.80859375 -2578.364501953125 4551.92138671875 -2583.01904296875 C 4545.103515625 -2587.623779296875 4538.67919921875 -2592.9228515625 4532.828125 -2598.76904296875 C 4526.99365234375 -2604.60595703125 4521.69384765625 -2611.029052734375 4517.076171875 -2617.8623046875 C 4512.421875 -2624.752197265625 4508.42041015625 -2632.1240234375 4505.18310546875 -2639.773193359375 C 4501.88720703125 -2647.56689453125 4499.3583984375 -2655.713623046875 4497.66748046875 -2663.98876953125 C 4495.927734375 -2672.4873046875 4495.04541015625 -2681.233642578125 4495.04541015625 -2689.985595703125 L 4495.04541015625 -3235.405029296875 C 4494.87060546875 -3240.985595703125 4495.20654296875 -3246.432861328125 4496.044921875 -3251.594482421875 C 4496.83935546875 -3256.490478515625 4498.1142578125 -3261.29150390625 4499.8349609375 -3265.864501953125 C 4501.45556640625 -3270.168212890625 4503.5224609375 -3274.40673828125 4505.97802734375 -3278.462646484375 C 4508.2587890625 -3282.23046875 4510.96875 -3285.989990234375 4514.03369140625 -3289.6376953125 C 4525.85400390625 -3303.689697265625 4541.4951171875 -3314.523193359375 4556.62158203125 -3325.0009765625 L 4556.64013671875 -3325.01416015625 L 4556.658203125 -3325.0263671875 C 4568.84130859375 -3333.4658203125 4580.3486328125 -3341.436767578125 4589.041015625 -3350.51513671875 C 4593.70166015625 -3355.38232421875 4597.15380859375 -3360.150146484375 4599.59375 -3365.090576171875 C 4600.91259765625 -3367.760986328125 4601.943359375 -3370.518310546875 4602.65869140625 -3373.286376953125 C 4603.4072265625 -3376.1728515625 4603.8408203125 -3379.18994140625 4603.9462890625 -3382.25537109375 L 4603.9462890625 -3754.694091796875 C 4604.04931640625 -3759.06494140625 4603.787109375 -3763.312255859375 4603.16748046875 -3767.318115234375 C 4602.57421875 -3771.15087890625 4601.63427734375 -3774.892822265625 4600.37255859375 -3778.439697265625 C 4598.037109375 -3785.0146484375 4594.57470703125 -3791.121826171875 4589.78759765625 -3797.111328125 C 4580.85546875 -3808.286865234375 4568.77294921875 -3817.228271484375 4555.98095703125 -3826.694091796875 L 4555.9755859375 -3826.6982421875 C 4541.68017578125 -3837.27587890625 4526.90087890625 -3848.2119140625 4515.4169921875 -3863.175537109375 C 4512.45068359375 -3867.041015625 4509.78759765625 -3871.084228515625 4507.50244140625 -3875.19091796875 C 4505.05419921875 -3879.59375 4502.9404296875 -3884.2490234375 4501.22216796875 -3889.02783203125 C 4499.4052734375 -3894.07861328125 4497.96630859375 -3899.457763671875 4496.94580078125 -3905.016357421875 C 4495.87646484375 -3910.840576171875 4495.23681640625 -3917.055419921875 4495.04541015625 -3923.48779296875 L 4495.04541015625 -4480.986328125 C 4495.04541015625 -4489.7392578125 4495.927734375 -4498.48681640625 4497.66748046875 -4506.98583984375 C 4499.35888671875 -4515.26025390625 4501.8876953125 -4523.40625 4505.18310546875 -4531.19873046875 C 4508.41796875 -4538.84375 4512.4189453125 -4546.216796875 4517.076171875 -4553.11181640625 C 4521.693359375 -4559.943359375 4526.99267578125 -4566.3671875 4532.828125 -4572.205078125 C 4538.67919921875 -4578.05078125 4545.1025390625 -4583.349609375 4551.92138671875 -4587.955078125 C 4558.81396484375 -4592.611328125 4566.18603515625 -4596.61376953125 4573.83251953125 -4599.85009765625 C 4581.6298828125 -4603.14501953125 4589.77783203125 -4605.67333984375 4598.04931640625 -4607.36572265625 C 4606.54443359375 -4609.1044921875 4615.29150390625 -4609.98583984375 4624.046875 -4609.98583984375 L 4700.4990234375 -4609.98583984375 C 4700.51806640625 -4609.9375 4702.63134765625 -4604.728515625 4707.72119140625 -4596.9462890625 C 4710.6875 -4592.4091796875 4714.068359375 -4587.91162109375 4717.771484375 -4583.5791015625 C 4722.39697265625 -4578.16845703125 4727.52880859375 -4573.01318359375 4733.02490234375 -4568.255859375 C 4747.02783203125 -4556.13916015625 4763.4638671875 -4546.486328125 4781.87646484375 -4539.5654296875 C 4792.80810546875 -4535.455078125 4804.57080078125 -4532.2744140625 4816.83642578125 -4530.111328125 C 4830.318359375 -4527.7314453125 4844.75048828125 -4526.5244140625 4859.73291015625 -4526.5244140625 C 4862.70751953125 -4526.5244140625 4865.7490234375 -4526.57177734375 4868.77392578125 -4526.66552734375 L 5276.26416015625 -4526.66552734375 C 5283.51171875 -4526.66552734375 5290.53125 -4527.01904296875 5297.1279296875 -4527.71484375 C 5303.4140625 -4528.3779296875 5309.49755859375 -4529.37109375 5315.20947265625 -4530.66552734375 C 5325.75439453125 -4533.05126953125 5335.34912109375 -4536.4697265625 5344.5419921875 -4541.11572265625 C 5361.56201171875 -4549.7138671875 5374.18896484375 -4561.07373046875 5386.400390625 -4572.0595703125 L 5386.40478515625 -4572.0654296875 C 5408.09423828125 -4591.5751953125 5428.578125 -4610 5470.248046875 -4610 C 5470.9287109375 -4610 5471.58349609375 -4609.9951171875 5472.251953125 -4609.98583984375 L 7790.0478515625 -4609.98583984375 C 7798.80322265625 -4609.98583984375 7807.55029296875 -4609.1044921875 7816.044921875 -4607.36572265625 C 7824.31982421875 -4605.67333984375 7832.46630859375 -4603.14453125 7840.259765625 -4599.85009765625 C 7847.908203125 -4596.61376953125 7855.2802734375 -4592.611328125 7862.1708984375 -4587.955078125 C 7868.994140625 -4583.34716796875 7875.41796875 -4578.04833984375 7881.2646484375 -4572.205078125 C 7887.1044921875 -4566.36328125 7892.40380859375 -4559.939453125 7897.01611328125 -4553.11181640625 C 7901.673828125 -4546.216796875 7905.67578125 -4538.84375 7908.90966796875 -4531.19873046875 C 7912.20068359375 -4523.419921875 7914.7294921875 -4515.2734375 7916.42529296875 -4506.98583984375 C 7918.1650390625 -4498.4814453125 7919.046875 -4489.73388671875 7919.046875 -4480.986328125 L 7918.9501953125 -2841.542236328125 C 7918.9501953125 -2832.92041015625 7918.23583984375 -2824.42724609375 7916.82666015625 -2816.298095703125 C 7915.49951171875 -2808.634033203125 7913.5224609375 -2801.114501953125 7910.9501953125 -2793.94775390625 C 7906.26708984375 -2780.8935546875 7899.5126953125 -2768.671875 7890.875 -2757.623779296875 C 7883.38525390625 -2748.042724609375 7874.54833984375 -2739.409912109375 7864.609375 -2731.9658203125 C 7856.19970703125 -2725.66357421875 7847.01171875 -2720.26904296875 7838.03955078125 -2716.366943359375 C 7830.15966796875 -2712.94189453125 7820.265625 -2710.29638671875 7808.6318359375 -2708.504638671875 C 7797.6181640625 -2706.807861328125 7785.56005859375 -2705.94677734375 7772.79296875 -2705.944580078125 C 7760.03369140625 -2705.944580078125 7746.90625 -2706.8486328125 7734.8310546875 -2708.560546875 C 7728.6826171875 -2709.43310546875 7722.77783203125 -2710.5146484375 7717.27880859375 -2711.774169921875 C 7711.65087890625 -2713.061767578125 7706.39501953125 -2714.552734375 7701.65673828125 -2716.20556640625 C 7693.01904296875 -2719.219482421875 7684.33154296875 -2723.871337890625 7675.83642578125 -2730.0322265625 C 7669.0400390625 -2734.959228515625 7662.3466796875 -2740.859130859375 7655.9404296875 -2747.569091796875 C 7645.14404296875 -2758.88134765625 7638.8798828125 -2768.616455078125 7638.61865234375 -2769.025390625 L 7016.57763671875 -2769.025390625 C 7013.638671875 -2769.025390625 7010.97265625 -2768.22265625 7008.42724609375 -2766.571044921875 C 7006.16943359375 -2765.10693359375 7004.0595703125 -2763.004638671875 7001.97607421875 -2760.14404296875 C 6998.12548828125 -2754.844970703125 6995.03466796875 -2747.799072265625 6992.04541015625 -2740.985595703125 L 6992.0390625 -2740.970947265625 L 6992.03466796875 -2740.9609375 C 6989.23095703125 -2734.56640625 6986.58251953125 -2728.52587890625 6983.3916015625 -2723.939208984375 C 6981.6767578125 -2721.47509765625 6979.96923828125 -2719.669189453125 6978.17041015625 -2718.418212890625 C 6976.158203125 -2717.01904296875 6974.07666015625 -2716.338623046875 6971.80712890625 -2716.33740234375 C 6971.53125 -2716.33740234375 6971.26171875 -2716.346923828125 6970.982421875 -2716.366943359375 L 6090.953125 -2716.563720703125 C 6085.7841796875 -2716.410400390625 6080.7265625 -2715.786376953125 6075.92236328125 -2714.70947265625 C 6071.33544921875 -2713.682373046875 6066.8134765625 -2712.200927734375 6062.48291015625 -2710.306884765625 C 6054.470703125 -2706.802734375 6046.91259765625 -2701.851806640625 6039.37744140625 -2695.1708984375 C 6025.31005859375 -2682.70556640625 6013.57666015625 -2666.220947265625 6001.15478515625 -2648.76904296875 L 6001.1474609375 -2648.7587890625 C 5986.13330078125 -2627.66455078125 5970.60791015625 -2605.852783203125 5949.49072265625 -2589.148193359375 C 5944.02587890625 -2584.826904296875 5938.3251953125 -2580.97412109375 5932.54541015625 -2577.6982421875 C 5926.32666015625 -2574.176513671875 5919.78125 -2571.182373046875 5913.0908203125 -2568.799072265625 C 5905.98681640625 -2566.265869140625 5898.44482421875 -2564.324462890625 5890.6728515625 -2563.029052734375 C 5882.49755859375 -2561.66552734375 5873.8076171875 -2560.97412109375 5864.84423828125 -2560.97412109375 Z M 7770.0458984375 -2851.98828125 C 7765.7265625 -2851.98828125 7761.53662109375 -2851.141357421875 7757.59130859375 -2849.472412109375 C 7753.77978515625 -2847.860595703125 7750.357421875 -2845.55419921875 7747.41943359375 -2842.615478515625 C 7744.47900390625 -2839.674560546875 7742.171875 -2836.252197265625 7740.56103515625 -2832.444091796875 C 7738.892578125 -2828.497314453125 7738.04638671875 -2824.306884765625 7738.04638671875 -2819.989013671875 C 7738.04638671875 -2815.669677734375 7738.892578125 -2811.478759765625 7740.56103515625 -2807.53173828125 C 7742.1728515625 -2803.721923828125 7744.47998046875 -2800.299072265625 7747.41943359375 -2797.360107421875 C 7750.35888671875 -2794.4208984375 7753.78125 -2792.11376953125 7757.59130859375 -2790.50146484375 C 7761.53125 -2788.833740234375 7765.7216796875 -2787.98779296875 7770.0458984375 -2787.98779296875 C 7774.3701171875 -2787.98779296875 7778.56103515625 -2788.833740234375 7782.50341796875 -2790.50146484375 C 7786.3125 -2792.11279296875 7789.73486328125 -2794.419921875 7792.6748046875 -2797.360107421875 C 7795.611328125 -2800.294921875 7797.91845703125 -2803.71728515625 7799.53125 -2807.53173828125 C 7801.201171875 -2811.477783203125 7802.0478515625 -2815.669189453125 7802.0478515625 -2819.989013671875 C 7802.0478515625 -2824.307861328125 7801.201171875 -2828.498291015625 7799.53125 -2832.444091796875 C 7797.91845703125 -2836.25634765625 7795.611328125 -2839.67822265625 7792.6748046875 -2842.615478515625 C 7789.736328125 -2845.552734375 7786.314453125 -2847.859130859375 7782.50341796875 -2849.472412109375 C 7778.5556640625 -2851.141357421875 7774.3642578125 -2851.98828125 7770.0458984375 -2851.98828125 Z M 4927.046875 -4302.9873046875 C 4921.68701171875 -4302.9873046875 4916.33056640625 -4302.447265625 4911.12548828125 -4301.38232421875 C 4906.05419921875 -4300.34423828125 4901.064453125 -4298.79541015625 4896.296875 -4296.77880859375 C 4891.61474609375 -4294.79833984375 4887.10009765625 -4292.34814453125 4882.87744140625 -4289.4951171875 C 4878.693359375 -4286.66845703125 4874.759765625 -4283.4228515625 4871.18603515625 -4279.8486328125 C 4867.611328125 -4276.27490234375 4864.36572265625 -4272.3408203125 4861.5390625 -4268.15673828125 C 4858.68603515625 -4263.9326171875 4856.23486328125 -4259.41748046875 4854.25537109375 -4254.7373046875 C 4852.23876953125 -4249.9697265625 4850.68994140625 -4244.98046875 4849.65185546875 -4239.90869140625 C 4848.58740234375 -4234.7041015625 4848.046875 -4229.34716796875 4848.046875 -4223.9873046875 L 4848.046875 -2986.98779296875 C 4848.046875 -2981.627685546875 4848.58740234375 -2976.27099609375 4849.65185546875 -2971.06591796875 C 4850.68994140625 -2965.99365234375 4852.23876953125 -2961.005126953125 4854.25537109375 -2956.23681640625 C 4856.23486328125 -2951.556396484375 4858.68603515625 -2947.04150390625 4861.5390625 -2942.8173828125 C 4864.3662109375 -2938.63330078125 4867.61181640625 -2934.699462890625 4871.18603515625 -2931.1259765625 C 4874.759765625 -2927.5517578125 4878.693359375 -2924.305908203125 4882.87744140625 -2921.4794921875 C 4887.10009765625 -2918.62646484375 4891.61474609375 -2916.176025390625 4896.296875 -2914.195556640625 C 4901.06298828125 -2912.1796875 4906.05224609375 -2910.630859375 4911.12548828125 -2909.5927734375 C 4916.33056640625 -2908.52783203125 4921.68701171875 -2907.98779296875 4927.046875 -2907.98779296875 L 7522.0458984375 -2907.98779296875 C 7527.40625 -2907.98779296875 7532.76318359375 -2908.52783203125 7537.9677734375 -2909.5927734375 C 7543.0419921875 -2910.630859375 7548.03125 -2912.1796875 7552.796875 -2914.195556640625 C 7557.47900390625 -2916.176025390625 7561.994140625 -2918.62646484375 7566.21630859375 -2921.4794921875 C 7570.400390625 -2924.305908203125 7574.33349609375 -2927.5517578125 7577.90771484375 -2931.1259765625 C 7581.48193359375 -2934.699951171875 7584.7275390625 -2938.6337890625 7587.55419921875 -2942.8173828125 C 7590.4072265625 -2947.03955078125 7592.85791015625 -2951.5546875 7594.83837890625 -2956.23681640625 C 7596.85400390625 -2961.002685546875 7598.40283203125 -2965.991943359375 7599.44091796875 -2971.06591796875 C 7600.505859375 -2976.27099609375 7601.0458984375 -2981.627685546875 7601.0458984375 -2986.98779296875 L 7601.0458984375 -4223.9873046875 C 7601.0458984375 -4229.34716796875 7600.505859375 -4234.7041015625 7599.44091796875 -4239.90869140625 C 7598.40283203125 -4244.98193359375 7596.85400390625 -4249.970703125 7594.83837890625 -4254.7373046875 C 7592.85791015625 -4259.41943359375 7590.4072265625 -4263.9345703125 7587.55419921875 -4268.15673828125 C 7584.7275390625 -4272.3408203125 7581.482421875 -4276.2744140625 7577.90771484375 -4279.8486328125 C 7574.33349609375 -4283.4228515625 7570.400390625 -4286.66845703125 7566.21630859375 -4289.4951171875 C 7561.994140625 -4292.34814453125 7557.47900390625 -4294.79833984375 7552.796875 -4296.77880859375 C 7548.02880859375 -4298.79541015625 7543.0400390625 -4300.34423828125 7537.9677734375 -4301.38232421875 C 7532.76318359375 -4302.447265625 7527.40625 -4302.9873046875 7522.0458984375 -4302.9873046875 L 4927.046875 -4302.9873046875 Z" stroke="none" fill="#19e7f6"/>
    </g>
    <path id="Path_192" data-name="Path 192" d="M-4202.636,5028.814v428.308s-2.583,35.33,24.05,67.4,71.961,48.053,78.483,76.317,0,408.519,0,408.519c-7.295,28.6-16.1,25.655-51.42,54.1s-51.087,37.354-55.113,65.127-1,376.477-1,376.477,26.7-36.8,24.247-59.886c0,0-.206-273.375,0-308.008s133.317-70.489,132.908-139.446c0,0-1.157-356.518,0-405.136s-131.452-46.106-130.1-146.337l2-369.605Z" transform="translate(4495 -4610)" fill="#19e7f6"/>
    <path id="Path_193" data-name="Path 193" d="M-790,6002.218s17.982-3.786,17.417,7.376V6063.1c5.773,20.725,22.338,2.843,22.094,34.392l1,500.958s.531,70.4-40.407,103.991-123.347,30.371-123.347,30.371l-539.34-.333c-30.829-.907-16.321,37.176-51.684,77.072s-73.19,38.95-89.186,38.728-281.968,0-281.968,0,28.044-33.664,67.828-33.591c0,0,179.448,5.916,214.14,0s59.23-26.948,70.915-66.677-5.833-81.794-5.833-81.794H-1731.7s17.527-48.571,35.373-53.973l623.525-4,65.082,57.584,94.474,9.5,86.076-38.69,32.6-56.887v-85.3Z" transform="translate(4495 -4610)" fill="#19e7f6"/>
    <path id="Path_194" data-name="Path 194" d="M-1930.63,6848.328c-40.836.288-359.583,0-359.583,0-17.972-1.083-14.408-26.646-44.713-25.253h-109.024c-24.125-.619-24.083,25.72-44.256,25.253h-266.916s52.241-102.478,113.567-107.292h87.546c21.564-1.6,14.009,18.292,32.578,18.442s204.575,0,204.575,0c35.146.726,26.39-51.808,61.427-52.241h660.957s-13.056,51.216-41.949,52.241h-198.812c-20.078.726-27.7,31.371-43.8,31.8s-265.1,0-265.1,0c-10.98.543-9.007,18.3,0,18.171l279-.86S-1889.795,6848.04-1930.63,6848.328Z" transform="translate(4495 -4610)" fill="#19e7f6"/>
    <path id="Path_195" data-name="Path 195" d="M-4068.548,4777.549v156.074c-1.085,66.212-77.214,50.89-76.473,148.752v319.277c-.741,67.085,143.216,66.514,142.58,142.416v184.1" transform="translate(4495 -4610)" fill="none" stroke="#19e7f6" stroke-width="5"/>
    <path id="Path_196" data-name="Path 196" d="M-4002.442,5569.506s45.854,8.619,44.3,37.688v206.712" transform="translate(4495 -4573)" fill="none" stroke="#19e7f6" stroke-width="5"/>
    <path id="Path_197" data-name="Path 197" d="M-4106.616,4779.832v84.884c-5.746,35.856-21.65,17.184-22.985,59.541V5019.6" transform="translate(4495 -4610)" fill="none" stroke="#19e7f6" stroke-width="5"/>
    <path id="Path_198" data-name="Path 198" d="M-4106.616,4779.832v84.884c-5.746,35.856-21.65,17.184-22.985,59.541v48.306c.293,33.667,34.44,54.681,34.44,54.681" transform="translate(4447 -4587)" fill="none" stroke="#19e7f6" stroke-width="5"/>
    <path id="Path_199" data-name="Path 199" d="M-4033.6,4785.61v84.747c-1.32,35.849,59.921,31.674,59.921,31.674,29.228,1.392,34.8,57.065,55.4,59.511h616.84c71,1.729,34.809-105.442,104.595-104.594H-2714.1" transform="translate(4495 -4610)" fill="none" stroke="#19e7f6" stroke-width="5"/>
    <path id="Path_200" data-name="Path 200" d="M-3253.162,4926.537h292.329" transform="translate(4495 -4610)" fill="none" stroke="#19e7f6" stroke-width="5"/>
    <path id="Path_201" data-name="Path 201" d="M-2985.469,6822.013s-20.227-163.366,101.134-191.684c0,0,602.757,8.09,667.483,0s137.542-89,137.542-89" transform="translate(4495 -4610)" fill="none" stroke="#19e7f6" stroke-width="5"/>
    <path id="Path_202" data-name="Path 202" d="M-4118.108,6075.495v227.161c-.316,39.5,63.62,28.262,64.667,62.891V6517.06" transform="translate(4495 -4610)" fill="none" stroke="#19e7f6" stroke-width="5"/>
    <path id="Path_203" data-name="Path 203" d="M-4190.158,6384.259s74.853,1.56,71.991,43.8v98.1c-.258,36.3-59.516,18.713-59.434,63.709v125.406" transform="translate(4495 -4610)" fill="none" stroke="#19e7f6" stroke-width="5"/>
    <path id="Path_204" data-name="Path 204" d="M-4145.027,6564.055v88.864c.092,29.833,34.4,16.407,33.606,43.748v51.04c.292,20.2,19.747,21.722,19.747,21.722h27.646" transform="translate(4495 -4620)" fill="none" stroke="#19e7f6" stroke-width="5"/>
    <path id="Path_205" data-name="Path 205" d="M-3646.456,6812.209c-1.2-19.236,4.809-62.518-32.5-60.553h-154.03c-28.678.44-19.662-56.066-53.318-57.268h-88.864" transform="translate(4495 -4609)" fill="none" stroke="#19e7f6" stroke-width="5"/>
    <path id="Path_206" data-name="Path 206" d="M-3848.435,6721.837s-7.815,36.669-35.89,37.718h-90.838" transform="translate(4485 -4608)" fill="none" stroke="#19e7f6" stroke-width="5"/>
    <path id="Path_160" data-name="Path 160" d="M.385,0,73.512,40.221,0,82.429" transform="matrix(0.017, -1, 1, 0.017, 3507.385, 1741.428)" fill="none" stroke="#19e7f6" stroke-linecap="round" stroke-width="15" stroke-dasharray="5"/>
    <path id="Path_161" data-name="Path 161" d="M.385,0,73.512,40.221,0,82.429" transform="matrix(0.017, -1, 1, 0.017, 3508.397, 1683.437)" fill="none" stroke="#19e7f6" stroke-linecap="round" stroke-width="15" stroke-dasharray="5"/>
    <path id="Path_162" data-name="Path 162" d="M.385,0,73.512,40.221,0,82.429" transform="matrix(0.017, -1, 1, 0.017, 3509.374, 1620.393)" fill="none" stroke="#19e7f6" stroke-linecap="round" stroke-width="15" stroke-dasharray="5"/>
    <path id="Path_163" data-name="Path 163" d="M.385,0,73.512,40.221,0,82.429" transform="matrix(0.017, -1, 1, 0.017, 3510.386, 1558.814)" fill="none" stroke="#19e7f6" stroke-linecap="round" stroke-width="15" stroke-dasharray="5"/>
    <path id="Path_164" data-name="Path 164" d="M.385,0,73.512,40.221,0,82.429" transform="matrix(0.017, -1, 1, 0.017, 3511.434, 1495.113)" fill="none" stroke="#19e7f6" stroke-linecap="round" stroke-width="15" stroke-dasharray="5"/>
    <path id="Path_165" data-name="Path 165" d="M.385,0,73.512,40.221,0,82.429" transform="matrix(0.017, -1, 1, 0.017, 3512.446, 1433.534)" fill="none" stroke="#19e7f6" stroke-linecap="round" stroke-width="15" stroke-dasharray="5"/>
    <path id="Path_166" data-name="Path 166" d="M.385,0,73.512,40.221,0,82.429" transform="matrix(0.017, -1, 1, 0.017, 3513.423, 1370.49)" fill="none" stroke="#19e7f6" stroke-linecap="round" stroke-width="15" stroke-dasharray="5"/>
    <path id="Path_167" data-name="Path 167" d="M.385,0,73.512,40.221,0,82.429" transform="matrix(0.017, -1, 1, 0.017, 3514.436, 1312.5)" fill="none" stroke="#19e7f6" stroke-linecap="round" stroke-width="15" stroke-dasharray="5"/>
    <path id="Polygon_9" data-name="Polygon 9" d="M61,0l61,80H0Z" transform="translate(3602 615) rotate(180)" fill="#0a6cff"/>
    <path id="Polygon_10" data-name="Polygon 10" d="M61,0l61,80H0Z" transform="translate(3602 668) rotate(180)" fill="#0a6cff"/>
    <path id="Polygon_11" data-name="Polygon 11" d="M61,0l61,80H0Z" transform="translate(3602 724) rotate(180)" fill="#0a6cff"/>
    <path id="Polygon_12" data-name="Polygon 12" d="M61,0l61,80H0Z" transform="translate(3602 782) rotate(180)" fill="#0a6cff"/>
    <path id="Polygon_13" data-name="Polygon 13" d="M61,0l61,80H0Z" transform="translate(3602 835) rotate(180)" fill="#0a6cff"/>
    <path id="Polygon_14" data-name="Polygon 14" d="M61,0l61,80H0Z" transform="translate(3602 891) rotate(180)" fill="#0a6cff"/>
    <path id="Polygon_15" data-name="Polygon 15" d="M61,0l61,80H0Z" transform="translate(3602 944) rotate(180)" fill="#0a6cff"/>
    <path id="Polygon_16" data-name="Polygon 16" d="M61,0l61,80H0Z" transform="translate(3602 997) rotate(180)" fill="#0a6cff"/>
    <path id="Polygon_17" data-name="Polygon 17" d="M61,0l61,80H0Z" transform="translate(3602 1053) rotate(180)" fill="#0a6cff"/>
    <g id="Ellipse_86" data-name="Ellipse 86" transform="translate(1529 297)" fill="none" stroke="#19e7f6" stroke-width="7">
      <circle cx="20" cy="20" r="20" stroke="none"/>
      <circle cx="20" cy="20" r="16.5" fill="none"/>
    </g>
    <g id="Ellipse_87" data-name="Ellipse 87" transform="translate(473 1110)" fill="none" stroke="#19e7f6" stroke-width="7">
      <circle cx="20" cy="20" r="20" stroke="none"/>
      <circle cx="20" cy="20" r="16.5" fill="none"/>
    </g>
    <g id="Ellipse_88" data-name="Ellipse 88" transform="translate(517 1239)" fill="none" stroke="#19e7f6" stroke-width="7">
      <circle cx="20" cy="20" r="20" stroke="none"/>
      <circle cx="20" cy="20" r="16.5" fill="none"/>
    </g>
    <g id="Ellipse_89" data-name="Ellipse 89" transform="translate(421 1900)" fill="none" stroke="#19e7f6" stroke-width="7">
      <circle cx="20" cy="20" r="20" stroke="none"/>
      <circle cx="20" cy="20" r="16.5" fill="none"/>
    </g>
    <g id="Ellipse_90" data-name="Ellipse 90" transform="translate(299 2097)" fill="none" stroke="#19e7f6" stroke-width="7">
      <circle cx="20" cy="20" r="20" stroke="none"/>
      <circle cx="20" cy="20" r="16.5" fill="none"/>
    </g>
    <g id="Ellipse_91" data-name="Ellipse 91" transform="translate(426 2127)" fill="none" stroke="#19e7f6" stroke-width="7">
      <circle cx="20" cy="20" r="20" stroke="none"/>
      <circle cx="20" cy="20" r="16.5" fill="none"/>
    </g>
    <g id="Ellipse_92" data-name="Ellipse 92" transform="translate(478 2128)" fill="none" stroke="#19e7f6" stroke-width="7">
      <circle cx="20" cy="20" r="20" stroke="none"/>
      <circle cx="20" cy="20" r="16.5" fill="none"/>
    </g>
    <g id="Ellipse_93" data-name="Ellipse 93" transform="translate(481 2066)" fill="none" stroke="#19e7f6" stroke-width="7">
      <circle cx="20" cy="20" r="20" stroke="none"/>
      <circle cx="20" cy="20" r="16.5" fill="none"/>
    </g>
    <g id="Ellipse_94" data-name="Ellipse 94" transform="translate(2404 1900)" fill="none" stroke="#19e7f6" stroke-width="7">
      <circle cx="20" cy="20" r="20" stroke="none"/>
      <circle cx="20" cy="20" r="16.5" fill="none"/>
    </g>
    <path id="Path_207" data-name="Path 207" d="M-2610.357,6707.238l312.536,1.178s-8.153,44.515-36.962,45.148c0,0-154.624-.167-180.448,0s-13.723-14.663-33.977-26.245S-2620.388,6725.718-2610.357,6707.238Z" transform="translate(4503 -4610)" fill="#19e7f6"/>
    <g transform="matrix(1, 0, 0, 1, 282.95, 162.99)" filter="url(#Ellipse_77)">
      <g id="Ellipse_77-2" data-name="Ellipse 77" transform="translate(401.05 1779.01)" fill="none" stroke="#0a74ff" stroke-width="5">
        <circle cx="50" cy="50" r="50" stroke="none"/>
        <circle cx="50" cy="50" r="47.5" fill="none"/>
      </g>
    </g>
    <g transform="matrix(1, 0, 0, 1, 282.95, 162.99)" filter="url(#Ellipse_78)">
      <g id="Ellipse_78-2" data-name="Ellipse 78" transform="translate(548.05 1779.01)" fill="none" stroke="#0a74ff" stroke-width="5">
        <circle cx="50" cy="50" r="50" stroke="none"/>
        <circle cx="50" cy="50" r="47.5" fill="none"/>
      </g>
    </g>
    <g transform="matrix(1, 0, 0, 1, 282.95, 162.99)" filter="url(#Ellipse_79)">
      <g id="Ellipse_79-2" data-name="Ellipse 79" transform="translate(706.05 1779.01)" fill="none" stroke="#0a74ff" stroke-width="5">
        <circle cx="50" cy="50" r="50" stroke="none"/>
        <circle cx="50" cy="50" r="47.5" fill="none"/>
      </g>
    </g>
    <g transform="matrix(1, 0, 0, 1, 282.95, 162.99)" filter="url(#Ellipse_81)">
      <circle id="Ellipse_81-2" data-name="Ellipse 81" cx="7.5" cy="7.5" r="7.5" transform="translate(417.05 1784.01)" fill="#8ce7ee"/>
    </g>
    <g transform="matrix(1, 0, 0, 1, 282.95, 162.99)" filter="url(#Ellipse_82)">
      <circle id="Ellipse_82-2" data-name="Ellipse 82" cx="7.5" cy="7.5" r="7.5" transform="translate(569.05 1777.01)" fill="#8ce7ee"/>
    </g>
    <g transform="matrix(1, 0, 0, 1, 282.95, 162.99)" filter="url(#Ellipse_83)">
      <circle id="Ellipse_83-2" data-name="Ellipse 83" cx="7.5" cy="7.5" r="7.5" transform="translate(730.05 1778.01)" fill="#8ce7ee"/>
    </g>
    <path id="Exclusion_2" data-name="Exclusion 2" d="M4694.757-1535.187h-16.18l-23.706-20.8,3.033-78.587v-151.215l13.306-17.224v-74.772l-13.306-23.136v-68.7h-1.089v-1.767l1.089-2.3v-2.474l-1.089-1.237h-4.77l-2.121-1.236v-.007c-.065-.365-.623-3.588,0-4.234.6-.623,3.04-2.533,3.522-2.91l.013-.01v-3.869h4.445v-67.864l-62.147-51.789v-110.978L4578-2238.048V-2278l17.757-36.036h15.223l28.3,10.881v170.871l66.833,62.407v383.694l25.623,35.426v76.276l-16.18,18.491-20.8,20.8Zm-17.814-239.652h0l1,185-1-185Zm-9,0h0l1,180-1-180Zm6,0h0l1,176-1-176Zm6,0h0l1,171-1-171Zm-9,0h0l1,171-1-171Zm-6,0h0l1,171-1-171Z" transform="translate(1388.442 -4330.513) rotate(90)" fill="#19e7f6"/>
    <path id="snakeborder" d="M1406.018,1886.256q-3.477-.257-7.018-.256a95.987,95.987,0,0,0-12.469.81l.53,2.04-6.279,5.484,8.156,1.734.556,2.138-12.987-2.76,9.861-8.614a94.661,94.661,0,0,0-50.094,22.819l1.387,1.468-2.86,7.833,7.983-2.413,1.515,1.605-12.709,3.84,4.417-12.1a95.783,95.783,0,0,0-12.089,12.9l1.75,1.173-1.062,8.272,7.253-4.114,1.833,1.23-11.547,6.55,1.663-12.972a94.539,94.539,0,0,0-19.268,47.868l1.9.035,3.5,7.348,1.278-2.085,2.684-5.116,2.209.043-.4.763.442.038-3.216,5.249-2.993,5.707-.221-.461-.5.827-4.522-11.391-.2-.43a96.45,96.45,0,0,0,.074,20.059l1.914-.461,5.37,6.379,1.883-8.122,2.147-.516-3,12.932-8.274-9.83a94.562,94.562,0,0,0,21.679,50.371l1.553-1.415,7.778,3-2.263-8.025,1.632-1.487,3.605,12.778-12.177-4.7a94.849,94.849,0,0,0,60.472,32.948l0-.133-.235.095.161-2.2,1.845-.731,5.85-2.656-2.681-1.52-4.579-2.51.083-2.207.185.1.009-.119,6.538,3.71,4.909,2.691-.09.043.565.321-10.246,4.069-2.318,1.052A96.238,96.238,0,0,0,1399,2076a95.014,95.014,0,0,0,94.475-84.949l-1.494-.033-3.714-7.541-4.066,7.37-2.3-.05,6.474-11.735,5.237,10.633q.389-4.3.392-8.695,0-4.136-.347-8.184l-2.023.52-5.4-6.619-1.838,8.488-2.145.553,2.926-13.516,8.464,10.369a94.839,94.839,0,0,0-34.772-65.384l-1.076,1.629-8.258-1.209,4.021,7.616-1.254,1.9-6.4-12.129,12.521,1.833a94.921,94.921,0,0,0-14.354-9.521l-1.218,1.843-8.258-1.209,4.021,7.619-1.123,1.7a83.444,83.444,0,0,1,25.18,20.247l-3.448-12.488,12.412,4.9-1.625,1.563-7.8-3.08,2.311,8.358-1.373,1.318a83.224,83.224,0,0,1,8.934,13.224l-1.342-13.376,11.393,7.1-1.862,1.242-7.156-4.46.869,8.652-1.734,1.155a82.632,82.632,0,0,1,6.2,14.8l2.178-12.782,9.063,10.113-2.119.656-5.69-6.35-1.461,8.566-1.746.542a83.642,83.642,0,0,1-.4,48.9l9.208-8.469,1.677,13.179-2.171-.741-1.055-8.279-6.275,5.774-1.674-.57a82.372,82.372,0,0,1-5.2,12.34l10.839-5.845-1.805,13.162-1.91-1.237,1.133-8.267-7.581,4.09-1.254-.812a83.4,83.4,0,0,1-7.213,11.136l10.5-5.664-1.8,13.162-1.909-1.237,1.133-8.267-7.581,4.09-1.306-.846a83.828,83.828,0,0,1-9.631,10.187l11.2-3.206-4.79,12.457-1.577-1.61,3.009-7.824-8.336,2.385-.936-.952a83.509,83.509,0,0,1-10.9,7.885l10.723-1.176-6.994,11.457-1.259-1.85,4.394-7.2-8.645.948-.556-.817a82.722,82.722,0,0,1-13.279,6l10.723,1.727-10.03,9.156-.674-2.112,6.3-5.75-8.581-1.382-.257-.8a82.6,82.6,0,0,1-16.976,3.425l11.7,2.422-10.46,8.7-.572-2.14,6.569-5.462-8.5-1.762-.432-1.613q-3.089.228-6.239.23a83.05,83.05,0,0,1-26.9-4.448l8.317,8.932-13.2,1.408.772-2.068,8.291-.886-5.681-6.1.6-1.6a82.672,82.672,0,0,1-12.536-5.664l5.959,10.97-13.136-1.931,1.263-1.81,8.251,1.211-3.98-7.327,1.021-1.463a83.3,83.3,0,0,1-12.032-8.305l6.322,11.645-13.134-1.931,1.264-1.812,8.251,1.214-3.98-7.327,1.259-1.8a83.523,83.523,0,0,1-19.684-23.691l1.309,13.2-11.355-6.878,1.867-1.178,7.132,4.32-.822-8.3,1.867-1.176a82.609,82.609,0,0,1-6.391-14.68l-2.342,12.768-9.011-9.752,2.121-.615,5.66,6.125,1.506-8.2,1.985-.577a83.6,83.6,0,0,1,.083-51.058l-9.172,8.859-1.648-13.174,2.083.734,1.035,8.275,6-5.793,1.85.653a82.532,82.532,0,0,1,5.524-12.911l-11.188,6.346,1.688-13.17,1.833,1.23-1.062,8.272,7.253-4.114,1.651,1.107a83.374,83.374,0,0,1,45.7-39.109l-12.685-2.09,9.586-9.187.655,2.112-6.021,5.769,8.227,1.354.594,1.916a83.037,83.037,0,0,1,27.192-4.548q3.6,0,7.118.3l-11.455-6.458.382-.183-.157-.093,2.665-1.114Zm.686.245.007-.192.38.031Zm-7.393,5.251.268-.131,7.407-3.1.147-2.18a94.36,94.36,0,0,1,36.775,10.92l-12.96-1.9,6.208,11.764a82.546,82.546,0,0,0-14.677-5.893l.608-1.726-5.714-6.329,8.286-.979.76-2.164-13.193,1.558,8.512,9.427a82.719,82.719,0,0,0-15.395-2.829l.007-.242.133-1.988ZM1350.5,1899.3l-6.669,11.478,13.184-1.551-1.211-1.845-8.281.974,4.189-7.21Z" transform="matrix(-0.891, 0.454, -0.454, -0.891, 5705.043, 3084.067)" fill-rule="evenodd" fill="url(#linear-gradient-2)"/>
  </g>
</svg>
