<svg xmlns="http://www.w3.org/2000/svg" width="5791.336" height="4015.314" viewBox="0 0 5791.336 4015.314">
  <g id="Group_20" data-name="Group 20" transform="translate(-771.941 -377.933)">
    <g id="Path_140" data-name="Path 140" transform="translate(814 414)" fill="none" stroke-linejoin="round">
      <path d="M43.59,556.9,706.817,0H2468.88l180.9,180.286H5542.106L5747,346V1438.263l-99.357,150.568v813.492L5747,2545.457v941.522l-204.894,203.373H3659.164l-140.928-119.178H1808.851l-162.293,119.178H292.156L43.59,3441.992V2198.95l120.517-158.179V1114.295L43.59,1008.842Z" stroke="none"/>
      <path d="M 707.9091796875 3 L 46.58984375 558.30029296875 L 46.58984375 1007.480712890625 L 166.08203125 1112.037109375 C 166.73291015625 1112.607177734375 167.1064453125 1113.43017578125 167.1064453125 1114.295166015625 L 167.1064453125 2040.771484375 C 167.1064453125 2041.428588867188 166.890625 2042.067260742188 166.49267578125 2042.58935546875 L 46.58984375 2199.96337890625 L 46.58984375 3440.74853515625 L 293.3984375 3687.3515625 L 1645.57470703125 3687.3515625 L 1807.074951171875 3568.755126953125 C 1807.58984375 3568.37646484375 1808.212158203125 3568.1728515625 1808.8505859375 3568.1728515625 L 3518.236328125 3568.1728515625 C 3518.945556640625 3568.1728515625 3519.632080078125 3568.42431640625 3520.173583984375 3568.88232421875 L 3660.2626953125 3687.3515625 L 5540.8701171875 3687.3515625 L 5744 3485.729248046875 L 5744 2546.39599609375 L 5645.1787109375 2404.03369140625 C 5644.830078125 2403.531494140625 5644.642578125 2402.934326171875 5644.642578125 2402.32275390625 L 5644.642578125 1588.83154296875 C 5644.642578125 1588.244384765625 5644.81494140625 1587.66943359375 5645.138671875 1587.179443359375 L 5744 1437.362060546875 L 5744 347.429443359375 L 5541.044921875 183.285888671875 L 2649.775634765625 183.285888671875 C 2648.982177734375 183.285888671875 2648.219970703125 182.970703125 2647.65771484375 182.410888671875 L 2467.640625 3 L 707.9091796875 3 M 706.81689453125 0 L 2468.880615234375 0 L 2649.775634765625 180.285888671875 L 5542.1064453125 180.285888671875 L 5747 345.997314453125 L 5747 1438.262939453125 L 5647.642578125 1588.83154296875 L 5647.642578125 2402.32275390625 L 5747 2545.45703125 L 5747 3486.978515625 L 5542.1064453125 3690.3515625 L 3659.164306640625 3690.3515625 L 3518.236328125 3571.1728515625 L 1808.8505859375 3571.1728515625 L 1646.5576171875 3690.3515625 L 292.15625 3690.3515625 L 43.58984375 3441.9921875 L 43.58984375 2198.95068359375 L 164.1064453125 2040.771484375 L 164.1064453125 1114.295166015625 L 43.58984375 1008.84228515625 L 43.58984375 556.902099609375 L 706.81689453125 0 Z" stroke="none" fill="#19e7f6"/>
    </g>
    <path id="Path_157" data-name="Path 157" d="M18,0V2425.408" transform="translate(776.5 1950.5)" fill="none" stroke="#19e7f6" stroke-linecap="round" stroke-width="10"/>
    <path id="Path_141" data-name="Path 141" d="M11015.5-1724.9v474.537l132.349,90.388v730.636" transform="translate(-10230 2741)" fill="none" stroke="#19e7f6" stroke-width="7"/>
    <path id="Path_142" data-name="Path 142" d="M11087.59-1650.133l-2-106,669.852-563.3,1797.354-1,164.639,172.639h2854.993l219.281,175.381-2,299.828-63.867-54.482v-184.993l-153.414-139.188-228.25-3-93.545-93.545-1478.011,3.451-59.869,90.094H13661.308l-168.315-173.123-1681.94-3-608.546,537.886-.456,113.515-114.46,63.54Z" transform="translate(-10230 2741)" fill="#8ce7ee" stroke="#707070" stroke-width="1"/>
    <g id="Group_15" data-name="Group 15" transform="translate(-435 -9)">
      <g id="Path_143" data-name="Path 143" transform="translate(5212 421)" fill="#19e7f6">
        <path d="M 109.03515625 148.5 L 2.308779001235962 148.5 L 67.68548583984375 1.5 L 176.0244598388672 1.5 L 109.03515625 148.5 Z" stroke="none"/>
        <path d="M 68.6600341796875 3 L 4.617523193359375 147 L 108.0702972412109 147 L 173.6924896240234 3 L 68.6600341796875 3 M 66.71094512939453 0 L 178.3564453125 0 L 110 150 L 0 150 L 66.71094512939453 0 Z" stroke="none" fill="#11b5f2"/>
      </g>
      <g id="Path_144" data-name="Path 144" transform="translate(5366 421)" fill="#057d85">
        <path d="M 109.03515625 148.5 L 2.308779001235962 148.5 L 67.68548583984375 1.5 L 176.0244598388672 1.5 L 109.03515625 148.5 Z" stroke="none"/>
        <path d="M 68.6600341796875 3 L 4.617523193359375 147 L 108.0702972412109 147 L 173.6924896240234 3 L 68.6600341796875 3 M 66.71094512939453 0 L 178.3564453125 0 L 110 150 L 0 150 L 66.71094512939453 0 Z" stroke="none" fill="#11b5f2"/>
      </g>
      <g id="Path_145" data-name="Path 145" transform="translate(5520 421)" fill="#057d85">
        <path d="M 109.03515625 148.5 L 2.308779001235962 148.5 L 67.68548583984375 1.5 L 176.0244598388672 1.5 L 109.03515625 148.5 Z" stroke="none"/>
        <path d="M 68.6600341796875 3 L 4.617523193359375 147 L 108.0702972412109 147 L 173.6924896240234 3 L 68.6600341796875 3 M 66.71094512939453 0 L 178.3564453125 0 L 110 150 L 0 150 L 66.71094512939453 0 Z" stroke="none" fill="#11b5f2"/>
      </g>
      <g id="Path_146" data-name="Path 146" transform="translate(5053 421)" fill="#19e7f6">
        <path d="M 109.03515625 148.5 L 2.308779001235962 148.5 L 67.68548583984375 1.5 L 176.0244598388672 1.5 L 109.03515625 148.5 Z" stroke="none"/>
        <path d="M 68.6600341796875 3 L 4.617523193359375 147 L 108.0702972412109 147 L 173.6924896240234 3 L 68.6600341796875 3 M 66.71094512939453 0 L 178.3564453125 0 L 110 150 L 0 150 L 66.71094512939453 0 Z" stroke="none" fill="#11b5f2"/>
      </g>
    </g>
    <path id="Path_147" data-name="Path 147" d="M15520.142-2233.992,16568.68-2245l221.543,170.969" transform="translate(-10230 2741)" fill="none" stroke="#19e7f6" stroke-width="10"/>
    <path id="Path_148" data-name="Path 148" d="M13825.3-2286.148h631.637l51.851,47.137H14650.2l70.706-122.556h966.31l89.561,75.419h683.487" transform="translate(-10230 2741)" fill="none" stroke="#19e7f6" stroke-width="3"/>
    <path id="Path_149" data-name="Path 149" d="M14651.513-2239.011h173" transform="translate(-10230 2741)" fill="none" stroke="#19e7f6" stroke-width="3"/>
    <g id="Group_16" data-name="Group 16">
      <g id="Ellipse_64" data-name="Ellipse 64" transform="translate(4590 487)" fill="none" stroke="#19e7f6" stroke-width="5">
        <circle cx="15" cy="15" r="15" stroke="none"/>
        <circle cx="15" cy="15" r="12.5" fill="none"/>
      </g>
      <g id="Ellipse_65" data-name="Ellipse 65" transform="translate(4600 497)" fill="#19e7f6" stroke="#19e7f6" stroke-width="1">
        <circle cx="5" cy="5" r="5" stroke="none"/>
        <circle cx="5" cy="5" r="4.5" fill="none"/>
      </g>
    </g>
    <g id="Group_17" data-name="Group 17" transform="translate(673 5)">
      <g id="Ellipse_64-2" data-name="Ellipse 64" transform="translate(4590 487)" fill="none" stroke="#19e7f6" stroke-width="5">
        <circle cx="15" cy="15" r="15" stroke="none"/>
        <circle cx="15" cy="15" r="12.5" fill="none"/>
      </g>
      <g id="Ellipse_65-2" data-name="Ellipse 65" transform="translate(4600 497)" fill="#19e7f6" stroke="#19e7f6" stroke-width="1">
        <circle cx="5" cy="5" r="5" stroke="none"/>
        <circle cx="5" cy="5" r="4.5" fill="none"/>
      </g>
    </g>
    <path id="Path_150" data-name="Path 150" d="M11087.59,823.535V1113.75l162.07,161.138V1161.143l-86.187-93.6V902.058Z" transform="translate(-10230 2741)" fill="#8ce7ee"/>
    <path id="Path_151" data-name="Path 151" d="M12689.164,1363.352l168.44-116.894h1706.861l139.981,116.894h173.9l-245.2-212.343h-1848.53L12509.5,1363.352Z" transform="translate(-10230 2741)" fill="#8ce7ee" stroke="#707070" stroke-width="1"/>
    <path id="Path_152" data-name="Path 152" d="M16787.709,448.5l3,709.05L16588,1360.25l-1133.012,1,150.835-104.034H16526.5l156.25-151.443-5.971-523.938Z" transform="translate(-10230 2741)" fill="#8ce7ee" stroke="#707070" stroke-width="1"/>
    <path id="Path_153" data-name="Path 153" d="M16732.682-1057.381v155.35l-90.2,125.282V-621.4" transform="translate(-10230 2741)" fill="none" stroke="#19e7f6" stroke-width="5"/>
    <path id="Path_154" data-name="Path 154" d="M16642.479-40.09v135.3l100.227,135.3V390.88" transform="translate(-10230 2741)" fill="none" stroke="#19e7f6" stroke-width="5"/>
    <path id="Path_155" data-name="Path 155" d="M14738.013,1363.5h-605.141l-99.911,144.249H13324.5" transform="translate(-10230 2741)" fill="none" stroke="#19e7f6" stroke-width="5"/>
    <path id="Path_156" data-name="Path 156" d="M14532.517,1363.5l-63.58,98.834h-145.325l-63.579,99.911H11362.449l-272.322-245.236" transform="translate(-10230 2741)" fill="none" stroke="#19e7f6" stroke-width="5"/>
    <path id="Path_158" data-name="Path 158" d="M65.868-92.163l157.2,307.282L-13.014,124.494Z" transform="translate(817.119 4187.752) rotate(-21)" fill="#19e7f6"/>
    <path id="Path_159" data-name="Path 159" d="M-33.024-4.343,428.51-11.787,362.754,53.97l-331.262,6.2Z" transform="translate(877.536 3944.752) rotate(45)" fill="#8ce7ee"/>
    <g id="Group_18" data-name="Group 18" transform="translate(-2484 3692.008)">
      <g id="Path_143-2" data-name="Path 143" transform="translate(5211.878 421)" fill="#19e7f6">
        <path d="M 109.1952362060547 101.4917068481445 L 2.758790254592896 101.4917068481445 L 67.52652740478516 1.499996304512024 L 175.560546875 1.499996304512024 L 109.1952362060547 101.4917068481445 Z" stroke="none"/>
        <path d="M 68.34211730957031 3 L 5.517562866210938 99.99170684814453 L 108.390495300293 99.99170684814453 L 172.7646942138672 3 L 68.34211730957031 3 M 66.71094512939453 0 L 178.3564453125 0 L 110 102.9917068481445 L 0 102.9917068481445 L 66.71094512939453 0 Z" stroke="none" fill="#11b5f2"/>
      </g>
      <g id="Path_144-2" data-name="Path 144" transform="translate(5365.761 421)" fill="#057d85">
        <path d="M 109.1952362060547 101.4917068481445 L 2.758790254592896 101.4917068481445 L 67.52652740478516 1.499996304512024 L 175.560546875 1.499996304512024 L 109.1952362060547 101.4917068481445 Z" stroke="none"/>
        <path d="M 68.34211730957031 3 L 5.517562866210938 99.99170684814453 L 108.390495300293 99.99170684814453 L 172.7646942138672 3 L 68.34211730957031 3 M 66.71094512939453 0 L 178.3564453125 0 L 110 102.9917068481445 L 0 102.9917068481445 L 66.71094512939453 0 Z" stroke="none" fill="#11b5f2"/>
      </g>
      <g id="Path_145-2" data-name="Path 145" transform="translate(5519.644 421)" fill="#057d85">
        <path d="M 109.1952362060547 101.4917068481445 L 2.758790254592896 101.4917068481445 L 67.52652740478516 1.499996304512024 L 175.560546875 1.499996304512024 L 109.1952362060547 101.4917068481445 Z" stroke="none"/>
        <path d="M 68.34211730957031 3 L 5.517562866210938 99.99170684814453 L 108.390495300293 99.99170684814453 L 172.7646942138672 3 L 68.34211730957031 3 M 66.71094512939453 0 L 178.3564453125 0 L 110 102.9917068481445 L 0 102.9917068481445 L 66.71094512939453 0 Z" stroke="none" fill="#11b5f2"/>
      </g>
      <g id="Path_146-2" data-name="Path 146" transform="translate(5053 421)" fill="#19e7f6">
        <path d="M 109.1952362060547 101.4917068481445 L 2.758790254592896 101.4917068481445 L 67.52652740478516 1.499996304512024 L 175.560546875 1.499996304512024 L 109.1952362060547 101.4917068481445 Z" stroke="none"/>
        <path d="M 68.34211730957031 3 L 5.517562866210938 99.99170684814453 L 108.390495300293 99.99170684814453 L 172.7646942138672 3 L 68.34211730957031 3 M 66.71094512939453 0 L 178.3564453125 0 L 110 102.9917068481445 L 0 102.9917068481445 L 66.71094512939453 0 Z" stroke="none" fill="#11b5f2"/>
      </g>
    </g>
    <g id="Group_19" data-name="Group 19" transform="translate(-1867 3691.685)">
      <g id="Path_143-3" data-name="Path 143" transform="translate(5219.358 421)" fill="#19e7f6">
        <path d="M 109.1811370849609 104.8153228759766 L 2.712069988250732 104.8153228759766 L 67.54055023193359 1.500010967254639 L 175.6086883544922 1.500010967254639 L 109.1811370849609 104.8153228759766 Z" stroke="none"/>
        <path d="M 68.37018585205078 3 L 5.42413330078125 103.3153076171875 L 108.3622817993164 103.3153076171875 L 172.8609771728516 3 L 68.37018585205078 3 M 66.71094512939453 0 L 178.3564453125 0 L 110 106.3153076171875 L 0 106.3153076171875 L 66.71094512939453 0 Z" stroke="none" fill="#11b5f2"/>
      </g>
      <g id="Path_144-3" data-name="Path 144" transform="translate(5380.484 421)" fill="#057d85">
        <path d="M 109.1811370849609 104.8153228759766 L 2.712069988250732 104.8153228759766 L 67.54055023193359 1.500010967254639 L 175.6086883544922 1.500010967254639 L 109.1811370849609 104.8153228759766 Z" stroke="none"/>
        <path d="M 68.37018585205078 3 L 5.42413330078125 103.3153076171875 L 108.3622817993164 103.3153076171875 L 172.8609771728516 3 L 68.37018585205078 3 M 66.71094512939453 0 L 178.3564453125 0 L 110 106.3153076171875 L 0 106.3153076171875 L 66.71094512939453 0 Z" stroke="none" fill="#11b5f2"/>
      </g>
      <g id="Path_145-3" data-name="Path 145" transform="translate(5541.61 421)" fill="#057d85">
        <path d="M 109.1811370849609 104.8153228759766 L 2.712069988250732 104.8153228759766 L 67.54055023193359 1.500010967254639 L 175.6086883544922 1.500010967254639 L 109.1811370849609 104.8153228759766 Z" stroke="none"/>
        <path d="M 68.37018585205078 3 L 5.42413330078125 103.3153076171875 L 108.3622817993164 103.3153076171875 L 172.8609771728516 3 L 68.37018585205078 3 M 66.71094512939453 0 L 178.3564453125 0 L 110 106.3153076171875 L 0 106.3153076171875 L 66.71094512939453 0 Z" stroke="none" fill="#11b5f2"/>
      </g>
      <g id="Path_146-3" data-name="Path 146" transform="translate(5053 421)" fill="#19e7f6">
        <path d="M 109.1811370849609 104.8153228759766 L 2.712069988250732 104.8153228759766 L 67.54055023193359 1.500010967254639 L 175.6086883544922 1.500010967254639 L 109.1811370849609 104.8153228759766 Z" stroke="none"/>
        <path d="M 68.37018585205078 3 L 5.42413330078125 103.3153076171875 L 108.3622817993164 103.3153076171875 L 172.8609771728516 3 L 68.37018585205078 3 M 66.71094512939453 0 L 178.3564453125 0 L 110 106.3153076171875 L 0 106.3153076171875 L 66.71094512939453 0 Z" stroke="none" fill="#11b5f2"/>
      </g>
    </g>
    <path id="Path_160" data-name="Path 160" d="M11692.8,1393.091l73.32,51.324-73.32,53.157" transform="translate(-10230 2741)" fill="none" stroke="#19e7f6" stroke-linecap="round" stroke-width="15" stroke-dasharray="5"/>
    <path id="Path_161" data-name="Path 161" d="M11692.8,1393.091l73.32,51.324-73.32,53.157" transform="translate(-10172 2741)" fill="none" stroke="#19e7f6" stroke-linecap="round" stroke-width="15" stroke-dasharray="5"/>
    <path id="Path_162" data-name="Path 162" d="M11692.8,1393.091l73.32,51.324-73.32,53.157" transform="translate(-10116 2741)" fill="none" stroke="#19e7f6" stroke-linecap="round" stroke-width="15" stroke-dasharray="5"/>
    <path id="Path_163" data-name="Path 163" d="M11692.8,1393.091l73.32,51.324-73.32,53.157" transform="translate(-10058 2741)" fill="none" stroke="#19e7f6" stroke-linecap="round" stroke-width="15" stroke-dasharray="5"/>
    <path id="Path_164" data-name="Path 164" d="M11692.8,1393.091l73.32,51.324-73.32,53.157" transform="translate(-9998 2741)" fill="none" stroke="#19e7f6" stroke-linecap="round" stroke-width="15" stroke-dasharray="5"/>
    <path id="Path_165" data-name="Path 165" d="M11692.8,1393.091l73.32,51.324-73.32,53.157" transform="translate(-9940 2741)" fill="none" stroke="#19e7f6" stroke-linecap="round" stroke-width="15" stroke-dasharray="5"/>
    <path id="Path_166" data-name="Path 166" d="M11692.8,1393.091l73.32,51.324-73.32,53.157" transform="translate(-9884 2741)" fill="none" stroke="#19e7f6" stroke-linecap="round" stroke-width="15" stroke-dasharray="5"/>
    <path id="Path_167" data-name="Path 167" d="M11692.8,1393.091l73.32,51.324-73.32,53.157" transform="translate(-9826 2741)" fill="none" stroke="#19e7f6" stroke-linecap="round" stroke-width="15" stroke-dasharray="5"/>
    <path id="Path_168" data-name="Path 168" d="M11692.8,1393.091l73.32,51.324-73.32,53.157" transform="translate(-9644 2741)" fill="none" stroke="#19e7f6" stroke-linecap="round" stroke-width="15" stroke-dasharray="5"/>
    <path id="Path_169" data-name="Path 169" d="M11692.8,1393.091l73.32,51.324-73.32,53.157" transform="translate(-9586 2741)" fill="none" stroke="#19e7f6" stroke-linecap="round" stroke-width="15" stroke-dasharray="5"/>
    <path id="Path_170" data-name="Path 170" d="M11692.8,1393.091l73.32,51.324-73.32,53.157" transform="translate(-9530 2741)" fill="none" stroke="#19e7f6" stroke-linecap="round" stroke-width="15" stroke-dasharray="5"/>
    <path id="Path_171" data-name="Path 171" d="M11692.8,1393.091l73.32,51.324-73.32,53.157" transform="translate(-9472 2741)" fill="none" stroke="#19e7f6" stroke-linecap="round" stroke-width="15" stroke-dasharray="5"/>
    <path id="Path_172" data-name="Path 172" d="M11692.8,1393.091l73.32,51.324-73.32,53.157" transform="translate(-9412 2741)" fill="none" stroke="#19e7f6" stroke-linecap="round" stroke-width="15" stroke-dasharray="5"/>
    <path id="Path_173" data-name="Path 173" d="M11692.8,1393.091l73.32,51.324-73.32,53.157" transform="translate(-9354 2741)" fill="none" stroke="#19e7f6" stroke-linecap="round" stroke-width="15" stroke-dasharray="5"/>
    <path id="Path_174" data-name="Path 174" d="M11692.8,1393.091l73.32,51.324-73.32,53.157" transform="translate(-9298 2741)" fill="none" stroke="#19e7f6" stroke-linecap="round" stroke-width="15" stroke-dasharray="5"/>
    <path id="Path_175" data-name="Path 175" d="M11692.8,1393.091l73.32,51.324-73.32,53.157" transform="translate(-9240 2741)" fill="none" stroke="#19e7f6" stroke-linecap="round" stroke-width="15" stroke-dasharray="5"/>
  </g>
</svg>
