<svg id="eh0dite3u1ps1" xmlns="http://www.w3.org/2000/svg" xmlns:xlink="http://www.w3.org/1999/xlink" viewBox="0 0 604.212000 445.446000" shape-rendering="geometricPrecision" text-rendering="geometricPrecision"><style><![CDATA[#eh0dite3u1ps18_tr {animation: eh0dite3u1ps18_tr__tr 3000ms linear infinite normal forwards}@keyframes eh0dite3u1ps18_tr__tr { 0% {transform: translate(33px,33px) rotate(0deg)} 100% {transform: translate(33px,33px) rotate(360deg)} }#eh0dite3u1ps29_tr {animation: eh0dite3u1ps29_tr__tr 3000ms linear infinite normal forwards}@keyframes eh0dite3u1ps29_tr__tr { 0% {transform: translate(33px,33px) rotate(0deg)} 100% {transform: translate(33px,33px) rotate(360deg)} }#eh0dite3u1ps40_tr {animation: eh0dite3u1ps40_tr__tr 3000ms linear infinite normal forwards}@keyframes eh0dite3u1ps40_tr__tr { 0% {transform: translate(33px,33px) rotate(0deg)} 100% {transform: translate(33px,33px) rotate(360deg)} }]]></style><g id="eh0dite3u1ps2" transform="matrix(1 0 0 1 -20.06200000000000 -489.79300000000001)"><g id="eh0dite3u1ps3"><g id="eh0dite3u1ps4" transform="matrix(1 0 0 1 46 523)"><rect id="eh0dite3u1ps5" width="553" height="377" rx="0" ry="0" fill="none" stroke="none" stroke-width="2"/><rect id="eh0dite3u1ps6" width="551" height="375" rx="0" ry="0" transform="matrix(1 0 0 1 1 1)" fill="none" stroke="rgb(30,135,255)" stroke-width="2"/></g><path id="eh0dite3u1ps7" d="M424.290000,523L401.608000,502.340000L59.703000,503.340000L35.021000,536.033000L35.021000,732.500000L46.032000,779.856000L46.032000,680.136000L69.043000,647.120000L69.043000,540.039000L203.473000,540.039000L220.818000,523Z" fill="rgb(26,186,255)" stroke="none" stroke-width="1"/><path id="eh0dite3u1ps8" d="M424.290000,523L401.608000,502.340000L59.703000,503.340000L35.021000,536.033000L35.021000,732.500000L46.032000,779.856000L46.032000,680.136000L69.043000,647.120000L69.043000,540.039000L203.473000,540.039000L220.818000,523Z" transform="matrix(-1 0 -0 -1 645.30999999999995 1421.19000000000005)" fill="rgb(26,186,255)" stroke="none" stroke-width="1"/><path id="eh0dite3u1ps9" d="M621.237000,489.793000L571.865000,492.851000L549.065000,524.951000L573.865000,525.951000L568.531000,554.241000L598.039000,544.036000L598.039000,569.240000L624.273000,534.016000Z" fill="#58D68D" stroke="none" stroke-width="1"/><path id="eh0dite3u1ps10" d="M621.237000,489.793000L571.865000,492.851000L549.065000,524.951000L573.865000,525.951000L568.531000,554.241000L598.039000,544.036000L598.039000,569.240000L624.273000,534.016000Z" transform="matrix(-1 0 -0 -1 644.33500000000004 1425.02999999999997)" fill="#58D68D" stroke="none" stroke-width="1"/></g><g id="eh0dite3u1ps11"><g id="eh0dite3u1ps12"><g id="eh0dite3u1ps13" transform="matrix(1 0 0 1 82.63500000000001 573.79899999999998)"><g id="eh0dite3u1ps14" transform="matrix(1 0 0 1 -62.57000000000000 -84.01000000000001)"><ellipse id="eh0dite3u1ps15" rx="13" ry="12.618000" transform="matrix(1 0 0 1 95.94000000000000 117.20800000000000)" fill="rgb(255,255,255)" stroke="none" stroke-width="1"/></g><g id="eh0dite3u1ps16" transform="matrix(1 0 0 1 0.36500000000000 0.20100000000000)"><circle id="eh0dite3u1ps17" r="33" transform="matrix(1 0 0 1 33 33)" fill="none" stroke="none" stroke-width="3" stroke-dasharray="20"/><g id="eh0dite3u1ps18_tr" transform="translate(33,33) rotate(0)"><circle id="eh0dite3u1ps18" r="31.500000" transform="translate(0,-0)" fill="none" stroke="rgb(30,135,255)" stroke-width="3" stroke-dasharray="20"/></g></g></g><path id="eh0dite3u1ps19" d="M149,604L299.844000,604L299.844000,564.516000L540.253000,564.516000L540.253000,640.748000L299.844000,641.090000L299.844000,604" transform="matrix(1 0 0 1 0 3)" fill="none" stroke="rgb(26,186,255)" stroke-width="2"/><path id="eh0dite3u1ps20" d="M515.322000,564.516000L540.253000,564.516000L540.253000,586.105000" transform="matrix(-1 0 -0 -1 839.57399999999996 1209.61999999999989)" fill="none" stroke="rgb(108,122,138)" stroke-width="7"/></g><path id="eh0dite3u1ps21" d="M515.322000,564.516000L540.253000,564.516000L540.253000,586.105000" transform="matrix(1 0 0 1 0 3)" fill="none" stroke="rgb(108,122,138)" stroke-width="7"/></g><g id="eh0dite3u1ps22" transform="matrix(1 0 0 1 0 106)"><g id="eh0dite3u1ps23"><g id="eh0dite3u1ps24" transform="matrix(1 0 0 1 82.63500000000001 573.79899999999998)"><g id="eh0dite3u1ps25" transform="matrix(1 0 0 1 -62.57000000000000 -190.00999999999999)"><ellipse id="eh0dite3u1ps26" rx="13" ry="12.618000" transform="matrix(1 0 0 1 95.94000000000000 223.20800000000000)" fill="rgb(255,255,255)" stroke="none" stroke-width="1"/></g><g id="eh0dite3u1ps27" transform="matrix(1 0 0 1 0.36500000000000 0.20100000000000)"><circle id="eh0dite3u1ps28" r="33" transform="matrix(1 0 0 1 33 33)" fill="none" stroke="none" stroke-width="3" stroke-dasharray="20"/><g id="eh0dite3u1ps29_tr" transform="translate(33,33) rotate(0)"><circle id="eh0dite3u1ps29" r="31.500000" transform="translate(0,-0)" fill="none" stroke="rgb(30,135,255)" stroke-width="3" stroke-dasharray="20"/></g></g></g><path id="eh0dite3u1ps30" d="M149,604L299.844000,604L299.844000,564.516000L540.253000,564.516000L540.253000,640.748000L299.844000,641.090000L299.844000,604" transform="matrix(1 0 0 1 0 3)" fill="none" stroke="rgb(26,186,255)" stroke-width="2"/><path id="eh0dite3u1ps31" d="M515.322000,564.516000L540.253000,564.516000L540.253000,586.105000" transform="matrix(-1 0 -0 -1 839.57399999999996 1209.61999999999989)" fill="none" stroke="rgb(108,122,138)" stroke-width="7"/></g><path id="eh0dite3u1ps32" d="M515.322000,564.516000L540.253000,564.516000L540.253000,586.105000" transform="matrix(1 0 0 1 0 3)" fill="none" stroke="rgb(108,122,138)" stroke-width="7"/></g><g id="eh0dite3u1ps33" transform="matrix(1 0 0 1 0 212)"><g id="eh0dite3u1ps34"><g id="eh0dite3u1ps35" transform="matrix(1 0 0 1 82.63500000000001 573.79899999999998)"><g id="eh0dite3u1ps36" transform="matrix(1 0 0 1 -62.57000000000000 -296.00999999999999)"><ellipse id="eh0dite3u1ps37" rx="13" ry="12.618000" transform="matrix(1 0 0 1 95.94000000000000 329.20799999999997)" fill="rgb(255,255,255)" stroke="none" stroke-width="1"/></g><g id="eh0dite3u1ps38" transform="matrix(1 0 0 1 0.36500000000000 0.20100000000000)"><circle id="eh0dite3u1ps39" r="33" transform="matrix(1 0 0 1 33 33)" fill="none" stroke="none" stroke-width="3" stroke-dasharray="20"/><g id="eh0dite3u1ps40_tr" transform="translate(33,33) rotate(0)"><circle id="eh0dite3u1ps40" r="31.500000" transform="translate(0,0)" fill="none" stroke="rgb(30,135,255)" stroke-width="3" stroke-dasharray="20"/></g></g></g><path id="eh0dite3u1ps41" d="M149,604L299.844000,604L299.844000,564.516000L540.253000,564.516000L540.253000,640.748000L299.844000,641.090000L299.844000,604" transform="matrix(1 0 0 1 0 3)" fill="none" stroke="rgb(26,186,255)" stroke-width="2"/><path id="eh0dite3u1ps42" d="M515.322000,564.516000L540.253000,564.516000L540.253000,586.105000" transform="matrix(-1 0 -0 -1 839.57399999999996 1209.61999999999989)" fill="none" stroke="rgb(108,122,138)" stroke-width="7"/></g><path id="eh0dite3u1ps43" d="M515.322000,564.516000L540.253000,564.516000L540.253000,586.105000" transform="matrix(1 0 0 1 0 3)" fill="none" stroke="rgb(108,122,138)" stroke-width="7"/></g></g></svg>
