<svg xmlns="http://www.w3.org/2000/svg" xmlns:xlink="http://www.w3.org/1999/xlink" width="1215" height="1186" viewBox="0 0 1215 1186">
  <defs>
    <linearGradient id="linear-gradient" x1="0.616" x2="0.428" y2="1.098" gradientUnits="objectBoundingBox">
      <stop offset="0" stop-color="#209fb4"/>
      <stop offset="1" stop-color="#3b12ab"/>
    </linearGradient>
    <linearGradient id="linear-gradient-2" x1="0.616" x2="0.428" y2="1.098" gradientUnits="objectBoundingBox">
      <stop offset="0" stop-color="#209fb4"/>
      <stop offset="1" stop-color="#17eb8f"/>
    </linearGradient>
  </defs>
  <g id="fulgraph" transform="translate(-546 -502)">
    <g id="Union_1" data-name="Union 1" transform="translate(774 -2354)" fill="none" stroke-linecap="round">
      <path d="M57.685,3981.107-118,3369.778h.451L376.28,2916l493.829,453.778h.12l-.024.088.075.069h-.094L703.327,3981.107Z" stroke="none"/>
      <path d="M 702.5637817382813 3980.107421875 L 869.07958984375 3370.19091796875 L 376.2801513671875 2917.358154296875 L -116.7735900878906 3370.424560546875 L 58.43828201293945 3980.107421875 L 702.5637817382813 3980.107421875 M 703.3273315429688 3981.107421875 L 57.68520355224609 3981.107421875 L -117.9997329711914 3369.7783203125 L -117.5485305786133 3369.7783203125 L 376.2801513671875 2916 L 870.1088256835938 3369.7783203125 L 870.2286987304688 3369.7783203125 L 870.2046508789063 3369.866455078125 L 870.280029296875 3369.935791015625 L 870.1857299804688 3369.935791015625 L 703.3273315429688 3981.107421875 Z" stroke="none" fill="#fff"/>
    </g>
    <g id="Union_2" data-name="Union 2" transform="translate(890 -2226)" fill="none" stroke-linecap="round">
      <path d="M7.6,3759.288-118,3275.275h.346L260.928,2916l378.583,359.275h.091l-.017.069.058.055h-.072L517.86,3759.288Z" stroke="none"/>
      <path d="M 517.0802612304688 3758.2880859375 L 638.4718627929688 3275.66748046875 L 638.4718017578125 3275.66748046875 L 638.4718017578125 3275.667236328125 L 260.92822265625 2917.37841796875 L -116.8155975341797 3275.858154296875 L 8.377904891967773 3758.2880859375 L 517.0802612304688 3758.2880859375 M 517.85986328125 3759.2880859375 L 7.604328155517578 3759.2880859375 L -118.0000076293945 3275.27490234375 L -117.6537857055664 3275.27490234375 L 260.92822265625 2915.999755859375 L 639.5111083984375 3275.27490234375 L 639.6016845703125 3275.27490234375 L 639.584228515625 3275.34423828125 L 639.642333984375 3275.3994140625 L 639.5704345703125 3275.3994140625 L 517.85986328125 3759.2880859375 Z" stroke="none" fill="#fff"/>
    </g>
    <g id="Union_3" data-name="Union 3" transform="translate(985 -2123)" fill="none" stroke-linecap="round">
      <path d="M-26.067,3565.442-118,3192.688h.26L165.883,2916l283.623,276.688h.069l-.013.055.043.042h-.052l-88.02,372.658Z" stroke="none"/>
      <path d="M 360.7404479980469 3564.44189453125 L 448.4580993652344 3193.0634765625 L 165.8826141357422 2917.397216796875 L -116.8415374755859 3193.20849609375 L -25.28338623046875 3564.44189453125 L 360.7404479980469 3564.44189453125 M 361.5317687988281 3565.44189453125 L -26.06671714782715 3565.44189453125 L -117.999885559082 3192.68798828125 L -117.7400512695313 3192.68798828125 L 165.8826141357422 2916 L 449.5052795410156 3192.68798828125 L 449.5742797851563 3192.68798828125 L 449.5614624023438 3192.74267578125 L 449.6040344238281 3192.7841796875 L 449.5516052246094 3192.7841796875 L 361.5317687988281 3565.44189453125 Z" stroke="none" fill="#fff"/>
    </g>
    <g id="Union_4" data-name="Union 4" transform="translate(1067 -2017)" fill="none" stroke-linecap="round">
      <path d="M-56.551,3382.4-118,3114.707h.184L83.262,2916l201.079,198.707h.049l-.009.039.03.029h-.036L223.109,3382.4Z" stroke="none"/>
      <path d="M 222.3121948242188 3381.403564453125 L 283.2810363769531 3115.066162109375 L 283.2803649902344 3115.0654296875 L 283.280517578125 3115.064697265625 L 83.26171112060547 2917.406005859375 L -116.8666152954102 3115.173828125 L -55.75413513183594 3381.403564453125 L 222.3121948242188 3381.403564453125 M 223.1091156005859 3382.403564453125 L -56.55058670043945 3382.403564453125 L -117.9998779296875 3114.70654296875 L -117.81640625 3114.70654296875 L 83.26171112060547 2916 L 284.3406982421875 3114.70654296875 L 284.3892517089844 3114.70654296875 L 284.3802490234375 3114.74560546875 L 284.4099426269531 3114.77490234375 L 284.37353515625 3114.77490234375 L 223.1091156005859 3382.403564453125 Z" stroke="none" fill="#fff"/>
    </g>
    <g id="Union_5" data-name="Union 5" transform="translate(1148 -1908.379)" fill="none" stroke-linecap="round">
      <path d="M-83.581,3199.508-118,3036.785h.111L2.961,2916l120.85,120.785h.03l-.005.025.018.018h-.021l-33.239,162.68Z" stroke="none"/>
      <path d="M 89.77678680419922 3198.508056640625 L 122.7484359741211 3037.136962890625 L 2.961010217666626 2917.413818359375 L -116.8899459838867 3037.200439453125 L -82.77059173583984 3198.508056640625 L 89.77678680419922 3198.508056640625 M 90.59311676025391 3199.508056640625 L -83.58120727539063 3199.508056640625 L -117.999885559082 3036.785400390625 L -117.8891677856445 3036.785400390625 L 2.961010217666626 2916 L 123.8111877441406 3036.785400390625 L 123.8409042358398 3036.785400390625 L 123.8358688354492 3036.81005859375 L 123.8535079956055 3036.827880859375 L 123.8322601318359 3036.827880859375 L 90.59311676025391 3199.508056640625 Z" stroke="none" fill="#fff"/>
    </g>
    <g id="Union_6" data-name="Union 6" transform="translate(1209 -1821)" fill="none" stroke-linecap="round">
      <path d="M-96.732,3043.835-118,2970.463h.055L-58.164,2916l59.781,54.463h.015l0,.01.009.009H1.627l-20.2,73.354Z" stroke="none"/>
      <path d="M -19.33453178405762 3042.83544921875 L 0.5019745826721191 2970.799560546875 L -58.16391372680664 2917.352783203125 L -116.8545150756836 2970.822021484375 L -95.98064422607422 3042.83544921875 L -19.33453178405762 3042.83544921875 M -18.57267951965332 3043.83544921875 L -96.73194885253906 3043.83544921875 L -117.9997787475586 2970.462890625 L -117.9451599121094 2970.462890625 L -58.16391372680664 2916 L 1.617320895195007 2970.462890625 L 1.631837606430054 2970.462890625 L 1.628937602043152 2970.47314453125 L 1.638070940971375 2970.48193359375 L 1.626654267311096 2970.48193359375 L -18.57267951965332 3043.83544921875 Z" stroke="none" fill="#fff"/>
    </g>
    <g id="Union_7" data-name="Union 7" transform="translate(1251 -1766)" fill="none" stroke-linecap="round">
      <path d="M-111.9,2945.934l-6.1-17.181h.016L-100.843,2916l17.142,12.753h0v0l0,0h0l-5.792,17.177Z" stroke="none"/>
      <path d="M -90.2083740234375 2944.93408203125 L -84.87741088867188 2929.124267578125 L -100.8425674438477 2917.246337890625 L -116.8070831298828 2929.123779296875 L -111.1952972412109 2944.93408203125 L -90.2083740234375 2944.93408203125 M -89.49024963378906 2945.93408203125 L -111.9014739990234 2945.93408203125 L -117.9997863769531 2928.753173828125 L -117.984130859375 2928.753173828125 L -100.8425674438477 2916 L -83.70100402832031 2928.753173828125 L -83.69684600830078 2928.753173828125 L -83.69767761230469 2928.75537109375 L -83.695068359375 2928.75732421875 L -83.69833374023438 2928.75732421875 L -89.49024963378906 2945.93408203125 Z" stroke="none" fill="#fff"/>
    </g>
    <path id="bluepath" d="M1058.128-2373.856,906.689-2078.051,677.2-1888.076l369.154,180.94,111.461-368.278Z" transform="matrix(0.559, 0.829, -0.829, 0.559, -1078.26, 1572.962)" opacity="0.82" fill="url(#linear-gradient)"/>
    <g id="spiderlines">
      <line id="Line_8" data-name="Line 8" y2="603" transform="translate(1150.5 561.5)" fill="none" stroke="#fff" stroke-width="1"/>
      <line id="Line_9" data-name="Line 9" x2="494" y2="147" transform="translate(656.5 1017.5)" fill="none" stroke="#fff" stroke-width="1"/>
      <line id="Line_10" data-name="Line 10" y1="463" x2="317" transform="translate(833.5 1164.5)" fill="none" stroke="#fff" stroke-width="1"/>
      <line id="Line_11" data-name="Line 11" x1="324" y1="463" transform="translate(1150.5 1164.5)" fill="none" stroke="#fff" stroke-width="1"/>
      <line id="Line_12" data-name="Line 12" x1="494" y2="147" transform="translate(1150.5 1017.5)" fill="none" stroke="#fff" stroke-width="1"/>
    </g>
    <text id="Speed" transform="translate(1109 534)" fill="#fff" font-size="30" font-family="SegoeUI, Segoe UI"><tspan x="0" y="0">Speed</tspan></text>
    <text id="Velocity" transform="translate(546 1029)" fill="#fff" font-size="30" font-family="SegoeUI, Segoe UI"><tspan x="0" y="0">Velocity</tspan></text>
    <text id="Gravity" transform="translate(1668 1029)" fill="#fff" font-size="30" font-family="SegoeUI, Segoe UI"><tspan x="0" y="0">Gravity</tspan></text>
    <text id="Load" transform="translate(1447 1680)" fill="#fff" font-size="30" font-family="SegoeUI, Segoe UI"><tspan x="0" y="0">Load</tspan></text>
    <text id="Thrust" transform="translate(784 1680)" fill="#fff" font-size="30" font-family="SegoeUI, Segoe UI"><tspan x="0" y="0">Thrust</tspan></text>
    <path id="greenpath" d="M1434.088-1985l-422.7-92.778L639.249-2210.428l220.013,331.86,221.583,167.214Z" transform="matrix(0.559, 0.829, -0.829, 0.559, -1037.26, 1455.962)" opacity="0.82" fill="url(#linear-gradient-2)"/>
  </g>
</svg>
