<svg id="egolzff7dbrf1" xmlns="http://www.w3.org/2000/svg" xmlns:xlink="http://www.w3.org/1999/xlink" viewBox="0 0 335.124000 335.004000" shape-rendering="geometricPrecision" text-rendering="geometricPrecision"><style><![CDATA[#egolzff7dbrf1{pointer-events: all}#egolzff7dbrf1 * {animation-play-state: paused !important}#egolzff7dbrf1:hover * {animation-play-state: running !important}#egolzff7dbrf13_tr {animation: egolzff7dbrf13_tr__tr 2300ms linear infinite normal forwards}@keyframes egolzff7dbrf13_tr__tr { 0% {transform: translate(379.913380px,422.986066px) rotate(0deg)} 100% {transform: translate(379.913380px,422.986066px) rotate(360deg)} }]]></style><g id="egolzff7dbrf2" transform="matrix(1 0 0 1 -290.23399999999998 -166.25200000000001)"><line id="egolzff7dbrf3" x1="0" y1="0" x2="0" y2="16" transform="matrix(1 0 0 1 435.50000000000000 327.50000000000000)" fill="none" stroke="rgb(112,112,112)" stroke-width="4"/><line id="egolzff7dbrf4" x1="0" y1="0" x2="0" y2="16" transform="matrix(0 1 -1 0 443.50000000000000 335.50000000000000)" fill="none" stroke="rgb(112,112,112)" stroke-width="4"/><line id="egolzff7dbrf5" x1="0" y1="0" x2="4" y2="0" transform="matrix(1 0 0 1 451.50000000000000 333.50000000000000)" fill="none" stroke="rgb(112,112,112)" stroke-width="1"/><line id="egolzff7dbrf6" x1="0" y1="0" x2="4" y2="0" transform="matrix(1 0 0 1 462.50000000000000 333.50000000000000)" fill="none" stroke="rgb(112,112,112)" stroke-width="1"/><circle id="egolzff7dbrf7" r="3" transform="matrix(1 0 0 1 483 329)" fill="rgb(239,12,59)" stroke="none" stroke-width="1"/><circle id="egolzff7dbrf8" r="3" transform="matrix(1 0 0 1 483.30000000000001 343.30000000000001)" fill="rgb(12,20,239)" stroke="none" stroke-width="1"/><circle id="egolzff7dbrf9" r="3" transform="matrix(1 0 0 1 490.30000000000001 336.30000000000001)" fill="rgb(216,239,12)" stroke="none" stroke-width="1"/><circle id="egolzff7dbrf10" r="3" transform="matrix(1 0 0 1 476 336.30000000000001)" fill="rgb(14,206,52)" stroke="none" stroke-width="1"/><path id="egolzff7dbrf11" d="M633.586000,585C633.586000,585,632.619000,591.719000,631.568000,596.593000C631.014139,599.271609,630.283882,601.910692,629.382000,604.493000C628.480118,607.075308,626.935000,610.917000,627.818000,616.172000C628.701000,621.427000,632.918000,625.512000,632.918000,625.512000L657.636000,625.512000C665.875000,626.012000,672.055000,631.528000,673.442000,638.923000C674.829000,646.318000,670.669000,654.330000,667.893000,656.788000C663.711142,660.481908,658.112828,662.143107,652.593000,661.328000C645.573000,660.235000,639.814000,652.416000,639.814000,652.416000L625.347000,652.416000C625.347000,652.416000,619.966000,660.487000,612.400000,661.328000C606.954264,661.870308,601.514880,660.238457,597.267000,656.788000C593.112521,653.346366,591.016965,648.012121,591.718000,642.663000C592.176333,638.074821,594.125430,633.763203,597.267000,630.388000C600.408570,627.012797,602.312000,624.839000,612.400000,625.512000C619.232462,625.901215,626.081538,625.901215,632.914000,625.512000" transform="matrix(1 0 0 1 -174 -307)" fill="none" stroke="rgb(110,83,83)" stroke-width="3"/><g id="egolzff7dbrf12" transform="matrix(1 0 0 1 77.66600000000000 -89.32100000000000)"><g id="egolzff7dbrf13_tr" transform="translate(379.913380,422.986066) rotate(0)"><g id="egolzff7dbrf13" transform="skewX(-0) skewY(0) scale(0.999874,0.999874) translate(-457.738846,-333.099945)"><g id="egolzff7dbrf14" transform="matrix(-0.25900000000000 0.96600000000000 -0.96600000000000 -0.25900000000000 898.21600000000001 -22.95300000000000)"><path id="egolzff7dbrf15" d="M381.735000,501.821000L374.900000,477.413000L389.545000,469.603000L405.654000,485.224000L427.621000,480.342000L432.503000,459.351000L452.517000,459.351000L457.887000,480.342000L476.437000,485.224000L494.010000,469.600000L507.678000,477.410000L504.261000,501.818000L515.977000,513.534000L539.408000,510.117000L547.708000,524.762000L533.552000,543.312000L536.969000,558.445000L557.469000,567.232000L557.469000,584.805000L536.969000,592.615000L531.599000,609.215000L547.708000,629.229000L539.408000,642.897000L515.977000,637.039000L504.261000,649.731000L507.678000,671.210000L493.608000,680.460000L476.437000,665.840000L457.887000,671.210000L452.517000,692.689000L432.500000,692.689000L424.690000,671.210000L408.581000,665.840000L391.981000,682.440000L374.896000,674.630000L378.801000,649.730000L366.601000,637.038000L345.124000,642.900000L335.361000,627.279000L350.982000,609.217000L348.053000,592.617000L323.645000,584.807000L323.645000,567.233000L348.053000,560.887000L353.911000,540.387000L335.361000,524.766000L343.171000,510.121000L366.602000,515.979000Z" transform="matrix(0.53000000000000 -0.84800000000000 0.84800000000000 0.53000000000000 -264.03800000000001 401.50599999999997)" fill="none" stroke="rgb(42,154,167)" stroke-width="7"/><g id="egolzff7dbrf16" transform="matrix(-0.08715600000000 -0.99619500000000 0.99619500000000 -0.08715600000000 396.76600000000002 406.25200000000001)"><circle id="egolzff7dbrf17" r="67.500000" transform="matrix(1 0 0 1 67.50000000000000 67.50000000000000)" fill="none" stroke="none" stroke-width="7"/><circle id="egolzff7dbrf18" r="64" transform="matrix(1 0 0 1 67.50000000000000 67.50000000000000)" fill="none" stroke="rgb(42,154,167)" stroke-width="7"/></g></g></g></g></g></g></svg>