<svg id="eg0jltf6u8551" xmlns="http://www.w3.org/2000/svg" xmlns:xlink="http://www.w3.org/1999/xlink" viewBox="0 0 340.013000 340.038000" shape-rendering="geometricPrecision" text-rendering="geometricPrecision"><style><![CDATA[#eg0jltf6u8551{pointer-events: all}#eg0jltf6u8551 * {animation-play-state: paused !important}#eg0jltf6u8551:hover * {animation-play-state: running !important}#eg0jltf6u8553_tr {animation: eg0jltf6u8553_tr__tr 2300ms linear infinite normal forwards}@keyframes eg0jltf6u8553_tr__tr { 0% {transform: translate(457.738842px,333.099939px) rotate(105.008914deg)} 100% {transform: translate(457.738842px,333.099939px) rotate(465.008914deg)} }]]></style><g id="eg0jltf6u8552" transform="matrix(1 0 0 1 -287.90699999999998 -163.11699999999999)"><g id="eg0jltf6u8553_tr" transform="translate(457.738842,333.099939) rotate(105.008914)"><g id="eg0jltf6u8553" transform="scale(1.000118,1.000118) translate(-457.922195,-333.204254)"><path id="eg0jltf6u8554" d="M381.735000,501.821000L374.900000,477.413000L389.545000,469.603000L405.654000,485.224000L427.621000,480.342000L432.503000,459.351000L452.517000,459.351000L457.887000,480.342000L476.437000,485.224000L494.010000,469.600000L507.678000,477.410000L504.261000,501.818000L515.977000,513.534000L539.408000,510.117000L547.708000,524.762000L533.552000,543.312000L536.969000,558.445000L557.469000,567.232000L557.469000,584.805000L536.969000,592.615000L531.599000,609.215000L547.708000,629.229000L539.408000,642.897000L515.977000,637.039000L504.261000,649.731000L507.678000,671.210000L493.608000,680.460000L476.437000,665.840000L457.887000,671.210000L452.517000,692.689000L432.500000,692.689000L424.690000,671.210000L408.581000,665.840000L391.981000,682.440000L374.896000,674.630000L378.801000,649.730000L366.601000,637.038000L345.124000,642.900000L335.361000,627.279000L350.982000,609.217000L348.053000,592.617000L323.645000,584.807000L323.645000,567.233000L348.053000,560.887000L353.911000,540.387000L335.361000,524.766000L343.171000,510.121000L366.602000,515.979000Z" transform="matrix(0.53000000000000 -0.84800000000000 0.84800000000000 0.53000000000000 -264.03800000000001 401.50599999999997)" fill="none" stroke="rgb(42,154,167)" stroke-width="7"/><g id="eg0jltf6u8555" transform="matrix(-0.08715600000000 -0.99619500000000 0.99619500000000 -0.08715600000000 396.76600000000002 406.25200000000001)"><circle id="eg0jltf6u8556" r="67.500000" transform="matrix(1 0 0 1 67.50000000000000 67.50000000000000)" fill="none" stroke="none" stroke-width="7"/><circle id="eg0jltf6u8557" r="64" transform="matrix(1 0 0 1 67.50000000000000 67.50000000000000)" fill="none" stroke="rgb(42,154,167)" stroke-width="7"/></g></g></g><g id="eg0jltf6u8558" transform="matrix(1 0 0 1 -1.23200000000000 3.84500000000000)"><path id="eg0jltf6u8559" d="M599.232000,640.136000L632.309000,606.155000L666.573000,640.136000" transform="matrix(1 0 0 1 -174 -305)" fill="none" stroke="rgb(13,120,161)" stroke-width="7"/><path id="eg0jltf6u85510" d="M608.463000,640.500000L608.463000,666.925000L623.043000,666.925000L623.043000,646.925000L636.300000,646.925000L636.300000,666.925000L651.540000,666.925000L651.540000,640.500000" transform="matrix(1 0 0 1 -171.07700000000000 -309)" fill="none" stroke="rgb(68,194,233)" stroke-width="5"/></g></g></svg>
