<svg id="etko33szq7b1" xmlns="http://www.w3.org/2000/svg" xmlns:xlink="http://www.w3.org/1999/xlink" viewBox="0 0 627.299000 627.299000" shape-rendering="geometricPrecision" text-rendering="geometricPrecision"><style><![CDATA[#etko33szq7b3_tr {animation: etko33szq7b3_tr__tr 3000ms linear infinite reverse forwards}@keyframes etko33szq7b3_tr__tr { 0% {transform: translate(842px,477px) rotate(0deg)} 100% {transform: translate(842px,477px) rotate(360deg)} }#etko33szq7b28_tr {animation: etko33szq7b28_tr__tr 3000ms linear infinite reverse forwards}@keyframes etko33szq7b28_tr__tr { 0% {transform: translate(842px,477px) rotate(0deg)} 100% {transform: translate(842px,477px) rotate(-360deg)} }#etko33szq7b28 {animation: etko33szq7b28_c_o 3000ms linear infinite reverse forwards}@keyframes etko33szq7b28_c_o { 0% {opacity: 1} 50% {opacity: 0.200000} 100% {opacity: 1} }#etko33szq7b29_tr {animation: etko33szq7b29_tr__tr 3000ms linear infinite reverse forwards}@keyframes etko33szq7b29_tr__tr { 0% {transform: translate(842.106000px,476.978000px) rotate(0deg)} 100% {transform: translate(842.106000px,476.978000px) rotate(360deg)} }#etko33szq7b30_tr {animation: etko33szq7b30_tr__tr 3000ms linear infinite reverse forwards}@keyframes etko33szq7b30_tr__tr { 0% {transform: translate(841.500000px,478.500000px) rotate(0deg)} 100% {transform: translate(841.500000px,478.500000px) rotate(-360deg)} }#etko33szq7b31_tr {animation: etko33szq7b31_tr__tr 3000ms linear infinite reverse forwards}@keyframes etko33szq7b31_tr__tr { 0% {transform: translate(842.500000px,479.840515px) rotate(0deg)} 100% {transform: translate(842.500000px,479.840515px) rotate(-360deg)} }#etko33szq7b31 {animation: etko33szq7b31_c_o 3000ms linear infinite reverse forwards}@keyframes etko33szq7b31_c_o { 0% {opacity: 0.160000} 50% {opacity: 1} 100% {opacity: 0.160000} }#etko33szq7b109_tr {animation: etko33szq7b109_tr__tr 3000ms linear infinite reverse forwards}@keyframes etko33szq7b109_tr__tr { 0% {transform: translate(841.500000px,478.500000px) rotate(0deg)} 100% {transform: translate(841.500000px,478.500000px) rotate(720deg)} }]]></style><defs><filter id="etko33szq7b28-filter" x="-400%" width="600%" y="-400%" height="600%"><feGaussianBlur id="etko33szq7b28-filter-drop-shadow-0-blur" in="SourceAlpha" stdDeviation="10,10"/><feOffset id="etko33szq7b28-filter-drop-shadow-0-offset" dx="0" dy="0" result="tmp"/><feFlood id="etko33szq7b28-filter-drop-shadow-0-flood" flood-color="rgb(0,255,245)"/><feComposite id="etko33szq7b28-filter-drop-shadow-0-composite" operator="in" in2="tmp"/><feMerge id="etko33szq7b28-filter-drop-shadow-0-merge"><feMergeNode id="etko33szq7b28-filter-drop-shadow-0-merge-node-1"/><feMergeNode id="etko33szq7b28-filter-drop-shadow-0-merge-node-2" in="SourceGraphic"/></feMerge></filter><filter id="etko33szq7b29-filter" x="-400%" width="600%" y="-400%" height="600%"><feGaussianBlur id="etko33szq7b29-filter-drop-shadow-0-blur" in="SourceAlpha" stdDeviation="2,2"/><feOffset id="etko33szq7b29-filter-drop-shadow-0-offset" dx="0" dy="0" result="tmp"/><feFlood id="etko33szq7b29-filter-drop-shadow-0-flood" flood-color="rgb(10,231,255)"/><feComposite id="etko33szq7b29-filter-drop-shadow-0-composite" operator="in" in2="tmp"/><feMerge id="etko33szq7b29-filter-drop-shadow-0-merge"><feMergeNode id="etko33szq7b29-filter-drop-shadow-0-merge-node-1"/><feMergeNode id="etko33szq7b29-filter-drop-shadow-0-merge-node-2" in="SourceGraphic"/></feMerge></filter><filter id="etko33szq7b32-filter" x="-400%" width="600%" y="-400%" height="600%"><feGaussianBlur id="etko33szq7b32-filter-drop-shadow-0-blur" in="SourceAlpha" stdDeviation="10,0"/><feOffset id="etko33szq7b32-filter-drop-shadow-0-offset" dx="0" dy="0" result="tmp"/><feFlood id="etko33szq7b32-filter-drop-shadow-0-flood" flood-color="rgb(8,236,208)"/><feComposite id="etko33szq7b32-filter-drop-shadow-0-composite" operator="in" in2="tmp"/><feMerge id="etko33szq7b32-filter-drop-shadow-0-merge"><feMergeNode id="etko33szq7b32-filter-drop-shadow-0-merge-node-1"/><feMergeNode id="etko33szq7b32-filter-drop-shadow-0-merge-node-2" in="SourceGraphic"/></feMerge></filter><filter id="etko33szq7b108-filter" x="-400%" width="600%" y="-400%" height="600%"><feGaussianBlur id="etko33szq7b108-filter-drop-shadow-0-blur" in="SourceAlpha" stdDeviation="500,500"/><feOffset id="etko33szq7b108-filter-drop-shadow-0-offset" dx="0" dy="0" result="tmp"/><feFlood id="etko33szq7b108-filter-drop-shadow-0-flood" flood-color="rgb(0,251,241)"/><feComposite id="etko33szq7b108-filter-drop-shadow-0-composite" operator="in" in2="tmp"/><feMerge id="etko33szq7b108-filter-drop-shadow-0-merge"><feMergeNode id="etko33szq7b108-filter-drop-shadow-0-merge-node-1"/><feMergeNode id="etko33szq7b108-filter-drop-shadow-0-merge-node-2" in="SourceGraphic"/></feMerge></filter><filter id="etko33szq7b109-filter" x="-400%" width="600%" y="-400%" height="600%"><feGaussianBlur id="etko33szq7b109-filter-drop-shadow-0-blur" in="SourceAlpha" stdDeviation="5,5"/><feOffset id="etko33szq7b109-filter-drop-shadow-0-offset" dx="0" dy="0" result="tmp"/><feFlood id="etko33szq7b109-filter-drop-shadow-0-flood" flood-color="rgb(0,255,231)"/><feComposite id="etko33szq7b109-filter-drop-shadow-0-composite" operator="in" in2="tmp"/><feMerge id="etko33szq7b109-filter-drop-shadow-0-merge"><feMergeNode id="etko33szq7b109-filter-drop-shadow-0-merge-node-1"/><feMergeNode id="etko33szq7b109-filter-drop-shadow-0-merge-node-2" in="SourceGraphic"/></feMerge></filter></defs><g id="etko33szq7b2" transform="matrix(1 0 0 1 -527.85100000000000 -166.85100000000000)"><g id="etko33szq7b3_tr" transform="translate(842,477) rotate(360)"><g id="etko33szq7b3" transform="translate(-842,-477)"><line id="etko33szq7b4" x1="1.660000" y1="0" x2="0" y2="45.713000" transform="matrix(1 0 0 1 842.50000000000000 304.28699999999998)" fill="rgb(255,255,255)" stroke="rgb(0,0,0)" stroke-width="14.033000" stroke-miterlimit="10"/><line id="etko33szq7b5" x1="0" y1="0" x2="10.228000" y2="44.585000" transform="matrix(1 0 0 1 799.38499999999999 309.61300000000000)" fill="rgb(255,255,255)" stroke="rgb(0,0,0)" stroke-width="14.033000" stroke-miterlimit="10"/><line id="etko33szq7b6" x1="0" y1="0" x2="21.419000" y2="40.418000" transform="matrix(1 0 0 1 757.51400000000001 326.34699999999998)" fill="rgb(255,255,255)" stroke="rgb(0,0,0)" stroke-width="14.033000" stroke-miterlimit="10"/><line id="etko33szq7b7" x1="0" y1="0" x2="31.150000" y2="33.497000" transform="matrix(1 0 0 1 721.40099999999995 353.34699999999998)" fill="rgb(255,255,255)" stroke="rgb(0,0,0)" stroke-width="14.033000" stroke-miterlimit="10"/><line id="etko33szq7b8" x1="0" y1="0" x2="38.759000" y2="24.294000" transform="matrix(1 0 0 1 693.50599999999997 388.77300000000002)" fill="rgb(255,255,255)" stroke="rgb(0,0,0)" stroke-width="14.033000" stroke-miterlimit="10"/><line id="etko33szq7b9" x1="0" y1="0" x2="43.726000" y2="13.434000" transform="matrix(1 0 0 1 675.73099999999999 430.21300000000002)" fill="rgb(255,255,255)" stroke="rgb(0,0,0)" stroke-width="14.033000" stroke-miterlimit="10"/><line id="etko33szq7b10" x1="0" y1="0" x2="45.713000" y2="1.660000" transform="matrix(1 0 0 1 669.28700000000003 474.83999999999997)" fill="rgb(255,255,255)" stroke="rgb(0,0,0)" stroke-width="14.033000" stroke-miterlimit="10"/><line id="etko33szq7b11" x1="0" y1="10.228000" x2="44.585000" y2="0" transform="matrix(1 0 0 1 674.61300000000006 509.38700000000000)" fill="rgb(255,255,255)" stroke="rgb(0,0,0)" stroke-width="14.033000" stroke-miterlimit="10"/><line id="etko33szq7b12" x1="0" y1="21.419000" x2="40.418000" y2="0" transform="matrix(1 0 0 1 691.34699999999998 540.06700000000001)" fill="rgb(255,255,255)" stroke="rgb(0,0,0)" stroke-width="14.033000" stroke-miterlimit="10"/><line id="etko33szq7b13" x1="0" y1="31.150000" x2="33.497000" y2="0" transform="matrix(1 0 0 1 718.34699999999998 566.44899999999996)" fill="rgb(255,255,255)" stroke="rgb(0,0,0)" stroke-width="14.033000" stroke-miterlimit="10"/><line id="etko33szq7b14" x1="0" y1="38.759000" x2="24.294000" y2="0" transform="matrix(1 0 0 1 753.77300000000002 586.73500000000001)" fill="rgb(255,255,255)" stroke="rgb(0,0,0)" stroke-width="14.033000" stroke-miterlimit="10"/><line id="etko33szq7b15" x1="0" y1="43.726000" x2="13.434000" y2="0" transform="matrix(1 0 0 1 795.21299999999997 599.54300000000001)" fill="rgb(255,255,255)" stroke="rgb(0,0,0)" stroke-width="14.033000" stroke-miterlimit="10"/><line id="etko33szq7b16" x1="0" y1="45.713000" x2="1.660000" y2="0" transform="matrix(1 0 0 1 839.84000000000003 604)" fill="rgb(255,255,255)" stroke="rgb(0,0,0)" stroke-width="14.033000" stroke-miterlimit="10"/><line id="etko33szq7b17" x1="10.228000" y1="44.585000" x2="0" y2="0" transform="matrix(1 0 0 1 874.38699999999994 599.80200000000002)" fill="rgb(255,255,255)" stroke="rgb(0,0,0)" stroke-width="14.033000" stroke-miterlimit="10"/><line id="etko33szq7b18" x1="21.419000" y1="40.418000" x2="0" y2="0" transform="matrix(1 0 0 1 905.06700000000001 587.23500000000001)" fill="rgb(255,255,255)" stroke="rgb(0,0,0)" stroke-width="14.033000" stroke-miterlimit="10"/><line id="etko33szq7b19" x1="31.150000" y1="33.497000" x2="0" y2="0" transform="matrix(1 0 0 1 931.44899999999996 567.15599999999995)" fill="rgb(255,255,255)" stroke="rgb(255,255,255)" stroke-width="14.033000" stroke-miterlimit="10"/><line id="etko33szq7b20" x1="38.759000" y1="24.294000" x2="0" y2="0" transform="matrix(1 0 0 1 951.73500000000001 540.93299999999999)" fill="rgb(255,255,255)" stroke="rgb(255,255,255)" stroke-width="14.033000" stroke-miterlimit="10"/><line id="etko33szq7b21" x1="43.726000" y1="13.434000" x2="0" y2="0" transform="matrix(1 0 0 1 964.54300000000001 510.35300000000001)" fill="rgb(255,255,255)" stroke="rgb(255,255,255)" stroke-width="14.033000" stroke-miterlimit="10"/><line id="etko33szq7b22" x1="45.713000" y1="1.660000" x2="0" y2="0" transform="matrix(1 0 0 1 969 477.50000000000000)" fill="rgb(255,255,255)" stroke="rgb(255,255,255)" stroke-width="14.033000" stroke-miterlimit="10"/><line id="etko33szq7b23" x1="44.585000" y1="0" x2="0" y2="10.228000" transform="matrix(1 0 0 1 964.80200000000002 434.38499999999999)" fill="rgb(255,255,255)" stroke="rgb(255,255,255)" stroke-width="14.033000" stroke-miterlimit="10"/><line id="etko33szq7b24" x1="40.418000" y1="0" x2="0" y2="21.419000" transform="matrix(1 0 0 1 952.23500000000001 392.51400000000001)" fill="rgb(255,255,255)" stroke="rgb(255,255,255)" stroke-width="14.033000" stroke-miterlimit="10"/><line id="etko33szq7b25" x1="33.497000" y1="0" x2="0" y2="31.150000" transform="matrix(1 0 0 1 932.15599999999995 356.40100000000001)" fill="rgb(255,255,255)" stroke="rgb(255,255,255)" stroke-width="14.033000" stroke-miterlimit="10"/><line id="etko33szq7b26" x1="24.294000" y1="0" x2="0" y2="38.759000" transform="matrix(1 0 0 1 905.93299999999999 328.50599999999997)" fill="rgb(255,255,255)" stroke="rgb(0,0,0)" stroke-width="14.033000" stroke-miterlimit="10"/><line id="etko33szq7b27" x1="13.434000" y1="0" x2="0" y2="43.726000" transform="matrix(1 0 0 1 875.35299999999995 310.73099999999999)" fill="rgb(255,255,255)" stroke="rgb(0,0,0)" stroke-width="14.033000" stroke-miterlimit="10"/></g></g><g id="etko33szq7b28_tr" transform="translate(842,477) rotate(-360)"><ellipse id="etko33szq7b28" rx="221" ry="218" transform="translate(0,0)" filter="url(#etko33szq7b28-filter)" fill="none" stroke="rgb(0,255,255)" stroke-width="24.033000" stroke-miterlimit="10" stroke-dasharray="500,50"/></g><g id="etko33szq7b29_tr" transform="translate(842.106000,476.978000) rotate(360)"><circle id="etko33szq7b29" r="249.404000" transform="translate(0,0)" filter="url(#etko33szq7b29-filter)" fill="none" stroke="rgb(0,255,255)" stroke-width="5.149000" stroke-linecap="round" stroke-miterlimit="10" stroke-dasharray="568.132000,93.744000"/></g><g id="etko33szq7b30_tr" transform="translate(841.500000,478.500000) rotate(-360)"><circle id="etko33szq7b30" r="103" transform="translate(0,0)" fill="none" stroke="rgb(0,255,255)" stroke-width="5.226000" stroke-linecap="round" stroke-miterlimit="10" stroke-dasharray="5.591000,15.140000"/></g><g id="etko33szq7b31_tr" transform="translate(842.500000,479.840515) rotate(-360)"><g id="etko33szq7b31" transform="translate(-842.500000,-479.840515)" opacity="0.16"><circle id="etko33szq7b32" r="284" transform="matrix(1 0 0 1 842.50000000000000 479.50000000000000)" filter="url(#etko33szq7b32-filter)" fill="none" fill-opacity="0.59" stroke="rgb(0,255,255)" stroke-width="2.359000" stroke-linecap="round" stroke-miterlimit="10"/><g id="etko33szq7b33"><g id="etko33szq7b34"><line id="etko33szq7b35" x1="0" y1="0" x2="0" y2="13" transform="matrix(1 0 0 1 829 197)" fill="none" stroke="rgb(0,255,255)" stroke-width="2.359000" stroke-linecap="round" stroke-miterlimit="10"/><line id="etko33szq7b36" x1="0" y1="0" x2="0" y2="13" transform="matrix(1 0 0 1 835 197)" fill="none" stroke="rgb(0,255,255)" stroke-width="2.359000" stroke-linecap="round" stroke-miterlimit="10"/><line id="etko33szq7b37" x1="0" y1="0" x2="0" y2="13" transform="matrix(1 0 0 1 841 197)" fill="none" stroke="rgb(0,255,255)" stroke-width="2.359000" stroke-linecap="round" stroke-miterlimit="10"/><line id="etko33szq7b38" x1="0" y1="0" x2="0" y2="13" transform="matrix(1 0 0 1 823 198)" fill="none" stroke="rgb(0,255,255)" stroke-width="2.359000" stroke-linecap="round" stroke-miterlimit="10"/><line id="etko33szq7b39" x1="0" y1="0" x2="0" y2="13" transform="matrix(1 0 0 1 847 196.81899999999999)" fill="none" stroke="rgb(0,255,255)" stroke-width="2.359000" stroke-linecap="round" stroke-miterlimit="10"/></g><g id="etko33szq7b40"><line id="etko33szq7b41" x1="0" y1="0" x2="6.500000" y2="11.258000" transform="matrix(1 0 0 1 688.10799999999995 241.18299999999999)" fill="none" stroke="rgb(0,255,255)" stroke-width="2.359000" stroke-linecap="round" stroke-miterlimit="10"/><line id="etko33szq7b42" x1="0" y1="0" x2="6.500000" y2="11.258000" transform="matrix(1 0 0 1 693.30399999999997 238.18299999999999)" fill="none" stroke="rgb(0,255,255)" stroke-width="2.359000" stroke-linecap="round" stroke-miterlimit="10"/><line id="etko33szq7b43" x1="0" y1="0" x2="6.500000" y2="11.258000" transform="matrix(1 0 0 1 698.50000000000000 235.18299999999999)" fill="none" stroke="rgb(0,255,255)" stroke-width="2.359000" stroke-linecap="round" stroke-miterlimit="10"/><line id="etko33szq7b44" x1="0" y1="0" x2="6.500000" y2="11.258000" transform="matrix(1 0 0 1 683.41200000000003 245.04900000000001)" fill="none" stroke="rgb(0,255,255)" stroke-width="2.359000" stroke-linecap="round" stroke-miterlimit="10"/><line id="etko33szq7b45" x1="0" y1="0" x2="6.500000" y2="11.258000" transform="matrix(1 0 0 1 703.60599999999999 232.02600000000001)" fill="none" stroke="rgb(0,255,255)" stroke-width="2.359000" stroke-linecap="round" stroke-miterlimit="10"/></g><g id="etko33szq7b46"><line id="etko33szq7b47" x1="0" y1="0" x2="11.258000" y2="6.500000" transform="matrix(1 0 0 1 590.18299999999999 349.89200000000000)" fill="none" stroke="rgb(0,255,255)" stroke-width="2.359000" stroke-linecap="round" stroke-miterlimit="10"/><line id="etko33szq7b48" x1="0" y1="0" x2="11.258000" y2="6.500000" transform="matrix(1 0 0 1 593.18299999999999 344.69600000000003)" fill="none" stroke="rgb(0,255,255)" stroke-width="2.359000" stroke-linecap="round" stroke-miterlimit="10"/><line id="etko33szq7b49" x1="0" y1="0" x2="11.258000" y2="6.500000" transform="matrix(1 0 0 1 596.18299999999999 339.50000000000000)" fill="none" stroke="rgb(0,255,255)" stroke-width="2.359000" stroke-linecap="round" stroke-miterlimit="10"/><line id="etko33szq7b50" x1="0" y1="0" x2="11.258000" y2="6.500000" transform="matrix(1 0 0 1 588.04899999999998 355.58800000000002)" fill="none" stroke="rgb(0,255,255)" stroke-width="2.359000" stroke-linecap="round" stroke-miterlimit="10"/><line id="etko33szq7b51" x1="0" y1="0" x2="11.258000" y2="6.500000" transform="matrix(1 0 0 1 599.02599999999995 334.21300000000002)" fill="none" stroke="rgb(0,255,255)" stroke-width="2.359000" stroke-linecap="round" stroke-miterlimit="10"/></g><g id="etko33szq7b52"><line id="etko33szq7b53" x1="0" y1="0" x2="13" y2="0" transform="matrix(1 0 0 1 560 494)" fill="none" stroke="rgb(0,255,255)" stroke-width="2.359000" stroke-linecap="round" stroke-miterlimit="10"/><line id="etko33szq7b54" x1="0" y1="0" x2="13" y2="0" transform="matrix(1 0 0 1 560 488)" fill="none" stroke="rgb(0,255,255)" stroke-width="2.359000" stroke-linecap="round" stroke-miterlimit="10"/><line id="etko33szq7b55" x1="0" y1="0" x2="13" y2="0" transform="matrix(1 0 0 1 560 482)" fill="none" stroke="rgb(0,255,255)" stroke-width="2.359000" stroke-linecap="round" stroke-miterlimit="10"/><line id="etko33szq7b56" x1="0" y1="0" x2="13" y2="0" transform="matrix(1 0 0 1 561 500)" fill="none" stroke="rgb(0,255,255)" stroke-width="2.359000" stroke-linecap="round" stroke-miterlimit="10"/><line id="etko33szq7b57" x1="0" y1="0" x2="13" y2="0" transform="matrix(1 0 0 1 559.81899999999996 476)" fill="none" stroke="rgb(0,255,255)" stroke-width="2.359000" stroke-linecap="round" stroke-miterlimit="10"/></g><g id="etko33szq7b58"><line id="etko33szq7b59" x1="0" y1="6.500000" x2="11.258000" y2="0" transform="matrix(1 0 0 1 604.18299999999999 627.39200000000005)" fill="none" stroke="rgb(0,255,255)" stroke-width="2.359000" stroke-linecap="round" stroke-miterlimit="10"/><line id="etko33szq7b60" x1="0" y1="6.500000" x2="11.258000" y2="0" transform="matrix(1 0 0 1 601.18299999999999 622.19600000000003)" fill="none" stroke="rgb(0,255,255)" stroke-width="2.359000" stroke-linecap="round" stroke-miterlimit="10"/><line id="etko33szq7b61" x1="0" y1="6.500000" x2="11.258000" y2="0" transform="matrix(1 0 0 1 598.18299999999999 617)" fill="none" stroke="rgb(0,255,255)" stroke-width="2.359000" stroke-linecap="round" stroke-miterlimit="10"/><line id="etko33szq7b62" x1="0" y1="6.500000" x2="11.258000" y2="0" transform="matrix(1 0 0 1 608.04899999999998 632.08799999999997)" fill="none" stroke="rgb(0,255,255)" stroke-width="2.359000" stroke-linecap="round" stroke-miterlimit="10"/><line id="etko33szq7b63" x1="0" y1="6.500000" x2="11.258000" y2="0" transform="matrix(1 0 0 1 595.02599999999995 611.89400000000001)" fill="none" stroke="rgb(0,255,255)" stroke-width="2.359000" stroke-linecap="round" stroke-miterlimit="10"/></g><g id="etko33szq7b64"><line id="etko33szq7b65" x1="0" y1="11.258000" x2="6.500000" y2="0" transform="matrix(1 0 0 1 708.89200000000005 718.55899999999997)" fill="none" stroke="rgb(0,255,255)" stroke-width="2.359000" stroke-linecap="round" stroke-miterlimit="10"/><line id="etko33szq7b66" x1="0" y1="11.258000" x2="6.500000" y2="0" transform="matrix(1 0 0 1 703.69600000000003 715.55899999999997)" fill="none" stroke="rgb(0,255,255)" stroke-width="2.359000" stroke-linecap="round" stroke-miterlimit="10"/><line id="etko33szq7b67" x1="0" y1="11.258000" x2="6.500000" y2="0" transform="matrix(1 0 0 1 698.50000000000000 712.55899999999997)" fill="none" stroke="rgb(0,255,255)" stroke-width="2.359000" stroke-linecap="round" stroke-miterlimit="10"/><line id="etko33szq7b68" x1="0" y1="11.258000" x2="6.500000" y2="0" transform="matrix(1 0 0 1 714.58799999999997 720.69299999999998)" fill="none" stroke="rgb(0,255,255)" stroke-width="2.359000" stroke-linecap="round" stroke-miterlimit="10"/><line id="etko33szq7b69" x1="0" y1="11.258000" x2="6.500000" y2="0" transform="matrix(1 0 0 1 693.21299999999997 709.71600000000001)" fill="none" stroke="rgb(0,255,255)" stroke-width="2.359000" stroke-linecap="round" stroke-miterlimit="10"/></g><g id="etko33szq7b70"><line id="etko33szq7b71" x1="0" y1="13" x2="0" y2="0" transform="matrix(1 0 0 1 853 751)" fill="none" stroke="rgb(0,255,255)" stroke-width="2.359000" stroke-linecap="round" stroke-miterlimit="10"/><line id="etko33szq7b72" x1="0" y1="13" x2="0" y2="0" transform="matrix(1 0 0 1 847 751)" fill="none" stroke="rgb(0,255,255)" stroke-width="2.359000" stroke-linecap="round" stroke-miterlimit="10"/><line id="etko33szq7b73" x1="0" y1="13" x2="0" y2="0" transform="matrix(1 0 0 1 841 751)" fill="none" stroke="rgb(0,255,255)" stroke-width="2.359000" stroke-linecap="round" stroke-miterlimit="10"/><line id="etko33szq7b74" x1="0" y1="13" x2="0" y2="0" transform="matrix(1 0 0 1 859 750)" fill="none" stroke="rgb(0,255,255)" stroke-width="2.359000" stroke-linecap="round" stroke-miterlimit="10"/><line id="etko33szq7b75" x1="0" y1="13" x2="0" y2="0" transform="matrix(1 0 0 1 835 751.18100000000004)" fill="none" stroke="rgb(0,255,255)" stroke-width="2.359000" stroke-linecap="round" stroke-miterlimit="10"/></g><g id="etko33szq7b76"><line id="etko33szq7b77" x1="6.500000" y1="11.258000" x2="0" y2="0" transform="matrix(1 0 0 1 985.39200000000005 709.55899999999997)" fill="none" stroke="rgb(0,255,255)" stroke-width="2.359000" stroke-linecap="round" stroke-miterlimit="10"/><line id="etko33szq7b78" x1="6.500000" y1="11.258000" x2="0" y2="0" transform="matrix(1 0 0 1 980.19600000000003 712.55899999999997)" fill="none" stroke="rgb(0,255,255)" stroke-width="2.359000" stroke-linecap="round" stroke-miterlimit="10"/><line id="etko33szq7b79" x1="6.500000" y1="11.258000" x2="0" y2="0" transform="matrix(1 0 0 1 975 715.55899999999997)" fill="none" stroke="rgb(0,255,255)" stroke-width="2.359000" stroke-linecap="round" stroke-miterlimit="10"/><line id="etko33szq7b80" x1="6.500000" y1="11.258000" x2="0" y2="0" transform="matrix(1 0 0 1 990.08799999999997 705.69299999999998)" fill="none" stroke="rgb(0,255,255)" stroke-width="2.359000" stroke-linecap="round" stroke-miterlimit="10"/><line id="etko33szq7b81" x1="6.500000" y1="11.258000" x2="0" y2="0" transform="matrix(1 0 0 1 969.89400000000001 718.71600000000001)" fill="none" stroke="rgb(0,255,255)" stroke-width="2.359000" stroke-linecap="round" stroke-miterlimit="10"/></g><g id="etko33szq7b82"><line id="etko33szq7b83" x1="12.258000" y1="6.500000" x2="0" y2="0" transform="matrix(1 0 0 1 1080.55999999999995 606.60799999999995)" fill="none" stroke="rgb(0,255,255)" stroke-width="2.359000" stroke-linecap="round" stroke-miterlimit="10"/><line id="etko33szq7b84" x1="12.258000" y1="6.500000" x2="0" y2="0" transform="matrix(1 0 0 1 1077.55999999999995 611.80399999999997)" fill="none" stroke="rgb(0,255,255)" stroke-width="2.359000" stroke-linecap="round" stroke-miterlimit="10"/><line id="etko33szq7b85" x1="12.258000" y1="6.500000" x2="0" y2="0" transform="matrix(1 0 0 1 1074.55999999999995 617)" fill="none" stroke="rgb(0,255,255)" stroke-width="2.359000" stroke-linecap="round" stroke-miterlimit="10"/><line id="etko33szq7b86" x1="12.258000" y1="6.500000" x2="0" y2="0" transform="matrix(1 0 0 1 1082.69000000000005 601.91200000000003)" fill="none" stroke="rgb(0,255,255)" stroke-width="2.359000" stroke-linecap="round" stroke-miterlimit="10"/><line id="etko33szq7b87" x1="11.258000" y1="6.500000" x2="0" y2="0" transform="matrix(1 0 0 1 1071.72000000000003 622.28700000000003)" fill="none" stroke="rgb(0,255,255)" stroke-width="2.359000" stroke-linecap="round" stroke-miterlimit="10"/></g><g id="etko33szq7b88"><line id="etko33szq7b89" x1="13" y1="0" x2="0" y2="0" transform="matrix(1 0 0 1 1113 470)" fill="none" stroke="rgb(0,255,255)" stroke-width="2.359000" stroke-linecap="round" stroke-miterlimit="10"/><line id="etko33szq7b90" x1="13" y1="0" x2="0" y2="0" transform="matrix(1 0 0 1 1113 476)" fill="none" stroke="rgb(0,255,255)" stroke-width="2.359000" stroke-linecap="round" stroke-miterlimit="10"/><line id="etko33szq7b91" x1="13" y1="0" x2="0" y2="0" transform="matrix(1 0 0 1 1113 482)" fill="none" stroke="rgb(0,255,255)" stroke-width="2.359000" stroke-linecap="round" stroke-miterlimit="10"/><line id="etko33szq7b92" x1="13" y1="0" x2="0" y2="0" transform="matrix(1 0 0 1 1112 464)" fill="none" stroke="rgb(0,255,255)" stroke-width="2.359000" stroke-linecap="round" stroke-miterlimit="10"/><line id="etko33szq7b93" x1="13" y1="0" x2="0" y2="0" transform="matrix(1 0 0 1 1113.18000000000006 488)" fill="none" stroke="rgb(0,255,255)" stroke-width="2.359000" stroke-linecap="round" stroke-miterlimit="10"/></g><g id="etko33szq7b94"><line id="etko33szq7b95" x1="11.258000" y1="0" x2="0" y2="6.500000" transform="matrix(1 0 0 1 1070.55999999999995 329.10800000000000)" fill="none" stroke="rgb(0,255,255)" stroke-width="2.359000" stroke-linecap="round" stroke-miterlimit="10"/><line id="etko33szq7b96" x1="11.258000" y1="0" x2="0" y2="6.500000" transform="matrix(1 0 0 1 1073.55999999999995 334.30399999999997)" fill="none" stroke="rgb(0,255,255)" stroke-width="2.359000" stroke-linecap="round" stroke-miterlimit="10"/><line id="etko33szq7b97" x1="11.258000" y1="0" x2="0" y2="6.500000" transform="matrix(1 0 0 1 1076.55999999999995 339.50000000000000)" fill="none" stroke="rgb(0,255,255)" stroke-width="2.359000" stroke-linecap="round" stroke-miterlimit="10"/><line id="etko33szq7b98" x1="11.258000" y1="0" x2="0" y2="6.500000" transform="matrix(1 0 0 1 1066.69000000000005 324.41199999999998)" fill="none" stroke="rgb(0,255,255)" stroke-width="2.359000" stroke-linecap="round" stroke-miterlimit="10"/><line id="etko33szq7b99" x1="11.258000" y1="0" x2="0" y2="6.500000" transform="matrix(1 0 0 1 1079.72000000000003 344.60599999999999)" fill="none" stroke="rgb(0,255,255)" stroke-width="2.359000" stroke-linecap="round" stroke-miterlimit="10"/></g><g id="etko33szq7b100"><line id="etko33szq7b101" x1="6.500000" y1="0" x2="0" y2="11.258000" transform="matrix(1 0 0 1 966.60799999999995 229.18299999999999)" fill="none" stroke="rgb(0,255,255)" stroke-width="2.359000" stroke-linecap="round" stroke-miterlimit="10"/><line id="etko33szq7b102" x1="6.500000" y1="0" x2="0" y2="11.258000" transform="matrix(1 0 0 1 971.80399999999997 232.18299999999999)" fill="none" stroke="rgb(0,255,255)" stroke-width="2.359000" stroke-linecap="round" stroke-miterlimit="10"/><line id="etko33szq7b103" x1="6.500000" y1="0" x2="0" y2="11.258000" transform="matrix(1 0 0 1 977 235.18299999999999)" fill="none" stroke="rgb(0,255,255)" stroke-width="2.359000" stroke-linecap="round" stroke-miterlimit="10"/><line id="etko33szq7b104" x1="6.500000" y1="0" x2="0" y2="11.258000" transform="matrix(1 0 0 1 960.91200000000003 227.04900000000001)" fill="none" stroke="rgb(0,255,255)" stroke-width="2.359000" stroke-linecap="round" stroke-miterlimit="10"/><line id="etko33szq7b105" x1="6.500000" y1="0" x2="0" y2="11.258000" transform="matrix(1 0 0 1 982.28700000000003 238.02600000000001)" fill="none" stroke="rgb(0,255,255)" stroke-width="2.359000" stroke-linecap="round" stroke-miterlimit="10"/></g></g></g></g><g id="etko33szq7b106" transform="matrix(1 0 0 1 527.85000000000002 166.84999999999999)"><circle id="etko33szq7b107" r="77" transform="matrix(1 0 0 1 313.64999999999998 311.64999999999998)" fill="none" stroke="rgb(0,255,255)" stroke-width="1.295000" stroke-linecap="round" stroke-miterlimit="10"/></g><circle id="etko33szq7b108" r="313" transform="matrix(1 0 0 1 841.50000000000000 480.50000000000000)" filter="url(#etko33szq7b108-filter)" fill="none" stroke="rgb(0,255,255)" stroke-width="1.299000" stroke-linecap="round" stroke-miterlimit="10"/><g id="etko33szq7b109_tr" transform="translate(841.500000,478.500000) rotate(720)"><circle id="etko33szq7b109" r="45.500000" transform="translate(0,0)" opacity="0.16" filter="url(#etko33szq7b109-filter)" fill="none" stroke="rgb(0,255,255)" stroke-width="9.750000" stroke-linecap="round" stroke-miterlimit="10" stroke-dasharray="81.250000,57.151000"/></g></g></svg>