<svg xmlns="http://www.w3.org/2000/svg" xmlns:xlink="http://www.w3.org/1999/xlink" width="604.4" height="725" viewBox="0 0 604.4 725">
  <defs>
    <filter id="Ellipse_13" x="9" y="683" width="35" height="37" filterUnits="userSpaceOnUse">
      <feOffset input="SourceAlpha"/>
      <feGaussianBlur stdDeviation="3" result="blur"/>
      <feFlood flood-color="#1abaff"/>
      <feComposite operator="in" in2="blur"/>
      <feComposite in="SourceGraphic"/>
    </filter>
    <linearGradient id="linear-gradient" x1="-100%" y1="0" x2="200%" y2="0" >
            <stop offset="0" stop-color="#12F1DF">
               <animate attributeName="offset" values="0;0.2;0.5" dur="1s" repeatCount="indefinite"  />
            </stop>
            <stop offset="1" stop-color="#000">
                <animate attributeName="offset" values="0.5;0.7;0.8;1" dur="1s" repeatCount="indefinite"  />
            </stop>
        </linearGradient>
  </defs>
  <g id="Group_32" data-name="Group 32" transform="translate(-80 -184)">
    <g id="Group_24" data-name="Group 24">
      <path id="Path_27" data-name="Path 27" d="M684.4,1726.606H464.972l-169.631-245.36H104.505" transform="translate(0 -1167)" fill="none" stroke="#58D68D" stroke-width="3"/>
      <path id="Path_28" data-name="Path 28" d="M168.233,1381.227H334.719l233.243,345.379L404.389,2053.753H107.534" transform="translate(0 -1167)" fill="none" stroke="#58D68D " stroke-width="3"/>
      <path id="Path_29" data-name="Path 29" d="M443.768,1974.995H195.379" transform="translate(0 -1167)" fill="none" stroke="#58D68D " stroke-width="3"/>
      <path id="Path_30" data-name="Path 30" d="M477.089,1908.354H289.282" transform="translate(0 -1167)" fill="none" stroke="#58D68D " stroke-width="3"/>
      <path id="Path_31" data-name="Path 31" d="M510.409,1844.742H377.127" transform="translate(0 -1166)" fill="none" stroke="#58D68D " stroke-width="3"/>
    </g>
    <g id="Ellipse_12" data-name="Ellipse 12" transform="translate(129 184)" fill="none" stroke="url(#linear-gradient)" stroke-width="3">
      <ellipse cx="29.5" cy="29" rx="29.5" ry="29" stroke="url(#linear-gradient)" />
      <ellipse cx="29.5" cy="29" rx="28" ry="27.5" fill="none" />
    </g>
    <g id="Group_25" data-name="Group 25">
      <ellipse id="Ellipse_13-2" data-name="Ellipse 13" cx="11" cy="11.5" rx="11" ry="11.5" transform="translate(98 303)" fill="url(#linear-gradient)"/>
      <g id="Ellipse_14" data-name="Ellipse 14" transform="translate(80 285)" fill="none" stroke="#1e87ff" stroke-width="3">
        <ellipse cx="29.5" cy="29" rx="29.5" ry="29" stroke="none"/>
        <ellipse cx="29.5" cy="29" rx="28" ry="27.5" fill="none"/>
      </g>
    </g>
    <g id="Group_26" data-name="Group 26">
      <ellipse id="Ellipse_11" data-name="Ellipse 11" cx="11" cy="11.5" rx="11" ry="11.5" transform="translate(147 202)" fill="url(#linear-gradient)"/>
      <g id="Ellipse_15" data-name="Ellipse 15" transform="translate(129 184)" fill="none" stroke="#1e87ff" stroke-width="3">
        <ellipse cx="29.5" cy="29" rx="29.5" ry="29" stroke="none"/>
        <ellipse cx="29.5" cy="29" rx="28" ry="27.5" fill="none"/>
      </g>
    </g>
    <g id="Group_28" data-name="Group 28" transform="translate(184 432)">
      <ellipse id="Ellipse_13-3" data-name="Ellipse 13" cx="8.5" cy="9.5" rx="8.5" ry="9.5" transform="translate(95 300)" fill="url(#linear-gradient)"/>
      <g id="Ellipse_14-2" data-name="Ellipse 14" transform="translate(80 285)" fill="none" stroke="#1e87ff" stroke-width="3">
        <circle cx="24" cy="24" r="24" stroke="none"/>
        <circle cx="24" cy="24" r="22.5" fill="none"/>
      </g>
    </g>
    <g id="Group_29" data-name="Group 29" transform="translate(266 370)">
      <ellipse id="Ellipse_13-4" data-name="Ellipse 13" cx="8.5" cy="9.5" rx="8.5" ry="9.5" transform="translate(95 300)" fill="url(#linear-gradient)"/>
      <g id="Ellipse_14-3" data-name="Ellipse 14" transform="translate(80 285)" fill="none" stroke="#1e87ff" stroke-width="3">
        <circle cx="24" cy="24" r="24" stroke="none"/>
        <circle cx="24" cy="24" r="22.5" fill="none"/>
      </g>
    </g>
    <g id="Group_30" data-name="Group 30" transform="translate(92 498)">
      <ellipse id="Ellipse_13-5" data-name="Ellipse 13" cx="8.5" cy="9.5" rx="8.5" ry="9.5" transform="translate(95 300)" fill="url(#linear-gradient)"/>
      <g id="Ellipse_14-4" data-name="Ellipse 14" transform="translate(80 285)" fill="none" stroke="#1e87ff" stroke-width="3">
        <circle cx="24" cy="24" r="24" stroke="none"/>
        <circle cx="24" cy="24" r="22.5" fill="none"/>
      </g>
    </g>
    <g id="Group_31" data-name="Group 31" transform="translate(3 576)">
      <g transform="matrix(1, 0, 0, 1, 77, -392)" filter="url(#Ellipse_13)">
        <ellipse id="Ellipse_13-6" data-name="Ellipse 13" cx="8.5" cy="9.5" rx="8.5" ry="9.5" transform="translate(18 692)" fill="url(#linear-gradient)"/>
      </g>
      <g id="Ellipse_14-5" data-name="Ellipse 14" transform="translate(80 285)" fill="none" stroke="#1e87ff" stroke-width="3">
        <circle cx="24" cy="24" r="24" stroke="none"/>
        <circle cx="24" cy="24" r="22.5" fill="none"/>
      </g>
    </g>
  </g>
</svg>
