<svg width="1866" height="1062" viewBox="0 0 1866 1062" fill="none" xmlns="http://www.w3.org/2000/svg">
<g filter="url(#filter0_d)">
<path fill-rule="evenodd" clip-rule="evenodd" d="M1595.05 545.07C1608.26 545.07 1618.97 534.559 1618.97 521.594C1618.97 508.628 1608.26 498.117 1595.05 498.117C1581.84 498.117 1571.13 508.628 1571.13 521.594C1571.13 534.559 1581.84 545.07 1595.05 545.07ZM1595.05 541.94C1606.5 541.94 1615.78 532.831 1615.78 521.594C1615.78 510.357 1606.5 501.247 1595.05 501.247C1583.6 501.247 1574.32 510.357 1574.32 521.594C1574.32 532.831 1583.6 541.94 1595.05 541.94Z" fill="#FF5C00"/>
</g>
<g filter="url(#filter1_d)">
<path fill-rule="evenodd" clip-rule="evenodd" d="M1594.86 491.013L1590.25 483.517C1572.44 485.651 1558.34 499.528 1556.23 517.012L1563.88 521.257L1556.18 525.717C1558.11 543.447 1572.37 557.562 1590.37 559.661L1594.86 552.375L1599 559.737C1617.38 557.922 1632 543.611 1633.91 525.592L1626.42 521.257L1633.86 517.131C1631.77 499.359 1617.29 485.288 1599.12 483.438L1594.86 491.013ZM1595.04 548.427C1610.15 548.427 1622.4 536.408 1622.4 521.582C1622.4 506.756 1610.15 494.737 1595.04 494.737C1579.93 494.737 1567.68 506.756 1567.68 521.582C1567.68 536.408 1579.93 548.427 1595.04 548.427Z" fill="#FF5C00"/>
</g>
<g filter="url(#filter2_d)">
<path fill-rule="evenodd" clip-rule="evenodd" d="M1658.39 580.056C1693.42 545.675 1693.42 489.933 1658.39 455.553C1623.36 421.172 1566.57 421.172 1531.54 455.553C1496.52 489.933 1496.52 545.675 1531.54 580.056C1566.57 614.437 1623.36 614.437 1658.39 580.056ZM1654.8 576.532C1687.84 544.098 1687.84 491.511 1654.8 459.076C1621.76 426.642 1568.18 426.642 1535.13 459.076C1502.09 491.511 1502.09 544.098 1535.13 576.532C1568.18 608.967 1621.76 608.967 1654.8 576.532Z" fill="white"/>
<path d="M1669.67 515.922L1679.82 521.68L1679.83 510.172L1669.67 515.922Z" fill="white"/>
<path d="M1591.99 592.205L1597.86 602.169L1586.13 602.173L1591.99 592.205Z" fill="white"/>
<path d="M1602.44 434.482L1590.72 434.274L1596.4 444.343L1602.44 434.482Z" fill="white"/>
<path d="M1510.43 527.611L1510.22 516.105L1520.48 521.678L1510.43 527.611Z" fill="white"/>
</g>
<path fill-rule="evenodd" clip-rule="evenodd" d="M1534.97 459.144L1531.23 462.816L1541.45 465.505L1534.97 459.144ZM1542.26 464.711L1539.52 454.679L1535.78 458.351L1542.26 464.711Z" fill="white"/>
<path fill-rule="evenodd" clip-rule="evenodd" d="M1647.92 570.568L1650.65 580.601L1654.4 576.929L1647.92 570.568ZM1655.2 576.136L1658.95 572.464L1648.72 569.775L1655.2 576.136Z" fill="white"/>
<path fill-rule="evenodd" clip-rule="evenodd" d="M1647.65 465.281L1658.02 462.281L1654.27 458.778L1647.65 465.281ZM1653.43 457.985L1649.53 454.347L1647.11 464.184L1653.43 457.985Z" fill="white"/>
<path fill-rule="evenodd" clip-rule="evenodd" d="M1541.3 570.478L1535 576.668L1538.39 580.172L1541.3 570.478ZM1534.19 575.834L1540.79 569.349L1530.31 571.836L1534.19 575.834Z" fill="white"/>
<g filter="url(#filter3_d)">
<path fill-rule="evenodd" clip-rule="evenodd" d="M1594.97 620.514C1623.11 620.514 1648.65 609.612 1667.46 591.877L1659.04 583.541C1642.39 599.173 1619.82 608.776 1594.97 608.776C1569.79 608.776 1546.95 598.921 1530.25 582.927L1521.83 591.262C1540.69 609.36 1566.5 620.514 1594.97 620.514ZM1519.72 589.181L1528.14 580.844C1512.13 564.493 1502.28 542.277 1502.28 517.804C1502.28 493.135 1512.29 470.759 1528.53 454.372L1520.11 446.036C1501.68 464.551 1490.32 489.876 1490.32 517.804C1490.32 545.536 1501.52 570.701 1519.72 589.181ZM1699.61 517.804C1699.61 545.854 1688.15 571.278 1669.58 589.814L1661.16 581.478C1677.55 565.07 1687.65 542.595 1687.65 517.804C1687.65 492.817 1677.39 470.183 1660.77 453.742L1669.19 445.406C1687.99 463.975 1699.61 489.558 1699.61 517.804ZM1667.06 443.354C1648.29 425.842 1622.91 415.094 1594.97 415.094C1566.7 415.094 1541.06 426.092 1522.23 443.966L1530.65 452.302C1547.32 436.531 1569.99 426.833 1594.97 426.833C1619.62 426.833 1642.03 436.282 1658.63 451.691L1667.06 443.354Z" fill="white"/>
</g>
<g filter="url(#filter4_df)">
<mask id="path-13-inside-1" fill="white">
<path fill-rule="evenodd" clip-rule="evenodd" d="M1511.19 426.684C1512.28 425.608 1514.16 426.097 1514.56 427.566L1515.17 429.774C1560.37 390.537 1628.8 390.815 1674.24 430.445L1675 427.633C1675.4 426.156 1677.28 425.658 1678.38 426.739L1679.72 428.052C1680.51 428.826 1680.51 430.081 1679.72 430.854L1677.31 433.215C1678.06 433.912 1678.8 434.619 1679.53 435.337C1680.22 436.016 1680.9 436.701 1681.57 437.392L1683.98 435.034C1684.77 434.261 1686.04 434.261 1686.83 435.034L1688.17 436.348C1689.27 437.428 1688.76 439.273 1687.26 439.664L1684.4 440.406C1724.96 485.091 1725.21 552.504 1684.98 596.904L1687.87 597.676C1689.37 598.074 1689.87 599.912 1688.77 600.989L1684.6 605.085C1685.39 604.311 1685.39 603.057 1684.6 602.283L1682.17 599.898C1681.5 600.584 1680.82 601.265 1680.14 601.939C1679.41 602.652 1678.68 603.354 1677.94 604.045L1680.37 606.433C1681.16 607.207 1682.44 607.207 1683.22 606.433L1679.05 610.529C1677.95 611.606 1676.08 611.116 1675.68 609.647L1674.89 606.794C1629.82 646.032 1561.56 645.902 1516.07 606.565L1515.66 608.098C1515.26 609.575 1513.38 610.073 1512.28 608.993L1508.08 604.877C1508.87 605.651 1510.15 605.651 1510.94 604.877L1512.5 603.349C1511.79 602.69 1511.09 602.021 1510.4 601.342C1509.67 600.623 1508.95 599.898 1508.24 599.166L1506.68 600.697C1505.89 601.471 1505.89 602.725 1506.68 603.499L1502.49 599.383C1501.39 598.303 1501.89 596.458 1503.4 596.067L1504.97 595.658C1465.08 551.094 1464.91 484.34 1504.63 440.14L1502.37 439.538C1500.87 439.139 1500.37 437.301 1501.47 436.225L1505.64 432.128C1504.85 432.902 1504.85 434.157 1505.64 434.93L1507.65 436.901C1508.35 436.174 1509.07 435.453 1509.79 434.74C1510.48 434.066 1511.17 433.402 1511.87 432.748L1509.87 430.78C1509.08 430.007 1507.8 430.007 1507.01 430.78L1511.19 426.684ZM1671.62 593.579C1713.65 552.322 1713.41 485.191 1671.07 443.637C1628.74 402.084 1560.34 401.843 1518.31 443.1C1476.28 484.357 1476.52 551.488 1518.86 593.041C1561.19 634.595 1629.59 634.836 1671.62 593.579Z"/>
</mask>
<path fill-rule="evenodd" clip-rule="evenodd" d="M1511.19 426.684C1512.28 425.608 1514.16 426.097 1514.56 427.566L1515.17 429.774C1560.37 390.537 1628.8 390.815 1674.24 430.445L1675 427.633C1675.4 426.156 1677.28 425.658 1678.38 426.739L1679.72 428.052C1680.51 428.826 1680.51 430.081 1679.72 430.854L1677.31 433.215C1678.06 433.912 1678.8 434.619 1679.53 435.337C1680.22 436.016 1680.9 436.701 1681.57 437.392L1683.98 435.034C1684.77 434.261 1686.04 434.261 1686.83 435.034L1688.17 436.348C1689.27 437.428 1688.76 439.273 1687.26 439.664L1684.4 440.406C1724.96 485.091 1725.21 552.504 1684.98 596.904L1687.87 597.676C1689.37 598.074 1689.87 599.912 1688.77 600.989L1684.6 605.085C1685.39 604.311 1685.39 603.057 1684.6 602.283L1682.17 599.898C1681.5 600.584 1680.82 601.265 1680.14 601.939C1679.41 602.652 1678.68 603.354 1677.94 604.045L1680.37 606.433C1681.16 607.207 1682.44 607.207 1683.22 606.433L1679.05 610.529C1677.95 611.606 1676.08 611.116 1675.68 609.647L1674.89 606.794C1629.82 646.032 1561.56 645.902 1516.07 606.565L1515.66 608.098C1515.26 609.575 1513.38 610.073 1512.28 608.993L1508.08 604.877C1508.87 605.651 1510.15 605.651 1510.94 604.877L1512.5 603.349C1511.79 602.69 1511.09 602.021 1510.4 601.342C1509.67 600.623 1508.95 599.898 1508.24 599.166L1506.68 600.697C1505.89 601.471 1505.89 602.725 1506.68 603.499L1502.49 599.383C1501.39 598.303 1501.89 596.458 1503.4 596.067L1504.97 595.658C1465.08 551.094 1464.91 484.34 1504.63 440.14L1502.37 439.538C1500.87 439.139 1500.37 437.301 1501.47 436.225L1505.64 432.128C1504.85 432.902 1504.85 434.157 1505.64 434.93L1507.65 436.901C1508.35 436.174 1509.07 435.453 1509.79 434.74C1510.48 434.066 1511.17 433.402 1511.87 432.748L1509.87 430.78C1509.08 430.007 1507.8 430.007 1507.01 430.78L1511.19 426.684ZM1671.62 593.579C1713.65 552.322 1713.41 485.191 1671.07 443.637C1628.74 402.084 1560.34 401.843 1518.31 443.1C1476.28 484.357 1476.52 551.488 1518.86 593.041C1561.19 634.595 1629.59 634.836 1671.62 593.579Z" fill="white"/>
<path d="M1514.56 427.566L1509.7 428.867L1509.7 428.867L1514.56 427.566ZM1511.19 426.684L1507.63 423.175L1507.63 423.175L1511.19 426.684ZM1515.17 429.774L1510.31 431.074L1512.43 438.765L1518.51 433.491L1515.17 429.774ZM1674.24 430.445L1670.9 434.155L1677.02 439.493L1679.12 431.716L1674.24 430.445ZM1675 427.633L1679.87 428.904L1679.87 428.904L1675 427.633ZM1678.38 426.739L1681.94 423.229L1681.94 423.229L1678.38 426.739ZM1679.72 428.052L1683.28 424.543L1683.28 424.543L1679.72 428.052ZM1679.72 430.854L1676.16 427.345L1676.16 427.345L1679.72 430.854ZM1677.31 433.215L1673.75 429.706L1670.09 433.304L1673.84 436.811L1677.31 433.215ZM1679.53 435.337L1675.97 438.847L1675.97 438.847L1679.53 435.337ZM1681.57 437.392L1677.93 440.818L1681.49 444.481L1685.14 440.902L1681.57 437.392ZM1683.98 435.034L1680.42 431.525L1680.42 431.525L1683.98 435.034ZM1686.83 435.034L1683.27 438.544L1683.27 438.544L1686.83 435.034ZM1688.17 436.348L1684.61 439.857L1684.61 439.857L1688.17 436.348ZM1687.26 439.664L1688.55 444.458L1688.55 444.458L1687.26 439.664ZM1684.4 440.406L1683.12 435.612L1675.17 437.676L1680.64 443.707L1684.4 440.406ZM1684.98 596.904L1681.21 593.606L1675.79 599.594L1683.66 601.69L1684.98 596.904ZM1687.87 597.676L1686.55 602.461L1686.55 602.461L1687.87 597.676ZM1688.77 600.989L1692.33 604.498L1692.33 604.498L1688.77 600.989ZM1684.6 602.283L1688.16 598.774L1688.16 598.774L1684.6 602.283ZM1682.17 599.898L1685.73 596.388L1682.08 592.808L1678.52 596.474L1682.17 599.898ZM1680.14 601.939L1683.7 605.448L1683.7 605.448L1680.14 601.939ZM1677.94 604.045L1674.47 600.448L1670.71 603.955L1674.38 607.554L1677.94 604.045ZM1680.37 606.433L1676.81 609.943L1676.81 609.943L1680.37 606.433ZM1683.22 606.433L1686.79 609.943L1679.66 602.924L1683.22 606.433ZM1679.05 610.529L1675.49 607.02L1675.49 607.02L1679.05 610.529ZM1675.68 609.647L1670.81 610.948L1670.81 610.948L1675.68 609.647ZM1674.89 606.794L1679.75 605.493L1677.62 597.79L1671.55 603.081L1674.89 606.794ZM1516.07 606.565L1519.4 602.841L1513.28 597.553L1511.2 605.294L1516.07 606.565ZM1515.66 608.098L1510.78 606.828L1510.78 606.828L1515.66 608.098ZM1512.28 608.993L1508.72 612.502L1508.72 612.502L1512.28 608.993ZM1510.94 604.877L1514.5 608.386L1514.5 608.386L1510.94 604.877ZM1512.5 603.349L1516.06 606.858L1519.72 603.265L1515.97 599.757L1512.5 603.349ZM1510.4 601.342L1506.84 604.851L1506.84 604.851L1510.4 601.342ZM1508.24 599.166L1511.89 595.745L1508.33 592.072L1504.68 595.657L1508.24 599.166ZM1506.68 600.697L1510.24 604.206L1510.24 604.206L1506.68 600.697ZM1502.49 599.383L1498.93 602.893L1498.93 602.893L1502.49 599.383ZM1503.4 596.067L1504.69 600.861L1504.69 600.861L1503.4 596.067ZM1504.97 595.658L1506.26 600.452L1514.15 598.403L1508.76 592.382L1504.97 595.658ZM1504.63 440.14L1508.4 443.423L1513.78 437.44L1505.94 435.354L1504.63 440.14ZM1502.37 439.538L1503.68 434.752L1503.68 434.752L1502.37 439.538ZM1501.47 436.225L1497.91 432.715L1497.91 432.715L1501.47 436.225ZM1505.64 434.93L1509.2 431.421L1509.2 431.421L1505.64 434.93ZM1507.65 436.901L1504.09 440.41L1507.74 443.996L1511.3 440.32L1507.65 436.901ZM1509.79 434.74L1513.35 438.249L1513.35 438.249L1509.79 434.74ZM1511.87 432.748L1515.35 436.34L1519.1 432.833L1515.43 429.238L1511.87 432.748ZM1509.87 430.78L1506.31 434.29L1506.31 434.29L1509.87 430.78ZM1671.07 443.637L1674.63 440.128L1671.07 443.637ZM1671.62 593.579L1668.06 590.069L1671.62 593.579ZM1518.31 443.1L1514.75 439.591L1514.75 439.591L1518.31 443.1ZM1518.86 593.041L1522.42 589.532L1522.42 589.532L1518.86 593.041ZM1519.43 426.266C1518 421.114 1511.46 419.416 1507.63 423.175L1514.75 430.194C1513.11 431.799 1510.31 431.08 1509.7 428.867L1519.43 426.266ZM1520.04 428.473L1519.43 426.266L1509.7 428.867L1510.31 431.074L1520.04 428.473ZM1677.59 426.735C1630.26 385.462 1558.96 385.145 1511.84 426.056L1518.51 433.491C1561.78 395.93 1627.34 396.169 1670.9 434.155L1677.59 426.735ZM1670.13 426.362L1669.37 429.174L1679.12 431.716L1679.87 428.904L1670.13 426.362ZM1681.94 423.229C1678.1 419.457 1671.52 421.183 1670.13 426.362L1679.87 428.904C1679.27 431.129 1676.46 431.859 1674.82 430.248L1681.94 423.229ZM1683.28 424.543L1681.94 423.229L1674.82 430.248L1676.16 431.562L1683.28 424.543ZM1683.28 434.364C1686.04 431.653 1686.04 427.254 1683.28 424.543L1676.16 431.562C1674.97 430.398 1674.97 428.508 1676.16 427.345L1683.28 434.364ZM1680.87 436.725L1683.28 434.364L1676.16 427.345L1673.75 429.706L1680.87 436.725ZM1683.09 431.828C1682.33 431.08 1681.56 430.344 1680.78 429.619L1673.84 436.811C1674.56 437.479 1675.27 438.157 1675.97 438.847L1683.09 431.828ZM1685.22 433.967C1684.52 433.248 1683.81 432.534 1683.09 431.828L1675.97 438.847C1676.63 439.498 1677.29 440.155 1677.93 440.818L1685.22 433.967ZM1680.42 431.525L1678.01 433.883L1685.14 440.902L1687.54 438.544L1680.42 431.525ZM1690.39 431.525C1687.64 428.819 1683.17 428.82 1680.42 431.525L1687.54 438.544C1686.36 439.702 1684.45 439.702 1683.27 438.544L1690.39 431.525ZM1691.73 432.838L1690.39 431.525L1683.27 438.544L1684.61 439.857L1691.73 432.838ZM1688.55 444.458C1693.8 443.093 1695.59 436.629 1691.73 432.838L1684.61 439.857C1682.95 438.227 1683.72 435.454 1685.97 434.87L1688.55 444.458ZM1685.69 445.199L1688.55 444.458L1685.97 434.87L1683.12 435.612L1685.69 445.199ZM1688.74 600.203C1730.7 553.9 1730.41 483.648 1688.17 437.104L1680.64 443.707C1719.51 486.534 1719.72 551.107 1681.21 593.606L1688.74 600.203ZM1689.19 592.89L1686.29 592.119L1683.66 601.69L1686.55 602.461L1689.19 592.89ZM1692.33 604.498C1696.18 600.721 1694.42 594.282 1689.19 592.89L1686.55 602.461C1684.32 601.866 1683.56 599.103 1685.21 597.479L1692.33 604.498ZM1688.16 608.594L1692.33 604.498L1685.21 597.479L1681.04 601.576L1688.16 608.594ZM1688.16 608.594C1690.92 605.884 1690.92 601.484 1688.16 598.774L1681.04 605.792C1679.85 604.629 1679.85 602.739 1681.04 601.576L1688.16 608.594ZM1688.16 598.774L1685.73 596.388L1678.61 603.407L1681.04 605.792L1688.16 598.774ZM1683.7 605.448C1684.41 604.746 1685.12 604.037 1685.81 603.322L1678.52 596.474C1677.88 597.131 1677.23 597.783 1676.58 598.429L1683.7 605.448ZM1681.41 607.642C1682.18 606.922 1682.94 606.191 1683.7 605.448L1676.58 598.429C1675.88 599.113 1675.18 599.786 1674.47 600.448L1681.41 607.642ZM1674.38 607.554L1676.81 609.943L1683.93 602.924L1681.5 600.536L1674.38 607.554ZM1676.81 609.943C1679.56 612.648 1684.03 612.648 1686.79 609.943L1679.66 602.924C1680.84 601.766 1682.75 601.766 1683.93 602.924L1676.81 609.943ZM1682.61 614.039L1686.79 609.943L1679.66 602.924L1675.49 607.02L1682.61 614.039ZM1670.81 610.948C1672.23 616.1 1678.78 617.798 1682.61 614.039L1675.49 607.02C1677.13 605.414 1679.93 606.133 1680.54 608.347L1670.81 610.948ZM1670.02 608.094L1670.81 610.948L1680.54 608.347L1679.75 605.493L1670.02 608.094ZM1512.74 610.288C1560.11 651.257 1631.23 651.42 1678.23 610.506L1671.55 603.081C1628.4 640.644 1563 640.547 1519.4 602.841L1512.74 610.288ZM1520.53 609.369L1520.94 607.835L1511.2 605.294L1510.78 606.828L1520.53 609.369ZM1508.72 612.502C1512.56 616.274 1519.13 614.548 1520.53 609.369L1510.78 606.828C1511.38 604.602 1514.2 603.872 1515.84 605.483L1508.72 612.502ZM1504.52 608.386L1508.72 612.502L1515.84 605.483L1511.65 601.367L1504.52 608.386ZM1507.38 601.367C1508.56 600.21 1510.47 600.21 1511.65 601.367L1504.52 608.386C1507.28 611.092 1511.74 611.092 1514.5 608.386L1507.38 601.367ZM1508.93 599.839L1507.38 601.367L1514.5 608.386L1516.06 606.858L1508.93 599.839ZM1506.84 604.851C1507.56 605.558 1508.29 606.254 1509.02 606.94L1515.97 599.757C1515.3 599.125 1514.63 598.484 1513.96 597.832L1506.84 604.851ZM1504.59 602.587C1505.33 603.348 1506.08 604.103 1506.84 604.851L1513.96 597.832C1513.26 597.143 1512.57 596.447 1511.89 595.745L1504.59 602.587ZM1510.24 604.206L1511.8 602.675L1504.68 595.657L1503.12 597.188L1510.24 604.206ZM1510.24 599.989C1511.43 601.153 1511.43 603.043 1510.24 604.206L1503.12 597.188C1500.36 599.898 1500.36 604.297 1503.12 607.008L1510.24 599.989ZM1498.93 602.893L1503.12 607.008L1510.24 599.989L1506.05 595.874L1498.93 602.893ZM1502.11 591.273C1496.85 592.639 1495.06 599.102 1498.93 602.893L1506.05 595.874C1507.71 597.504 1506.93 600.277 1504.69 600.861L1502.11 591.273ZM1503.68 590.864L1502.11 591.273L1504.69 600.861L1506.26 600.452L1503.68 590.864ZM1500.85 436.856C1459.43 482.951 1459.63 552.517 1501.19 598.935L1508.76 592.382C1470.52 549.672 1470.39 485.73 1508.4 443.423L1500.85 436.856ZM1501.05 444.324L1503.31 444.925L1505.94 435.354L1503.68 434.752L1501.05 444.324ZM1497.91 432.715C1494.06 436.492 1495.82 442.931 1501.05 444.324L1503.68 434.752C1505.92 435.347 1506.68 438.11 1505.03 439.734L1497.91 432.715ZM1502.08 428.619L1497.91 432.715L1505.03 439.734L1509.2 435.638L1502.08 428.619ZM1509.2 431.421C1510.39 432.584 1510.39 434.475 1509.2 435.638L1502.08 428.619C1499.32 431.33 1499.32 435.729 1502.08 438.44L1509.2 431.421ZM1511.21 433.391L1509.2 431.421L1502.08 438.44L1504.09 440.41L1511.21 433.391ZM1506.23 431.231C1505.48 431.974 1504.73 432.724 1504 433.481L1511.3 440.32C1511.97 439.623 1512.66 438.933 1513.35 438.249L1506.23 431.231ZM1508.4 429.155C1507.67 429.837 1506.95 430.528 1506.23 431.231L1513.35 438.249C1514.01 437.603 1514.68 436.967 1515.35 436.34L1508.4 429.155ZM1506.31 434.29L1508.31 436.257L1515.43 429.238L1513.43 427.271L1506.31 434.29ZM1510.57 434.29C1509.4 435.448 1507.49 435.448 1506.31 434.29L1513.43 427.271C1510.67 424.566 1506.21 424.566 1503.45 427.271L1510.57 434.29ZM1507.63 423.175L1503.45 427.271L1510.58 434.29L1514.75 430.194L1507.63 423.175ZM1667.51 447.147C1707.9 486.787 1708.09 550.773 1668.06 590.069L1675.18 597.088C1719.21 553.871 1718.92 483.595 1674.63 440.128L1667.51 447.147ZM1521.87 446.609C1561.91 407.308 1627.12 407.501 1667.51 447.147L1674.63 440.128C1630.35 396.666 1558.77 396.379 1514.75 439.591L1521.87 446.609ZM1522.42 589.532C1482.03 549.892 1481.84 485.905 1521.87 446.609L1514.75 439.591C1470.72 482.808 1471.01 553.084 1515.3 596.551L1522.42 589.532ZM1668.06 590.069C1628.02 629.371 1562.81 629.178 1522.42 589.532L1515.3 596.551C1559.58 640.012 1631.16 640.3 1675.18 597.088L1668.06 590.069Z" fill="#03DBE9" mask="url(#path-13-inside-1)"/>
</g>
<g filter="url(#filter5_d)">
<path fill-rule="evenodd" clip-rule="evenodd" d="M1567.47 383.141L1571.04 385.043C1509.67 396.57 1463.17 451.574 1463.17 517.688C1463.17 582.603 1508 636.805 1567.72 649.663L1564.25 651.507C1504.88 637.283 1460.66 582.768 1460.66 517.688C1460.66 451.437 1506.48 396.135 1567.47 383.141ZM1626.17 651.408C1685.34 637.031 1729.35 582.618 1729.35 517.688C1729.35 451.592 1683.74 396.393 1622.96 383.232L1619.4 385.127C1680.56 396.834 1726.84 451.732 1726.84 517.688C1726.84 582.449 1682.22 636.548 1622.72 649.571L1626.17 651.408Z" fill="#ED0F0F"/>
</g>
<g filter="url(#filter6_d)">
<path fill-rule="evenodd" clip-rule="evenodd" d="M1492.76 621.166C1480.52 608.641 1470.84 594.506 1463.74 579.462L1465.75 577.401C1472.76 592.502 1482.4 606.688 1494.66 619.228C1504.06 628.853 1514.42 636.899 1525.4 643.362L1523.44 645.371C1512.49 638.852 1502.16 630.782 1492.76 621.166ZM1719.08 445.226C1712.71 434.027 1704.82 423.461 1695.42 413.844C1683.18 401.32 1669.36 391.419 1654.65 384.151L1652.64 386.211C1667.4 393.382 1681.27 403.241 1693.53 415.782C1702.94 425.407 1710.8 436.001 1717.12 447.235L1719.08 445.226Z" fill="#03DBE9"/>
</g>
<ellipse cx="1598.29" cy="382.835" rx="4.47817" ry="4.5812" fill="#C4C4C4"/>
<ellipse cx="1594.71" cy="650.988" rx="4.47817" ry="4.5812" fill="#C4C4C4"/>
<g filter="url(#filter7_f)">
<ellipse cx="1595.41" cy="350.408" rx="3.01151" ry="3.27738" fill="white"/>
<ellipse cx="1595.41" cy="684.701" rx="3.01151" ry="3.27738" fill="white"/>
<ellipse rx="3.01987" ry="3.26968" transform="matrix(0.982082 -0.188455 0.159938 0.987127 1568.74 352.948)" fill="white"/>
<ellipse rx="3.01987" ry="3.26968" transform="matrix(0.982082 -0.188455 0.159938 0.987127 1622.08 682.161)" fill="white"/>
<ellipse rx="3.2474" ry="3.04381" transform="matrix(0.317176 -0.948367 0.929721 0.368265 1451.08 460.387)" fill="white"/>
<ellipse rx="3.2474" ry="3.04381" transform="matrix(0.317176 -0.948367 0.929721 0.368265 1739.73 574.722)" fill="white"/>
<ellipse rx="3.26968" ry="3.01987" transform="matrix(0.159938 -0.987127 0.982082 0.188455 1444.15 488.53)" fill="white"/>
<ellipse rx="3.26968" ry="3.01987" transform="matrix(0.159938 -0.987127 0.982082 0.188455 1746.66 546.579)" fill="white"/>
<ellipse cx="1441.82" cy="517.555" rx="3.27738" ry="3.01151" transform="rotate(-90 1441.82 517.555)" fill="white"/>
<ellipse cx="1748.99" cy="517.555" rx="3.27738" ry="3.01151" transform="rotate(-90 1748.99 517.555)" fill="white"/>
<ellipse rx="3.26968" ry="3.01987" transform="matrix(-0.159938 -0.987127 0.982082 -0.188455 1444.15 546.579)" fill="white"/>
<ellipse rx="3.26968" ry="3.01987" transform="matrix(-0.159938 -0.987127 0.982082 -0.188455 1746.66 488.53)" fill="white"/>
<ellipse rx="3.2474" ry="3.04381" transform="matrix(-0.317176 -0.948367 0.929721 -0.368265 1451.08 574.722)" fill="white"/>
<ellipse rx="3.2474" ry="3.04381" transform="matrix(-0.317176 -0.948367 0.929721 -0.368265 1739.73 460.387)" fill="white"/>
<ellipse rx="3.24145" ry="3.05015" transform="matrix(-0.464532 -0.875624 0.855055 -0.537248 1462.4 601.128)" fill="white"/>
<ellipse rx="3.24145" ry="3.05015" transform="matrix(-0.464532 -0.875624 0.855055 -0.537248 1728.42 433.981)" fill="white"/>
<ellipse rx="3.22425" ry="3.06833" transform="matrix(-0.600376 -0.778667 0.75186 -0.686582 1477.75 624.994)" fill="white"/>
<ellipse rx="3.22425" ry="3.06833" transform="matrix(-0.600376 -0.778667 0.75186 -0.686582 1713.06 410.115)" fill="white"/>
<ellipse rx="3.19772" ry="3.09597" transform="matrix(-0.721437 -0.6588 0.625254 -0.810931 1496.68 645.596)" fill="white"/>
<ellipse rx="3.19772" ry="3.09597" transform="matrix(-0.721437 -0.6588 0.625254 -0.810931 1694.13 389.513)" fill="white"/>
<ellipse rx="3.16487" ry="3.12954" transform="matrix(-0.824061 -0.517774 0.481144 -0.906936 1518.61 662.308)" fill="white"/>
<ellipse rx="3.16487" ry="3.12954" transform="matrix(-0.824061 -0.517774 0.481144 -0.906936 1672.2 372.802)" fill="white"/>
<ellipse rx="3.12954" ry="3.16487" transform="matrix(-0.904254 -0.358177 0.325447 -0.973097 1542.88 675.276)" fill="white"/>
<ellipse rx="3.12954" ry="3.16487" transform="matrix(-0.904254 -0.358177 0.325447 -0.973097 1647.94 361.144)" fill="white"/>
<ellipse rx="3.09597" ry="3.19772" transform="matrix(-0.957944 -0.183823 0.163536 -1.00934 1568.74 682.817)" fill="white"/>
<ellipse rx="3.09597" ry="3.19772" transform="matrix(-0.957944 -0.183823 0.163537 -1.00934 1622.08 353.603)" fill="white"/>
<ellipse rx="3.04381" ry="3.2474" transform="matrix(0.929721 -0.368265 0.317176 0.948367 1542.88 360.488)" fill="white"/>
<ellipse rx="3.04381" ry="3.2474" transform="matrix(0.929721 -0.368265 0.317176 0.948367 1647.94 674.621)" fill="white"/>
<ellipse rx="3.08013" ry="3.21297" transform="matrix(0.846732 -0.532019 0.468649 0.883384 1518.61 372.802)" fill="white"/>
<ellipse rx="3.08013" ry="3.21297" transform="matrix(0.846732 -0.532019 0.468649 0.883384 1672.2 662.308)" fill="white"/>
<ellipse rx="3.12411" ry="3.17023" transform="matrix(0.738436 -0.674323 0.610606 0.791934 1496.68 390.169)" fill="white"/>
<ellipse rx="3.12411" ry="3.17023" transform="matrix(0.738436 -0.674323 0.610606 0.791934 1694.13 646.252)" fill="white"/>
<ellipse rx="3.17023" ry="3.12411" transform="matrix(0.610606 -0.791934 0.738436 0.674323 1477.75 410.771)" fill="white"/>
<ellipse rx="3.17023" ry="3.12411" transform="matrix(0.610606 -0.791934 0.738436 0.674323 1713.06 625.65)" fill="white"/>
<ellipse rx="3.21297" ry="3.08013" transform="matrix(0.468649 -0.883384 0.846732 0.532019 1462.4 434.637)" fill="white"/>
<ellipse rx="3.21297" ry="3.08013" transform="matrix(0.468649 -0.883384 0.846732 0.532019 1728.42 601.783)" fill="white"/>
</g>
<path fill-rule="evenodd" clip-rule="evenodd" d="M1595 594.487C1636.22 594.487 1669.64 560.302 1669.64 518.133C1669.64 475.965 1636.22 441.78 1595 441.78C1553.78 441.78 1520.37 475.965 1520.37 518.133C1520.37 560.302 1553.78 594.487 1595 594.487ZM1595 591.55C1634.64 591.55 1666.77 558.68 1666.77 518.133C1666.77 477.587 1634.64 444.717 1595 444.717C1555.37 444.717 1523.24 477.587 1523.24 518.133C1523.24 558.68 1555.37 591.55 1595 591.55Z" fill="#FFFEFE"/>
<g filter="url(#filter8_d)">
<path fill-rule="evenodd" clip-rule="evenodd" d="M1569.38 576.063L1568.22 572.811C1556.32 566.212 1546.64 555.309 1541.65 541.275C1536.66 527.242 1537.22 512.526 1542.19 499.648L1541.03 496.396C1534.98 510.34 1533.99 526.609 1539.49 542.079C1545 557.549 1555.98 569.363 1569.38 576.063ZM1575.14 463.803L1575.22 463.774C1575.21 463.779 1575.19 463.784 1575.18 463.789C1575.17 463.794 1575.15 463.799 1575.14 463.803ZM1651.71 500.296C1657 515.162 1656.29 530.766 1650.86 544.335L1649.66 540.971C1654.02 528.521 1654.32 514.499 1649.55 501.1C1644.78 487.7 1635.75 477.154 1624.58 470.484L1623.39 467.12C1636.08 473.941 1646.42 485.43 1651.71 500.296Z" fill="#FF7A00"/>
</g>
<rect width="26.1085" height="1.24326" transform="matrix(0.673884 -0.738713 0.673884 0.738713 1287.23 525.482)" fill="white"/>
<rect width="26.1085" height="1.24326" transform="matrix(-0.673884 -0.738713 0.673884 -0.738713 1306.92 564.515)" fill="white"/>
<rect width="26.1085" height="1.24326" transform="matrix(-0.673884 0.738713 0.673884 0.738713 1600.15 823.507)" fill="white"/>
<rect width="26.1085" height="1.24326" transform="matrix(-0.673884 -0.738713 -0.673884 0.738713 1562.87 844.171)" fill="white"/>
<rect width="26.1085" height="1.24326" transform="matrix(0.673884 -0.738713 -0.673884 -0.738713 1543.18 246.744)" fill="white"/>
<rect width="26.1085" height="1.24326" transform="matrix(0.673884 0.738713 0.673884 -0.738713 1580.46 226.079)" fill="white"/>
<rect width="143.597" height="3.10815" transform="matrix(0.673884 -0.738713 0.673884 0.738713 1314.46 493.797)" fill="white"/>
<rect width="143.597" height="3.10815" transform="matrix(-0.673884 -0.738713 0.673884 -0.738713 1410.81 680.235)" fill="white"/>
<rect width="143.597" height="3.10815" transform="matrix(-0.673884 -0.738713 0.673884 -0.738713 1702.78 360.168)" fill="#474545"/>
<rect width="143.597" height="3.10815" transform="matrix(-0.673884 -0.738713 0.673884 -0.738713 1528.94 810.649)" fill="#474545"/>
<rect width="143.597" height="3.10815" transform="matrix(0.673884 -0.738713 0.673884 0.738713 1606.44 813.864)" fill="#474545"/>
<rect width="143.597" height="3.10815" transform="matrix(0.673884 -0.738713 0.673884 0.738713 1433.43 363.382)" fill="#474545"/>
<path fill-rule="evenodd" clip-rule="evenodd" d="M1760.28 646.058L1725.82 683.908L1727.92 686.207L1760.28 650.655V646.058Z" fill="white"/>
<path fill-rule="evenodd" clip-rule="evenodd" d="M1725.82 376.7L1760.28 414.55L1758.19 416.848L1725.82 381.297V376.7Z" fill="white"/>
<rect x="1556.9" y="938.331" width="45.2742" height="4.96296" fill="#C4C4C4"/>
<rect x="1554.18" y="95.6203" width="45.2742" height="4.96296" fill="#C4C4C4"/>
<rect x="1573.19" y="133.339" width="6.33838" height="39.7037" fill="white"/>
<rect x="1576.82" y="859.917" width="6.33838" height="39.7037" fill="white"/>
<rect width="2.85011" height="285.011" transform="matrix(0.673946 -0.738781 0.673946 0.738781 1303.36 224.367)" fill="#C4C4C4"/>
<rect width="2.85011" height="285.011" transform="matrix(-0.673946 -0.738781 -0.673946 0.738781 1496.46 612.47)" fill="#C4C4C4"/>
<rect width="52.252" height="2.85011" transform="matrix(0.673946 -0.738781 0.673946 0.738781 1286.16 239.438)" fill="#C4C4C4"/>
<rect width="52.252" height="2.85011" transform="matrix(-0.673946 -0.738781 -0.673946 0.738781 1322.39 842.934)" fill="#C4C4C4"/>
<rect width="456.059" height="11.4015" transform="matrix(0.673221 -0.739441 0.673221 0.739441 1093.29 337.229)" fill="#C4C4C4"/>
<rect width="456.018" height="11.4004" transform="matrix(-0.673946 -0.738781 -0.673946 0.738781 1408.3 1052.89)" fill="#C4C4C4"/>
<g opacity="0.6" filter="url(#filter9_d)">
<rect x="1093.29" y="384.465" width="0.905483" height="281.896" fill="#03DBE9"/>
</g>
<g opacity="0.6" filter="url(#filter10_d)">
<rect x="1118.64" y="356.672" width="1.81097" height="347.407" fill="#03DBE9"/>
</g>
<rect width="408.516" height="4.75019" transform="matrix(0.673946 -0.738781 0.673946 0.738781 1212.81 451.024)" fill="#474545"/>
<rect width="408.516" height="4.75019" transform="matrix(-0.673946 -0.738781 -0.673946 0.738781 1491.33 886.772)" fill="#474545"/>
<g filter="url(#filter11_d)">
<ellipse cx="1517.51" cy="46.487" rx="2.26371" ry="2.48148" fill="#03DBE9"/>
<ellipse cx="1534.71" cy="46.487" rx="2.26371" ry="2.48148" fill="#03DBE9"/>
<ellipse cx="1554.63" cy="46.487" rx="2.26371" ry="2.48148" fill="#03DBE9"/>
<ellipse cx="1573.65" cy="46.487" rx="2.26371" ry="2.48148" fill="#03DBE9"/>
<ellipse cx="1596.28" cy="46.487" rx="2.26371" ry="2.48148" fill="#03DBE9"/>
<ellipse cx="1614.39" cy="46.487" rx="2.26371" ry="2.48148" fill="#03DBE9"/>
<ellipse cx="1632.5" cy="46.487" rx="2.26371" ry="2.48148" fill="#03DBE9"/>
</g>
<g filter="url(#filter12_d)">
<ellipse cx="1517.51" cy="1017.24" rx="2.26371" ry="2.48148" fill="#03DBE9"/>
<ellipse cx="1534.71" cy="1017.24" rx="2.26371" ry="2.48148" fill="#03DBE9"/>
<ellipse cx="1554.63" cy="1017.24" rx="2.26371" ry="2.48148" fill="#03DBE9"/>
<ellipse cx="1573.65" cy="1017.24" rx="2.26371" ry="2.48148" fill="#03DBE9"/>
<ellipse cx="1596.28" cy="1017.24" rx="2.26371" ry="2.48148" fill="#03DBE9"/>
<ellipse cx="1614.39" cy="1017.24" rx="2.26371" ry="2.48148" fill="#03DBE9"/>
<ellipse cx="1632.5" cy="1017.24" rx="2.26371" ry="2.48148" fill="#03DBE9"/>
</g>
<g filter="url(#filter13_d)">
<rect x="1169.35" y="517.472" width="90.5483" height="9.92593" fill="#FFFBFB"/>
</g>
<path d="M1 474.71C1.01544 467.123 1.67207 459.582 2.9481 452.338C4.19768 445.009 6.11944 438.094 8.63654 431.868C11.0598 425.843 14.1317 420.724 17.6757 416.806C21.2789 412.872 25.4426 410.842 29.676 410.957H120.535C121.532 410.934 122.521 411.287 123.434 411.993C124.348 412.699 125.166 413.742 125.834 415.052C127.276 417.725 128.061 421.3 128.016 424.995C128.061 428.69 127.276 432.265 125.834 434.938C125.166 436.248 124.348 437.291 123.434 437.997C122.521 438.703 121.532 439.056 120.535 439.033H32.9488C29.8791 438.786 26.8309 440.051 24.1434 442.688C22.0253 444.929 20.2154 447.975 18.8446 451.607C17.5458 455.116 16.6459 459.04 16.1952 463.158C15.7508 466.96 15.5159 470.829 15.4938 474.71C15.5159 478.592 15.7508 482.461 16.1952 486.262C16.6459 490.381 17.5458 494.304 18.8446 497.814C20.2154 501.445 22.0253 504.492 24.1434 506.733C26.8309 509.37 29.8791 510.635 32.9488 510.388H120.535C121.532 510.365 122.521 510.718 123.434 511.424C124.348 512.13 125.166 513.173 125.834 514.483C127.276 517.155 128.061 520.731 128.016 524.426C128.061 528.12 127.276 531.696 125.834 534.369C125.166 535.679 124.348 536.721 123.434 537.427C122.521 538.133 121.532 538.487 120.535 538.463H28.1175C24.0795 538.578 20.1154 536.54 16.7406 532.615C13.3732 528.64 10.486 523.52 8.24692 517.553C5.85863 511.219 4.04448 504.263 2.87017 496.937C1.65572 489.722 1.02605 482.238 1 474.71V474.71ZM238.512 510.388C241.555 510.601 244.573 509.337 247.24 506.733C249.391 504.52 251.23 501.47 252.616 497.814C253.915 494.304 254.815 490.381 255.266 486.262C255.71 482.461 255.945 478.592 255.967 474.71C255.945 470.829 255.71 466.96 255.266 463.158C254.815 459.04 253.915 455.116 252.616 451.607C251.23 447.95 249.391 444.9 247.24 442.688C244.573 440.083 241.555 438.819 238.512 439.033H175.55C172.48 438.786 169.432 440.051 166.744 442.688C164.626 444.929 162.816 447.975 161.445 451.607C160.147 455.116 159.247 459.04 158.796 463.158C158.352 466.96 158.117 470.829 158.095 474.71C158.117 478.592 158.352 482.461 158.796 486.262C159.247 490.381 160.147 494.304 161.445 497.814C162.816 501.445 164.626 504.492 166.744 506.733C169.432 509.37 172.48 510.635 175.55 510.388H238.512ZM270.461 474.71C270.445 482.298 269.789 489.838 268.513 497.082C267.263 504.411 265.341 511.327 262.824 517.553C260.401 523.578 257.329 528.696 253.785 532.615C250.182 536.549 246.018 538.578 241.785 538.463H170.718C166.654 538.187 162.714 535.908 159.341 531.883C155.999 527.855 153.117 522.744 150.848 516.821C148.471 510.633 146.657 503.824 145.471 496.643C144.249 489.531 143.619 482.143 143.601 474.71C143.616 467.123 144.273 459.582 145.549 452.338C146.798 445.009 148.72 438.094 151.237 431.868C153.661 425.843 156.732 420.724 160.276 416.806C163.88 412.872 168.043 410.842 172.277 410.957H243.343C247.408 411.234 251.348 413.513 254.72 417.538C258.063 421.566 260.945 426.676 263.214 432.599C265.591 438.79 267.405 445.601 268.591 452.785C269.812 459.894 270.442 467.28 270.461 474.71V474.71ZM306.773 488.748C303.977 488.791 301.21 487.743 298.669 485.677C296.205 483.668 293.983 480.839 292.124 477.343C290.229 473.766 288.723 469.602 287.682 465.06C286.574 460.228 286.018 455.057 286.046 449.843C286.019 444.633 286.575 439.465 287.682 434.637C288.723 430.094 290.229 425.93 292.124 422.353C293.984 418.861 296.206 416.034 298.669 414.028C301.21 411.963 303.977 410.914 306.773 410.957H401.373C402.37 410.934 403.358 411.287 404.272 411.993C405.186 412.699 406.004 413.742 406.672 415.052C408.114 417.725 408.899 421.3 408.854 424.995C408.899 428.69 408.114 432.265 406.672 434.938C406.004 436.248 405.186 437.291 404.272 437.997C403.358 438.703 402.37 439.056 401.373 439.033H306.462C305.692 439.031 304.931 439.302 304.221 439.829C303.512 440.356 302.87 441.129 302.332 442.103C301.745 443.101 301.282 444.305 300.973 445.638C300.664 446.971 300.517 448.403 300.539 449.843C300.532 451.26 300.687 452.664 300.995 453.971C301.303 455.278 301.758 456.461 302.332 457.448C302.858 458.459 303.496 459.266 304.207 459.82C304.918 460.373 305.685 460.661 306.462 460.665H392.646C395.466 460.632 398.257 461.679 400.828 463.736C403.323 465.72 405.573 468.551 407.451 472.07C409.359 475.684 410.865 479.9 411.893 484.499C412.995 489.381 413.551 494.596 413.529 499.853C413.556 505.063 413 510.232 411.893 515.06C410.851 519.603 409.346 523.767 407.451 527.343C405.584 530.849 403.33 533.636 400.828 535.533C398.244 537.498 395.458 538.496 392.646 538.463H298.202C297.205 538.487 296.216 538.133 295.303 537.427C294.389 536.721 293.571 535.679 292.903 534.369C291.461 531.696 290.676 528.12 290.721 524.426C290.676 520.731 291.461 517.155 292.903 514.483C293.571 513.173 294.389 512.13 295.303 511.424C296.216 510.718 297.205 510.365 298.202 510.388H393.269C394.027 510.398 394.779 510.13 395.476 509.602C396.173 509.073 396.801 508.296 397.321 507.318C397.878 506.344 398.317 505.18 398.612 503.897C398.906 502.614 399.05 501.238 399.035 499.853C399.077 496.923 398.46 494.083 397.321 491.956C396.813 490.941 396.19 490.129 395.491 489.575C394.792 489.02 394.035 488.735 393.269 488.739L306.773 488.748ZM560.649 524.426C560.694 528.12 559.91 531.696 558.468 534.369C557.8 535.679 556.982 536.721 556.068 537.427C555.154 538.133 554.166 538.487 553.169 538.463C552.172 538.487 551.184 538.133 550.27 537.427C549.356 536.721 548.538 535.679 547.87 534.369C546.428 531.696 545.643 528.12 545.688 524.426V460.673C545.688 452.68 545.428 448.683 544.909 448.683C544.493 448.683 543.039 451.316 540.545 456.58L506.259 529.691C504.931 532.584 503.217 534.845 501.271 536.27C499.246 537.75 497.073 538.496 494.882 538.463C492.69 538.496 490.518 537.75 488.492 536.27C486.546 534.845 484.832 532.583 483.505 529.689L449.218 456.578C446.829 451.314 445.374 448.681 444.855 448.681C444.335 448.681 444.075 452.678 444.075 460.671V524.424C444.12 528.118 443.336 531.694 441.893 534.367C441.226 535.677 440.407 536.72 439.494 537.427C438.58 538.133 437.592 538.486 436.595 538.463C435.598 538.487 434.609 538.133 433.696 537.427C432.782 536.721 431.964 535.679 431.296 534.369C429.854 531.696 429.069 528.12 429.114 524.426V439.033C428.996 431.873 430.26 424.856 432.698 419.139C433.842 416.477 435.331 414.342 437.041 412.916C438.75 411.49 440.629 410.816 442.517 410.95C444.9 410.892 447.237 412.116 449.218 414.46C451.234 416.864 453.067 419.714 454.673 422.941L490.518 499.562C491.122 500.672 491.774 501.698 492.466 502.633C493.145 503.639 493.997 504.207 494.882 504.242C495.767 504.207 496.619 503.639 497.297 502.633C497.99 501.698 498.641 500.672 499.245 499.562L534.935 422.947H535.09C536.47 419.367 538.279 416.371 540.389 414.173C542.47 412.027 544.839 410.915 547.247 410.956C549.134 410.821 551.013 411.494 552.722 412.919C554.432 414.344 555.921 416.478 557.065 419.139C559.502 424.854 560.767 431.868 560.649 439.025V524.426ZM671.146 510.388C674.189 510.601 677.207 509.337 679.873 506.733C682.024 504.52 683.863 501.47 685.25 497.814C686.549 494.304 687.448 490.381 687.899 486.262C688.344 482.461 688.578 478.592 688.601 474.71C688.578 470.829 688.344 466.96 687.899 463.158C687.448 459.04 686.549 455.116 685.25 451.607C683.863 447.95 682.024 444.9 679.873 442.688C677.207 440.083 674.189 438.819 671.146 439.033H608.183C605.113 438.786 602.065 440.051 599.378 442.688C597.26 444.929 595.45 447.975 594.079 451.607C592.78 455.116 591.88 459.04 591.429 463.158C590.985 466.96 590.75 470.829 590.728 474.71C590.75 478.592 590.985 482.461 591.429 486.262C591.88 490.381 592.78 494.304 594.079 497.814C595.45 501.445 597.26 504.492 599.378 506.733C602.065 509.37 605.113 510.635 608.183 510.388H671.146ZM703.094 474.71C703.079 482.298 702.422 489.838 701.146 497.082C699.897 504.411 697.975 511.327 695.458 517.553C693.035 523.578 689.963 528.696 686.419 532.615C682.816 536.549 678.652 538.578 674.418 538.463H603.352C599.287 538.187 595.347 535.908 591.975 531.883C588.632 527.855 585.751 522.744 583.481 516.821C581.105 510.633 579.291 503.824 578.104 496.643C576.883 489.531 576.253 482.143 576.234 474.71C576.25 467.123 576.906 459.582 578.182 452.338C579.432 445.009 581.354 438.094 583.871 431.868C586.294 425.843 589.366 420.724 592.91 416.806C596.513 412.872 600.677 410.842 604.91 410.957H675.977C680.041 411.234 683.982 413.513 687.354 417.538C690.696 421.566 693.578 426.676 695.847 432.599C698.224 438.79 700.038 445.601 701.224 452.785C702.445 459.894 703.075 467.28 703.094 474.71V474.71ZM759.823 474.71C759.778 471.016 760.563 467.44 762.005 464.767C762.673 463.457 763.491 462.415 764.405 461.709C765.318 461.002 766.307 460.649 767.304 460.673H826.993C829.52 460.646 832.02 461.594 834.318 463.451C836.579 465.271 838.617 467.854 840.318 471.055C842.059 474.348 843.411 478.224 844.293 482.454C845.234 486.9 845.709 491.612 845.695 496.36V502.795C845.708 507.537 845.233 512.244 844.293 516.685C843.411 520.916 842.059 524.792 840.318 528.084C838.617 531.285 836.579 533.869 834.318 535.689C832.02 537.545 829.52 538.491 826.993 538.463H745.797C741.759 538.578 737.795 536.54 734.42 532.615C731.052 528.64 728.165 523.52 725.926 517.553C723.538 511.218 721.724 504.262 720.549 496.935C719.335 489.72 718.705 482.237 718.679 474.708C718.695 467.121 719.351 459.58 720.627 452.337C721.877 445.008 723.799 438.093 726.316 431.868C728.739 425.843 731.811 420.724 735.355 416.806C738.958 412.872 743.122 410.842 747.355 410.957H838.214C839.211 410.934 840.2 411.287 841.113 411.993C842.027 412.699 842.845 413.742 843.513 415.052C844.956 417.725 845.74 421.3 845.695 424.995C845.74 428.69 844.956 432.265 843.513 434.938C842.845 436.248 842.027 437.291 841.113 437.997C840.2 438.703 839.211 439.056 838.214 439.033H750.784C747.714 438.786 744.666 440.051 741.978 442.688C739.86 444.929 738.05 447.975 736.68 451.607C735.381 455.116 734.481 459.04 734.03 463.158C733.586 466.96 733.351 470.829 733.329 474.71C733.351 478.592 733.586 482.461 734.03 486.262C734.481 490.381 735.381 494.304 736.68 497.814C738.05 501.445 739.86 504.492 741.978 506.733C744.666 509.369 747.714 510.635 750.784 510.388H826.37C827.031 510.346 827.678 510.034 828.259 509.476C828.84 508.918 829.341 508.129 829.721 507.17C830.708 505.026 831.233 502.331 831.201 499.566C831.237 496.844 830.772 494.175 829.877 491.962C829.49 490.95 828.967 490.126 828.354 489.564C827.742 489.002 827.06 488.72 826.37 488.744H767.304C766.307 488.768 765.318 488.414 764.405 487.708C763.491 487.002 762.673 485.96 762.005 484.65C760.563 481.978 759.779 478.404 759.823 474.71V474.71ZM876.241 524.426C876.286 528.12 875.502 531.696 874.059 534.369C873.391 535.679 872.573 536.721 871.66 537.427C870.746 538.133 869.758 538.487 868.761 538.463C867.764 538.487 866.775 538.133 865.862 537.427C864.948 536.721 864.13 535.679 863.462 534.369C862.019 531.696 861.235 528.12 861.28 524.426V424.995C861.235 421.3 862.019 417.725 863.462 415.052C864.13 413.742 864.948 412.699 865.862 411.993C866.775 411.287 867.764 410.934 868.761 410.957C869.758 410.934 870.746 411.287 871.66 411.993C872.573 412.699 873.391 413.742 874.059 415.052C875.502 417.725 876.286 421.3 876.241 424.995V524.426ZM891.826 474.71C891.842 467.123 892.498 459.582 893.774 452.338C895.024 445.009 896.945 438.094 899.463 431.868C901.886 425.843 904.958 420.724 908.502 416.806C912.105 412.872 916.269 410.842 920.502 410.957H1011.36C1012.36 410.934 1013.35 411.287 1014.26 411.993C1015.17 412.699 1015.99 413.742 1016.66 415.052C1018.1 417.725 1018.89 421.3 1018.84 424.995C1018.89 428.69 1018.1 432.265 1016.66 434.938C1015.99 436.248 1015.17 437.291 1014.26 437.997C1013.35 438.703 1012.36 439.056 1011.36 439.033H923.775C920.705 438.786 917.657 440.051 914.969 442.688C912.851 444.929 911.041 447.975 909.671 451.607C908.372 455.116 907.472 459.04 907.021 463.158C906.577 466.96 906.342 470.829 906.32 474.71C906.342 478.592 906.577 482.461 907.021 486.262C907.472 490.381 908.372 494.304 909.671 497.814C911.041 501.445 912.851 504.492 914.969 506.733C917.657 509.37 920.705 510.635 923.775 510.388H1011.36C1012.36 510.365 1013.35 510.718 1014.26 511.424C1015.17 512.13 1015.99 513.173 1016.66 514.483C1018.1 517.155 1018.89 520.731 1018.84 524.426C1018.89 528.12 1018.1 531.696 1016.66 534.369C1015.99 535.679 1015.17 536.721 1014.26 537.427C1013.35 538.133 1012.36 538.487 1011.36 538.463H918.944C914.906 538.578 910.941 536.54 907.567 532.615C904.199 528.64 901.312 523.52 899.073 517.553C896.685 511.219 894.871 504.263 893.696 496.937C892.482 489.722 891.852 482.238 891.826 474.71V474.71Z" fill="#03DBE9"/>
<g filter="url(#filter14_d)">
<path d="M24.1525 476.177C24.168 468.589 24.8246 461.049 26.1006 453.805C27.3502 446.476 29.272 439.56 31.7891 433.334C34.2124 427.309 37.2842 422.191 40.8282 418.272C44.4314 414.338 48.5951 412.309 52.8285 412.424H143.688C144.685 412.401 145.673 412.754 146.587 413.46C147.501 414.166 148.319 415.209 148.987 416.518C150.429 419.191 151.213 422.767 151.168 426.462C151.213 430.156 150.429 433.732 148.987 436.405C148.319 437.714 147.501 438.757 146.587 439.463C145.673 440.169 144.685 440.522 143.688 440.499H56.1013C53.0316 440.252 49.9834 441.518 47.2959 444.154C45.1779 446.395 43.3679 449.442 41.9971 453.073C40.6983 456.583 39.7984 460.506 39.3477 464.625C38.9033 468.426 38.6684 472.295 38.6464 476.177C38.6684 480.059 38.9033 483.927 39.3477 487.729C39.7984 491.847 40.6983 495.771 41.9971 499.28C43.3679 502.912 45.1779 505.958 47.2959 508.199C49.9834 510.836 53.0316 512.101 56.1013 511.855H143.688C144.685 511.831 145.673 512.184 146.587 512.89C147.501 513.596 148.319 514.639 148.987 515.949C150.429 518.622 151.213 522.197 151.168 525.892C151.213 529.587 150.429 533.162 148.987 535.835C148.319 537.145 147.501 538.188 146.587 538.894C145.673 539.6 144.685 539.953 143.688 539.93H51.27C47.232 540.045 43.2679 538.007 39.8932 534.081C36.5258 530.106 33.6386 524.987 31.3995 519.02C29.0112 512.685 27.197 505.729 26.0227 498.403C24.8082 491.188 24.1786 483.705 24.1525 476.177V476.177ZM261.665 511.855C264.708 512.068 267.726 510.804 270.392 508.199C272.543 505.987 274.382 502.937 275.769 499.28C277.068 495.771 277.967 491.847 278.418 487.729C278.863 483.927 279.097 480.059 279.12 476.177C279.097 472.295 278.863 468.426 278.418 464.625C277.967 460.506 277.068 456.583 275.769 453.073C274.382 449.417 272.543 446.367 270.392 444.154C267.726 441.55 264.708 440.286 261.665 440.499H198.702C195.632 440.252 192.584 441.518 189.897 444.154C187.779 446.395 185.969 449.442 184.598 453.073C183.299 456.583 182.399 460.506 181.948 464.625C181.504 468.426 181.269 472.295 181.247 476.177C181.269 480.059 181.504 483.927 181.948 487.729C182.399 491.847 183.299 495.771 184.598 499.28C185.969 502.912 187.779 505.958 189.897 508.199C192.584 510.836 195.632 512.101 198.702 511.855H261.665ZM293.613 476.177C293.598 483.764 292.941 491.305 291.665 498.549C290.416 505.878 288.494 512.793 285.977 519.02C283.554 525.044 280.482 530.163 276.938 534.081C273.335 538.016 269.171 540.045 264.937 539.93H193.871C189.806 539.653 185.866 537.374 182.494 533.349C179.151 529.321 176.27 524.211 174 518.288C171.624 512.099 169.81 505.291 168.623 498.109C167.402 490.998 166.772 483.61 166.753 476.177C166.769 468.589 167.425 461.049 168.701 453.805C169.951 446.476 171.873 439.56 174.39 433.334C176.813 427.309 179.885 422.191 183.429 418.272C187.032 414.338 191.196 412.309 195.429 412.424H266.496C270.56 412.7 274.501 414.979 277.873 419.004C281.215 423.032 284.097 428.143 286.366 434.066C288.743 440.257 290.557 447.068 291.743 454.252C292.964 461.361 293.594 468.747 293.613 476.177V476.177ZM329.926 490.214C327.13 490.258 324.363 489.209 321.822 487.144C319.358 485.135 317.136 482.305 315.276 478.81C313.382 475.233 311.876 471.069 310.835 466.526C309.727 461.695 309.171 456.523 309.198 451.31C309.171 446.1 309.727 440.931 310.835 436.103C311.876 431.56 313.382 427.396 315.276 423.819C317.136 420.327 319.358 417.501 321.822 415.494C324.363 413.429 327.13 412.381 329.926 412.424H424.526C425.523 412.401 426.511 412.754 427.425 413.46C428.338 414.166 429.156 415.209 429.824 416.518C431.267 419.191 432.051 422.767 432.006 426.462C432.051 430.156 431.267 433.732 429.824 436.405C429.156 437.714 428.338 438.757 427.425 439.463C426.511 440.169 425.523 440.522 424.526 440.499H329.614C328.845 440.497 328.083 440.768 327.374 441.295C326.665 441.823 326.022 442.596 325.484 443.57C324.897 444.567 324.434 445.771 324.126 447.104C323.817 448.437 323.669 449.87 323.692 451.31C323.685 452.726 323.84 454.13 324.148 455.437C324.456 456.744 324.91 457.927 325.484 458.914C326.01 459.925 326.649 460.733 327.359 461.286C328.07 461.84 328.838 462.128 329.614 462.132H415.798C418.619 462.098 421.41 463.146 423.98 465.202C426.475 467.186 428.726 470.018 430.604 473.537C432.511 477.15 434.018 481.366 435.045 485.965C436.148 490.848 436.703 496.062 436.682 501.319C436.709 506.53 436.152 511.698 435.045 516.526C434.004 521.069 432.498 525.233 430.604 528.81C428.737 532.315 426.482 535.103 423.98 536.999C421.396 538.965 418.61 539.963 415.798 539.93H321.354C320.357 539.953 319.369 539.6 318.455 538.894C317.542 538.188 316.723 537.145 316.055 535.835C314.613 533.162 313.829 529.587 313.874 525.892C313.829 522.197 314.613 518.622 316.055 515.949C316.723 514.639 317.542 513.596 318.455 512.89C319.369 512.184 320.357 511.831 321.354 511.855H416.421C417.18 511.864 417.931 511.596 418.629 511.068C419.326 510.54 419.954 509.762 420.474 508.784C421.03 507.811 421.469 506.647 421.764 505.364C422.059 504.08 422.203 502.704 422.188 501.319C422.229 498.39 421.613 495.55 420.474 493.423C419.966 492.408 419.342 491.596 418.643 491.041C417.945 490.486 417.187 490.201 416.421 490.205L329.926 490.214ZM583.802 525.892C583.847 529.587 583.062 533.162 581.62 535.835C580.952 537.145 580.134 538.188 579.22 538.894C578.307 539.6 577.318 539.953 576.321 539.93C575.324 539.953 574.336 539.6 573.422 538.894C572.509 538.188 571.69 537.145 571.022 535.835C569.58 533.162 568.796 529.587 568.841 525.892V462.139C568.841 454.146 568.581 450.15 568.061 450.15C567.646 450.15 566.191 452.782 563.698 458.047L529.411 531.158C528.084 534.051 526.37 536.312 524.424 537.736C522.398 539.216 520.226 539.962 518.034 539.93C515.843 539.962 513.67 539.216 511.644 537.736C509.699 536.311 507.984 534.05 506.657 531.156L472.371 458.045C469.981 452.78 468.527 450.148 468.007 450.148C467.488 450.148 467.228 454.144 467.228 462.137V525.89C467.273 529.585 466.488 533.161 465.046 535.833C464.378 537.144 463.56 538.187 462.646 538.893C461.733 539.599 460.744 539.953 459.747 539.93C458.75 539.953 457.762 539.6 456.848 538.894C455.934 538.188 455.116 537.145 454.448 535.835C453.006 533.162 452.221 529.587 452.266 525.892V440.499C452.148 433.34 453.413 426.323 455.851 420.606C456.994 417.943 458.484 415.808 460.193 414.383C461.903 412.957 463.781 412.283 465.669 412.417C468.052 412.359 470.389 413.583 472.371 415.926C474.386 418.33 476.219 421.18 477.825 424.408L513.67 501.029C514.275 502.138 514.926 503.165 515.619 504.099C516.297 505.106 517.149 505.673 518.034 505.708C518.919 505.673 519.771 505.106 520.45 504.099C521.142 503.165 521.793 502.138 522.398 501.029L558.087 424.413H558.243C559.622 420.833 561.432 417.837 563.542 415.64C565.622 413.494 567.991 412.382 570.399 412.422C572.287 412.287 574.165 412.961 575.875 414.386C577.584 415.81 579.074 417.944 580.218 420.606C582.655 426.321 583.919 433.335 583.802 440.492V525.892ZM694.298 511.855C697.341 512.068 700.359 510.804 703.026 508.199C705.177 505.987 707.016 502.937 708.402 499.28C709.701 495.771 710.601 491.847 711.052 487.729C711.496 483.927 711.731 480.059 711.753 476.177C711.731 472.295 711.496 468.426 711.052 464.625C710.601 460.506 709.701 456.583 708.402 453.073C707.016 449.417 705.177 446.367 703.026 444.154C700.359 441.55 697.341 440.286 694.298 440.499H631.336C628.266 440.252 625.218 441.518 622.53 444.154C620.412 446.395 618.602 449.442 617.231 453.073C615.933 456.583 615.033 460.506 614.582 464.625C614.138 468.426 613.903 472.295 613.881 476.177C613.903 480.059 614.138 483.927 614.582 487.729C615.033 491.847 615.933 495.771 617.231 499.28C618.602 502.912 620.412 505.958 622.53 508.199C625.218 510.836 628.266 512.101 631.336 511.855H694.298ZM726.247 476.177C726.231 483.764 725.575 491.305 724.299 498.549C723.049 505.878 721.127 512.793 718.61 519.02C716.187 525.044 713.115 530.163 709.571 534.081C705.968 538.016 701.804 540.045 697.571 539.93H626.504C622.44 539.653 618.5 537.374 615.127 533.349C611.785 529.321 608.903 524.211 606.634 518.288C604.257 512.099 602.443 505.291 601.257 498.109C600.035 490.998 599.405 483.61 599.387 476.177C599.402 468.589 600.059 461.049 601.335 453.805C602.584 446.476 604.506 439.56 607.023 433.334C609.447 427.309 612.518 422.191 616.063 418.272C619.666 414.338 623.829 412.309 628.063 412.424H699.129C703.194 412.7 707.134 414.979 710.506 419.004C713.849 423.032 716.731 428.143 719 434.066C721.377 440.257 723.191 447.068 724.377 454.252C725.598 461.361 726.228 468.747 726.247 476.177V476.177ZM782.975 476.177C782.93 472.482 783.715 468.907 785.157 466.234C785.825 464.924 786.643 463.881 787.557 463.175C788.471 462.469 789.459 462.116 790.456 462.139H850.146C852.673 462.112 855.172 463.06 857.471 464.917C859.731 466.738 861.769 469.321 863.471 472.522C865.212 475.814 866.563 479.69 867.445 483.921C868.387 488.366 868.862 493.079 868.848 497.826V504.261C868.861 509.004 868.386 513.711 867.445 518.152C866.563 522.382 865.212 526.258 863.471 529.551C861.769 532.752 859.731 535.335 857.471 537.155C855.172 539.011 852.672 539.958 850.146 539.93H768.949C764.911 540.045 760.947 538.007 757.572 534.081C754.205 530.106 751.318 524.987 749.079 519.02C746.69 512.685 744.876 505.728 743.702 498.402C742.487 491.187 741.858 483.703 741.832 476.175C741.847 468.588 742.504 461.047 743.78 453.803C745.029 446.475 746.951 439.56 749.468 433.334C751.892 427.309 754.963 422.191 758.507 418.272C762.111 414.338 766.274 412.309 770.508 412.424H861.367C862.364 412.401 863.352 412.754 864.266 413.46C865.18 414.166 865.998 415.209 866.666 416.518C868.108 419.191 868.893 422.767 868.848 426.462C868.893 430.156 868.108 433.732 866.666 436.405C865.998 437.714 865.18 438.757 864.266 439.463C863.352 440.169 862.364 440.522 861.367 440.499H773.936C770.867 440.252 767.818 441.518 765.131 444.154C763.013 446.395 761.203 449.442 759.832 453.073C758.533 456.583 757.633 460.506 757.183 464.625C756.738 468.426 756.503 472.295 756.481 476.177C756.503 480.059 756.738 483.927 757.183 487.729C757.633 491.847 758.533 495.771 759.832 499.28C761.203 502.912 763.013 505.958 765.131 508.199C767.818 510.836 770.867 512.101 773.936 511.855H849.523C850.184 511.813 850.83 511.501 851.412 510.942C851.993 510.384 852.493 509.595 852.873 508.637C853.86 506.493 854.385 503.798 854.354 501.033C854.39 498.311 853.925 495.642 853.029 493.428C852.643 492.417 852.119 491.593 851.507 491.031C850.894 490.469 850.212 490.187 849.523 490.211H790.456C789.459 490.234 788.471 489.881 787.557 489.175C786.643 488.469 785.825 487.426 785.157 486.116C783.716 483.444 782.931 479.87 782.975 476.177V476.177ZM899.394 525.892C899.439 529.587 898.654 533.162 897.212 535.835C896.544 537.145 895.726 538.188 894.812 538.894C893.898 539.6 892.91 539.953 891.913 539.93C890.916 539.953 889.928 539.6 889.014 538.894C888.1 538.188 887.282 537.145 886.614 535.835C885.172 533.162 884.387 529.587 884.432 525.892V426.462C884.387 422.767 885.172 419.191 886.614 416.518C887.282 415.209 888.1 414.166 889.014 413.46C889.928 412.754 890.916 412.401 891.913 412.424C892.91 412.401 893.898 412.754 894.812 413.46C895.726 414.166 896.544 415.209 897.212 416.518C898.654 419.191 899.439 422.767 899.394 426.462V525.892ZM914.979 476.177C914.994 468.589 915.651 461.049 916.927 453.805C918.176 446.476 920.098 439.56 922.615 433.334C925.038 427.309 928.11 422.191 931.654 418.272C935.257 414.338 939.421 412.309 943.655 412.424H1034.51C1035.51 412.401 1036.5 412.754 1037.41 413.46C1038.33 414.166 1039.14 415.209 1039.81 416.518C1041.25 419.191 1042.04 422.767 1041.99 426.462C1042.04 430.156 1041.25 433.732 1039.81 436.405C1039.14 437.714 1038.33 438.757 1037.41 439.463C1036.5 440.169 1035.51 440.522 1034.51 440.499H946.927C943.858 440.252 940.809 441.518 938.122 444.154C936.004 446.395 934.194 449.442 932.823 453.073C931.524 456.583 930.625 460.506 930.174 464.625C929.729 468.426 929.494 472.295 929.472 476.177C929.494 480.059 929.729 483.927 930.174 487.729C930.625 491.847 931.524 495.771 932.823 499.28C934.194 502.912 936.004 505.958 938.122 508.199C940.809 510.836 943.858 512.101 946.927 511.855H1034.51C1035.51 511.831 1036.5 512.184 1037.41 512.89C1038.33 513.596 1039.14 514.639 1039.81 515.949C1041.25 518.622 1042.04 522.197 1041.99 525.892C1042.04 529.587 1041.25 533.162 1039.81 535.835C1039.14 537.145 1038.33 538.188 1037.41 538.894C1036.5 539.6 1035.51 539.953 1034.51 539.93H942.096C938.058 540.045 934.094 538.007 930.719 534.081C927.352 530.106 924.465 524.987 922.226 519.02C919.837 512.685 918.023 505.729 916.849 498.403C915.634 491.188 915.005 483.705 914.979 476.177V476.177Z" fill="#FF0000"/>
</g>
<g filter="url(#filter15_d)">
<path d="M10.9119 473.718C10.9273 466.13 11.5839 458.59 12.86 451.346C14.1095 444.017 16.0313 437.101 18.5484 430.875C20.9717 424.85 24.0435 419.732 27.5876 415.813C31.1907 411.879 35.3545 409.85 39.5879 409.965H130.447C131.444 409.941 132.432 410.295 133.346 411.001C134.26 411.707 135.078 412.749 135.746 414.059C137.188 416.732 137.973 420.308 137.928 424.002C137.973 427.697 137.188 431.273 135.746 433.945C135.078 435.255 134.26 436.298 133.346 437.004C132.432 437.71 131.444 438.063 130.447 438.04H42.8607C39.791 437.793 36.7428 439.058 34.0553 441.695C31.9372 443.936 30.1273 446.983 28.7564 450.614C27.4576 454.124 26.5577 458.047 26.107 462.166C25.6627 465.967 25.4278 469.836 25.4057 473.718C25.4278 477.599 25.6627 481.468 26.107 485.27C26.5577 489.388 27.4576 493.312 28.7564 496.821C30.1273 500.453 31.9372 503.499 34.0553 505.74C36.7428 508.377 39.791 509.642 42.8607 509.395H130.447C131.444 509.372 132.432 509.725 133.346 510.431C134.26 511.137 135.078 512.18 135.746 513.49C137.188 516.163 137.973 519.738 137.928 523.433C137.973 527.128 137.188 530.703 135.746 533.376C135.078 534.686 134.26 535.729 133.346 536.435C132.432 537.141 131.444 537.494 130.447 537.471H38.0294C33.9914 537.585 30.0272 535.548 26.6525 531.622C23.2851 527.647 20.3979 522.528 18.1588 516.56C15.7705 510.226 13.9563 503.27 12.782 495.944C11.5676 488.729 10.9379 481.246 10.9119 473.718V473.718ZM248.424 509.395C251.467 509.609 254.485 508.345 257.151 505.74C259.303 503.528 261.141 500.478 262.528 496.821C263.827 493.312 264.727 489.388 265.178 485.27C265.622 481.468 265.857 477.599 265.879 473.718C265.857 469.836 265.622 465.967 265.178 462.166C264.727 458.047 263.827 454.124 262.528 450.614C261.141 446.958 259.303 443.908 257.151 441.695C254.485 439.091 251.467 437.827 248.424 438.04H185.461C182.392 437.793 179.343 439.058 176.656 441.695C174.538 443.936 172.728 446.983 171.357 450.614C170.058 454.124 169.158 458.047 168.708 462.166C168.263 465.967 168.029 469.836 168.006 473.718C168.029 477.599 168.263 481.468 168.708 485.27C169.158 489.388 170.058 493.312 171.357 496.821C172.728 500.453 174.538 503.499 176.656 505.74C179.343 508.377 182.392 509.642 185.461 509.395H248.424ZM280.373 473.718C280.357 481.305 279.701 488.846 278.425 496.09C277.175 503.419 275.253 510.334 272.736 516.56C270.313 522.585 267.241 527.704 263.697 531.622C260.094 535.556 255.93 537.586 251.697 537.471H180.63C176.566 537.194 172.625 534.915 169.253 530.89C165.911 526.862 163.029 521.752 160.76 515.829C158.383 509.64 156.569 502.832 155.383 495.65C154.161 488.539 153.531 481.15 153.513 473.718C153.528 466.13 154.185 458.59 155.461 451.346C156.71 444.017 158.632 437.101 161.149 430.875C163.572 424.85 166.644 419.732 170.188 415.813C173.791 411.879 177.955 409.85 182.189 409.965H253.255C257.32 410.241 261.26 412.52 264.632 416.545C267.975 420.573 270.856 425.684 273.126 431.607C275.503 437.797 277.317 444.609 278.503 451.793C279.724 458.902 280.354 466.287 280.373 473.718V473.718ZM316.685 487.755C313.889 487.798 311.122 486.75 308.581 484.685C306.117 482.676 303.895 479.846 302.036 476.351C300.141 472.774 298.635 468.61 297.594 464.067C296.486 459.236 295.93 454.064 295.958 448.851C295.931 443.64 296.487 438.472 297.594 433.644C298.635 429.101 300.141 424.937 302.036 421.36C303.896 417.868 306.118 415.042 308.581 413.035C311.122 410.97 313.889 409.922 316.685 409.965H411.285C412.282 409.941 413.27 410.295 414.184 411.001C415.098 411.707 415.916 412.749 416.584 414.059C418.026 416.732 418.811 420.308 418.766 424.002C418.811 427.697 418.026 431.273 416.584 433.945C415.916 435.255 415.098 436.298 414.184 437.004C413.27 437.71 412.282 438.063 411.285 438.04H316.374C315.604 438.038 314.842 438.309 314.133 438.836C313.424 439.364 312.781 440.137 312.244 441.11C311.656 442.108 311.194 443.312 310.885 444.645C310.576 445.978 310.429 447.411 310.451 448.851C310.444 450.267 310.599 451.671 310.907 452.978C311.215 454.285 311.67 455.468 312.244 456.455C312.77 457.466 313.408 458.273 314.119 458.827C314.829 459.381 315.597 459.669 316.374 459.673H402.557C405.378 459.639 408.169 460.687 410.739 462.743C413.234 464.727 415.485 467.559 417.363 471.077C419.271 474.691 420.777 478.907 421.805 483.506C422.907 488.388 423.463 493.603 423.441 498.86C423.468 504.071 422.912 509.239 421.805 514.067C420.763 518.61 419.258 522.774 417.363 526.351C415.496 529.856 413.242 532.644 410.739 534.54C408.156 536.506 405.37 537.503 402.557 537.471H308.114C307.117 537.494 306.128 537.141 305.215 536.435C304.301 535.729 303.483 534.686 302.815 533.376C301.373 530.703 300.588 527.128 300.633 523.433C300.588 519.738 301.373 516.163 302.815 513.49C303.483 512.18 304.301 511.137 305.215 510.431C306.128 509.725 307.117 509.372 308.114 509.395H403.181C403.939 509.405 404.691 509.137 405.388 508.609C406.085 508.081 406.713 507.303 407.233 506.325C407.79 505.351 408.229 504.188 408.523 502.904C408.818 501.621 408.962 500.245 408.947 498.86C408.989 495.93 408.372 493.091 407.233 490.964C406.725 489.949 406.101 489.137 405.403 488.582C404.704 488.027 403.947 487.742 403.181 487.746L316.685 487.755ZM570.561 523.433C570.606 527.128 569.822 530.703 568.379 533.376C567.711 534.686 566.893 535.729 565.98 536.435C565.066 537.141 564.078 537.494 563.081 537.471C562.084 537.494 561.095 537.141 560.182 536.435C559.268 535.729 558.45 534.686 557.782 533.376C556.34 530.703 555.555 527.128 555.6 523.433V459.68C555.6 451.687 555.34 447.691 554.821 447.691C554.405 447.691 552.951 450.323 550.457 455.587L516.17 528.699C514.843 531.592 513.129 533.853 511.183 535.277C509.158 536.757 506.985 537.503 504.794 537.471C502.602 537.503 500.429 536.757 498.404 535.277C496.458 533.852 494.744 531.59 493.417 528.697L459.13 455.586C456.74 450.321 455.286 447.689 454.766 447.689C454.247 447.689 453.987 451.685 453.987 459.678V523.431C454.032 527.126 453.248 530.701 451.805 533.374C451.137 534.684 450.319 535.728 449.406 536.434C448.492 537.14 447.504 537.494 446.506 537.471C445.51 537.494 444.521 537.141 443.607 536.435C442.694 535.729 441.876 534.686 441.208 533.376C439.765 530.703 438.981 527.128 439.026 523.433V438.04C438.908 430.88 440.172 423.864 442.61 418.146C443.754 415.484 445.243 413.349 446.953 411.924C448.662 410.498 450.541 409.823 452.429 409.957C454.812 409.9 457.149 411.124 459.13 413.467C461.145 415.871 462.979 418.721 464.585 421.949L500.43 498.57C501.034 499.679 501.686 500.706 502.378 501.64C503.056 502.647 503.908 503.214 504.794 503.249C505.679 503.214 506.531 502.647 507.209 501.64C507.902 500.706 508.553 499.679 509.157 498.57L544.846 421.954H545.002C546.381 418.374 548.191 415.378 550.301 413.18C552.381 411.034 554.751 409.923 557.158 409.963C559.046 409.828 560.925 410.502 562.634 411.927C564.343 413.351 565.833 415.485 566.977 418.146C569.414 423.862 570.679 430.876 570.561 438.033V523.433ZM681.057 509.395C684.101 509.609 687.119 508.345 689.785 505.74C691.936 503.528 693.775 500.478 695.162 496.821C696.46 493.312 697.36 489.388 697.811 485.27C698.255 481.468 698.49 477.599 698.512 473.718C698.49 469.836 698.255 465.967 697.811 462.166C697.36 458.047 696.46 454.124 695.162 450.614C693.775 446.958 691.936 443.908 689.785 441.695C687.119 439.091 684.101 437.827 681.057 438.04H618.095C615.025 437.793 611.977 439.058 609.29 441.695C607.171 443.936 605.362 446.983 603.991 450.614C602.692 454.124 601.792 458.047 601.341 462.166C600.897 465.967 600.662 469.836 600.64 473.718C600.662 477.599 600.897 481.468 601.341 485.27C601.792 489.388 602.692 493.312 603.991 496.821C605.362 500.453 607.171 503.499 609.29 505.74C611.977 508.377 615.025 509.642 618.095 509.395H681.057ZM713.006 473.718C712.991 481.305 712.334 488.846 711.058 496.09C709.809 503.419 707.887 510.334 705.37 516.56C702.946 522.585 699.875 527.704 696.331 531.622C692.727 535.556 688.564 537.586 684.33 537.471H613.264C609.199 537.194 605.259 534.915 601.887 530.89C598.544 526.862 595.662 521.752 593.393 515.829C591.017 509.64 589.202 502.832 588.016 495.65C586.795 488.539 586.165 481.15 586.146 473.718C586.162 466.13 586.818 458.59 588.094 451.346C589.344 444.017 591.266 437.101 593.783 430.875C596.206 424.85 599.278 419.732 602.822 415.813C606.425 411.879 610.589 409.85 614.822 409.965H685.889C689.953 410.241 693.893 412.52 697.266 416.545C700.608 420.573 703.49 425.684 705.759 431.607C708.136 437.797 709.95 444.609 711.136 451.793C712.357 458.902 712.987 466.287 713.006 473.718V473.718ZM769.735 473.718C769.69 470.023 770.474 466.447 771.917 463.775C772.585 462.465 773.403 461.422 774.317 460.716C775.23 460.01 776.219 459.657 777.216 459.68H836.905C839.432 459.653 841.932 460.601 844.23 462.458C846.491 464.278 848.529 466.861 850.23 470.063C851.971 473.355 853.323 477.231 854.204 481.462C855.146 485.907 855.621 490.62 855.607 495.367V501.802C855.62 506.545 855.145 511.252 854.204 515.693C853.323 519.923 851.971 523.799 850.23 527.092C848.529 530.293 846.491 532.876 844.23 534.696C841.931 536.552 839.432 537.499 836.905 537.471H755.709C751.67 537.585 747.706 535.548 744.332 531.622C740.964 527.647 738.077 522.528 735.838 516.56C733.45 510.226 731.635 503.269 730.461 495.943C729.247 488.727 728.617 481.244 728.591 473.716C728.606 466.128 729.263 458.588 730.539 451.344C731.789 444.016 733.711 437.1 736.228 430.875C738.651 424.85 741.723 419.732 745.267 415.813C748.87 411.879 753.034 409.85 757.267 409.965H848.126C849.123 409.941 850.112 410.295 851.025 411.001C851.939 411.707 852.757 412.749 853.425 414.059C854.867 416.732 855.652 420.308 855.607 424.002C855.652 427.697 854.867 431.273 853.425 433.945C852.757 435.255 851.939 436.298 851.025 437.004C850.112 437.71 849.123 438.063 848.126 438.04H760.696C757.626 437.793 754.578 439.059 751.89 441.695C749.772 443.936 747.962 446.983 746.591 450.614C745.293 454.124 744.393 458.047 743.942 462.166C743.498 465.967 743.263 469.836 743.241 473.718C743.263 477.599 743.498 481.468 743.942 485.27C744.393 489.388 745.293 493.312 746.591 496.821C747.962 500.453 749.772 503.499 751.89 505.74C754.578 508.377 757.626 509.642 760.696 509.395H836.282C836.943 509.354 837.589 509.042 838.171 508.483C838.752 507.925 839.253 507.136 839.633 506.178C840.62 504.034 841.144 501.339 841.113 498.574C841.149 495.852 840.684 493.183 839.788 490.969C839.402 489.958 838.879 489.134 838.266 488.572C837.654 488.01 836.972 487.728 836.282 487.752H777.216C776.219 487.775 775.23 487.422 774.317 486.716C773.403 486.01 772.585 484.967 771.917 483.657C770.475 480.985 769.69 477.411 769.735 473.718V473.718ZM886.153 523.433C886.198 527.128 885.413 530.703 883.971 533.376C883.303 534.686 882.485 535.729 881.571 536.435C880.658 537.141 879.669 537.494 878.672 537.471C877.676 537.494 876.687 537.141 875.773 536.435C874.86 535.729 874.042 534.686 873.374 533.376C871.931 530.703 871.147 527.128 871.192 523.433V424.002C871.147 420.308 871.931 416.732 873.374 414.059C874.042 412.749 874.86 411.707 875.773 411.001C876.687 410.295 877.676 409.941 878.672 409.965C879.669 409.941 880.658 410.295 881.571 411.001C882.485 411.707 883.303 412.749 883.971 414.059C885.413 416.732 886.198 420.308 886.153 424.002V523.433ZM901.738 473.718C901.753 466.13 902.41 458.59 903.686 451.346C904.936 444.017 906.857 437.101 909.374 430.875C911.798 424.85 914.87 419.732 918.414 415.813C922.017 411.879 926.181 409.85 930.414 409.965H1021.27C1022.27 409.941 1023.26 410.295 1024.17 411.001C1025.09 411.707 1025.9 412.749 1026.57 414.059C1028.01 416.732 1028.8 420.308 1028.75 424.002C1028.8 427.697 1028.01 431.273 1026.57 433.945C1025.9 435.255 1025.09 436.298 1024.17 437.004C1023.26 437.71 1022.27 438.063 1021.27 438.04H933.687C930.617 437.793 927.569 439.058 924.881 441.695C922.763 443.936 920.953 446.983 919.583 450.614C918.284 454.124 917.384 458.047 916.933 462.166C916.489 465.967 916.254 469.836 916.232 473.718C916.254 477.599 916.489 481.468 916.933 485.27C917.384 489.388 918.284 493.312 919.583 496.821C920.953 500.453 922.763 503.499 924.881 505.74C927.569 508.377 930.617 509.642 933.687 509.395H1021.27C1022.27 509.372 1023.26 509.725 1024.17 510.431C1025.09 511.137 1025.9 512.18 1026.57 513.49C1028.01 516.163 1028.8 519.738 1028.75 523.433C1028.8 527.128 1028.01 530.703 1026.57 533.376C1025.9 534.686 1025.09 535.729 1024.17 536.435C1023.26 537.141 1022.27 537.494 1021.27 537.471H928.855C924.817 537.585 920.853 535.548 917.479 531.622C914.111 527.647 911.224 522.528 908.985 516.56C906.597 510.226 904.782 503.27 903.608 495.944C902.394 488.729 901.764 481.246 901.738 473.718V473.718Z" fill="white"/>
</g>
<path d="M392.083 873.067V736.348H409.075V856.27H465.521V873.067H392.083ZM477.239 873.067V736.348H494.232V873.067H477.239ZM510.638 873.067V766.231H512.2L527.63 791.231V873.067H510.638ZM510.638 747.285V736.348H525.286L597.552 852.168V873.067H589.154L510.638 747.285ZM580.56 807.832V736.348H597.552V832.832H595.989L580.56 807.832ZM612.786 835.371V736.348H629.974V835.371C629.974 843.965 634.466 850.41 643.45 854.707C646.706 856.27 649.44 857.051 651.654 857.051V874.043C644.101 874.043 636.549 871.374 628.997 866.035C618.32 858.353 612.917 848.132 612.786 835.371ZM661.419 874.043V857.051C665.716 857.051 670.143 855.293 674.7 851.778C680.169 847.481 682.969 842.012 683.099 835.371V736.348H700.091V835.371C700.091 849.955 693.581 860.957 680.56 868.379C673.919 872.155 667.539 874.043 661.419 874.043ZM711.81 873.067L743.646 802.364L714.154 736.348H730.755L752.044 781.465L773.333 736.348H789.935L760.443 802.364L792.279 873.067H774.896L752.044 824.043L729.193 873.067H711.81Z" fill="#03DBE9"/>
<path d="M381.083 873.067V736.348H398.075V856.27H454.521V873.067H381.083ZM466.239 873.067V736.348H483.232V873.067H466.239ZM499.638 873.067V766.231H501.2L516.63 791.231V873.067H499.638ZM499.638 747.285V736.348H514.286L586.552 852.168V873.067H578.154L499.638 747.285ZM569.56 807.832V736.348H586.552V832.832H584.989L569.56 807.832ZM601.786 835.371V736.348H618.974V835.371C618.974 843.965 623.466 850.41 632.45 854.707C635.706 856.27 638.44 857.051 640.654 857.051V874.043C633.101 874.043 625.549 871.374 617.997 866.035C607.32 858.353 601.917 848.132 601.786 835.371ZM650.419 874.043V857.051C654.716 857.051 659.143 855.293 663.7 851.778C669.169 847.481 671.969 842.012 672.099 835.371V736.348H689.091V835.371C689.091 849.955 682.581 860.957 669.56 868.379C662.919 872.155 656.539 874.043 650.419 874.043ZM700.81 873.067L732.646 802.364L703.154 736.348H719.755L741.044 781.465L762.333 736.348H778.935L749.443 802.364L781.279 873.067H763.896L741.044 824.043L718.193 873.067H700.81Z" fill="#FD2525"/>
<path d="M386.083 873.067V736.348H403.075V856.27H459.521V873.067H386.083ZM471.239 873.067V736.348H488.232V873.067H471.239ZM504.638 873.067V766.231H506.2L521.63 791.231V873.067H504.638ZM504.638 747.285V736.348H519.286L591.552 852.168V873.067H583.154L504.638 747.285ZM574.56 807.832V736.348H591.552V832.832H589.989L574.56 807.832ZM606.786 835.371V736.348H623.974V835.371C623.974 843.965 628.466 850.41 637.45 854.707C640.706 856.27 643.44 857.051 645.654 857.051V874.043C638.101 874.043 630.549 871.374 622.997 866.035C612.32 858.353 606.917 848.132 606.786 835.371ZM655.419 874.043V857.051C659.716 857.051 664.143 855.293 668.7 851.778C674.169 847.481 676.969 842.012 677.099 835.371V736.348H694.091V835.371C694.091 849.955 687.581 860.957 674.56 868.379C667.919 872.155 661.539 874.043 655.419 874.043ZM705.81 873.067L737.646 802.364L708.154 736.348H724.755L746.044 781.465L767.333 736.348H783.935L754.443 802.364L786.279 873.067H768.896L746.044 824.043L723.193 873.067H705.81Z" fill="white"/>
<defs>
<filter id="filter0_d" x="1541.13" y="468.117" width="107.837" height="106.953" filterUnits="userSpaceOnUse" color-interpolation-filters="sRGB">
<feFlood flood-opacity="0" result="BackgroundImageFix"/>
<feColorMatrix in="SourceAlpha" type="matrix" values="0 0 0 0 0 0 0 0 0 0 0 0 0 0 0 0 0 0 127 0"/>
<feOffset/>
<feGaussianBlur stdDeviation="15"/>
<feColorMatrix type="matrix" values="0 0 0 0 1 0 0 0 0 0.36 0 0 0 0 0 0 0 0 0.75 0"/>
<feBlend mode="normal" in2="BackgroundImageFix" result="effect1_dropShadow"/>
<feBlend mode="normal" in="SourceGraphic" in2="effect1_dropShadow" result="shape"/>
</filter>
<filter id="filter1_d" x="1506.18" y="433.438" width="177.734" height="176.299" filterUnits="userSpaceOnUse" color-interpolation-filters="sRGB">
<feFlood flood-opacity="0" result="BackgroundImageFix"/>
<feColorMatrix in="SourceAlpha" type="matrix" values="0 0 0 0 0 0 0 0 0 0 0 0 0 0 0 0 0 0 127 0"/>
<feOffset/>
<feGaussianBlur stdDeviation="25"/>
<feColorMatrix type="matrix" values="0 0 0 0 1 0 0 0 0 0.36 0 0 0 0 0 0 0 0 0.58 0"/>
<feBlend mode="normal" in2="BackgroundImageFix" result="effect1_dropShadow"/>
<feBlend mode="normal" in="SourceGraphic" in2="effect1_dropShadow" result="shape"/>
</filter>
<filter id="filter2_d" x="1480.27" y="408.767" width="229.387" height="226.074" filterUnits="userSpaceOnUse" color-interpolation-filters="sRGB">
<feFlood flood-opacity="0" result="BackgroundImageFix"/>
<feColorMatrix in="SourceAlpha" type="matrix" values="0 0 0 0 0 0 0 0 0 0 0 0 0 0 0 0 0 0 127 0"/>
<feOffset dy="4"/>
<feGaussianBlur stdDeviation="12.5"/>
<feColorMatrix type="matrix" values="0 0 0 0 1 0 0 0 0 1 0 0 0 0 1 0 0 0 0.25 0"/>
<feBlend mode="normal" in2="BackgroundImageFix" result="effect1_dropShadow"/>
<feBlend mode="normal" in="SourceGraphic" in2="effect1_dropShadow" result="shape"/>
</filter>
<filter id="filter3_d" x="1440.32" y="365.094" width="309.285" height="305.42" filterUnits="userSpaceOnUse" color-interpolation-filters="sRGB">
<feFlood flood-opacity="0" result="BackgroundImageFix"/>
<feColorMatrix in="SourceAlpha" type="matrix" values="0 0 0 0 0 0 0 0 0 0 0 0 0 0 0 0 0 0 127 0"/>
<feOffset/>
<feGaussianBlur stdDeviation="25"/>
<feColorMatrix type="matrix" values="0 0 0 0 0.95 0 0 0 0 0.95 0 0 0 0 0.95 0 0 0 0.25 0"/>
<feBlend mode="normal" in2="BackgroundImageFix" result="effect1_dropShadow"/>
<feBlend mode="normal" in="SourceGraphic" in2="effect1_dropShadow" result="shape"/>
</filter>
<filter id="filter4_df" x="1424.94" y="350.534" width="340.045" height="335.612" filterUnits="userSpaceOnUse" color-interpolation-filters="sRGB">
<feFlood flood-opacity="0" result="BackgroundImageFix"/>
<feColorMatrix in="SourceAlpha" type="matrix" values="0 0 0 0 0 0 0 0 0 0 0 0 0 0 0 0 0 0 127 0"/>
<feOffset/>
<feGaussianBlur stdDeviation="25"/>
<feColorMatrix type="matrix" values="0 0 0 0 0.01625 0 0 0 0 0.975 0 0 0 0 0.917475 0 0 0 0.25 0"/>
<feBlend mode="normal" in2="BackgroundImageFix" result="effect1_dropShadow"/>
<feBlend mode="normal" in="SourceGraphic" in2="effect1_dropShadow" result="shape"/>
<feGaussianBlur stdDeviation="2" result="effect2_foregroundBlur"/>
</filter>
<filter id="filter5_d" x="1360.66" y="287.141" width="468.69" height="468.367" filterUnits="userSpaceOnUse" color-interpolation-filters="sRGB">
<feFlood flood-opacity="0" result="BackgroundImageFix"/>
<feColorMatrix in="SourceAlpha" type="matrix" values="0 0 0 0 0 0 0 0 0 0 0 0 0 0 0 0 0 0 127 0"/>
<feOffset dy="4"/>
<feGaussianBlur stdDeviation="50"/>
<feColorMatrix type="matrix" values="0 0 0 0 0.929167 0 0 0 0 0.0580729 0 0 0 0 0.0580729 0 0 0 1 0"/>
<feBlend mode="normal" in2="BackgroundImageFix" result="effect1_dropShadow"/>
<feBlend mode="normal" in="SourceGraphic" in2="effect1_dropShadow" result="shape"/>
</filter>
<filter id="filter6_d" x="1363.74" y="284.151" width="455.346" height="461.22" filterUnits="userSpaceOnUse" color-interpolation-filters="sRGB">
<feFlood flood-opacity="0" result="BackgroundImageFix"/>
<feColorMatrix in="SourceAlpha" type="matrix" values="0 0 0 0 0 0 0 0 0 0 0 0 0 0 0 0 0 0 127 0"/>
<feOffset/>
<feGaussianBlur stdDeviation="50"/>
<feColorMatrix type="matrix" values="0 0 0 0 0.0114062 0 0 0 0 0.858434 0 0 0 0 0.9125 0 0 0 1 0"/>
<feBlend mode="normal" in2="BackgroundImageFix" result="effect1_dropShadow"/>
<feBlend mode="normal" in="SourceGraphic" in2="effect1_dropShadow" result="shape"/>
</filter>
<filter id="filter7_f" x="1434.81" y="343.131" width="321.198" height="348.847" filterUnits="userSpaceOnUse" color-interpolation-filters="sRGB">
<feFlood flood-opacity="0" result="BackgroundImageFix"/>
<feBlend mode="normal" in="SourceGraphic" in2="BackgroundImageFix" result="shape"/>
<feGaussianBlur stdDeviation="2" result="effect1_foregroundBlur"/>
</filter>
<filter id="filter8_d" x="1455.88" y="383.774" width="279.45" height="272.289" filterUnits="userSpaceOnUse" color-interpolation-filters="sRGB">
<feFlood flood-opacity="0" result="BackgroundImageFix"/>
<feColorMatrix in="SourceAlpha" type="matrix" values="0 0 0 0 0 0 0 0 0 0 0 0 0 0 0 0 0 0 127 0"/>
<feOffset/>
<feGaussianBlur stdDeviation="40"/>
<feColorMatrix type="matrix" values="0 0 0 0 0.991667 0 0 0 0 0.6545 0 0 0 0 0 0 0 0 1 0"/>
<feBlend mode="normal" in2="BackgroundImageFix" result="effect1_dropShadow"/>
<feBlend mode="normal" in="SourceGraphic" in2="effect1_dropShadow" result="shape"/>
</filter>
<filter id="filter9_d" x="1073.29" y="364.465" width="40.9055" height="321.896" filterUnits="userSpaceOnUse" color-interpolation-filters="sRGB">
<feFlood flood-opacity="0" result="BackgroundImageFix"/>
<feColorMatrix in="SourceAlpha" type="matrix" values="0 0 0 0 0 0 0 0 0 0 0 0 0 0 0 0 0 0 127 0"/>
<feOffset/>
<feGaussianBlur stdDeviation="10"/>
<feColorMatrix type="matrix" values="0 0 0 0 0.0114062 0 0 0 0 0.858434 0 0 0 0 0.9125 0 0 0 1 0"/>
<feBlend mode="normal" in2="BackgroundImageFix" result="effect1_dropShadow"/>
<feBlend mode="normal" in="SourceGraphic" in2="effect1_dropShadow" result="shape"/>
</filter>
<filter id="filter10_d" x="1098.64" y="336.672" width="41.811" height="387.407" filterUnits="userSpaceOnUse" color-interpolation-filters="sRGB">
<feFlood flood-opacity="0" result="BackgroundImageFix"/>
<feColorMatrix in="SourceAlpha" type="matrix" values="0 0 0 0 0 0 0 0 0 0 0 0 0 0 0 0 0 0 127 0"/>
<feOffset/>
<feGaussianBlur stdDeviation="10"/>
<feColorMatrix type="matrix" values="0 0 0 0 0.0114062 0 0 0 0 0.858434 0 0 0 0 0.9125 0 0 0 1 0"/>
<feBlend mode="normal" in2="BackgroundImageFix" result="effect1_dropShadow"/>
<feBlend mode="normal" in="SourceGraphic" in2="effect1_dropShadow" result="shape"/>
</filter>
<filter id="filter11_d" x="1495.24" y="24.0055" width="159.524" height="44.963" filterUnits="userSpaceOnUse" color-interpolation-filters="sRGB">
<feFlood flood-opacity="0" result="BackgroundImageFix"/>
<feColorMatrix in="SourceAlpha" type="matrix" values="0 0 0 0 0 0 0 0 0 0 0 0 0 0 0 0 0 0 127 0"/>
<feOffset/>
<feGaussianBlur stdDeviation="10"/>
<feColorMatrix type="matrix" values="0 0 0 0 0.0114062 0 0 0 0 0.858434 0 0 0 0 0.9125 0 0 0 1 0"/>
<feBlend mode="normal" in2="BackgroundImageFix" result="effect1_dropShadow"/>
<feBlend mode="normal" in="SourceGraphic" in2="effect1_dropShadow" result="shape"/>
</filter>
<filter id="filter12_d" x="1495.24" y="994.761" width="159.524" height="44.963" filterUnits="userSpaceOnUse" color-interpolation-filters="sRGB">
<feFlood flood-opacity="0" result="BackgroundImageFix"/>
<feColorMatrix in="SourceAlpha" type="matrix" values="0 0 0 0 0 0 0 0 0 0 0 0 0 0 0 0 0 0 127 0"/>
<feOffset/>
<feGaussianBlur stdDeviation="10"/>
<feColorMatrix type="matrix" values="0 0 0 0 0.0114062 0 0 0 0 0.858434 0 0 0 0 0.9125 0 0 0 1 0"/>
<feBlend mode="normal" in2="BackgroundImageFix" result="effect1_dropShadow"/>
<feBlend mode="normal" in="SourceGraphic" in2="effect1_dropShadow" result="shape"/>
</filter>
<filter id="filter13_d" x="1149.35" y="497.472" width="130.548" height="49.9259" filterUnits="userSpaceOnUse" color-interpolation-filters="sRGB">
<feFlood flood-opacity="0" result="BackgroundImageFix"/>
<feColorMatrix in="SourceAlpha" type="matrix" values="0 0 0 0 0 0 0 0 0 0 0 0 0 0 0 0 0 0 127 0"/>
<feOffset/>
<feGaussianBlur stdDeviation="10"/>
<feColorMatrix type="matrix" values="0 0 0 0 0.0114062 0 0 0 0 0.858434 0 0 0 0 0.9125 0 0 0 1 0"/>
<feBlend mode="normal" in2="BackgroundImageFix" result="effect1_dropShadow"/>
<feBlend mode="normal" in="SourceGraphic" in2="effect1_dropShadow" result="shape"/>
</filter>
<filter id="filter14_d" x="14.1525" y="406.4" width="1037.84" height="147.534" filterUnits="userSpaceOnUse" color-interpolation-filters="sRGB">
<feFlood flood-opacity="0" result="BackgroundImageFix"/>
<feColorMatrix in="SourceAlpha" type="matrix" values="0 0 0 0 0 0 0 0 0 0 0 0 0 0 0 0 0 0 127 0"/>
<feOffset dy="4"/>
<feGaussianBlur stdDeviation="5"/>
<feColorMatrix type="matrix" values="0 0 0 0 0.929167 0 0 0 0 0.0580729 0 0 0 0 0.0580729 0 0 0 1 0"/>
<feBlend mode="normal" in2="BackgroundImageFix" result="effect1_dropShadow"/>
<feBlend mode="normal" in="SourceGraphic" in2="effect1_dropShadow" result="shape"/>
</filter>
<filter id="filter15_d" x="0.911865" y="399.941" width="1037.84" height="147.534" filterUnits="userSpaceOnUse" color-interpolation-filters="sRGB">
<feFlood flood-opacity="0" result="BackgroundImageFix"/>
<feColorMatrix in="SourceAlpha" type="matrix" values="0 0 0 0 0 0 0 0 0 0 0 0 0 0 0 0 0 0 127 0"/>
<feOffset/>
<feGaussianBlur stdDeviation="5"/>
<feColorMatrix type="matrix" values="0 0 0 0 0.0114062 0 0 0 0 0.858434 0 0 0 0 0.9125 0 0 0 1 0"/>
<feBlend mode="normal" in2="BackgroundImageFix" result="effect1_dropShadow"/>
<feBlend mode="normal" in="SourceGraphic" in2="effect1_dropShadow" result="shape"/>
</filter>
</defs>
</svg>
