<svg id="e2mb64qy83cm1" xmlns="http://www.w3.org/2000/svg" xmlns:xlink="http://www.w3.org/1999/xlink" viewBox="0 0 480 481" shape-rendering="geometricPrecision" text-rendering="geometricPrecision"><style><![CDATA[#e2mb64qy83cm5_tr {animation: e2mb64qy83cm5_tr__tr 3000ms linear infinite normal forwards}@keyframes e2mb64qy83cm5_tr__tr { 0% {transform: translate(240px,240.500000px) rotate(0deg)} 100% {transform: translate(240px,240.500000px) rotate(360deg)} }#e2mb64qy83cm6_tr {animation: e2mb64qy83cm6_tr__tr 3000ms linear infinite normal forwards}@keyframes e2mb64qy83cm6_tr__tr { 0% {transform: translate(240px,240.500000px) rotate(0deg)} 100% {transform: translate(240px,240.500000px) rotate(360deg)} }#e2mb64qy83cm17_tr {animation: e2mb64qy83cm17_tr__tr 3000ms linear infinite normal forwards}@keyframes e2mb64qy83cm17_tr__tr { 0% {transform: translate(237.542152px,241.126984px) rotate(0deg)} 100% {transform: translate(237.542152px,241.126984px) rotate(360deg)} }#e2mb64qy83cm18_tr {animation: e2mb64qy83cm18_tr__tr 3000ms linear infinite normal forwards}@keyframes e2mb64qy83cm18_tr__tr { 0% {transform: translate(240px,240.769005px) rotate(0deg)} 100% {transform: translate(240px,240.769005px) rotate(-360deg)} }#e2mb64qy83cm23_tr {animation: e2mb64qy83cm23_tr__tr 3000ms linear infinite normal forwards}@keyframes e2mb64qy83cm23_tr__tr { 0% {transform: translate(240px,240.500000px) rotate(0deg)} 100% {transform: translate(240px,240.500000px) rotate(360deg)} }#e2mb64qy83cm24_tr {animation: e2mb64qy83cm24_tr__tr 3000ms linear infinite normal forwards}@keyframes e2mb64qy83cm24_tr__tr { 0% {transform: translate(240px,240.500000px) rotate(0deg)} 100% {transform: translate(240px,240.500000px) rotate(-360deg)} }#e2mb64qy83cm63_tr {animation: e2mb64qy83cm63_tr__tr 3000ms linear infinite normal forwards}@keyframes e2mb64qy83cm63_tr__tr { 0% {transform: translate(240px,240.500000px) rotate(0deg)} 100% {transform: translate(240px,240.500000px) rotate(-360deg)} }#e2mb64qy83cm65_tr {animation: e2mb64qy83cm65_tr__tr 3000ms linear infinite normal forwards}@keyframes e2mb64qy83cm65_tr__tr { 0% {transform: translate(240.033389px,240.458703px) rotate(0deg)} 100% {transform: translate(240.033389px,240.458703px) rotate(-360deg)} }]]></style><defs><filter id="e2mb64qy83cm5-filter" x="-400%" width="600%" y="-400%" height="600%"><feGaussianBlur id="e2mb64qy83cm5-filter-drop-shadow-0-blur" in="SourceAlpha" stdDeviation="10,10"/><feOffset id="e2mb64qy83cm5-filter-drop-shadow-0-offset" dx="0" dy="0" result="tmp"/><feFlood id="e2mb64qy83cm5-filter-drop-shadow-0-flood" flood-color="rgb(250,77,2)"/><feComposite id="e2mb64qy83cm5-filter-drop-shadow-0-composite" operator="in" in2="tmp"/><feMerge id="e2mb64qy83cm5-filter-drop-shadow-0-merge"><feMergeNode id="e2mb64qy83cm5-filter-drop-shadow-0-merge-node-1"/><feMergeNode id="e2mb64qy83cm5-filter-drop-shadow-0-merge-node-2" in="SourceGraphic"/></feMerge></filter><filter id="e2mb64qy83cm17-filter" x="-400%" width="600%" y="-400%" height="600%"><feGaussianBlur id="e2mb64qy83cm17-filter-drop-shadow-0-blur" in="SourceAlpha" stdDeviation="10,10"/><feOffset id="e2mb64qy83cm17-filter-drop-shadow-0-offset" dx="0" dy="0" result="tmp"/><feFlood id="e2mb64qy83cm17-filter-drop-shadow-0-flood" flood-color="rgb(0,250,226)"/><feComposite id="e2mb64qy83cm17-filter-drop-shadow-0-composite" operator="in" in2="tmp"/><feMerge id="e2mb64qy83cm17-filter-drop-shadow-0-merge"><feMergeNode id="e2mb64qy83cm17-filter-drop-shadow-0-merge-node-1"/><feMergeNode id="e2mb64qy83cm17-filter-drop-shadow-0-merge-node-2" in="SourceGraphic"/></feMerge></filter></defs><g id="e2mb64qy83cm2"><path id="e2mb64qy83cm3" d="M241.430000,269.138000C255.044000,269.138000,266.081000,258.549000,266.081000,245.486000C266.081000,232.424000,255.044000,221.834000,241.430000,221.834000C227.815000,221.834000,216.779000,232.424000,216.779000,245.486000C216.779000,258.549000,227.815000,269.138000,241.430000,269.138000ZM241.430000,265.984000C253.229000,265.984000,262.794000,256.807000,262.794000,245.486000C262.794000,234.165000,253.229000,224.988000,241.430000,224.988000C229.631000,224.988000,220.066000,234.165000,220.066000,245.486000C220.066000,256.807000,229.631000,265.984000,241.430000,265.984000Z" transform="matrix(1 0 0 1 -1.43000000000001 -4.98599999999999)" clip-rule="evenodd" fill="rgb(255,92,0)" fill-rule="evenodd" stroke="none" stroke-width="1"/></g><g id="e2mb64qy83cm4"><g id="e2mb64qy83cm5_tr" transform="translate(240,240.500000) rotate(0)"><path id="e2mb64qy83cm5" d="M241.177274,214.987926L236.429158,207.128219C218.109722,209.366862,203.594768,223.916479,201.416926,242.249205L209.296501,246.699432L201.366000,251.375500C203.359110,269.966331,218.027840,284.765727,236.561966,286.966903L241.177274,279.326793L245.435100,287.046000C264.351671,285.143518,279.401848,270.138054,281.366000,251.245407L273.656179,246.699432L281.315074,242.373054C279.161197,223.739553,264.262800,208.985949,245.557922,207.046000L241.177274,214.987926ZM241.359010,275.187749C256.909462,275.187749,269.516182,262.585366,269.516182,247.039756C269.516182,231.495186,256.909462,218.892802,241.359010,218.892802C225.808558,218.892802,213.201838,231.495186,213.201838,247.039756C213.201838,262.585366,225.808558,275.187749,241.359010,275.187749Z" transform="translate(-241.366000,-247.046000)" clip-rule="evenodd" filter="url(#e2mb64qy83cm5-filter)" fill="rgb(255,92,0)" fill-rule="evenodd" stroke="none" stroke-width="1"/></g></g><g id="e2mb64qy83cm6_tr" transform="translate(240,240.500000) rotate(0)"><g id="e2mb64qy83cm6" transform="translate(-240.904236,-241.974251)"><path id="e2mb64qy83cm7" d="M305.958669,310.028275C341.886110,274.099272,341.886110,215.848191,305.958669,179.920225C270.030233,143.992258,211.779013,143.992258,175.850577,179.920225C139.922141,215.848191,139.922141,274.099272,175.850577,310.028275C211.779013,345.956242,270.030233,345.956242,305.958669,310.028275ZM302.276355,306.345962C336.170562,272.451048,336.170562,217.497452,302.276355,183.602538C268.381154,149.708661,213.427097,149.708661,179.532891,183.602538C145.638684,217.497452,145.638684,272.451048,179.532891,306.345962C213.427097,340.239839,268.381154,340.239839,302.276355,306.345962Z" transform="matrix(1 0 0 1 0 -3)" clip-rule="evenodd" fill="rgb(255,255,255)" fill-rule="evenodd" stroke="none" stroke-width="1"/><path id="e2mb64qy83cm8" d="M318.338000,239.773000L328.801000,245.574000L328.805000,233.979000L318.338000,239.773000Z" fill="rgb(255,255,255)" stroke="none" stroke-width="1"/><path id="e2mb64qy83cm9" d="M238.277000,316.624000L244.323000,326.663000L232.239000,326.667000L238.277000,316.624000Z" transform="matrix(1 0 0 1 0 3)" fill="rgb(255,255,255)" stroke="none" stroke-width="1"/><path id="e2mb64qy83cm10" d="M249.052000,157.724000L236.970000,157.515000L242.822000,167.659000L249.052000,157.724000Z" transform="matrix(1 0 0 1 0 -3)" fill="rgb(255,255,255)" stroke="none" stroke-width="1"/><path id="e2mb64qy83cm11" d="M154.223000,251.548000L154.005000,239.956000L164.577000,245.571000L154.223000,251.548000Z" fill="rgb(255,255,255)" stroke="none" stroke-width="1"/></g></g><path id="e2mb64qy83cm12" d="M179.508000,182.570000L175.652000,186.270000L186.187000,188.979000L179.508000,182.570000ZM187.019000,188.179000L184.197000,178.072000L180.341000,181.771000L187.019000,188.179000Z" clip-rule="evenodd" fill="rgb(255,255,255)" fill-rule="evenodd" stroke="none" stroke-width="1"/><path id="e2mb64qy83cm13" d="M295.917000,294.826000L298.740000,304.934000L302.596000,301.234000L295.917000,294.826000ZM303.429000,300.435000L307.285000,296.736000L296.750000,294.027000L303.429000,300.435000Z" clip-rule="evenodd" fill="rgb(255,255,255)" fill-rule="evenodd" stroke="none" stroke-width="1"/><path id="e2mb64qy83cm14" d="M295.643000,188.753000L306.334000,185.731000L302.470000,182.203000L295.643000,188.753000ZM301.595000,181.403000L297.582000,177.738000L295.085000,187.649000L301.595000,181.403000Z" clip-rule="evenodd" fill="rgb(255,255,255)" fill-rule="evenodd" stroke="none" stroke-width="1"/><path id="e2mb64qy83cm15" d="M186.038000,294.735000L179.538000,300.972000L183.039000,304.501000L186.038000,294.735000ZM178.704000,300.132000L185.514000,293.598000L174.708000,296.103000L178.704000,300.132000Z" clip-rule="evenodd" fill="rgb(255,255,255)" fill-rule="evenodd" stroke="none" stroke-width="1"/><g id="e2mb64qy83cm16" transform="matrix(1 0 0 1 2.45784759999998 -0.62698363999999)"><g id="e2mb64qy83cm17_tr" transform="translate(237.542152,241.126984) rotate(0)"><path id="e2mb64qy83cm17" d="M154.647536,150.441099C155.744692,149.352052,157.618463,149.847446,158.024084,151.333627L158.664174,153.674464C204.749656,113.214931,274.523409,113.501523,320.857209,154.366377L321.647676,151.401180C322.046372,149.907835,323.927069,149.404253,325.027192,150.497394L326.467642,151.927280C327.256129,152.709265,327.256129,153.978455,326.467642,154.761464L323.987417,157.223079C324.748204,157.941604,325.501076,158.670365,326.248013,159.411408C326.953398,160.111510,327.647900,160.817753,328.332509,161.531161L330.809766,159.071593C331.598254,158.288585,332.877444,158.288585,333.665932,159.071593L335.105392,160.501479C336.206505,161.594620,335.699973,163.460535,334.194229,163.855621L331.218355,164.637606C372.572909,210.716376,372.824197,280.231153,331.801064,326.016167L334.819479,326.828858C336.317309,327.232133,336.815926,329.091906,335.718770,330.180953L331.442931,334.424552C332.231418,333.641544,332.231418,332.372354,331.442931,331.589345L328.937973,329.103165C328.258310,329.810432,327.568754,330.512581,326.868316,331.207565C326.127316,331.942467,325.378401,332.667133,324.623550,333.379518L327.132464,335.869792C327.920952,336.651777,329.199153,336.651777,329.987641,335.869792L325.711801,340.113391C324.615635,341.202438,322.741863,340.707044,322.336242,339.220863L321.514118,336.213701C275.558237,376.675281,205.957615,376.541197,159.578306,335.977263L159.139048,337.624140C158.741341,339.118509,156.860644,339.622091,155.759531,338.528950L145.681331,328.524865C144.580218,327.431724,145.087739,325.564786,146.592495,325.169699L148.263456,324.730600C107.584607,278.777726,107.411476,209.942580,147.910269,164.363297L145.540848,163.725632C144.043018,163.322357,143.544401,161.462584,144.641556,160.373537L154.647536,150.441099ZM153.227862,154.684698L155.299498,156.740991C154.586198,157.415504,153.879824,158.100253,153.179386,158.795237C152.438385,159.531163,151.709256,160.274253,150.991010,161.023485L148.916407,158.964121C148.127919,158.182136,148.127919,156.912946,148.916407,156.129938L150.372685,154.684698C151.161173,153.902713,152.439374,153.902713,153.227862,154.684698ZM151.595485,328.347792C152.318677,329.103165,153.052753,329.850350,153.799689,330.591393C154.505074,331.291495,155.216395,331.981361,155.934641,332.660992L154.319082,334.264880C153.530594,335.046865,152.252393,335.046865,151.463905,334.264880L149.976958,332.788935C149.188470,332.005926,149.188470,330.736736,149.976958,329.954751L151.595485,328.347792ZM318.183078,322.587306C361.041399,280.043845,360.792090,210.819754,317.625102,167.970254C274.459103,125.120754,204.721955,124.873058,161.863634,167.416519C119.005314,209.958956,119.255612,279.183048,162.421611,322.032548C205.588599,364.882047,275.325747,365.129744,318.183078,322.587306Z" transform="scale(0.988735,0.996059) translate(-240.023530,-245.001440)" clip-rule="evenodd" filter="url(#e2mb64qy83cm17-filter)" fill="rgb(11,186,241)" fill-rule="evenodd" stroke="none" stroke-width="1"/></g></g><g id="e2mb64qy83cm18_tr" transform="translate(240,240.769005) rotate(0)"><g id="e2mb64qy83cm18" transform="translate(-240,-240.769005)"><path id="e2mb64qy83cm19" d="M211.848001,106L215.490147,107.900203C152.906779,119.411449,105.483683,174.339906,105.483683,240.364280C105.483683,305.189256,151.199987,359.318775,212.096351,372.158280L208.565023,374C148.013975,359.795561,102.923000,305.354793,102.923000,240.364280C102.923000,174.203115,149.651506,118.976295,211.848001,106ZM271.699512,373.900876C332.039809,359.543786,376.923000,305.205116,376.923000,240.364280C376.923000,174.357748,330.412172,119.234017,268.432365,106.091194L264.805061,107.983467C327.166793,119.674127,374.362317,174.497513,374.362317,240.364280C374.362317,305.035614,328.862702,359.062045,268.182036,372.066095L271.699512,373.900876Z" transform="matrix(1 0 0 1 0.07700000099470 0.49999999896139)" clip-rule="evenodd" fill="rgb(237,15,15)" fill-rule="evenodd" stroke="none" stroke-width="1"/><circle id="e2mb64qy83cm20" r="4.615380" transform="matrix(1 0 0 1 244.76900000000001 105.69199999999999)" fill="rgb(196,196,196)" stroke="none" stroke-width="1"/><circle id="e2mb64qy83cm21" r="4.615380" transform="matrix(1 0 0 1 241.07700000000000 375.84600000000000)" fill="rgb(196,196,196)" stroke="none" stroke-width="1"/></g></g><g id="e2mb64qy83cm22"><g id="e2mb64qy83cm23_tr" transform="translate(240,240.500000) rotate(0)"><path id="e2mb64qy83cm23" d="M136.009000,345.801000C123.392000,333.183000,113.417000,318.942000,106.094000,303.786000L108.170000,301.710000C115.394000,316.923000,125.327000,331.215000,137.961000,343.849000C147.658000,353.546000,158.332000,361.652000,169.649000,368.163000L167.625000,370.187000C156.343000,363.619000,145.698000,355.489000,136.009000,345.801000ZM369.264000,168.548000C362.696000,157.266000,354.566000,146.621000,344.878000,136.933000C332.260000,124.315000,318.019000,114.340000,302.863000,107.017000L300.787000,109.093000C316,116.317000,330.292000,126.251000,342.926000,138.885000C352.623000,148.582000,360.729000,159.255000,367.240000,170.572000L369.264000,168.548000Z" transform="translate(-237.679000,-238.602000)" clip-rule="evenodd" fill="rgb(3,219,233)" fill-rule="evenodd" stroke="none" stroke-width="1"/></g></g><g id="e2mb64qy83cm24_tr" transform="translate(240,240.500000) rotate(0)"><g id="e2mb64qy83cm24" transform="scale(1.034384,0.978460) translate(-241.800491,-241.416634)"><ellipse id="e2mb64qy83cm25" rx="3.103790" ry="3.301840" transform="matrix(1 0 0 1 241.80000000000001 73.02330000000001)" fill="rgb(255,255,255)" stroke="none" stroke-width="1"/><ellipse id="e2mb64qy83cm26" rx="3.103790" ry="3.301840" transform="matrix(1 0 0 1 241.80000000000001 409.81000000000000)" fill="rgb(255,255,255)" stroke="none" stroke-width="1"/><ellipse id="e2mb64qy83cm27" rx="3.109950" ry="3.296040" transform="matrix(0.98285800000000 -0.18436300000000 0.16352000000000 0.98654000000000 214.31299999999999 75.58159999999999)" fill="rgb(255,255,255)" stroke="none" stroke-width="1"/><ellipse id="e2mb64qy83cm28" rx="3.109950" ry="3.296040" transform="matrix(0.98285800000000 -0.18436300000000 0.16352000000000 0.98654000000000 269.28800000000001 407.25200000000001)" fill="rgb(255,255,255)" stroke="none" stroke-width="1"/><ellipse id="e2mb64qy83cm29" rx="3.279290" ry="3.127610" transform="matrix(0.32371600000000 -0.94615400000000 0.93253700000000 0.36107300000000 93.05340000000000 183.82300000000001)" fill="rgb(255,255,255)" stroke="none" stroke-width="1"/><ellipse id="e2mb64qy83cm30" rx="3.279290" ry="3.127610" transform="matrix(0.32371600000000 -0.94615400000000 0.93253700000000 0.36107300000000 390.54800000000000 299.01100000000002)" fill="rgb(255,255,255)" stroke="none" stroke-width="1"/><ellipse id="e2mb64qy83cm31" rx="3.296040" ry="3.109950" transform="matrix(0.16352000000000 -0.98654000000000 0.98285800000000 0.18436300000000 85.91190000000000 212.17599999999999)" fill="rgb(255,255,255)" stroke="none" stroke-width="1"/><ellipse id="e2mb64qy83cm32" rx="3.296040" ry="3.109950" transform="matrix(0.16352000000000 -0.98654000000000 0.98285800000000 0.18436300000000 397.68900000000002 270.65800000000002)" fill="rgb(255,255,255)" stroke="none" stroke-width="1"/><ellipse id="e2mb64qy83cm33" rx="3.301840" ry="3.103790" transform="matrix(0 -1 1 0 83.50700000000001 241.41690000000000)" fill="rgb(255,255,255)" stroke="none" stroke-width="1"/><ellipse id="e2mb64qy83cm34" rx="3.301840" ry="3.103790" transform="matrix(0 -1 1 0 400.09400000000005 241.41699999999997)" fill="rgb(255,255,255)" stroke="none" stroke-width="1"/><ellipse id="e2mb64qy83cm35" rx="3.296040" ry="3.109950" transform="matrix(-0.16352000000000 -0.98654000000000 0.98285800000000 -0.18436300000000 85.91200000000001 270.65800000000002)" fill="rgb(255,255,255)" stroke="none" stroke-width="1"/><ellipse id="e2mb64qy83cm36" rx="3.296040" ry="3.109950" transform="matrix(-0.16352000000000 -0.98654000000000 0.98285800000000 -0.18436300000000 397.68900000000002 212.17599999999999)" fill="rgb(255,255,255)" stroke="none" stroke-width="1"/><ellipse id="e2mb64qy83cm37" rx="3.279290" ry="3.127610" transform="matrix(-0.32371600000000 -0.94615400000000 0.93253700000000 -0.36107300000000 93.05340000000000 299.01100000000002)" fill="rgb(255,255,255)" stroke="none" stroke-width="1"/><ellipse id="e2mb64qy83cm38" rx="3.279290" ry="3.127610" transform="matrix(-0.32371600000000 -0.94615400000000 0.93253700000000 -0.36107300000000 390.54800000000000 183.82300000000001)" fill="rgb(255,255,255)" stroke="none" stroke-width="1"/><ellipse id="e2mb64qy83cm39" rx="3.274810" ry="3.132290" transform="matrix(-0.47388800000000 -0.87317100000000 0.85814700000000 -0.52706500000000 104.71400000000000 325.61399999999998)" fill="rgb(255,255,255)" stroke="none" stroke-width="1"/><ellipse id="e2mb64qy83cm40" rx="3.274810" ry="3.132290" transform="matrix(-0.47388800000000 -0.87317100000000 0.85814700000000 -0.52706500000000 378.88600000000002 157.22000000000000)" fill="rgb(255,255,255)" stroke="none" stroke-width="1"/><ellipse id="e2mb64qy83cm41" rx="3.261910" ry="3.145730" transform="matrix(-0.61162900000000 -0.77542100000000 0.75583200000000 -0.67468600000000 120.54100000000000 349.65800000000002)" fill="rgb(255,255,255)" stroke="none" stroke-width="1"/><ellipse id="e2mb64qy83cm42" rx="3.261910" ry="3.145730" transform="matrix(-0.61162900000000 -0.77542100000000 0.75583200000000 -0.67468600000000 363.06000000000000 133.17599999999999)" fill="rgb(255,255,255)" stroke="none" stroke-width="1"/><ellipse id="e2mb64qy83cm43" rx="3.242030" ry="3.166210" transform="matrix(-0.73338000000000 -0.65464500000000 0.63011600000000 -0.79885900000000 140.05099999999999 370.41399999999999)" fill="rgb(255,255,255)" stroke="none" stroke-width="1"/><ellipse id="e2mb64qy83cm44" rx="3.242030" ry="3.166210" transform="matrix(-0.73338000000000 -0.65464500000000 0.63011600000000 -0.79885900000000 343.55000000000001 112.42000000000000)" fill="rgb(255,255,255)" stroke="none" stroke-width="1"/><ellipse id="e2mb64qy83cm45" rx="3.217480" ry="3.191150" transform="matrix(-0.83542400000000 -0.51310900000000 0.48631200000000 -0.89606300000000 162.65400000000000 387.25000000000000)" fill="rgb(255,255,255)" stroke="none" stroke-width="1"/><ellipse id="e2mb64qy83cm46" rx="3.217480" ry="3.191150" transform="matrix(-0.83542400000000 -0.51310900000000 0.48631200000000 -0.89606300000000 320.94700000000000 95.58380000000000)" fill="rgb(255,255,255)" stroke="none" stroke-width="1"/><ellipse id="e2mb64qy83cm47" rx="3.191150" ry="3.217480" transform="matrix(-0.91396800000000 -0.35388300000000 0.32993500000000 -0.96432900000000 187.66100000000000 400.31599999999997)" fill="rgb(255,255,255)" stroke="none" stroke-width="1"/><ellipse id="e2mb64qy83cm48" rx="3.191150" ry="3.217480" transform="matrix(-0.91396800000000 -0.35388300000000 0.32993500000000 -0.96432900000000 295.94000000000000 83.83900000000000)" fill="rgb(255,255,255)" stroke="none" stroke-width="1"/><ellipse id="e2mb64qy83cm49" rx="3.166210" ry="3.242030" transform="matrix(-0.96539400000000 -0.18108700000000 0.16624400000000 -1.00297000000000 214.31299999999999 407.91300000000001)" fill="rgb(255,255,255)" stroke="none" stroke-width="1"/><ellipse id="e2mb64qy83cm50" rx="3.166210" ry="3.242030" transform="matrix(-0.96539400000000 -0.18108700000000 0.16624400000000 -1.00297000000000 269.28800000000001 76.24190000000000)" fill="rgb(255,255,255)" stroke="none" stroke-width="1"/><ellipse id="e2mb64qy83cm51" rx="3.127610" ry="3.279290" transform="matrix(0.93253700000000 -0.36107300000000 0.32371600000000 0.94615400000000 187.66100000000000 83.17870000000001)" fill="rgb(255,255,255)" stroke="none" stroke-width="1"/><ellipse id="e2mb64qy83cm52" rx="3.127610" ry="3.279290" transform="matrix(0.93253700000000 -0.36107300000000 0.32371600000000 0.94615400000000 295.94000000000000 399.65499999999997)" fill="rgb(255,255,255)" stroke="none" stroke-width="1"/><ellipse id="e2mb64qy83cm53" rx="3.154470" ry="3.253450" transform="matrix(0.85211300000000 -0.52335900000000 0.47699900000000 0.87890400000000 162.65400000000000 95.58380000000000)" fill="rgb(255,255,255)" stroke="none" stroke-width="1"/><ellipse id="e2mb64qy83cm54" rx="3.154470" ry="3.253450" transform="matrix(0.85211300000000 -0.52335900000000 0.47699900000000 0.87890400000000 320.94700000000000 387.25000000000000)" fill="rgb(255,255,255)" stroke="none" stroke-width="1"/><ellipse id="e2mb64qy83cm55" rx="3.187110" ry="3.221480" transform="matrix(0.74601800000000 -0.66592600000000 0.61930400000000 0.78515100000000 140.05099999999999 113.08000000000000)" fill="rgb(255,255,255)" stroke="none" stroke-width="1"/><ellipse id="e2mb64qy83cm56" rx="3.187110" ry="3.221480" transform="matrix(0.74601800000000 -0.66592600000000 0.61930400000000 0.78515100000000 343.54899999999998 371.07400000000001)" fill="rgb(255,255,255)" stroke="none" stroke-width="1"/><ellipse id="e2mb64qy83cm57" rx="3.221480" ry="3.187110" transform="matrix(0.61930400000000 -0.78515100000000 0.74601800000000 0.66592600000000 120.54100000000000 133.83600000000001)" fill="rgb(255,255,255)" stroke="none" stroke-width="1"/><ellipse id="e2mb64qy83cm58" rx="3.221480" ry="3.187110" transform="matrix(0.61930400000000 -0.78515100000000 0.74601800000000 0.66592600000000 363.06000000000000 350.31900000000002)" fill="rgb(255,255,255)" stroke="none" stroke-width="1"/><ellipse id="e2mb64qy83cm59" rx="3.253450" ry="3.154470" transform="matrix(0.47699900000000 -0.87890400000000 0.85211300000000 0.52335900000000 104.71400000000000 157.88000000000000)" fill="rgb(255,255,255)" stroke="none" stroke-width="1"/><ellipse id="e2mb64qy83cm60" rx="3.253450" ry="3.154470" transform="matrix(0.47699900000000 -0.87890400000000 0.85211300000000 0.52335900000000 378.88600000000002 326.27400000000000)" fill="rgb(255,255,255)" stroke="none" stroke-width="1"/></g></g><path id="e2mb64qy83cm61" d="M241.385000,318.923000C283.868000,318.923000,318.308000,284.483000,318.308000,242C318.308000,199.517000,283.868000,165.077000,241.385000,165.077000C198.901000,165.077000,164.462000,199.517000,164.462000,242C164.462000,284.483000,198.901000,318.923000,241.385000,318.923000ZM241.385000,315.964000C282.234000,315.964000,315.349000,282.849000,315.349000,242C315.349000,201.151000,282.234000,168.036000,241.385000,168.036000C200.535000,168.036000,167.420000,201.151000,167.420000,242C167.420000,282.849000,200.535000,315.964000,241.385000,315.964000Z" clip-rule="evenodd" fill="rgb(255,255,255)" fill-rule="evenodd" stroke="none" stroke-width="1"/><g id="e2mb64qy83cm62"><g id="e2mb64qy83cm63_tr" transform="translate(240,240.500000) rotate(0)"><path id="e2mb64qy83cm63" d="M214.971000,300.362000L213.778000,297.086000C201.516000,290.438000,191.543000,279.453000,186.397000,265.315000C181.251000,251.177000,181.830000,236.351000,186.951000,223.377000L185.758000,220.100000C179.517000,234.149000,178.500000,250.539000,184.173000,266.124000C189.846000,281.710000,201.160000,293.612000,214.971000,300.362000ZM270.635000,190.606000L271.869000,193.996000C283.375000,200.715000,292.690000,211.340000,297.603000,224.839000C302.517000,238.338000,302.210000,252.465000,297.715000,265.008000L298.949000,268.397000C304.552000,254.727000,305.279000,239.007000,299.827000,224.030000C294.376000,209.052000,283.715000,197.477000,270.635000,190.606000Z" transform="translate(-242.000060,-245.484000)" clip-rule="evenodd" fill="rgb(255,122,0)" fill-rule="evenodd" stroke="none" stroke-width="1"/></g></g><g id="e2mb64qy83cm64"><g id="e2mb64qy83cm65_tr" transform="translate(240.033389,240.458703) rotate(0)"><path id="e2mb64qy83cm65" d="M238.497513,348.192000C266.733511,348.192000,292.366134,337.047296,311.236216,318.916222L302.785473,310.394577C286.084545,326.374438,263.437916,336.191884,238.497513,336.191884C213.232906,336.191884,190.321461,326.117713,173.560171,309.766464L165.110401,318.287094C184.039871,336.788541,209.937311,348.192000,238.497513,348.192000ZM162.994794,316.160234L171.446511,307.637575C155.376468,290.922040,145.497471,268.210507,145.497471,243.191493C145.497471,217.972578,155.536137,195.097674,171.834973,178.345610L163.384229,169.822950C144.892873,188.751596,133.498000,214.641242,133.498000,243.191493C133.498000,271.541843,144.733205,297.268119,162.994794,316.160234ZM343.498000,243.191493C343.498000,271.867569,332.003821,297.857673,313.370321,316.806613L304.919577,308.285983C321.360557,291.511594,331.497555,268.535218,331.497555,243.191493C331.497555,217.647867,321.198942,194.509135,304.527222,177.701261L312.977965,169.179616C331.842205,188.162042,343.498000,214.315516,343.498000,243.191493ZM310.833151,167.082183C292.001039,149.179422,266.532952,138.192000,238.497513,138.192000C210.137870,138.192000,184.403993,149.435132,165.510545,167.707252L173.961289,176.228897C190.685583,160.106976,213.433465,150.192116,238.497513,150.192116C263.237357,150.192116,285.720423,159.851266,302.381434,175.604843L310.833151,167.082183Z" transform="translate(-238.498000,-243.192000)" clip-rule="evenodd" fill="rgb(255,255,255)" fill-rule="evenodd" stroke="none" stroke-width="1"/></g></g></svg>