<svg id="eb0msx74cal41" xmlns="http://www.w3.org/2000/svg" xmlns:xlink="http://www.w3.org/1999/xlink" viewBox="0 0 1024 768" shape-rendering="geometricPrecision" text-rendering="geometricPrecision"><style><![CDATA[#eb0msx74cal44_tr {animation: eb0msx74cal44_tr__tr 3000ms linear infinite normal forwards}@keyframes eb0msx74cal44_tr__tr { 0% {transform: translate(458.660000px,318.460000px) rotate(0deg)} 100% {transform: translate(458.660000px,318.460000px) rotate(360deg)} }#eb0msx74cal47_tr {animation: eb0msx74cal47_tr__tr 3000ms linear infinite normal forwards}@keyframes eb0msx74cal47_tr__tr { 0% {transform: translate(459.053986px,318.805016px) rotate(0deg)} 100% {transform: translate(459.053986px,318.805016px) rotate(-360deg)} }#eb0msx74cal410_tr {animation: eb0msx74cal410_tr__tr 3000ms linear infinite normal forwards}@keyframes eb0msx74cal410_tr__tr { 0% {transform: translate(458.643372px,318.381836px) rotate(0deg)} 100% {transform: translate(458.643372px,318.381836px) rotate(360deg)} }#eb0msx74cal417_tr {animation: eb0msx74cal417_tr__tr 3000ms linear infinite normal forwards}@keyframes eb0msx74cal417_tr__tr { 0% {transform: translate(458.664993px,318.464996px) rotate(0deg)} 100% {transform: translate(458.664993px,318.464996px) rotate(-360deg)} }]]></style><g id="eb0msx74cal42" transform="matrix(1 0 0 1 36.27253700000000 103.92515700000001)"><path id="eb0msx74cal43" d="M514.280000,132.220000C434.190000,78.400000,325.250000,99.760000,271.430000,179.850000C217.600000,259.940000,238.970000,368.880000,319.060000,422.710000C399.150000,476.530000,508.090000,455.170000,561.910000,375.080000C615.730000,294.990000,594.360000,186.040000,514.280000,132.220000ZM320.630000,420.350000C241.840000,367.400000,220.820000,260.220000,273.770000,181.420000C326.720000,102.630000,433.900000,81.610000,512.690000,134.560000C591.480000,187.510000,612.500000,294.690000,559.550000,373.480000C506.600000,452.280000,399.420000,473.310000,320.630000,420.350000Z" transform="matrix(1 0 0 1 42 41)" fill="rgb(138,243,255)" stroke="none" stroke-width="1"/><g id="eb0msx74cal44_tr" transform="translate(458.660000,318.460000) rotate(0)"><path id="eb0msx74cal44" d="M355.790000,368.030000C405.810000,401.650000,473.610000,388.350000,507.230000,338.330000C540.850000,288.310000,527.550000,220.510000,477.530000,186.890000C427.510000,153.270000,359.710000,166.570000,326.090000,216.590000C292.470000,266.610000,305.770000,334.420000,355.790000,368.030000ZM330.240000,324.030000C327.380000,323.050000,325.850000,319.940000,326.830000,317.080000C327.810000,314.210000,330.930000,312.690000,333.790000,313.670000C336.650000,314.650000,338.180000,317.760000,337.200000,320.620000C336.220000,323.480000,333.100000,325.010000,330.240000,324.030000ZM345.230000,344.810000C342.210000,344.600000,339.930000,341.990000,340.140000,338.970000C340.350000,335.950000,342.960000,333.670000,345.980000,333.880000C349,334.090000,351.280000,336.700000,351.070000,339.720000C350.870000,342.740000,348.250000,345.020000,345.230000,344.810000ZM365.100000,361C362.130000,361.580000,359.250000,359.650000,358.670000,356.680000C358.090000,353.710000,360.020000,350.830000,362.990000,350.250000C365.960000,349.670000,368.840000,351.600000,369.420000,354.570000C370,357.540000,368.070000,360.420000,365.100000,361ZM495.890000,335.450000C492.920000,336.030000,490.040000,334.100000,489.460000,331.130000C488.880000,328.160000,490.810000,325.280000,493.780000,324.700000C496.750000,324.120000,499.630000,326.050000,500.210000,329.020000C500.790000,331.990000,498.850000,334.870000,495.890000,335.450000ZM510.710000,305.640000C512.040000,308.360000,510.920000,311.640000,508.200000,312.970000C505.480000,314.300000,502.200000,313.170000,500.870000,310.460000C499.540000,307.740000,500.660000,304.460000,503.380000,303.130000C506.090000,301.800000,509.370000,302.930000,510.710000,305.640000ZM507.070000,279.820000C509.350000,277.830000,512.810000,278.070000,514.800000,280.350000C516.790000,282.630000,516.550000,286.090000,514.270000,288.080000C511.990000,290.070000,508.530000,289.830000,506.540000,287.550000C504.550000,285.270000,504.790000,281.810000,507.070000,279.820000ZM503.090000,230.890000C505.950000,231.870000,507.480000,234.980000,506.500000,237.850000C505.520000,240.710000,502.410000,242.240000,499.540000,241.260000C496.680000,240.280000,495.150000,237.170000,496.130000,234.300000C497.110000,231.440000,500.230000,229.910000,503.090000,230.890000ZM488.090000,210.110000C491.110000,210.320000,493.390000,212.930000,493.180000,215.950000C492.970000,218.970000,490.360000,221.250000,487.340000,221.040000C484.320000,220.830000,482.040000,218.220000,482.250000,215.200000C482.460000,212.180000,485.070000,209.910000,488.090000,210.110000ZM468.230000,193.920000C471.200000,193.340000,474.080000,195.270000,474.660000,198.240000C475.240000,201.210000,473.310000,204.090000,470.340000,204.670000C467.370000,205.250000,464.490000,203.320000,463.910000,200.350000C463.320000,197.380000,465.260000,194.500000,468.230000,193.920000ZM456.270000,192.820000L460.170000,212.720000C495.870000,236.710000,505.390000,285.270000,481.400000,320.970000L485.300000,340.880000C471.870000,355.420000,454.520000,364.880000,436.010000,368.800000L426.510000,320.360000C437.050000,317.940000,446.750000,311.710000,453.240000,302.050000C466.800000,281.880000,461.420000,254.430000,441.240000,240.870000C431.570000,234.370000,420.250000,232.270000,409.570000,234.010000L400.070000,185.570000C418.700000,182.210000,438.340000,184.420000,456.270000,192.820000ZM420.400000,271.900000C423.470000,273.970000,424.290000,278.130000,422.220000,281.200000C420.160000,284.270000,416,285.090000,412.920000,283.030000C409.850000,280.960000,409.030000,276.800000,411.100000,273.730000C413.170000,270.650000,417.330000,269.840000,420.400000,271.900000ZM415.250000,262.890000L413.410000,253.540000C418.620000,252.830000,424.070000,253.810000,428.890000,256.640000L423.560000,264.570000C420.940000,263.150000,418.060000,262.610000,415.250000,262.890000ZM409.760000,290.360000C412.390000,291.770000,415.270000,292.300000,418.080000,292.030000L419.920000,301.380000C414.710000,302.090000,409.260000,301.120000,404.440000,298.280000L409.760000,290.360000ZM430.690000,273.270000C429.880000,270.560000,428.300000,268.100000,426,266.200000L435.600000,251.910000L439.560000,254.580000L438.230000,256.560000L441.310000,258.630000L442.640000,256.650000L444.170000,254.370000L427.650000,243.270000L426.120000,245.540000L424.780000,247.520000L427.860000,249.590000L429.190000,247.610000L433.160000,250.270000L429.670000,255.460000C424.530000,252.410000,418.700000,251.370000,413.130000,252.140000L409.850000,235.400000C420.170000,233.720000,431.120000,235.760000,440.460000,242.040000C449.800000,248.320000,455.820000,257.680000,458.170000,267.870000L430.690000,273.270000ZM410.360000,252.690000C404.460000,254.180000,399.070000,257.740000,395.410000,263.180000L396.590000,263.970000C400.030000,258.860000,405.090000,255.510000,410.630000,254.080000L412.470000,263.430000C409.310000,264.370000,406.430000,266.310000,404.460000,269.250000C402.480000,272.200000,401.770000,275.590000,402.090000,278.870000L374.600000,284.260000C372.930000,273.940000,374.970000,262.990000,381.250000,253.650000C387.530000,244.310000,396.890000,238.290000,407.080000,235.940000L410.360000,252.690000ZM402.640000,281.660000C403.450000,284.370000,405.030000,286.830000,407.330000,288.730000L397.310000,303.640000L393.350000,300.970000L394.680000,298.990000L391.600000,296.920000L390.270000,298.900000L388.740000,301.180000L405.270000,312.280000L406.800000,310.010000L408.140000,308.030000L405.060000,305.960000L403.730000,307.940000L399.760000,305.280000L403.670000,299.460000C408.810000,302.510000,414.640000,303.550000,420.210000,302.780000L423.500000,319.520000C413.180000,321.190000,402.230000,319.160000,392.890000,312.870000C383.550000,306.590000,377.520000,297.230000,375.180000,287.040000L402.640000,281.660000ZM422.960000,302.230000C428.860000,300.730000,434.250000,297.170000,437.900000,291.740000L436.730000,290.950000C433.300000,296.060000,428.230000,299.420000,422.690000,300.840000L420.850000,291.490000C424,290.550000,426.880000,288.610000,428.860000,285.670000C430.840000,282.730000,431.540000,279.330000,431.220000,276.050000L458.710000,270.660000C460.380000,280.980000,458.350000,291.920000,452.070000,301.270000C445.790000,310.610000,436.430000,316.630000,426.240000,318.980000L422.960000,302.230000ZM397.310000,186.120000L406.810000,234.560000C396.270000,236.980000,386.570000,243.200000,380.080000,252.870000C366.520000,273.050000,371.900000,300.490000,392.080000,314.050000C401.750000,320.550000,413.070000,322.650000,423.750000,320.910000L433.250000,369.350000C414.630000,372.710000,394.990000,370.510000,377.070000,362.110000L373.170000,342.200000C337.470000,318.210000,327.950000,269.650000,351.940000,233.950000L348.040000,214.050000C361.450000,199.500000,378.800000,190.040000,397.310000,186.120000ZM337.440000,219.470000C340.410000,218.890000,343.290000,220.820000,343.870000,223.790000C344.450000,226.760000,342.520000,229.640000,339.550000,230.220000C336.580000,230.800000,333.700000,228.870000,333.120000,225.900000C332.540000,222.930000,334.470000,220.050000,337.440000,219.470000ZM322.620000,249.280000C321.290000,246.560000,322.410000,243.280000,325.130000,241.950000C327.850000,240.620000,331.130000,241.740000,332.460000,244.460000C333.790000,247.180000,332.670000,250.460000,329.950000,251.790000C327.230000,253.120000,323.950000,252,322.620000,249.280000ZM318.530000,274.580000C316.540000,272.300000,316.770000,268.840000,319.060000,266.850000C321.340000,264.860000,324.800000,265.100000,326.790000,267.380000C328.780000,269.660000,328.540000,273.120000,326.260000,275.100000C323.980000,277.090000,320.520000,276.860000,318.530000,274.580000Z" transform="translate(-416.660000,-277.460000)" fill="rgb(138,243,255)" stroke="none" stroke-width="1"/></g><path id="eb0msx74cal45" d="M513.380000,342.540000C513.490000,342.380000,513.450000,342.160000,513.280000,342.050000C513.120000,341.940000,512.900000,341.980000,512.790000,342.150000C477.150000,395.180000,405.020000,409.320000,351.990000,373.690000C351.830000,373.580000,351.610000,373.620000,351.500000,373.780000C351.390000,373.940000,351.440000,374.160000,351.600000,374.270000C404.950000,410.130000,477.530000,395.900000,513.380000,342.540000Z" transform="matrix(1 0 0 1 42 41)" fill="rgb(138,243,255)" stroke="none" stroke-width="1"/><path id="eb0msx74cal46" d="M319.870000,212.490000C319.760000,212.650000,319.810000,212.870000,319.970000,212.980000C320.130000,213.090000,320.350000,213.050000,320.460000,212.890000C356.100000,159.860000,428.240000,145.710000,481.260000,181.350000C481.420000,181.460000,481.640000,181.420000,481.750000,181.250000C481.860000,181.090000,481.810000,180.870000,481.650000,180.760000C428.300000,144.900000,355.720000,159.140000,319.870000,212.490000Z" transform="matrix(1 0 0 1 42 41)" fill="rgb(138,243,255)" stroke="none" stroke-width="1"/><g id="eb0msx74cal47_tr" transform="translate(459.053986,318.805016) rotate(0)"><g id="eb0msx74cal47" transform="translate(-459.053986,-318.805016)"><path id="eb0msx74cal48" d="M488.860000,170.970000C487.560000,170.100000,485.800000,170.440000,484.930000,171.740000C484.060000,173.040000,484.410000,174.800000,485.700000,175.670000C542.020000,213.520000,557.040000,290.130000,519.190000,346.450000C518.320000,347.750000,518.670000,349.510000,519.960000,350.380000C521.260000,351.250000,523.020000,350.910000,523.890000,349.610000C563.480000,290.700000,547.760000,210.560000,488.860000,170.970000Z" transform="matrix(1 0 0 1 42 41)" fill="rgb(138,243,255)" stroke="none" stroke-width="1"/><path id="eb0msx74cal49" d="M314.150000,205.230000C312.850000,204.360000,311.090000,204.700000,310.220000,206C270.630000,264.910000,286.340000,345.040000,345.260000,384.640000C346.560000,385.510000,348.320000,385.170000,349.190000,383.870000C350.060000,382.570000,349.720000,380.810000,348.420000,379.940000C292.100000,342.090000,277.080000,265.480000,314.930000,209.160000C315.790000,207.870000,315.440000,206.110000,314.150000,205.230000Z" transform="matrix(1 0 0 1 42 41)" fill="rgb(138,243,255)" stroke="none" stroke-width="1"/></g></g><g id="eb0msx74cal410_tr" transform="translate(458.643372,318.381836) rotate(0)"><g id="eb0msx74cal410" transform="translate(-458.643372,-318.381836)"><path id="eb0msx74cal411" d="M480.610000,408.020000C470.890000,412.780000,464.520000,415.390000,454.400000,417.830000L459.170000,435.890000C469.210000,433.190000,479.140000,429.520000,488.820000,424.780000C498.500000,420.040000,507.470000,414.450000,515.760000,408.170000L503.940000,393.690000C495.820000,400.190000,490.320000,403.260000,480.610000,408.020000Z" transform="matrix(1 0 0 1 42 41)" fill="rgb(138,243,255)" stroke="none" stroke-width="1"/><path id="eb0msx74cal412" d="M406.760000,422.500000C395.960000,421.760000,389.140000,420.830000,379.160000,417.890000L374.260000,435.920000C384.300000,438.600000,394.730000,440.390000,405.490000,441.130000C416.240000,441.860000,426.810000,441.510000,437.120000,440.220000L434.120000,421.770000C423.850000,423.320000,417.560000,423.240000,406.760000,422.500000Z" transform="matrix(1 0 0 1 42 41)" fill="rgb(138,243,255)" stroke="none" stroke-width="1"/><path id="eb0msx74cal413" d="M335.570000,398.120000C326.590000,392.080000,321.140000,387.860000,313.970000,380.330000L300.710000,393.490000C308.070000,400.830000,316.200000,407.600000,325.150000,413.610000C334.090000,419.620000,343.430000,424.600000,353,428.640000L359.630000,411.160000C349.960000,407.370000,344.550000,404.150000,335.570000,398.120000Z" transform="matrix(1 0 0 1 42 41)" fill="rgb(138,243,255)" stroke="none" stroke-width="1"/><path id="eb0msx74cal414" d="M276.300000,315.200000L258.240000,319.970000C260.930000,330.010000,264.600000,339.940000,269.340000,349.620000C274.080000,359.300000,279.670000,368.270000,285.950000,376.550000L300.430000,364.730000C293.940000,356.610000,290.870000,351.120000,286.110000,341.400000C281.350000,331.690000,278.740000,325.320000,276.300000,315.200000Z" transform="matrix(1 0 0 1 42 41)" fill="rgb(138,243,255)" stroke="none" stroke-width="1"/><path id="eb0msx74cal415" d="M276.230000,239.960000L258.200000,235.060000C255.510000,245.100000,253.730000,255.530000,252.990000,266.290000C252.260000,277.040000,252.610000,287.610000,253.910000,297.920000L272.370000,294.920000C270.810000,284.640000,270.890000,278.350000,271.630000,267.560000C272.360000,256.770000,273.290000,249.940000,276.230000,239.960000Z" transform="matrix(1 0 0 1 42 41)" fill="rgb(138,243,255)" stroke="none" stroke-width="1"/><path id="eb0msx74cal416" d="M508.360000,141.030000C433.470000,90.700000,331.590000,110.680000,281.250000,185.570000L296.750000,195.990000C341.340000,129.640000,431.590000,111.940000,497.940000,156.530000C564.290000,201.120000,581.990000,291.380000,537.400000,357.720000L552.900000,368.140000C603.230000,293.240000,583.250000,191.360000,508.360000,141.030000Z" transform="matrix(1 0 0 1 42 41)" fill="rgb(138,243,255)" stroke="none" stroke-width="1"/></g></g><g id="eb0msx74cal417_tr" transform="translate(458.664993,318.464996) rotate(0)"><g id="eb0msx74cal417" transform="translate(-458.664993,-318.464996)"><path id="eb0msx74cal418" d="M449.330000,228.850000C452.440000,230.940000,455.250000,233.290000,457.860000,235.810000L462.590000,231.120000C459.740000,228.250000,456.570000,225.610000,453.090000,223.270000C449.610000,220.930000,445.970000,218.990000,442.230000,217.440000L439.670000,223.590000C442.980000,225.050000,446.230000,226.760000,449.330000,228.850000Z" transform="matrix(1 0 0 1 42 41)" fill="rgb(138,243,255)" stroke="none" stroke-width="1"/><path id="eb0msx74cal419" d="M473.170000,261.990000L479.610000,260.290000C478.580000,256.380000,477.150000,252.510000,475.310000,248.740000C473.460000,244.970000,471.280000,241.470000,468.820000,238.260000L463.530000,242.310000C465.670000,245.230000,467.620000,248.340000,469.270000,251.700000C470.910000,255.060000,472.170000,258.510000,473.170000,261.990000Z" transform="matrix(1 0 0 1 42 41)" fill="rgb(138,243,255)" stroke="none" stroke-width="1"/><path id="eb0msx74cal420" d="M473.330000,292.310000L479.760000,294.060000C480.820000,290.160000,481.520000,286.100000,481.810000,281.900000C482.100000,277.710000,481.950000,273.590000,481.430000,269.580000L474.830000,270.440000C475.220000,274.040000,475.360000,277.710000,475.100000,281.440000C474.840000,285.190000,474.210000,288.800000,473.330000,292.310000Z" transform="matrix(1 0 0 1 42 41)" fill="rgb(138,243,255)" stroke="none" stroke-width="1"/><path id="eb0msx74cal421" d="M465.270000,310.130000C463.180000,313.240000,460.830000,316.050000,458.310000,318.660000L463,323.390000C465.870000,320.540000,468.510000,317.370000,470.850000,313.890000C473.190000,310.410000,475.130000,306.770000,476.680000,303.030000L470.530000,300.470000C469.080000,303.780000,467.370000,307.020000,465.270000,310.130000Z" transform="matrix(1 0 0 1 42 41)" fill="rgb(138,243,255)" stroke="none" stroke-width="1"/><path id="eb0msx74cal422" d="M391.100000,337.490000L393.660000,331.340000C390.350000,329.880000,387.100000,328.160000,383.990000,326.070000C380.880000,323.980000,378.070000,321.630000,375.460000,319.110000L370.730000,323.800000C373.580000,326.670000,376.750000,329.310000,380.230000,331.650000C383.730000,334,387.370000,335.930000,391.100000,337.490000Z" transform="matrix(1 0 0 1 42 41)" fill="rgb(138,243,255)" stroke="none" stroke-width="1"/><path id="eb0msx74cal423" d="M360.160000,292.930000L353.720000,294.630000C354.750000,298.540000,356.180000,302.410000,358.020000,306.180000C359.870000,309.950000,362.050000,313.440000,364.510000,316.660000L369.800000,312.620000C367.660000,309.700000,365.710000,306.590000,364.060000,303.230000C362.420000,299.860000,361.160000,296.410000,360.160000,292.930000Z" transform="matrix(1 0 0 1 42 41)" fill="rgb(138,243,255)" stroke="none" stroke-width="1"/><path id="eb0msx74cal424" d="M351.520000,273.010000C351.230000,277.200000,351.380000,281.320000,351.900000,285.330000L358.500000,284.470000C358.110000,280.870000,357.970000,277.200000,358.230000,273.470000C358.480000,269.730000,359.120000,266.120000,359.990000,262.600000L353.570000,260.850000C352.510000,264.760000,351.810000,268.830000,351.520000,273.010000Z" transform="matrix(1 0 0 1 42 41)" fill="rgb(138,243,255)" stroke="none" stroke-width="1"/><path id="eb0msx74cal425" d="M362.780000,254.460000C364.240000,251.140000,365.960000,247.900000,368.050000,244.790000C370.140000,241.680000,372.490000,238.860000,375.010000,236.260000L370.320000,231.530000C367.450000,234.380000,364.810000,237.550000,362.470000,241.030000C360.130000,244.510000,358.190000,248.150000,356.640000,251.890000L362.780000,254.460000Z" transform="matrix(1 0 0 1 42 41)" fill="rgb(138,243,255)" stroke="none" stroke-width="1"/></g></g><path id="eb0msx74cal426" d="M437.750000,226.740000L435.210000,232.860000C438.100000,234.070000,440.910000,235.560000,443.610000,237.370000C446.310000,239.180000,448.750000,241.220000,450.960000,243.440000L455.660000,238.770000C453.140000,236.260000,450.360000,233.940000,447.290000,231.880000C444.230000,229.830000,441.030000,228.130000,437.750000,226.740000Z" transform="matrix(1 0 0 1 42 41)" fill="rgb(138,243,255)" stroke="none" stroke-width="1"/><path id="eb0msx74cal427" d="M429.350000,230.860000L431.090000,224.470000C427.650000,223.550000,424.080000,222.940000,420.400000,222.680000C416.720000,222.430000,413.100000,222.560000,409.570000,223L410.420000,229.570000C413.520000,229.170000,416.710000,229.050000,419.950000,229.280000C423.190000,229.490000,426.330000,230.040000,429.350000,230.860000Z" transform="matrix(1 0 0 1 42 41)" fill="rgb(138,243,255)" stroke="none" stroke-width="1"/><path id="eb0msx74cal428" d="M395.420000,234.080000C398.340000,232.650000,401.330000,231.560000,404.350000,230.760000L402.660000,224.350000C399.220000,225.280000,395.820000,226.530000,392.510000,228.150000C389.200000,229.770000,386.130000,231.690000,383.290000,233.840000L387.320000,239.100000C389.800000,237.200000,392.500000,235.510000,395.420000,234.080000Z" transform="matrix(1 0 0 1 42 41)" fill="rgb(138,243,255)" stroke="none" stroke-width="1"/><path id="eb0msx74cal429" d="M372.060000,258.920000C373.270000,256.030000,374.760000,253.220000,376.570000,250.520000C378.380000,247.820000,380.420000,245.380000,382.640000,243.170000L377.970000,238.470000C375.460000,240.990000,373.140000,243.770000,371.080000,246.830000C369.020000,249.900000,367.320000,253.100000,365.940000,256.370000L372.060000,258.920000Z" transform="matrix(1 0 0 1 42 41)" fill="rgb(138,243,255)" stroke="none" stroke-width="1"/><path id="eb0msx74cal430" d="M363.660000,263.030000C362.750000,266.470000,362.130000,270.040000,361.880000,273.720000C361.630000,277.400000,361.760000,281.020000,362.200000,284.560000L368.770000,283.700000C368.370000,280.600000,368.250000,277.410000,368.480000,274.170000C368.700000,270.930000,369.250000,267.790000,370.060000,264.770000L363.660000,263.030000Z" transform="matrix(1 0 0 1 42 41)" fill="rgb(138,243,255)" stroke="none" stroke-width="1"/><path id="eb0msx74cal431" d="M373.040000,310.840000L378.300000,306.810000C376.400000,304.320000,374.710000,301.620000,373.280000,298.700000C371.850000,295.780000,370.760000,292.790000,369.960000,289.770000L363.550000,291.460000C364.480000,294.890000,365.730000,298.300000,367.350000,301.610000C368.970000,304.930000,370.890000,308,373.040000,310.840000Z" transform="matrix(1 0 0 1 42 41)" fill="rgb(138,243,255)" stroke="none" stroke-width="1"/><path id="eb0msx74cal432" d="M395.570000,328.180000L398.120000,322.060000C395.230000,320.860000,392.420000,319.360000,389.720000,317.550000C387.020000,315.740000,384.580000,313.690000,382.370000,311.480000L377.670000,316.140000C380.200000,318.650000,382.970000,320.970000,386.040000,323.030000C389.100000,325.090000,392.290000,326.800000,395.570000,328.180000Z" transform="matrix(1 0 0 1 42 41)" fill="rgb(138,243,255)" stroke="none" stroke-width="1"/><path id="eb0msx74cal433" d="M412.920000,332.250000C416.600000,332.500000,420.220000,332.370000,423.760000,331.930000L422.910000,325.360000C419.810000,325.760000,416.620000,325.880000,413.380000,325.660000C410.140000,325.440000,407,324.890000,403.980000,324.080000L402.240000,330.470000C405.670000,331.380000,409.240000,332,412.920000,332.250000Z" transform="matrix(1 0 0 1 42 41)" fill="rgb(138,243,255)" stroke="none" stroke-width="1"/><path id="eb0msx74cal434" d="M437.910000,320.840000C434.990000,322.270000,432,323.360000,428.980000,324.170000L430.670000,330.570000C434.110000,329.640000,437.510000,328.400000,440.820000,326.780000C444.130000,325.160000,447.200000,323.230000,450.040000,321.090000L446.020000,315.830000C443.530000,317.720000,440.830000,319.410000,437.910000,320.840000Z" transform="matrix(1 0 0 1 42 41)" fill="rgb(138,243,255)" stroke="none" stroke-width="1"/><path id="eb0msx74cal435" d="M461.260000,296.010000C460.060000,298.900000,458.570000,301.710000,456.750000,304.410000C454.940000,307.110000,452.900000,309.550000,450.680000,311.760000L455.340000,316.460000C457.850000,313.940000,460.180000,311.160000,462.230000,308.100000C464.290000,305.040000,465.990000,301.840000,467.370000,298.560000L461.260000,296.010000Z" transform="matrix(1 0 0 1 42 41)" fill="rgb(138,243,255)" stroke="none" stroke-width="1"/><path id="eb0msx74cal436" d="M469.660000,291.890000C470.570000,288.450000,471.190000,284.880000,471.440000,281.200000C471.690000,277.520000,471.560000,273.900000,471.120000,270.370000L464.550000,271.220000C464.950000,274.330000,465.060000,277.510000,464.850000,280.750000C464.630000,283.990000,464.080000,287.130000,463.260000,290.150000L469.660000,291.890000Z" transform="matrix(1 0 0 1 42 41)" fill="rgb(138,243,255)" stroke="none" stroke-width="1"/><path id="eb0msx74cal437" d="M463.370000,265.150000L469.780000,263.460000C468.850000,260.020000,467.600000,256.620000,465.980000,253.310000C464.360000,250,462.440000,246.930000,460.290000,244.090000L455.030000,248.120000C456.930000,250.610000,458.620000,253.310000,460.050000,256.220000C461.470000,259.130000,462.570000,262.120000,463.370000,265.150000Z" transform="matrix(1 0 0 1 42 41)" fill="rgb(138,243,255)" stroke="none" stroke-width="1"/><path id="eb0msx74cal438" d="M415.440000,279.280000C416.440000,279.960000,417.800000,279.690000,418.480000,278.690000C419.160000,277.680000,418.890000,276.320000,417.890000,275.650000C416.880000,274.980000,415.520000,275.240000,414.850000,276.250000C414.170000,277.240000,414.440000,278.600000,415.440000,279.280000Z" transform="matrix(1 0 0 1 42 41)" fill="rgb(138,243,255)" stroke="none" stroke-width="1"/></g></svg>