<svg id="e99x6yk0tc551" xmlns="http://www.w3.org/2000/svg" xmlns:xlink="http://www.w3.org/1999/xlink" viewBox="0 0 855 1070" shape-rendering="geometricPrecision" text-rendering="geometricPrecision"><style><![CDATA[#e99x6yk0tc5526 {animation: e99x6yk0tc5526_c_o 3000ms linear infinite normal forwards}@keyframes e99x6yk0tc5526_c_o { 0% {opacity: 1} 50% {opacity: 0.180000} 100% {opacity: 1} }#e99x6yk0tc5529 {animation: e99x6yk0tc5529_c_o 3000ms linear infinite normal forwards}@keyframes e99x6yk0tc5529_c_o { 0% {opacity: 1} 50% {opacity: 0.180000} 100% {opacity: 1} }#e99x6yk0tc5532 {animation: e99x6yk0tc5532_c_o 3000ms linear infinite normal forwards}@keyframes e99x6yk0tc5532_c_o { 0% {opacity: 1} 50% {opacity: 0.180000} 100% {opacity: 1} }#e99x6yk0tc5540 {animation: e99x6yk0tc5540_c_o 3000ms linear infinite normal forwards}@keyframes e99x6yk0tc5540_c_o { 0% {opacity: 1} 50% {opacity: 0.180000} 100% {opacity: 1} }#e99x6yk0tc5549 {animation: e99x6yk0tc5549_c_o 3000ms linear infinite normal forwards}@keyframes e99x6yk0tc5549_c_o { 0% {opacity: 1} 50% {opacity: 0.180000} 100% {opacity: 1} }]]></style><defs><filter id="e99x6yk0tc5524-filter" x="-400%" width="600%" y="-400%" height="600%"><feGaussianBlur id="e99x6yk0tc5524-filter-drop-shadow-0-blur" in="SourceAlpha" stdDeviation="10,0"/><feOffset id="e99x6yk0tc5524-filter-drop-shadow-0-offset" dx="0" dy="0" result="tmp"/><feFlood id="e99x6yk0tc5524-filter-drop-shadow-0-flood" flood-color="rgb(0,0,0)"/><feComposite id="e99x6yk0tc5524-filter-drop-shadow-0-composite" operator="in" in2="tmp"/><feMerge id="e99x6yk0tc5524-filter-drop-shadow-0-merge"><feMergeNode id="e99x6yk0tc5524-filter-drop-shadow-0-merge-node-1"/><feMergeNode id="e99x6yk0tc5524-filter-drop-shadow-0-merge-node-2" in="SourceGraphic"/></feMerge></filter><filter id="e99x6yk0tc5527-filter" x="-400%" width="600%" y="-400%" height="600%"><feGaussianBlur id="e99x6yk0tc5527-filter-drop-shadow-0-blur" in="SourceAlpha" stdDeviation="5,5"/><feOffset id="e99x6yk0tc5527-filter-drop-shadow-0-offset" dx="0" dy="0" result="tmp"/><feFlood id="e99x6yk0tc5527-filter-drop-shadow-0-flood" flood-color="rgb(23,243,246)"/><feComposite id="e99x6yk0tc5527-filter-drop-shadow-0-composite" operator="in" in2="tmp"/><feMerge id="e99x6yk0tc5527-filter-drop-shadow-0-merge"><feMergeNode id="e99x6yk0tc5527-filter-drop-shadow-0-merge-node-1"/><feMergeNode id="e99x6yk0tc5527-filter-drop-shadow-0-merge-node-2" in="SourceGraphic"/></feMerge></filter><filter id="e99x6yk0tc5529-filter" x="-400%" width="600%" y="-400%" height="600%"><feGaussianBlur id="e99x6yk0tc5529-filter-drop-shadow-0-blur" in="SourceAlpha" stdDeviation="5,5"/><feOffset id="e99x6yk0tc5529-filter-drop-shadow-0-offset" dx="0" dy="0" result="tmp"/><feFlood id="e99x6yk0tc5529-filter-drop-shadow-0-flood" flood-color="rgb(21,231,241)"/><feComposite id="e99x6yk0tc5529-filter-drop-shadow-0-composite" operator="in" in2="tmp"/><feMerge id="e99x6yk0tc5529-filter-drop-shadow-0-merge"><feMergeNode id="e99x6yk0tc5529-filter-drop-shadow-0-merge-node-1"/><feMergeNode id="e99x6yk0tc5529-filter-drop-shadow-0-merge-node-2" in="SourceGraphic"/></feMerge></filter><filter id="e99x6yk0tc5532-filter" x="-400%" width="600%" y="-400%" height="600%"><feGaussianBlur id="e99x6yk0tc5532-filter-drop-shadow-0-blur" in="SourceAlpha" stdDeviation="5,5"/><feOffset id="e99x6yk0tc5532-filter-drop-shadow-0-offset" dx="0" dy="0" result="tmp"/><feFlood id="e99x6yk0tc5532-filter-drop-shadow-0-flood" flood-color="rgb(12,218,204)"/><feComposite id="e99x6yk0tc5532-filter-drop-shadow-0-composite" operator="in" in2="tmp"/><feMerge id="e99x6yk0tc5532-filter-drop-shadow-0-merge"><feMergeNode id="e99x6yk0tc5532-filter-drop-shadow-0-merge-node-1"/><feMergeNode id="e99x6yk0tc5532-filter-drop-shadow-0-merge-node-2" in="SourceGraphic"/></feMerge></filter><filter id="e99x6yk0tc5540-filter" x="-400%" width="600%" y="-400%" height="600%"><feGaussianBlur id="e99x6yk0tc5540-filter-drop-shadow-0-blur" in="SourceAlpha" stdDeviation="5,5"/><feOffset id="e99x6yk0tc5540-filter-drop-shadow-0-offset" dx="0" dy="0" result="tmp"/><feFlood id="e99x6yk0tc5540-filter-drop-shadow-0-flood" flood-color="rgb(7,220,211)"/><feComposite id="e99x6yk0tc5540-filter-drop-shadow-0-composite" operator="in" in2="tmp"/><feMerge id="e99x6yk0tc5540-filter-drop-shadow-0-merge"><feMergeNode id="e99x6yk0tc5540-filter-drop-shadow-0-merge-node-1"/><feMergeNode id="e99x6yk0tc5540-filter-drop-shadow-0-merge-node-2" in="SourceGraphic"/></feMerge></filter><filter id="e99x6yk0tc5549-filter" x="-400%" width="600%" y="-400%" height="600%"><feGaussianBlur id="e99x6yk0tc5549-filter-drop-shadow-0-blur" in="SourceAlpha" stdDeviation="5,5"/><feOffset id="e99x6yk0tc5549-filter-drop-shadow-0-offset" dx="0" dy="0" result="tmp"/><feFlood id="e99x6yk0tc5549-filter-drop-shadow-0-flood" flood-color="rgb(4,224,248)"/><feComposite id="e99x6yk0tc5549-filter-drop-shadow-0-composite" operator="in" in2="tmp"/><feMerge id="e99x6yk0tc5549-filter-drop-shadow-0-merge"><feMergeNode id="e99x6yk0tc5549-filter-drop-shadow-0-merge-node-1"/><feMergeNode id="e99x6yk0tc5549-filter-drop-shadow-0-merge-node-2" in="SourceGraphic"/></feMerge></filter></defs><rect id="e99x6yk0tc552" width="27.191200" height="1.294820" rx="0" ry="0" transform="matrix(0.69951000000000 -0.71459000000000 0.69951000000000 0.71459000000000 229.66399999999999 529.40400000000000)" fill="rgb(255,255,255)" stroke="none" stroke-width="1"/><rect id="e99x6yk0tc553" width="27.191200" height="1.294820" rx="0" ry="0" transform="matrix(-0.69951000000000 -0.71459000000000 0.69951000000000 -0.71459000000000 250.94900000000001 568.72699999999998)" fill="rgb(255,255,255)" stroke="none" stroke-width="1"/><rect id="e99x6yk0tc554" width="27.191200" height="1.294820" rx="0" ry="0" transform="matrix(-0.69951000000000 0.71459000000000 0.72934498008048 0.68411183897913 567.95899999999995 829.65300000000002)" fill="rgb(255,255,255)" stroke="none" stroke-width="1"/><rect id="e99x6yk0tc555" width="27.191200" height="1.294820" rx="0" ry="0" transform="matrix(-0.69951000000000 -0.71459000000000 -0.72934498008048 0.68411183897913 527.65300000000002 850.47100000000000)" fill="rgb(255,255,255)" stroke="none" stroke-width="1"/><rect id="e99x6yk0tc556" width="27.191200" height="1.294820" rx="0" ry="0" transform="matrix(0.69951000000000 -0.71459000000000 -0.72934498008048 -0.68411183897913 506.36799999999999 248.58500000000001)" fill="rgb(255,255,255)" stroke="none" stroke-width="1"/><rect id="e99x6yk0tc557" width="27.191200" height="1.294820" rx="0" ry="0" transform="matrix(0.69951000000000 0.71459000000000 0.72934498008048 -0.68411183897913 546.67399999999998 227.76700000000000)" fill="rgb(255,255,255)" stroke="none" stroke-width="1"/><rect id="e99x6yk0tc558" width="149.552000" height="3.237050" rx="0" ry="0" transform="matrix(0.69951000000000 -0.71459000000000 0.69951000000000 0.71459000000000 259.10100000000000 497.48200000000003)" fill="rgb(255,255,255)" stroke="none" stroke-width="1"/><rect id="e99x6yk0tc559" width="149.552000" height="3.237050" rx="0" ry="0" transform="matrix(-0.69951000000000 -0.71459000000000 0.69951000000000 -0.71459000000000 363.26100000000002 685.31100000000004)" fill="rgb(255,255,255)" stroke="none" stroke-width="1"/><rect id="e99x6yk0tc5510" width="149.552000" height="3.237050" rx="0" ry="0" transform="matrix(-0.69951000000000 -0.71459000000000 0.69951000000000 -0.71459000000000 678.91200000000003 362.85599999999999)" fill="rgb(71,69,69)" stroke="none" stroke-width="1"/><rect id="e99x6yk0tc5511" width="149.552000" height="3.237050" rx="0" ry="0" transform="matrix(-0.69951000000000 -0.71459000000000 0.69951000000000 -0.71459000000000 490.97100000000000 816.69899999999996)" fill="rgb(71,69,69)" stroke="none" stroke-width="1"/><rect id="e99x6yk0tc5512" width="149.552000" height="3.237050" rx="0" ry="0" transform="matrix(0.69951000000000 -0.71459000000000 0.69951000000000 0.71459000000000 574.75199999999995 819.93700000000001)" fill="rgb(71,69,69)" stroke="none" stroke-width="1"/><rect id="e99x6yk0tc5513" width="149.552000" height="3.237050" rx="0" ry="0" transform="matrix(0.69951000000000 -0.71459000000000 0.69951000000000 0.71459000000000 387.71600000000001 366.09399999999999)" fill="rgb(71,69,69)" stroke="none" stroke-width="1"/><path id="e99x6yk0tc5514" d="M741.074000,650.880000L703.820000,689.012000L706.082000,691.328000L741.074000,655.510000L741.074000,650.880000Z" clip-rule="evenodd" fill="rgb(255,255,255)" fill-rule="evenodd" stroke="none" stroke-width="1"/><path id="e99x6yk0tc5515" d="M703.820000,379.511000L741.074000,417.644000L738.812000,419.959000L703.820000,384.142000L703.820000,379.511000Z" clip-rule="evenodd" fill="rgb(255,255,255)" fill-rule="evenodd" stroke="none" stroke-width="1"/><rect id="e99x6yk0tc5516" width="48.944800" height="5" rx="0" ry="0" transform="matrix(1 0 0 1 521.19500000000005 945.33399999999995)" fill="rgb(196,196,196)" stroke="none" stroke-width="1"/><rect id="e99x6yk0tc5517" width="48.944800" height="5" rx="0" ry="0" transform="matrix(1 0 0 1 518.25800000000004 96.33390000000000)" fill="rgb(196,196,196)" stroke="none" stroke-width="1"/><rect id="e99x6yk0tc5518" width="6.852280" height="40" rx="0" ry="0" transform="matrix(1 0 0 1 538.81500000000005 134.33400000000000)" fill="rgb(255,255,255)" stroke="none" stroke-width="1"/><rect id="e99x6yk0tc5519" width="6.852280" height="40" rx="0" ry="0" transform="matrix(1 0 0 1 542.73099999999999 866.33399999999995)" fill="rgb(255,255,255)" stroke="none" stroke-width="1"/><rect id="e99x6yk0tc5520" width="2.968510" height="296.851000" rx="0" ry="0" transform="matrix(0.69952600000000 -0.71460700000000 0.69952600000000 0.71460700000000 247.10400000000001 226.04100000000000)" fill="rgb(196,196,196)" stroke="none" stroke-width="1"/><rect id="e99x6yk0tc5521" width="2.968510" height="296.851000" rx="0" ry="0" transform="matrix(-0.69952600000000 -0.71460700000000 -0.72936294441436 0.68412680435736 455.85700000000003 617.04100000000005)" fill="rgb(196,196,196)" stroke="none" stroke-width="1"/><rect id="e99x6yk0tc5522" width="54.422800" height="2.968510" rx="0" ry="0" transform="matrix(0.69952600000000 -0.71460700000000 0.69952600000000 0.71460700000000 228.50500000000000 241.22499999999999)" fill="rgb(196,196,196)" stroke="none" stroke-width="1"/><rect id="e99x6yk0tc5523" width="54.422800" height="2.968510" rx="0" ry="0" transform="matrix(-0.69952600000000 -0.71460700000000 -0.72936294441436 0.68412680435736 267.67300000000000 849.22500000000002)" fill="rgb(196,196,196)" stroke="none" stroke-width="1"/><rect id="e99x6yk0tc5524" width="474.972000" height="11.874300" rx="0" ry="0" transform="matrix(0.69882200000000 -0.71529500000000 0.69882200000000 0.71529500000000 20 339.74500000000000)" filter="url(#e99x6yk0tc5524-filter)" fill="rgb(196,196,196)" stroke="none" stroke-width="1"/><rect id="e99x6yk0tc5525" width="474.962000" height="11.874100" rx="0" ry="0" transform="matrix(-0.69952600000000 -0.71460700000000 -0.72936294441436 0.68412680435736 360.55500000000001 1060.75000000000000)" fill="rgb(196,196,196)" stroke="none" stroke-width="1"/><g id="e99x6yk0tc5526"><rect id="e99x6yk0tc5527" width="0.978897" height="284" rx="0" ry="0" transform="matrix(1 0 0 1 20.00010000000000 387.33400000000000)" filter="url(#e99x6yk0tc5527-filter)" fill="rgb(3,219,233)" stroke="none" stroke-width="1"/></g><g id="e99x6yk0tc5528" opacity="0.6"><rect id="e99x6yk0tc5529" width="1.957790" height="350" rx="0" ry="0" transform="matrix(1 0 0 1 47.40910000000000 359.33400000000000)" filter="url(#e99x6yk0tc5529-filter)" fill="rgb(3,219,233)" stroke="none" stroke-width="1"/></g><rect id="e99x6yk0tc5530" width="425.487000" height="4.947520" rx="0" ry="0" transform="matrix(0.69952600000000 -0.71460700000000 0.69952600000000 0.71460700000000 149.21400000000000 454.38999999999999)" fill="rgb(71,69,69)" stroke="none" stroke-width="1"/><rect id="e99x6yk0tc5531" width="425.487000" height="4.947520" rx="0" ry="0" transform="matrix(-0.69952600000000 -0.71460700000000 -0.72936294441436 0.68412680435736 450.31500000000000 893.38999999999999)" fill="rgb(71,69,69)" stroke="none" stroke-width="1"/><g id="e99x6yk0tc5532" filter="url(#e99x6yk0tc5532-filter)"><ellipse id="e99x6yk0tc5533" rx="2.447240" ry="2.500000" transform="matrix(1 0 0 1 478.61300000000000 46.83390000000000)" fill="rgb(3,219,233)" stroke="none" stroke-width="1"/><ellipse id="e99x6yk0tc5534" rx="2.447240" ry="2.500000" transform="matrix(1 0 0 1 497.21199999999999 46.83390000000000)" fill="rgb(3,219,233)" stroke="none" stroke-width="1"/><ellipse id="e99x6yk0tc5535" rx="2.447240" ry="2.500000" transform="matrix(1 0 0 1 518.74800000000005 46.83390000000000)" fill="rgb(3,219,233)" stroke="none" stroke-width="1"/><ellipse id="e99x6yk0tc5536" rx="2.447240" ry="2.500000" transform="matrix(1 0 0 1 539.30499999999995 46.83390000000000)" fill="rgb(3,219,233)" stroke="none" stroke-width="1"/><ellipse id="e99x6yk0tc5537" rx="2.447240" ry="2.500000" transform="matrix(1 0 0 1 563.77700000000004 46.83390000000000)" fill="rgb(3,219,233)" stroke="none" stroke-width="1"/><ellipse id="e99x6yk0tc5538" rx="2.447240" ry="2.500000" transform="matrix(1 0 0 1 583.35500000000002 46.83390000000000)" fill="rgb(3,219,233)" stroke="none" stroke-width="1"/><ellipse id="e99x6yk0tc5539" rx="2.447240" ry="2.500000" transform="matrix(1 0 0 1 602.93299999999999 46.83390000000000)" fill="rgb(3,219,233)" stroke="none" stroke-width="1"/></g><g id="e99x6yk0tc5540" filter="url(#e99x6yk0tc5540-filter)"><ellipse id="e99x6yk0tc5541" rx="2.447240" ry="2.500000" transform="matrix(1 0 0 1 478.61300000000000 1024.82999999999993)" fill="rgb(3,219,233)" stroke="none" stroke-width="1"/><ellipse id="e99x6yk0tc5542" rx="2.447240" ry="2.500000" transform="matrix(1 0 0 1 497.21199999999999 1024.82999999999993)" fill="rgb(3,219,233)" stroke="none" stroke-width="1"/><ellipse id="e99x6yk0tc5543" rx="2.447240" ry="2.500000" transform="matrix(1 0 0 1 518.74800000000005 1024.82999999999993)" fill="rgb(3,219,233)" stroke="none" stroke-width="1"/><ellipse id="e99x6yk0tc5544" rx="2.447240" ry="2.500000" transform="matrix(1 0 0 1 539.30499999999995 1024.82999999999993)" fill="rgb(3,219,233)" stroke="none" stroke-width="1"/><ellipse id="e99x6yk0tc5545" rx="2.447240" ry="2.500000" transform="matrix(1 0 0 1 563.77700000000004 1024.82999999999993)" fill="rgb(3,219,233)" stroke="none" stroke-width="1"/><ellipse id="e99x6yk0tc5546" rx="2.447240" ry="2.500000" transform="matrix(1 0 0 1 583.35500000000002 1024.82999999999993)" fill="rgb(3,219,233)" stroke="none" stroke-width="1"/><ellipse id="e99x6yk0tc5547" rx="2.447240" ry="2.500000" transform="matrix(1 0 0 1 602.93299999999999 1024.82999999999993)" fill="rgb(3,219,233)" stroke="none" stroke-width="1"/></g><g id="e99x6yk0tc5548"><rect id="e99x6yk0tc5549" width="97.889700" height="10" rx="0" ry="0" transform="matrix(1 0 0 1 102.22700000000000 521.33399999999995)" filter="url(#e99x6yk0tc5549-filter)" fill="rgb(255,251,251)" fill-opacity="0.33" stroke="none" stroke-width="1"/></g></svg>