<svg width="347" height="158" viewBox="0 0 347 158" fill="none" xmlns="http://www.w3.org/2000/svg">
<g opacity="0.46">
<path opacity="0.21" d="M18.1815 143H332" stroke="#1ABAFF"/>
<path opacity="0.21" d="M17.4546 120.482L331.273 120.482" stroke="#1ABAFF"/>
<path opacity="0.21" d="M16.7823 99.6665L330.601 99.6665" stroke="#1ABAFF"/>
<path opacity="0.21" d="M16.0832 77.9997L329.902 77.9997" stroke="#1ABAFF"/>
<path opacity="0.21" d="M15.3832 56.333L329.202 56.333" stroke="#1ABAFF"/>
<path opacity="0.21" d="M14.7119 35.5177L328.53 35.5177" stroke="#1ABAFF"/>
<path opacity="0.21" d="M13.985 13L327.804 13" stroke="#1ABAFF"/>
</g>
<path d="M332.412 13.2729H14.412V142.795H332.412V13.2729Z" stroke="#1ABAFF"/>
<path d="M14.1456 62L7 67.5001V89.5029L14.1456 95L22 89.4999V67.4971L14.1456 62Z" fill="#1ABAFF"/>
<path d="M332.146 62L325 67.5001V89.5029L332.146 95L340 89.4999V67.4971L332.146 62Z" fill="#1ABAFF"/>
<path d="M13.912 48.556L0 37.768V14.644L10.478 0H147.112L160.049 12.249C160.049 11.478 182.4 12.249 182.4 12.249L194.566 0H332.625L345.976 11.249V37.768L331.727 48.558V14.644H13.912V48.556Z" fill="#1ABAFF"/>
<path d="M14.912 109L1 119.79V142.912L11.478 157.556H148.112L161.049 145.307C161.049 146.078 183.4 145.307 183.4 145.307L195.566 157.556H333.625L346.976 146.307V119.79L332.727 109V142.912H14.912V109Z" fill="#1ABAFF"/>
<g opacity="0.46">
<path opacity="0.21" d="M53.103 13.068V143" stroke="#1ABAFF"/>
<path opacity="0.21" d="M95.103 13.068V143" stroke="#1ABAFF"/>
<path opacity="0.21" d="M133.927 13.068V143" stroke="#1ABAFF"/>
<path opacity="0.21" d="M174.339 13.068V143" stroke="#1ABAFF"/>
<path opacity="0.21" d="M214.751 13.068V143" stroke="#1ABAFF"/>
<path opacity="0.21" d="M253.576 13.068V143" stroke="#1ABAFF"/>
<path opacity="0.21" d="M295.576 13.068V143" stroke="#1ABAFF"/>
</g>
</svg>
